<svg xmlns="http://www.w3.org/2000/svg">
<defs>
<font id="GTSectraDisplay-SuperItalic" horiz-adv-x="620" >
  <font-face 
    font-family="GTSectraDisplay-SuperItalic"
    font-weight="950"
    font-style="italic"
    font-stretch="normal"
    units-per-em="1000"
    panose-1="2 0 5 3 0 0 0 9 0 3"
    ascent="750"
    descent="-250"
    x-height="495"
    cap-height="700"
    bbox="-170 -254 1977 1008"
    underline-thickness="50"
    underline-position="-50"
    slope="-12"
    unicode-range="U+000D-FB04"
  />
<missing-glyph horiz-adv-x="685" 
d="M206 331l-66 39v-7l-2 -13l1 -27v-48l64 -44l-1 60zM616 465l-8 37l-19 50l-20 36l-23 28l-34 21h-11l17 -19l25 -10l11 -11l3 -33l-25 13l-15 -29l12 -8v-19l15 3l-12 26l15 -5l10 -20l-5 -12l-8 -7h-23l-3 11l-12 2l1 -22h-14l14 -18l-7 -10l-21 5l-3 -27l41 6l8 17
l22 -2l6 -28l-16 -13v-15l8 -6l18 12h23l6 11l-18 6l-5 9l9 42h7l14 -20zM491 530l-8 -4v-9l8 -3l2 7zM380 214l-64 4v-51l64 -6v53zM394 281l-72 7l-6 -13l78 -4v10zM589 312l-6 -3l-33 -27l39 -48v78zM214 498l59 12l-4 12zM351 520l-4 -12l49 -17l3 4zM525 399l-4 7h-205
l-66 -3l-7 -9l-6 -44l-48 20l-11 -4l57 -27l1 -45l-5 -73v-91l18 4l2 40l41 -3l3 9l-44 6v16l48 -6l1 9l-47 7l1 22l43 -3l3 6l-45 9l3 94h74l11 10h-79l2 9h74l8 7h-82l2 22l117 4l140 -4v11zM414 642l-8 -9v-19l12 -6l3 17zM532 306l8 -6l8 2l20 15l13 13l11 18l-7 5h-14
l-10 3l-14 7l-17 -3q-2 -13 -3 -24q-2 -9 -2.5 -17t-0.5 -7zM206 203l-74 50l20 -23l50 -41zM515 359h-48v-13l44 4zM206 569l29 12l13 -15l-17 -20l-10 -3l17 -3h5l36 24h32l18 -12l8 3l4 14l7 5l10 -4v-18h8l10 22l11 8l-5 6l-3 8l1 21l-30 -10l-10 -8l-8 5l4 21l14 10
l11 11l38 -2l12 13l-4 8h-49l-45 -13l-53 -26l-29 -23zM635 460l-3 -41l-8 -35l-12 -31l-3 -156l-21 -7l-50 70l-27 -7l-19 -140l-32 4l-7 -4l-4 -94l30 -19l16 -14l-3 -15l-30 1l-24 18h-14l-8 8l7 76l-4 47l-61 1l-3 -52l-2 -56v-20l-15 -6l-8 6l-30 -10h-32l-1 11l11 11

<glyph glyph-name="ff" unicode="ff" horiz-adv-x="673" 
d="M301 440l-67 -381q-4 -23 -17 -44t-32 -41t-43 -39.5t-50 -39.5l-166 -130h-66l28 161h122q7 11 14 35t11 47l76 432h-66l7 25h63q6 31 22.5 54.5t38 42.5t45.5 33.5t45 28.5l145 91h248l-216 -136h-100q-11 -8 -19.5 -33.5t-13.5 -55.5l-4 -25h117q6 31 22.5 54.5
t38 42.5t45.5 33.5t45 28.5l145 91h84l-22 -136h-130q-11 -8 -19.5 -33.5t-13.5 -55.5l-4 -25h90l-5 -25h-90l-67 -381q-4 -23 -17 -44t-32 -41t-43 -39.5t-50 -39.5l-166 -130h-66l28 161h122q7 11 14 35t11 47l76 432h-118z" />
    <glyph glyph-name="fi" unicode="fi" horiz-adv-x="648" 
d="M343 579q-11 -8 -19.5 -33.5t-13.5 -55.5l-4 -25h116l164 32l27 -23l-74 -418l86 58l13 -16l-157 -116l-136 50l72 408h-116l-67 -381q-4 -23 -17 -44t-32 -41t-43 -39.5t-50 -39.5l-166 -130h-66l28 161h122q7 11 14 35t11 47l76 432h-66l7 25h63q6 31 22.5 54.5
t38 42.5t45.5 33.5t45 28.5l145 91h243l-22 -136h-289z" />
    <glyph glyph-name="fl" unicode="fl" horiz-adv-x="669" 
d="M348 32l72 408h-119l-67 -381q-4 -23 -17 -44t-32 -41t-43 -39.5t-50 -39.5l-166 -130h-66l28 161h122q7 11 14 35t11 47l76 432h-66l7 25h63q6 31 22.5 54.5t38 42.5t45.5 33.5t45 28.5l145 91h248l-117 -659l86 58l13 -16l-157 -116zM343 579q-11 -8 -19.5 -33.5
t-13.5 -55.5l-4 -25h118l20 114h-101z" />
    <glyph glyph-name="ffi" unicode="ffi" horiz-adv-x="959" 
d="M850 56l86 58l13 -16l-157 -116l-136 50l72 408h-119l-67 -381q-4 -23 -17 -44t-32 -41t-43 -39.5t-50 -39.5l-166 -130h-66l28 161h122q7 11 14 35t11 47l76 432h-118l-67 -381q-4 -23 -17 -44t-32 -41t-43 -39.5t-50 -39.5l-166 -130h-66l28 161h122q7 11 14 35t11 47
l76 432h-66l7 25h63q6 31 22.5 54.5t38 42.5t45.5 33.5t45 28.5l145 91h248l-216 -136h-100q-11 -8 -19.5 -33.5t-13.5 -55.5l-4 -25h117q6 31 22.5 54.5t38 42.5t45.5 33.5t45 28.5l145 91h246l-22 -136h-292q-11 -8 -19.5 -33.5t-13.5 -55.5l-4 -25h118l165 32l27 -23z
" />
    <glyph glyph-name="ffl" unicode="ffl" horiz-adv-x="977" 
d="M656 32l72 408h-119l-67 -381q-4 -23 -17 -44t-32 -41t-43 -39.5t-50 -39.5l-166 -130h-66l28 161h122q7 11 14 35t11 47l76 432h-118l-67 -381q-4 -23 -17 -44t-32 -41t-43 -39.5t-50 -39.5l-166 -130h-66l28 161h122q7 11 14 35t11 47l76 432h-66l7 25h63
q6 31 22.5 54.5t38 42.5t45.5 33.5t45 28.5l145 91h248l-216 -136h-100q-11 -8 -19.5 -33.5t-13.5 -55.5l-4 -25h117q6 31 22.5 54.5t38 42.5t45.5 33.5t45 28.5l145 91h248l-117 -659l86 58l13 -16l-157 -116zM651 579q-11 -8 -19.5 -33.5t-13.5 -55.5l-4 -25h118l20 114
h-101z" />
    <glyph glyph-name="Th" unicode="Th" horiz-adv-x="1106" 
d="M476 675l-97 -640l70 -10v-25h-349v25l70 10l97 640h-51l-141 -192h-25l30 217h574l156 12l32 -26l-52 -291l146 105q77 0 105 -34.5t14 -112.5l-53 -297l86 58l13 -16l-157 -116l-136 50l56 317q5 24 -4.5 34t-20.5 10t-21.5 -5t-24.5 -15l-8 -5l-65 -368h-189l119 675
h-174z" />
    <glyph glyph-name="fb" unicode="fb" horiz-adv-x="871" 
d="M602 396l165 104q45 -21 69.5 -62t24.5 -107q0 -45 -16 -88t-43.5 -80.5t-65.5 -67.5t-82 -49l-141 -61q-43 0 -85.5 16t-77.5 43l94 535h-101q-11 -8 -19.5 -33.5t-13.5 -55.5l-4 -25h70l-5 -25h-70l-67 -381q-4 -23 -17 -44t-32 -41t-43 -39.5t-50 -39.5l-166 -130h-66
l28 161h122q7 11 14 35t11 47l76 432h-66l7 25h63q6 31 22.5 54.5t38 42.5t45.5 33.5t45 28.5l145 91h247zM598 371l-54 -302q5 -10 20.5 -19.5t29.5 -9.5q19 14 32 38.5t21 52.5t12 57.5t4 54.5q0 45 -6 83t-27 62z" />
    <glyph glyph-name="ffb" unicode="ffb" horiz-adv-x="1179" 
d="M752 579h-101q-11 -8 -19.5 -33.5t-13.5 -55.5l-4 -25h70l-5 -25h-70l-67 -381q-4 -23 -17 -44t-32 -41t-43 -39.5t-50 -39.5l-166 -130h-66l28 161h122q7 11 14 35t11 47l76 432h-118l-67 -381q-4 -23 -17 -44t-32 -41t-43 -39.5t-50 -39.5l-166 -130h-66l28 161h122
q7 11 14 35t11 47l76 432h-66l7 25h63q6 31 22.5 54.5t38 42.5t45.5 33.5t45 28.5l145 91h248l-216 -136h-100q-11 -8 -19.5 -33.5t-13.5 -55.5l-4 -25h117q6 31 22.5 54.5t38 42.5t45.5 33.5t45 28.5l145 91h247l-56 -319l165 104q45 -21 69.5 -62t24.5 -107q0 -45 -16 -88
t-43.5 -80.5t-65.5 -67.5t-82 -49l-141 -61q-43 0 -85.5 16t-77.5 43zM906 371l-54 -302q5 -10 20.5 -19.5t29.5 -9.5q19 14 32 38.5t21 52.5t12 57.5t4 54.5q0 45 -6 83t-27 62z" />
    <glyph glyph-name="ffh" unicode="ffh" horiz-adv-x="1228" 
d="M542 59q-4 -23 -17 -44t-32 -41t-43 -39.5t-50 -39.5l-166 -130h-66l28 161h122q7 11 14 35t11 47l76 432h-118l-67 -381q-4 -23 -17 -44t-32 -41t-43 -39.5t-50 -39.5l-166 -130h-66l28 161h122q7 11 14 35t11 47l76 432h-66l7 25h63q6 31 22.5 54.5t38 42.5t45.5 33.5
t45 28.5l145 91h248l-216 -136h-100q-11 -8 -19.5 -33.5t-13.5 -55.5l-4 -25h117q6 31 22.5 54.5t38 42.5t45.5 33.5t45 28.5l145 91h250l-57 -320l146 105q77 0 105 -34.5t14 -112.5l-53 -297l86 58l13 -16l-157 -116l-136 50l56 317q5 24 -4.5 34t-20.5 10t-21.5 -5
t-24.5 -15l-8 -5l-65 -368h-189l101 579h-103q-11 -8 -19.5 -33.5t-13.5 -55.5l-4 -25h70l-5 -25h-70z" />
    <glyph glyph-name="ffj" unicode="ffj" horiz-adv-x="950" 
d="M609 440l-67 -381q-4 -23 -17 -44t-32 -41t-43 -39.5t-50 -39.5l-166 -130h-66l28 161h122q7 11 14 35t11 47l76 432h-118l-67 -381q-4 -23 -17 -44t-32 -41t-43 -39.5t-50 -39.5l-166 -130h-66l28 161h122q7 11 14 35t11 47l76 432h-66l7 25h63q6 31 22.5 54.5t38 42.5
t45.5 33.5t45 28.5l145 91h248l-216 -136h-100q-11 -8 -19.5 -33.5t-13.5 -55.5l-4 -25h117q6 31 22.5 54.5t38 42.5t45.5 33.5t45 28.5l145 91h243l-22 -136h-289q-11 -8 -19.5 -33.5t-13.5 -55.5l-4 -25h116l164 32l27 -23l-68 -384q-4 -20 -20 -42.5t-39.5 -46t-52 -48
t-58.5 -49.5l-164 -139h-46l28 161h128q7 20 11.5 39.5t8.5 42.5l77 432h-117z" />
    <glyph glyph-name="ffk" unicode="ffk" horiz-adv-x="1242" 
d="M651 579q-11 -8 -19.5 -33.5t-13.5 -55.5l-4 -25h70l-5 -25h-70l-67 -381q-4 -23 -17 -44t-32 -41t-43 -39.5t-50 -39.5l-166 -130h-66l28 161h122q7 11 14 35t11 47l76 432h-118l-67 -381q-4 -23 -17 -44t-32 -41t-43 -39.5t-50 -39.5l-166 -130h-66l28 161h122
q7 11 14 35t11 47l76 432h-66l7 25h63q6 31 22.5 54.5t38 42.5t45.5 33.5t45 28.5l145 91h248l-216 -136h-100q-11 -8 -19.5 -33.5t-13.5 -55.5l-4 -25h117q6 31 22.5 54.5t38 42.5t45.5 33.5t45 28.5l145 91h248l-75 -431l185 206h116l-37 -174h-204l-45 -37l198 -52
l51 -162l68 45l13 -16l-152 -112l-133 48l-63 239l-49 -269h-189l101 579h-101z" />
    <glyph glyph-name="fh" unicode="fh" horiz-adv-x="920" 
d="M234 59q-4 -23 -17 -44t-32 -41t-43 -39.5t-50 -39.5l-166 -130h-66l28 161h122q7 11 14 35t11 47l76 432h-66l7 25h63q6 31 22.5 54.5t38 42.5t45.5 33.5t45 28.5l145 91h250l-57 -320l146 105q77 0 105 -34.5t14 -112.5l-53 -297l86 58l13 -16l-157 -116l-136 50
l56 317q5 24 -4.5 34t-20.5 10t-21.5 -5t-24.5 -15l-8 -5l-65 -368h-189l101 579h-103q-11 -8 -19.5 -33.5t-13.5 -55.5l-4 -25h70l-5 -25h-70z" />
    <glyph glyph-name="fj" unicode="fj" horiz-adv-x="642" 
d="M301 440l-67 -381q-4 -23 -17 -44t-32 -41t-43 -39.5t-50 -39.5l-166 -130h-66l28 161h122q7 11 14 35t11 47l76 432h-66l7 25h63q6 31 22.5 54.5t38 42.5t45.5 33.5t45 28.5l145 91h243l-22 -136h-289q-11 -8 -19.5 -33.5t-13.5 -55.5l-4 -25h116l164 32l27 -23
l-68 -384q-4 -20 -20 -42.5t-39.5 -46t-52 -48t-58.5 -49.5l-164 -139h-46l28 161h128q7 20 11.5 39.5t8.5 42.5l77 432h-117z" />
    <glyph glyph-name="fk" unicode="fk" horiz-adv-x="934" 
d="M343 579q-11 -8 -19.5 -33.5t-13.5 -55.5l-4 -25h70l-5 -25h-70l-67 -381q-4 -23 -17 -44t-32 -41t-43 -39.5t-50 -39.5l-166 -130h-66l28 161h122q7 11 14 35t11 47l76 432h-66l7 25h63q6 31 22.5 54.5t38 42.5t45.5 33.5t45 28.5l145 91h248l-75 -431l185 206h116
l-37 -174h-204l-45 -37l198 -52l51 -162l68 45l13 -16l-152 -112l-133 48l-63 239l-49 -269h-189l101 579h-101z" />
    <glyph glyph-name="ft" unicode="ft" horiz-adv-x="693" 
d="M473 579h-130q-11 -8 -19.5 -33.5t-13.5 -55.5l-4 -25h109l5 28l176 128h36l-28 -156h99l-5 -25h-98l-70 -392l128 60l10 -17l-194 -109l-136 50l73 408h-110l-67 -381q-4 -23 -17 -44t-32 -41t-43 -39.5t-50 -39.5l-166 -130h-66l28 161h122q7 11 14 35t11 47l76 432
h-66l7 25h63q6 31 22.5 54.5t38 42.5t45.5 33.5t45 28.5l145 91h84z" />
    <glyph glyph-name="fu" unicode="fu" horiz-adv-x="909" 
d="M546 134q-2 -12 -0.5 -20t6 -13t10 -7t10.5 -2q11 0 20 4.5t18 11.5l11 8l65 369h190l-76 -429l86 58l13 -16l-157 -116l-136 50l10 57l-140 -104q-77 0 -105 34.5t-14 112.5l55 308h-111l-67 -381q-4 -23 -17 -44t-32 -41t-43 -39.5t-50 -39.5l-166 -130h-66l28 161h122
q7 11 14 35t11 47l76 432h-66l7 25h63q6 31 22.5 54.5t38 42.5t45.5 33.5t45 28.5l145 91h84l-22 -136h-130q-11 -8 -19.5 -33.5t-13.5 -55.5l-4 -25h111l164 32l27 -23z" />
    <glyph glyph-name="fy" unicode="fy" horiz-adv-x="820" 
d="M347 440h-46l-67 -381q-4 -23 -17 -44t-32 -41t-43 -39.5t-50 -39.5l-166 -130h-66l28 161h122q7 11 14 35t11 47l76 432h-66l7 25h63q6 31 22.5 54.5t38 42.5t45.5 33.5t45 28.5l145 91h84l-22 -136h-130q-11 -8 -19.5 -33.5t-13.5 -55.5l-4 -25h36l158 35l40 -24
l71 -415l137 241l-113 105l142 93l38 -30l-24 -152l-157 -278l-197 -275h-154l28 171h183l109 109l-174 -40z" />
    <glyph glyph-name="ky" unicode="ky" horiz-adv-x="1144" 
d="M862 490l73 -429l137 241l-113 105l142 93l38 -30l-24 -152l-157 -278l-197 -275h-154l28 171h183l109 109l-174 -40l-88 464h-28l-153 -153h-153l-45 -37l198 -52l51 -162l68 45l13 -16l-152 -112l-133 48l-63 239l-49 -269h-189l112 640l-84 -15l-6 20l257 67l32 -26
l-70 -402l185 206h406z" />
    <glyph glyph-name="tt" unicode="tt" horiz-adv-x="719" 
d="M441 465l5 28l176 128h36l-28 -156h99l-5 -25h-98l-70 -392l128 60l10 -17l-194 -109l-136 50l73 408h-145l-70 -392l95 39l10 -17l-161 -88l-136 50l73 408h-62l7 25h59l5 28l176 128h36l-28 -156h145z" />
    <glyph glyph-name="ty" unicode="ty" horiz-adv-x="875" 
d="M292 440l-70 -392l108 48l10 -17l-174 -97l-136 50l73 408h-62l7 25h59l5 28l176 128h36l-28 -156h101l158 35l40 -24l71 -415l137 241l-113 105l142 93l38 -30l-24 -152l-157 -278l-197 -275h-154l28 171h183l109 109l-174 -40l-82 435h-110z" />
    <glyph glyph-name="www" unicode="www" horiz-adv-x="1982" 
d="M1583 11l-6 177l-121 -203l-168 26l-8 177l-126 -203l-167 26l-6 177l-121 -203l-168 26l-8 177l-126 -203l-167 26l-6 177l-121 -203l-168 26l-19 410l-77 -22l-5 15l239 86l38 -33l19 -391l90 153l-9 194l194 65l20 -412l96 156l-10 211l158 57l38 -33l19 -391l90 153
l-9 194l194 65l20 -412l96 156l-10 211l158 57l38 -33l19 -391l90 153l-9 194l194 65l20 -412l133 217l-106 114l142 93l30 -34l-9 -129l-218 -352z" />
    <glyph glyph-name=".notdef" horiz-adv-x="685" 
d="M206 331l-66 39v-7l-2 -13l1 -27v-48l64 -44l-1 60zM616 465l-8 37l-19 50l-20 36l-23 28l-34 21h-11l17 -19l25 -10l11 -11l3 -33l-25 13l-15 -29l12 -8v-19l15 3l-12 26l15 -5l10 -20l-5 -12l-8 -7h-23l-3 11l-12 2l1 -22h-14l14 -18l-7 -10l-21 5l-3 -27l41 6l8 17
l22 -2l6 -28l-16 -13v-15l8 -6l18 12h23l6 11l-18 6l-5 9l9 42h7l14 -20zM491 530l-8 -4v-9l8 -3l2 7zM380 214l-64 4v-51l64 -6v53zM394 281l-72 7l-6 -13l78 -4v10zM589 312l-6 -3l-33 -27l39 -48v78zM214 498l59 12l-4 12zM351 520l-4 -12l49 -17l3 4zM525 399l-4 7h-205
l-66 -3l-7 -9l-6 -44l-48 20l-11 -4l57 -27l1 -45l-5 -73v-91l18 4l2 40l41 -3l3 9l-44 6v16l48 -6l1 9l-47 7l1 22l43 -3l3 6l-45 9l3 94h74l11 10h-79l2 9h74l8 7h-82l2 22l117 4l140 -4v11zM414 642l-8 -9v-19l12 -6l3 17zM532 306l8 -6l8 2l20 15l13 13l11 18l-7 5h-14
l-10 3l-14 7l-17 -3q-2 -13 -3 -24q-2 -9 -2.5 -17t-0.5 -7zM206 203l-74 50l20 -23l50 -41zM515 359h-48v-13l44 4zM206 569l29 12l13 -15l-17 -20l-10 -3l17 -3h5l36 24h32l18 -12l8 3l4 14l7 5l10 -4v-18h8l10 22l11 8l-5 6l-3 8l1 21l-30 -10l-10 -8l-8 5l4 21l14 10
l11 11l38 -2l12 13l-4 8h-49l-45 -13l-53 -26l-29 -23zM635 460l-3 -41l-8 -35l-12 -31l-3 -156l-21 -7l-50 70l-27 -7l-19 -140l-32 4l-7 -4l-4 -94l30 -19l16 -14l-3 -15l-30 1l-24 18h-14l-8 8l7 76l-4 47l-61 1l-3 -52l-2 -56v-20l-15 -6l-8 6l-30 -10h-32l-1 11l11 11
l50 21l-6 96l-98 -6l-147 140l-4 115l-13 10l-10 36v26l15 8l-3 78l92 -62l9 47l10 36l22 35l28 35l39 29l40 15l38 14h22l-68 22l4 17h7l79 -20l-4 51l16 12h32l19 -5l29 -25l32 -8l32 -10l15 -13v-20l-20 -31l30 -28l28 -32l18 -34l15 -41zM428 585l5 -6l19 11l8 -2l6 -24
h13l6 6l-9 18l17 28l-15 9v5l-25 7v-20l-13 -5v-9l-9 -6zM511 331l-54 1l-1 -24v-6l-2 -31l19 -3l-8 -61l-48 3l-8 -6l51 -5l-2 -9h-49l-4 -5l53 -7l-6 -35l27 -1l12 79l4 36l-15 3l-1 8l20 1l5 3l-28 16l2 5l30 -6l-30 15l5 5l21 -5l4 10zM384 256l-68 4v-10h68v6zM433 336
l4 30l-54 5l-3 -35h53zM394 312h-73v-10h73v10zM366 455l-7 -11h-12l-5 7l11 8l-15 2v6l-23 4l3 -17l8 -14l20 -9l13 -1l18 10l6 9l5 20l-30 2l7 -5zM102 434l57 -32l7 10l-68 38v18l59 -34l43 -28l28 -14l3 10l-103 64l-13 7l-41 33l2 -78l19 -17v-5h-21l19 -14l1 -11
l-20 7l18 -18l-4 -7l3 -97l11 -12v180zM564 386l5 7v7l-10 -4v-10h5zM244 454l1 4l14 2l-13 6l2 7l-20 -1l3 -19l14 -15l12 -6l11 5l16 12l6 12l2 13l-22 -4l6 -10l-12 -13l-14 -1z" />
    <glyph glyph-name=".null" horiz-adv-x="0" 
 />
    <glyph glyph-name=".null" horiz-adv-x="0" 
 />
    <glyph glyph-name="nonmarkingreturn" unicode="&#xd;" horiz-adv-x="360" 
 />
    <glyph glyph-name="space" unicode=" " horiz-adv-x="240" 
 />
    <glyph glyph-name="exclam" unicode="!" horiz-adv-x="401" 
d="M192 151l37 -9l-4 -74l-20 -66l-103 -7l-37 7l6 76l18 64zM297 406l-102 -171h-35l-42 170l39 305h209z" />
    <glyph glyph-name="quotedbl" unicode="&#x22;" horiz-adv-x="495" 
d="M100 404l109 145l-62 -4l-37 8l7 84l26 67l109 7l40 -7l-7 -78l-26 -73l-141 -157zM313 404l109 145l-62 -4l-37 8l7 84l26 67l109 7l40 -7l-7 -78l-26 -73l-141 -157z" />
    <glyph glyph-name="numbersign" unicode="#" horiz-adv-x="610" 
d="M466 446h139l-11 -34h-138l-52 -175h137l-12 -34h-135l-60 -203h-38l60 203h-162l-60 -203h-38l60 203h-141l11 34h140l52 175h-138l11 34h137l63 209h38l-63 -209h162l63 209h38zM204 237h162l52 175h-162z" />
    <glyph glyph-name="dollar" unicode="$" horiz-adv-x="593" 
d="M542 461h-25l-45 151q-23 18 -44.5 31t-46.5 21l-28 -163l97 -79q46 -38 72 -81.5t26 -109.5q0 -32 -11 -63.5t-33 -59.5t-53.5 -51t-72.5 -36l-116 -38l-11 -63h-25l11 63q-68 2 -115.5 18.5t-86.5 42.5l64 226h26l9 -149q20 -20 50.5 -35.5t65.5 -26.5l34 190l-65 55
q-52 44 -83 87t-31 99q0 64 41 107.5t130 82.5l86 38h4l11 63h25l-11 -64q64 -2 114.5 -14t82.5 -29zM305 231l-31 -179q37 -9 76 -9q29 31 29 78q0 17 -6 31.5t-15.5 27t-20.5 23t-21 19.5zM271 606q0 -23 14 -42t46 -45l26 151q-9 2 -18.5 3t-19.5 2q-26 -13 -37 -31
t-11 -38z" />
    <glyph glyph-name="percent" unicode="%" horiz-adv-x="814" 
d="M274 701q61 0 91.5 -33.5t30.5 -96.5q0 -30 -9 -60.5t-28 -58.5t-49.5 -51t-72.5 -37l-42 -13q-61 0 -92 33t-31 96q0 30 9 60.5t28 58.5t49.5 51t73.5 37zM622 350q61 0 91.5 -33.5t30.5 -96.5q0 -30 -9 -60.5t-28 -58.5t-49.5 -51t-72.5 -37l-42 -13q-61 0 -92 33
t-31 96q0 30 9 60.5t28 58.5t49.5 51t73.5 37zM721 705h43l-669 -710h-45zM592 320q-33 -22 -51.5 -67t-18.5 -102q0 -42 11.5 -75t38.5 -47q32 23 51.5 67.5t19.5 101.5q0 43 -11.5 76t-39.5 46zM244 671q-33 -22 -51.5 -67t-18.5 -102q0 -42 11.5 -75t38.5 -47
q32 23 51.5 67.5t19.5 101.5q0 43 -11.5 76t-39.5 46z" />
    <glyph glyph-name="ampersand" unicode="&#x26;" horiz-adv-x="667" 
d="M531 562q-17 14 -39 28.5t-45 28t-46 25t-43 19.5q-15 -20 -20 -39t-5 -49q0 -62 20.5 -101t49.5 -54l-10 -19q-33 -6 -61 -23.5t-49 -45.5t-32.5 -65.5t-11.5 -81.5q0 -73 20 -117.5t64 -55.5q19 11 32 27.5t22 39.5t16 53t15 68l5 26h-42l-19 -24h-10l27 148h274l19 24
h10l-27 -148h-44l-6 -36q-6 -32 -17 -58t-35 -48t-63 -40.5t-100 -34.5l-105 -27q-60 0 -106 14t-77 38.5t-46.5 58t-15.5 73.5q0 72 48.5 123t141.5 85l65 24q-25 3 -51.5 13.5t-48.5 28t-36.5 40.5t-14.5 50q0 31 13 53.5t37.5 39t60.5 29.5t82 25l159 42q14 -2 31.5 -6.5
t35.5 -11t35 -14.5t31 -17z" />
    <glyph glyph-name="quotesingle" unicode="'" horiz-adv-x="282" 
d="M100 403l109 145l-62 -4l-37 8l7 84l26 67l109 7l40 -7l-7 -78l-26 -73l-141 -157z" />
    <glyph glyph-name="parenleft" unicode="(" horiz-adv-x="387" 
d="M175 78q0 -89 22 -165.5t70 -137.5l-12 -13q-52 44 -89.5 86.5t-62 87t-36.5 92.5t-12 103q0 101 25.5 184.5t73 155.5t116 134t154.5 121l8 -13q-65 -58 -113 -131t-80 -155.5t-48 -171t-16 -177.5z" />
    <glyph glyph-name="parenright" unicode=")" horiz-adv-x="372" 
d="M307 357q0 -101 -25.5 -184.5t-73 -155.5t-116 -134.5t-154.5 -120.5l-8 13q64 58 112.5 131t80.5 155.5t48 171t16 177.5t-22 165.5t-70 137.5l12 13q52 -44 89.5 -86.5t62 -87t36.5 -92.5t12 -103z" />
    <glyph glyph-name="asterisk" unicode="*" horiz-adv-x="379" 
d="M239 350l1 187l-65 -187l-123 103l185 87l-192 -27l83 166l112 -134l-54 170h175l-117 -170l160 131l25 -166l-184 30l153 -87z" />
    <glyph glyph-name="plus" unicode="+" 
d="M292 0v237h-240v35h240v243h35v-243h240v-35h-240v-237h-35z" />
    <glyph glyph-name="comma" unicode="," horiz-adv-x="283" 
d="M25 -145l90 139l-45 -3l-39 9l7 89l29 75l117 9l39 -9l-6 -88l-31 -76l-136 -156z" />
    <glyph glyph-name="hyphen" unicode="-" horiz-adv-x="386" 
d="M56 312h305l-11 -65h-305z" />
    <glyph glyph-name="period" unicode="." horiz-adv-x="302" 
d="M66 164l117 9l39 -9l-6 -88l-31 -76l-116 -9l-39 9l7 89z" />
    <glyph glyph-name="slash" unicode="/" horiz-adv-x="467" 
d="M-100 -230h-40l619 948h38z" />
    <glyph glyph-name="zero" unicode="0" horiz-adv-x="623" 
d="M356 500q55 0 100 -16t76.5 -44t48.5 -67t17 -85q0 -44 -12.5 -84.5t-42 -76.5t-76.5 -66t-116 -53l-69 -23q-55 0 -100 16.5t-76.5 45t-48.5 67.5t-17 84q0 44 12.5 84.5t42 76t76.5 65.5t116 53zM311 15q21 13 36.5 38t25.5 59t15 75t5 86q0 82 -20.5 134.5t-45.5 62.5
q-42 -27 -62 -93t-20 -164q0 -40 5.5 -73.5t14.5 -59.5t21 -42.5t25 -22.5z" />
    <glyph glyph-name="one" unicode="1" horiz-adv-x="466" 
d="M41 344l-6 25l327 122h35l-81 -456l110 -10v-25h-421v25l112 10l61 346z" />
    <glyph glyph-name="two" unicode="2" horiz-adv-x="587" 
d="M550 145v-25l-69 -120h-487l-9 22l206 150q29 21 58 47t52.5 54t38 57t14.5 58q0 32 -17.5 50.5t-40.5 18.5l-11 -2l-86 -177h-121l7 134l284 88q50 0 86 -8.5t58.5 -23.5t33 -35.5t10.5 -44.5q0 -44 -26.5 -77t-66.5 -57.5t-87 -42.5t-88 -31l-107 -35h368z" />
    <glyph glyph-name="three" unicode="3" horiz-adv-x="526" 
d="M203 278h-111l7 134l263 88q47 0 78.5 -8.5t50.5 -22t26.5 -31t7.5 -36.5q-1 -30 -17.5 -55.5t-45 -45.5t-66.5 -33.5t-80 -18.5q54 -5 88 -18.5t53.5 -31.5t26.5 -39t7 -42q0 -39 -20 -70.5t-51 -57t-67 -46t-67 -35.5l-265 -132h-46l29 160h249q20 25 26 47t6 51
q0 45 -35 77.5t-91 36.5l-5 20l98 70q26 19 41.5 39.5t23.5 40t10.5 38t2.5 32.5q0 27 -11.5 45t-23.5 22l-5 -2z" />
    <glyph glyph-name="four" unicode="4" horiz-adv-x="628" 
d="M455 9h99l-6 -35h-100l-33 -189h-199l34 189h-233l-12 30l357 481h256l-4 -25l-570 -450h212l17 96l194 116h25z" />
    <glyph glyph-name="five" unicode="5" horiz-adv-x="506" 
d="M72 143l221 123q52 0 86.5 -11.5t54.5 -30t28 -41.5t8 -45q0 -44 -22 -78.5t-54 -62t-69.5 -48.5t-68.5 -39l-250 -130h-46l29 160h235q19 23 27.5 50.5t8.5 53.5q0 18 -4 36.5t-14.5 34t-29 25.5t-46.5 10q-16 0 -39.5 -6t-45.5 -17l-36 -19l-11 9l108 368h369l-48 -155
h-336z" />
    <glyph glyph-name="six" unicode="6" horiz-adv-x="568" 
d="M543 703q-78 -37 -130 -79t-85 -87.5t-49.5 -92.5t-23.5 -93l165 101q61 -14 90.5 -59.5t29.5 -101.5q0 -84 -44 -149t-139 -103l-134 -54q-36 0 -69.5 16t-60 46t-42.5 72.5t-16 95.5q0 82 36 160t102 144.5t158.5 118.5t205.5 83zM284 340q-7 0 -15.5 -3t-16.5 -8
q-2 -21 -3 -42t-1 -41q0 -72 11 -129t32 -83q21 23 33 69.5t12 97.5q0 27 -2 52t-8 44.5t-16 31t-26 11.5z" />
    <glyph glyph-name="seven" unicode="7" horiz-adv-x="548" 
d="M59 485h476l13 -20l-401 -680h-132l3 20l419 520h-404z" />
    <glyph glyph-name="eight" unicode="8" horiz-adv-x="594" 
d="M252 -18q-43 0 -81.5 9t-67.5 28t-46 47t-17 67t17 67.5t43 50.5t57.5 40t60.5 36q-22 23 -42 43t-35.5 41t-24.5 43.5t-9 49.5q0 40 18 69.5t46.5 51t65 36.5t73.5 26l104 31q43 0 78.5 -9t61.5 -25t40.5 -37t14.5 -46q0 -39 -17 -68t-43.5 -51.5t-60 -38t-66.5 -27.5
q39 -43 63 -72t37.5 -50.5t18.5 -39.5t5 -39q0 -34 -14.5 -62t-39 -51t-58.5 -42t-73 -34zM228 205q0 -27 6 -55.5t17.5 -53t26.5 -43t33 -25.5q15 15 23.5 43t8.5 53q0 13 -3.5 29.5t-14.5 38t-31 48.5t-53 62q-9 -23 -11 -46t-2 -51zM429 569q0 44 -19 76t-54 38
q-22 -15 -34.5 -40t-12.5 -51q0 -29 21.5 -64t71.5 -90q4 9 9 24.5t9 33.5t6.5 37t2.5 36z" />
    <glyph glyph-name="nine" unicode="9" horiz-adv-x="568" 
d="M35 -216q77 37 129 79t85 87t50 92t24 93l-155 -100q-66 14 -98 59t-32 102q0 85 43.5 150.5t139.5 101.5l144 54q36 0 68 -16.5t56.5 -46.5t39 -72.5t14.5 -94.5q0 -83 -36.5 -160.5t-102.5 -144t-158.5 -118.5t-204.5 -83zM287 453q-11 -10 -19 -27.5t-14 -38.5
t-9 -44.5t-3 -46.5q0 -30 3 -57t10 -47.5t17.5 -32.5t24.5 -12q12 0 29 10q2 22 3 43t1 41q0 71 -11 128.5t-32 83.5z" />
    <glyph glyph-name="colon" unicode=":" horiz-adv-x="328" 
d="M132 485l117 9l39 -9l-5 -88l-32 -76l-115 -9l-40 9l7 89zM76 164l116 9l40 -9l-6 -88l-31 -76l-116 -9l-39 9l6 89z" />
    <glyph glyph-name="semicolon" unicode=";" horiz-adv-x="319" 
d="M25 -145l100 139l-55 -3l-39 9l6 89l30 75l116 9l40 -9l-6 -88l-31 -76l-136 -156zM240 494l39 -9l-5 -88l-32 -76l-115 -9l-40 9l7 89l29 75z" />
    <glyph glyph-name="less" unicode="&#x3c;" 
d="M570 548v-40l-472 -221l472 -221v-40l-520 246v30z" />
    <glyph glyph-name="equal" unicode="=" 
d="M572 325h-525v35h525v-35zM572 130h-525v35h525v-35z" />
    <glyph glyph-name="greater" unicode="&#x3e;" 
d="M570 302v-30l-520 -246v40l472 221l-472 221v40z" />
    <glyph glyph-name="question" unicode="?" horiz-adv-x="490" 
d="M192 151l38 -9l-4 -74l-21 -66l-102 -7l-38 7l6 76l19 64zM239 381q33 22 54.5 65t21.5 96q0 23 -6 45.5t-14.5 41t-18 30.5t-17.5 15l-112 -196h-38v162l201 70q38 0 75.5 -11t67.5 -31.5t48.5 -50t18.5 -66.5q0 -69 -52 -112.5t-153 -58.5l-55 -8l-68 -152h-32l7 114z
" />
    <glyph glyph-name="at" unicode="@" horiz-adv-x="992" 
d="M524 137l24 98l-148 -162q-45 8 -78 49.5t-33 112.5q0 42 15 81.5t41 73t62 60t78 43.5l105 43l149 -45l-89 -391q35 8 67 30.5t57 60t39.5 88.5t14.5 116q0 59 -21.5 108t-60 84.5t-92 55.5t-117.5 20q-63 0 -122.5 -26t-106 -75t-75 -119.5t-28.5 -159.5q0 -90 32 -154
t82 -104t110 -58.5t117 -18.5q64 0 112.5 17.5t79.5 34.5l7 -16q-67 -37 -132 -61t-116 -37q-97 0 -175 26t-133 73t-84.5 112.5t-29.5 145.5q0 73 27.5 140t77 123.5t117.5 99t149 65.5l103 29q104 0 181.5 -19.5t129 -55t77 -86t25.5 -113.5q0 -69 -26.5 -127.5
t-73 -104.5t-110.5 -76.5t-139 -42.5zM418 305q0 -44 15.5 -72.5t41.5 -45.5l81 81l41 168l-95 45q-24 -17 -40 -38t-25.5 -44.5t-14 -47.5t-4.5 -46z" />
    <glyph glyph-name="A" unicode="A" horiz-adv-x="695" 
d="M382 234h-210l-109 -199l70 -10l-4 -25h-159l4 25l42 10l352 624l177 61l82 -685l38 -10l-4 -25h-342l4 25l72 10zM188 264h192l-21 312z" />
    <glyph glyph-name="B" unicode="B" horiz-adv-x="658" 
d="M318 45q22 14 37 34.5t24 43.5t13 46.5t4 43.5q0 27 -6 53t-17 45.5t-25.5 31.5t-31.5 12h-13l-48 -310h63zM5 0v25l40 10l95 630l-40 10v25h339q48 0 86.5 -11t65.5 -30.5t42 -46.5t15 -58q0 -24 -10.5 -48t-34 -45.5t-60 -39t-88.5 -28.5l-63 -13q123 -6 184 -48
t61 -107q0 -46 -23 -77.5t-58 -53.5t-78.5 -36.5t-83.5 -26.5l-105 -31h-284zM350 670l-43 -285h14q18 0 37.5 11t36.5 32t28 51t11 69q0 32 -7 55t-17.5 38t-23 22t-24.5 7h-12z" />
    <glyph glyph-name="C" unicode="C" horiz-adv-x="683" 
d="M433 666q-74 -36 -113.5 -114.5t-39.5 -193.5q0 -44 10.5 -90t31.5 -88t53 -76.5t75 -54.5q23 6 37.5 12.5t37.5 18.5l112 190h27l-31 -212l-264 -76q-74 0 -133.5 21.5t-100.5 61.5t-63 95.5t-22 123.5q0 59 21 120t64.5 114.5t110 96.5t158.5 66l146 37q39 0 65 -3.5
t58 -14.5l-20 -245h-25l-63 181q-32 18 -64.5 24t-67.5 6z" />
    <glyph glyph-name="D" unicode="D" horiz-adv-x="713" 
d="M5 0v25l40 10l95 630l-40 10v25h313q68 0 121.5 -18t90.5 -51.5t57 -81t20 -106.5q0 -81 -21.5 -145.5t-60.5 -114t-92.5 -84t-116.5 -55.5l-131 -44h-275zM303 45q39 28 70 71.5t52.5 96t33.5 111.5t13 118q1 45 -7 86.5t-22 73t-33 50t-41 18.5h-19l-94 -625h47z" />
    <glyph glyph-name="E" unicode="E" horiz-adv-x="606" 
d="M5 25l40 10l95 630l-40 10v25h536l-32 -200h-25l-59 175h-169l-44 -295h70l86 133h20l-46 -290h-20l-44 132h-70l-50 -330h195l109 184h25l-33 -209h-544v25z" />
    <glyph glyph-name="F" unicode="F" horiz-adv-x="581" 
d="M324 25v-25h-319v25l40 10l95 630l-40 10v25h536l-32 -200h-25l-59 175h-169l-47 -311h70l86 133h20l-46 -290h-20l-44 132h-70l-46 -304z" />
    <glyph glyph-name="G" unicode="G" horiz-adv-x="702" 
d="M302 -18q-60 0 -107 26.5t-79 67.5t-49 91.5t-17 99.5q0 63 20 126t61.5 117.5t105 97.5t149.5 67l162 43q40 0 68 -4t57 -14l-20 -245h-25l-64 181q-36 19 -66.5 24.5t-69.5 5.5q-50 -28 -79.5 -69t-44.5 -85t-19.5 -86.5t-4.5 -72.5q0 -101 31.5 -180.5t110.5 -137.5
l5 1l38 261l-40 10v25h272v-25l-27 -10l-35 -235z" />
    <glyph glyph-name="H" unicode="H" horiz-adv-x="735" 
d="M775 675l-42 -10l-96 -630l40 -10v-25h-291v25l42 10l47 313h-172l-47 -313l40 -10v-25h-291v25l42 10l95 630l-40 10v25h292v-25l-42 -10l-44 -287h171l44 287l-40 10v25h292v-25z" />
    <glyph glyph-name="I" unicode="I" horiz-adv-x="354" 
d="M394 675l-42 -10l-96 -630l40 -10v-25h-291v25l42 10l95 630l-40 10v25h292v-25z" />
    <glyph glyph-name="J" unicode="J" horiz-adv-x="351" 
d="M144 665l-40 10v25h292v-25l-42 -10l-72 -478q-11 -69 -44 -122.5t-79 -82.5l-241 -152h-43l34 150h126q12 56 19.5 96.5t13.5 84.5z" />
    <glyph glyph-name="K" unicode="K" horiz-adv-x="744" 
d="M310 389l307 276l-88 11v24h235v-24l-95 -11l-314 -274l180 -21l147 -335l27 -10v-25h-248l-155 368l-50 -333l40 -10v-25h-291v25l42 10l95 630l-40 10v25h292v-25l-42 -10z" />
    <glyph glyph-name="L" unicode="L" horiz-adv-x="558" 
d="M253 25h135l140 189h25l-34 -214h-514v25l40 10l95 630l-40 10v25h292v-25l-42 -10z" />
    <glyph glyph-name="M" unicode="M" horiz-adv-x="889" 
d="M663 700h266v-25l-42 -10l-96 -630l40 -10v-25h-291v25l42 10l90 594l-278 -634h-106l-118 632l-90 -592l50 -10v-25h-125v25l40 10l95 630l-40 10v25h277l79 -470z" />
    <glyph glyph-name="N" unicode="N" horiz-adv-x="647" 
d="M617 666l-55 10v25h130v-25l-40 -10l-100 -666h-156l-229 617l-87 -582l55 -10l-5 -25h-125v25l40 10l95 630l-40 10v25h262l186 -484z" />
    <glyph glyph-name="O" unicode="O" horiz-adv-x="749" 
d="M280 323q0 -58 7.5 -112t21.5 -96.5t34 -68.5t46 -28q67 45 93.5 139.5t26.5 219.5q0 59 -7.5 114t-21.5 97.5t-34 69t-46 28.5q-30 -19 -52.5 -54.5t-37.5 -83t-22.5 -105t-7.5 -120.5zM435 718q71 0 127.5 -23.5t95.5 -66.5t60 -103.5t21 -133.5q0 -58 -15.5 -114.5
t-50.5 -107t-91 -91.5t-137 -67l-91 -29q-71 0 -127.5 23.5t-95.5 66.5t-60 103t-21 134q0 58 15.5 114.5t50.5 107t91 91.5t137 67z" />
    <glyph glyph-name="P" unicode="P" horiz-adv-x="622" 
d="M355 339q17 16 31 39.5t24.5 51.5t16 58.5t5.5 61.5t-6.5 53.5t-17 37.5t-23 22t-24.5 7h-11l-50 -331h55zM347 294h-54l-39 -259l70 -10v-25h-319v25l40 10l95 630l-40 10v25h347q103 0 159 -41t56 -109q0 -44 -19.5 -77t-51 -58.5t-71.5 -45.5t-81 -37z" />
    <glyph glyph-name="Q" unicode="Q" horiz-adv-x="749" 
d="M435 718q71 0 127.5 -23.5t95.5 -66.5t60 -103.5t21 -133.5q0 -58 -15.5 -114.5t-50.5 -107t-91 -91.5t-137 -67l-73 -23l171 -20l99 -87l37 -16l-4 -30h-183l-143 147q-70 1 -125.5 25t-94 66.5t-59 102.5t-20.5 133q0 58 15.5 114.5t50.5 107t91 91.5t137 67zM280 323
q0 -58 7.5 -112t21.5 -96.5t34 -68.5t46 -28q67 45 93.5 139.5t26.5 219.5q0 59 -7.5 114t-21.5 97.5t-34 69t-46 28.5q-30 -19 -52.5 -54.5t-37.5 -83t-22.5 -105t-7.5 -120.5z" />
    <glyph glyph-name="R" unicode="R" horiz-adv-x="690" 
d="M335 337l210 -31l86 -271l27 -10v-25h-243l-105 332h-11l-45 -297l36 -10v-25h-285v25l40 10l95 630l-40 10v25h347q49 0 89.5 -11t69 -30.5t43.5 -46t15 -57.5q-1 -49 -24.5 -82.5t-59.5 -56.5t-78.5 -36.5t-80.5 -22.5zM344 367q42 24 66 77t24 119q0 56 -21 84t-47 28
h-15l-47 -308h40z" />
    <glyph glyph-name="S" unicode="S" horiz-adv-x="533" 
d="M337 718q75 0 133 -12.5t93 -31.5l-46 -213h-25l-45 151q-35 29 -71.5 45t-81.5 18q-26 -13 -37 -31t-11 -38q0 -24 15 -43t49 -47l115 -94q46 -38 72 -81.5t26 -109.5q0 -32 -11 -63.5t-33 -59.5t-53.5 -51t-72.5 -36l-117 -39q-78 0 -130.5 16.5t-95.5 45.5l64 226h26
l9 -149q16 -16 41 -30.5t54 -25t60.5 -16.5t60.5 -6q29 31 29 78q0 17 -6 31.5t-15.5 27t-20.5 23t-21 19.5l-97 82q-52 44 -83 87t-31 99q0 64 41 107.5t130 82.5z" />
    <glyph glyph-name="T" unicode="T" horiz-adv-x="603" 
d="M267 675h-51l-141 -192h-25l30 217h583l-34 -217h-25l-77 192h-51l-97 -640l70 -10v-25h-349v25l70 10z" />
    <glyph glyph-name="U" unicode="U" horiz-adv-x="628" 
d="M263 243q-7 -41 -1 -74.5t22.5 -57.5t43 -37.5t59.5 -13.5q64 17 101 57t49 117l68 431l-40 10v25h123v-25l-42 -10l-64 -418q-6 -41 -16 -73t-25.5 -57.5t-38.5 -44t-56 -31.5l-153 -59q-74 0 -124 19t-78 53.5t-36.5 82.5t0.5 107l63 421l-40 10v25h292v-25l-42 -10z
" />
    <glyph glyph-name="V" unicode="V" horiz-adv-x="671" 
d="M234 -13l-124 678l-40 10v25h328v-25l-70 -10l98 -546l230 546l-70 10v25h155v-25l-45 -10l-272 -636z" />
    <glyph glyph-name="W" unicode="W" horiz-adv-x="986" 
d="M533 388l-135 -360l-183 -46l-105 683l-40 10v25h318v-25l-70 -10l80 -532l123 330l-31 202l-40 10v25h318v-25l-70 -10l80 -532l198 532l-70 10v25h150v-25l-40 -10l-238 -637l-183 -46z" />
    <glyph glyph-name="X" unicode="X" horiz-adv-x="716" 
d="M177 0h-202v25l85 10l228 274l-180 356l-38 12v23h304v-25l-42 -10l110 -217l179 217l-67 10v25h187v-25l-70 -10l-212 -251l191 -379l36 -10v-25h-297v25l37 10l-122 241l-193 -241l66 -10v-25z" />
    <glyph glyph-name="Y" unicode="Y" horiz-adv-x="674" 
d="M463 321l195 344l-72 10v25h158v-25l-45 -10l-229 -400l-35 -230l70 -10v-25h-351v25l72 10l37 244l-160 386l-33 12v23h318v-25l-57 -10z" />
    <glyph glyph-name="Z" unicode="Z" horiz-adv-x="677" 
d="M619 224h20l-36 -224h-598v15l444 660h-173l-142 -194h-25l35 219h558v-15l-442 -660h205z" />
    <glyph glyph-name="bracketleft" unicode="[" horiz-adv-x="354" 
d="M217 -205l-5 -25h-207l166 945h208l-5 -25l-94 -10l-155 -875z" />
    <glyph glyph-name="backslash" unicode="\" horiz-adv-x="414" 
d="M143 718l286 -948h-40l-284 948h38z" />
    <glyph glyph-name="bracketright" unicode="]" horiz-adv-x="304" 
d="M193 680l-92 10l5 25h208l-167 -945h-207l5 25l93 10z" />
    <glyph glyph-name="asciicircum" unicode="^" horiz-adv-x="391" 
d="M257 666l-146 -206h-36l176 245h25l90 -245h-36z" />
    <glyph glyph-name="underscore" unicode="_" horiz-adv-x="592" 
d="M-13 -65h555l-7 -35h-555z" />
    <glyph glyph-name="grave" unicode="`" horiz-adv-x="397" 
d="M90 745h150v-178h-31z" />
    <glyph glyph-name="a" unicode="a" horiz-adv-x="568" 
d="M222 245q0 -39 6 -70t23 -55l35 26l47 267q-10 8 -23.5 13t-26.5 5q-16 -15 -27.5 -37t-19 -47.5t-11 -52t-3.5 -49.5zM460 57l85 57l13 -16l-154 -116l-138 50l15 84l-154 -131q-45 21 -73.5 60t-28.5 111q0 49 19 91t51.5 77.5t75.5 65t92 53.5l112 57q38 0 75.5 -9.5
t80.5 -32.5z" />
    <glyph glyph-name="b" unicode="b" horiz-adv-x="551" 
d="M49 625l-6 20l258 67l32 -26l-51 -290l165 104q45 -21 69.5 -62t24.5 -107q0 -45 -16 -88t-43.5 -80.5t-65.5 -67.5t-82 -49l-141 -61q-43 0 -85.5 16t-77.5 43l105 596zM278 371l-54 -302q5 -10 20.5 -19.5t29.5 -9.5q19 14 32 38.5t21 52.5t12 57.5t4 54.5q0 45 -6 83
t-27 62z" />
    <glyph glyph-name="c" unicode="c" horiz-adv-x="467" 
d="M205 -15q-36 3 -68.5 17.5t-57 38.5t-39.5 57.5t-15 74.5q0 46 14 81.5t40 64t64 53t86 49.5l151 79q19 -2 48.5 -13t48.5 -24l-87 -133q-19 12 -35 22t-32.5 19t-34.5 17.5t-39 17.5q-17 -29 -22 -59.5t-5 -62.5q0 -25 6.5 -52t19 -52t31 -47t43.5 -37l97 60l12 -16
q-27 -20 -48.5 -35t-51.5 -35z" />
    <glyph glyph-name="d" unicode="d" horiz-adv-x="584" 
d="M270 32l14 84l-146 -131q-53 23 -83 70t-30 116q0 48 16.5 89t44.5 75t65 61.5t78 48.5l104 55q5 0 8.5 -1.5t8.5 -3.5l26 145l-86 -15l-6 20l258 67l32 -26l-111 -630l86 58l13 -16l-154 -116zM289 147l47 266q-32 29 -71 29q-10 -17 -18 -39t-13.5 -46.5t-8.5 -50.5
t-3 -51q0 -43 8.5 -73t28.5 -58z" />
    <glyph glyph-name="e" unicode="e" horiz-adv-x="482" 
d="M218 229q14 -42 41.5 -78.5t69.5 -53.5q29 14 57.5 28.5t60.5 33.5l12 -16q-32 -21 -58.5 -37.5t-58.5 -36.5l-134 -84q-39 3 -72.5 19t-58 41.5t-38.5 60t-14 75.5q0 38 9 74.5t30 69t54.5 60t83.5 48.5l162 67q25 -3 45 -14.5t34 -28t21.5 -38t7.5 -43.5
q0 -19 -2.5 -36.5t-14.5 -38.5zM207 299q0 -25 6 -52l51 21q8 21 8.5 40.5t0.5 36.5q0 14 -3 27.5t-8 25t-11.5 19.5t-13.5 11q-10 -11 -16 -26.5t-9.5 -33.5t-4 -36t-0.5 -33z" />
    <glyph glyph-name="f" unicode="f" horiz-adv-x="365" 
d="M115 465q6 31 22.5 54.5t38 42.5t45.5 33.5t45 28.5l145 91h84l-22 -136h-130q-11 -8 -19.5 -33.5t-13.5 -55.5l-4 -25h90l-5 -25h-90l-67 -381q-4 -23 -17 -44t-32 -41t-43 -39.5t-50 -39.5l-166 -130h-66l28 161h122q7 11 14 35t11 47l76 432h-66l7 25h63z" />
    <glyph glyph-name="g" unicode="g" horiz-adv-x="572" 
d="M5 -235l29 171h231q5 13 8.5 26.5t6.5 31.5l22 122l-144 -126q-54 21 -85.5 65.5t-31.5 109.5q0 49 18 89t50 74t75.5 62t94.5 53l114 57q38 0 77 -9.5t82 -32.5l-65 -366q-4 -22 -25.5 -46t-55 -50t-75 -53.5t-85.5 -55.5l-187 -122h-54zM234 245q0 -44 8.5 -71
t30.5 -53l34 25l47 267q-23 18 -55 18q-16 -16 -28 -38t-20.5 -47.5t-12.5 -51.5t-4 -49z" />
    <glyph glyph-name="h" unicode="h" horiz-adv-x="605" 
d="M219 0h-189l112 640l-84 -15l-6 20l257 67l32 -26l-52 -291l146 105q77 0 105 -34.5t14 -112.5l-53 -297l86 58l13 -16l-157 -116l-136 50l56 317q5 24 -4.5 34t-20.5 10t-21.5 -5t-24.5 -15l-8 -5z" />
    <glyph glyph-name="i" unicode="i" horiz-adv-x="337" 
d="M174 700l49 8l103 -8v-82l-25 -65l-45 -10l-111 10l3 73zM34 32l67 379l-71 -21l-5 20l250 87l27 -23l-74 -418l86 58l13 -16l-157 -116z" />
    <glyph glyph-name="j" unicode="j" horiz-adv-x="342" 
d="M185 700l49 8l103 -8v-82l-25 -65l-45 -10l-111 10l3 73zM112 411l-71 -21l-5 20l250 87l27 -23l-68 -384q-4 -20 -20 -42.5t-39.5 -46t-52 -48t-58.5 -49.5l-164 -139h-46l28 161h128q7 20 11.5 39.5t8.5 42.5z" />
    <glyph glyph-name="k" unicode="k" horiz-adv-x="621" 
d="M331 30l-63 239l-49 -269h-189l112 640l-84 -15l-6 20l257 67l32 -26l-70 -402l185 206h116l-37 -174h-204l-45 -37l198 -52l51 -162l68 45l13 -16l-152 -112z" />
    <glyph glyph-name="l" unicode="l" horiz-adv-x="356" 
d="M35 32l107 608l-84 -15l-6 20l257 67l32 -26l-112 -630l86 58l13 -16l-157 -116z" />
    <glyph glyph-name="m" unicode="m" horiz-adv-x="864" 
d="M566 32l55 322q5 24 -3 31.5t-16 7.5t-15.5 -4.5t-15.5 -10.5l-23 -19l-65 -359h-191l63 354q5 24 -3 31.5t-16 7.5t-15.5 -4.5t-15.5 -10.5l-23 -19l-64 -359h-189l72 411l-70 -21l-6 20l250 87l27 -23l-16 -89l142 115q69 0 98.5 -27.5t24.5 -88.5l143 116
q77 0 105 -34.5t14 -112.5l-53 -297l86 58l13 -16l-157 -116z" />
    <glyph glyph-name="n" unicode="n" horiz-adv-x="602" 
d="M218 0h-189l72 411l-70 -21l-6 20l250 87l27 -23l-14 -78l144 104q77 0 105 -34.5t14 -112.5l-53 -297l86 58l13 -16l-157 -116l-136 50l56 317q5 24 -4.5 34t-20.5 10t-21.5 -5t-24.5 -15l-6 -4z" />
    <glyph glyph-name="o" unicode="o" horiz-adv-x="549" 
d="M270 455q-12 -15 -21 -39.5t-15 -54.5t-9 -64t-3 -69q0 -84 21.5 -134t50.5 -64q12 15 21 39.5t15 54.5t9 64t3 69q0 84 -21.5 134t-50.5 64zM326 500q46 0 85 -12.5t67.5 -37t44.5 -61t16 -85.5q0 -41 -11 -80t-35 -74.5t-61.5 -66t-90.5 -53.5l-103 -45q-46 0 -85 12.5
t-67.5 37t-44.5 61t-16 85.5q0 40 11 79.5t35 75t61.5 66t90.5 53.5z" />
    <glyph glyph-name="p" unicode="p" horiz-adv-x="574" 
d="M194 -230h-189l113 641l-71 -21l-5 20l250 87l27 -23l-13 -73l155 99q48 -11 75.5 -57t27.5 -112q0 -45 -12 -88t-35 -80.5t-57 -69t-78 -52.5l-113 -56l-34 15zM301 371l-56 -311q14 -12 31 -18.5t31 -6.5q16 15 27 39.5t18 54t10.5 59.5t3.5 55q0 42 -7 79.5t-28 62.5z
" />
    <glyph glyph-name="q" unicode="q" horiz-adv-x="549" 
d="M284 117l-146 -132q-53 23 -83 68.5t-30 117.5q0 48 16.5 90t44 77t64.5 63t79 49l102 50q22 0 50.5 -3.5t56.5 -9t53.5 -13t42.5 -15.5l-122 -689h-189zM339 428q-13 10 -32 15.5t-35 5.5q-15 -17 -24.5 -40t-15 -48.5t-8 -53t-2.5 -52.5q0 -43 8.5 -72t28.5 -57l30 21z
" />
    <glyph glyph-name="r" unicode="r" horiz-adv-x="465" 
d="M28 0l73 411l-71 -21l-5 20l250 87l27 -23l-35 -197l138 213h80l-32 -184h-145l-49 -72l-41 -234h-190z" />
    <glyph glyph-name="s" unicode="s" horiz-adv-x="425" 
d="M141 -15q-16 3 -36 8t-39 10.5t-35.5 11t-25.5 9.5l56 128q40 -20 90 -49t104 -55q10 9 10 22q0 11 -6 21t-22 20l-119 73q-35 22 -54.5 50t-19.5 61q0 38 23.5 76.5t85.5 70.5l115 58q31 -3 66.5 -14.5t85.5 -31.5l-69 -123q-42 26 -87.5 53.5t-90.5 50.5q-6 -7 -6 -19
q0 -13 6.5 -23.5t28.5 -24.5l116 -72q41 -25 54 -52t13 -62q0 -26 -8.5 -48t-23.5 -39.5t-34.5 -30.5t-41.5 -22z" />
    <glyph glyph-name="t" unicode="t" horiz-adv-x="385" 
d="M350 108l10 -17l-194 -109l-136 50l73 408h-62l7 25h59l5 28l176 128h36l-28 -156h99l-5 -25h-98l-70 -392z" />
    <glyph glyph-name="u" unicode="u" horiz-adv-x="603" 
d="M580 114l13 -16l-157 -116l-136 50l10 57l-140 -104q-77 0 -105 34.5t-14 112.5l50 279l-71 -21l-5 20l250 87l27 -23l-62 -340q-2 -12 -0.5 -20t6 -13t10 -7t10.5 -2q11 0 20 4.5t18 11.5l11 8l65 369h190l-76 -429z" />
    <glyph glyph-name="v" unicode="v" horiz-adv-x="520" 
d="M0 399l-5 15l239 86l38 -33l10 -431l152 242l-114 131l160 91l35 -34l-24 -148l-209 -333l-186 26l-19 410z" />
    <glyph glyph-name="w" unicode="w" horiz-adv-x="790" 
d="M391 11l-6 177l-121 -203l-168 26l-19 410l-77 -22l-5 15l239 86l38 -33l19 -391l90 153l-9 194l194 65l20 -412l133 217l-106 114l142 93l30 -34l-9 -129l-218 -352z" />
    <glyph glyph-name="x" unicode="x" horiz-adv-x="565" 
d="M533 111l12 -17l-163 -112l-128 48l-42 147l-79 -177h-138l32 184h174l6 11l-68 239l-93 -32l-7 20l247 86l35 -23l48 -167l70 172h146l-32 -184h-174l-5 -7l70 -244z" />
    <glyph glyph-name="y" unicode="y" horiz-adv-x="534" 
d="M-8 395l-7 20l229 85l40 -24l71 -415l137 241l-113 105l142 93l38 -30l-24 -152l-157 -278l-197 -275h-154l28 171h183l109 109l-174 -40l-78 412z" />
    <glyph glyph-name="z" unicode="z" horiz-adv-x="507" 
d="M431 143l39 29l15 -8l-101 -181l-330 48l-49 -36l-20 9l330 311l-214 14l-32 -30l-17 11l103 185l319 -23l26 14l17 -12l-311 -298z" />
    <glyph glyph-name="braceleft" unicode="{" horiz-adv-x="384" 
d="M50 269q27 13 42.5 25.5t24 26t12.5 29t8 35.5l33 190q6 32 23.5 58t43 44t56.5 28t63 10h48l-5 -25h-28q-29 0 -51 -22.5t-33 -82.5l-32 -180q-4 -21 -9.5 -40t-16 -35.5t-28 -29.5t-44.5 -23l64 -67l-55 -310q-5 -30 -3.5 -50t8 -32.5t18 -17.5t25.5 -5h28l-5 -25h-58
q-66 0 -101.5 38t-24.5 102l50 285l-53 69v5v0z" />
    <glyph glyph-name="bar" unicode="|" horiz-adv-x="364" 
d="M259 718h35l-169 -963h-35z" />
    <glyph glyph-name="braceright" unicode="}" horiz-adv-x="336" 
d="M242 188l-49 -278q-6 -32 -23.5 -58t-43 -44t-56 -28t-62.5 -10h-48l5 25h28q28 0 50 22.5t33 82.5l53 302l88 67q-24 10 -36.5 23t-17.5 29.5t-4 35.5t5 40l33 188q5 30 3.5 50t-8 32.5t-18 17.5t-25.5 5h-28l5 25h58q66 0 101.5 -38t24.5 -102l-35 -198
q-3 -20 -4.5 -35.5t2 -29t15 -26t33.5 -25.5v-5z" />
    <glyph glyph-name="asciitilde" unicode="~" horiz-adv-x="653" 
d="M131 280l-66 -75h-25l51 80l104 37l342 -82l66 75h25l-51 -80l-104 -37z" />
    <glyph glyph-name="nonbreakingspace" unicode="&#xa0;" horiz-adv-x="0" 
 />
    <glyph glyph-name="exclamdown" unicode="&#xa1;" horiz-adv-x="331" 
d="M59 59l102 171h35l42 -170l-39 -305h-209zM164 314l-37 9l4 74l20 66l103 7l37 -7l-6 -76l-18 -64z" />
    <glyph glyph-name="cent" unicode="&#xa2;" horiz-adv-x="507" 
d="M446 140q-27 -20 -48.5 -35t-51.5 -35l-102 -69l-14 -81h-25l11 66q-35 4 -67 18t-56 38t-38.5 57t-14.5 74q0 46 14 81.5t40 64t64 53t86 49.5l78 41l16 88h25l-14 -74l46 24q19 -2 48.5 -13t48.5 -24l-87 -133q-19 12 -35 22t-32.5 19t-34.5 17.5t-39 17.5
q-17 -29 -22 -59.5t-5 -62.5q0 -25 6.5 -52t19 -52t31 -47t43.5 -37l97 60l12 -16v0z" />
    <glyph glyph-name="sterling" unicode="&#xa3;" horiz-adv-x="583" 
d="M384 650q-13 -9 -24.5 -27t-15.5 -38l-37 -205h121l-4 -25h-121l-31 -176q-5 -29 -13 -51.5t-19.5 -39.5t-26.5 -31t-35 -27h193l114 164h25l-35 -194h-465l5 25l42 10l56 320h-40l4 25h40l17 84q12 59 53 99t97 67l173 85q15 -2 35.5 -9t41 -15.5t38 -18t26.5 -15.5
l-64 -97q-37 33 -72.5 55t-77.5 35z" />
    <glyph glyph-name="currency" unicode="&#xa4;" 
d="M130 324q0 -34 11 -62t31.5 -48.5t48.5 -32t63 -11.5q39 0 76 16.5t66 45t47 66.5t18 80q0 33 -11.5 61t-32.5 48.5t-50.5 32t-65.5 11.5q-40 0 -76.5 -17t-64 -45.5t-44 -66t-16.5 -78.5zM110 321q0 98 68 162l-61 75l17 14l61 -75q30 23 66.5 37t74.5 14q37 0 72 -13
t58 -36l86 73l11 -14l-85 -72q16 -20 25 -49t9 -59q0 -47 -18.5 -87t-52.5 -72l56 -67l-17 -14l-55 67q-32 -25 -68.5 -39t-75.5 -14q-40 0 -75 14.5t-58 40.5l-81 -69l-11 14l81 69q-13 20 -20 46.5t-7 53.5z" />
    <glyph glyph-name="yen" unicode="&#xa5;" horiz-adv-x="679" 
d="M468 321l195 344l-72 10v25h158v-25l-45 -10l-218 -381h117l-6 -30h-124l-10 -64h118l-6 -30h-116l-19 -125l70 -10v-25h-351v25l72 10l19 125h-120l6 30h118l10 64h-112l6 30h108l-158 381l-33 12v23h318v-25l-57 -10z" />
    <glyph glyph-name="brokenbar" unicode="&#xa6;" horiz-adv-x="364" 
d="M184 288l75 430h35l-75 -430h-35zM165 185h35l-75 -430h-35z" />
    <glyph glyph-name="section" unicode="&#xa7;" horiz-adv-x="593" 
d="M449 -25q0 -21 -5.5 -43t-23 -44.5t-50.5 -45t-88 -45.5l-105 -42q-14 0 -35.5 8t-44 20t-44 27t-36.5 30l73 111q14 -17 36.5 -38.5t47.5 -42t48.5 -37.5t40.5 -25q17 19 22 34t5 33q1 44 -22 83t-84 86q-24 18 -48.5 38t-44.5 43t-33 50t-13 60q0 40 12.5 69.5t32 50
t44 33t48.5 17.5q-15 14 -28 40.5t-13 63.5q0 33 15 62t41 52t61 40t76 27l105 25q13 0 31 -6.5t37.5 -16.5t37.5 -23.5t32 -28.5l-89 -70q-8 13 -23 28.5t-33 30.5t-37.5 27.5t-35.5 20.5q-32 -20 -46.5 -43.5t-14.5 -51.5q0 -32 16.5 -55.5t55.5 -55.5l178 -145v-73
q0 -37 -16.5 -63t-40.5 -43.5t-51 -28.5t-48 -18q25 -17 41 -48.5t16 -76.5zM297 305q-38 32 -63.5 52.5t-32.5 28.5q-15 -12 -20.5 -29t-5.5 -32q0 -20 7.5 -36.5t22.5 -33.5t38 -36t54 -43l76 -61q16 11 26.5 30.5t10.5 44.5v20z" />
    <glyph glyph-name="dieresis" unicode="&#xa8;" horiz-adv-x="502" 
d="M209 721l32 -7l-3 -64l-24 -55l-80 -7l-33 7l4 65l22 54zM409 721l33 -7l-4 -64l-23 -55l-81 -7l-32 7l3 65l23 54z" />
    <glyph glyph-name="copyright" unicode="&#xa9;" horiz-adv-x="862" 
d="M442 -15q-77 1 -146 26t-121.5 72.5t-83.5 116t-31 156.5q0 79 27.5 140.5t77 106t119.5 72.5t156 40q76 -1 145.5 -26t122 -72.5t83.5 -116t31 -156.5q0 -79 -27.5 -140.5t-77 -106t-120 -72.5t-155.5 -40zM440 12q60 0 114 22.5t95 65t65 104t24 140.5q0 89 -29 154
t-73.5 107t-96.5 62.5t-97 20.5q-59 0 -113 -22.5t-95 -65t-65.5 -104t-24.5 -140.5q0 -89 29 -154t73.5 -107t96.5 -62.5t97 -20.5zM618 306v-125q-21 -8 -39 -14.5t-35.5 -11.5t-37.5 -8t-46 -5q-50 0 -94 12t-77 36t-52 61t-19 87q0 102 66 155t187 66q26 0 46 -2.5
t36.5 -7t31.5 -11.5t31 -16v-123h-15l-66 114q-24 31 -59 31q-46 0 -74 -47t-28 -144q0 -90 26 -142t75 -52q18 0 32.5 7t27.5 18l67 122h16z" />
    <glyph glyph-name="ordfeminine" unicode="&#xaa;" horiz-adv-x="447" 
d="M202 518q0 -30 4.5 -54t18.5 -42l27 20l36 206q-8 6 -18 10t-20 4q-13 -12 -22 -29t-15 -36.5t-8.5 -40t-2.5 -38.5zM386 373l66 44l10 -12l-119 -90l-107 39l12 65l-119 -102q-35 17 -57 46.5t-22 85.5q0 38 14.5 70.5t40 60t58.5 50t71 41.5l87 44q29 0 58 -7t62 -25z
" />
    <glyph glyph-name="guillemotleft" unicode="&#xab;" horiz-adv-x="484" 
d="M177 15l-142 220l221 220h35l-166 -221l89 -219h-37zM365 15l-142 220l221 220h35l-166 -221l89 -219h-37z" />
    <glyph glyph-name="logicalnot" unicode="&#xac;" 
d="M567 180h-35v135h-480v35h515v-170z" />
    <glyph glyph-name="softhyphen" unicode="&#xad;" horiz-adv-x="386" 
d="M56 312h305l-11 -65h-305z" />
    <glyph glyph-name="registered" unicode="&#xae;" horiz-adv-x="582" 
d="M293 428v-114l16 -3v-10h-120v10l17 3v244l-17 3v10h162q35 0 60.5 -16.5t25.5 -49.5t-29 -53t-91 -23l90 -17l48 -98l13 -3v-10h-107l-51 127h-17zM293 438h5q21 0 32.5 17t11.5 46q0 25 -10.5 42.5t-27.5 17.5l-11 -3v-120zM317 185q-51 0 -96.5 17.5t-80 50t-55 79.5
t-20.5 107q0 54 18 96t51 72.5t79 50t102 27.5q51 0 96.5 -17.5t80 -49.5t55 -79.5t20.5 -107.5q0 -54 -18 -96t-51 -72.5t-79 -50t-102 -27.5zM315 202q42 0 80 14t67 42.5t46 71.5t17 101q0 65 -20.5 110t-52 73.5t-68 41t-67.5 12.5q-42 0 -80 -14t-67 -42.5t-46 -71.5
t-17 -101q0 -65 20.5 -110t52 -73t67.5 -41t68 -13z" />
    <glyph glyph-name="macron" unicode="&#xaf;" horiz-adv-x="467" 
d="M94 680h300l-15 -80h-300z" />
    <glyph glyph-name="degree" unicode="&#xb0;" horiz-adv-x="316" 
d="M65 593q0 65 42 100.5t119 59.5q33 0 62 -13t50.5 -34.5t34.5 -50.5t13 -62q0 -66 -37.5 -104t-122.5 -57q-33 0 -62 13t-51 35t-35 51t-13 62zM139 593q0 -18 7 -33.5t19 -27.5t27.5 -19t33.5 -7t33.5 7t27 19t18.5 27.5t7 33.5t-7 33.5t-18.5 27t-27 18.5t-33.5 7
t-33.5 -7t-27.5 -18.5t-19 -27t-7 -33.5z" />
    <glyph glyph-name="plusminus" unicode="&#xb1;" 
d="M292 129v237h-240v35h240v243h35v-243h240v-35h-240v-237h-35zM47 35h525v-35h-525v35z" />
    <glyph glyph-name="twosuperior" unicode="&#xb2;" horiz-adv-x="369" 
d="M383 485v-13l-48 -72h-290l-5 12l115 94q23 19 45.5 39.5t40 43t28 49t10.5 57.5q0 27 -9.5 49t-26.5 29l-2 -1l-52 -99h-72v74l156 48q72 0 101.5 -26t29.5 -64q0 -29 -13 -52.5t-34 -42.5t-48 -35.5t-55 -31.5l-106 -58h235z" />
    <glyph glyph-name="threesuperior" unicode="&#xb3;" horiz-adv-x="336" 
d="M177 673h-67l5 74l157 48q57 0 78 -16.5t20 -37.5q0 -16 -10 -30t-27 -25t-40 -18.5t-48 -10.5q32 -3 52.5 -10.5t32 -17t16 -21t4.5 -23.5q0 -21 -12 -38.5t-30.5 -32t-40 -25.5t-40.5 -19l-159 -73h-28l18 88h149q12 14 15.5 26t3.5 28q0 25 -21 43t-54 20l-3 11l58 38
q31 21 39 44t8 39q0 15 -6.5 25t-14.5 12l-3 -1z" />
    <glyph glyph-name="acute" unicode="&#xb4;" horiz-adv-x="482" 
d="M211 745h150l-181 -178h-35z" />
    <glyph glyph-name="uni00B5" unicode="&#xb5;" 
d="M138 411l-71 -21l-5 20l250 87l27 -23l-62 -340q-2 -12 -0.5 -20t6 -13t10 -7t10.5 -2q11 0 20 4.5t18 11.5l11 8l65 369h190l-76 -429l86 58l13 -16l-157 -116l-136 50l10 57l-140 -104q-84 0 -112 46l-6 -52l98 -209h-154z" />
    <glyph glyph-name="paragraph" unicode="&#xb6;" horiz-adv-x="594" 
d="M294 360q-38 0 -79.5 10t-76 31t-56.5 54t-22 79q0 37 16.5 66.5t43 51t59.5 33.5t66 15h299v-25l-45 -10v-825h-35v835h-135v-835h-35v520z" />
    <glyph glyph-name="periodcentered" unicode="&#xb7;" horiz-adv-x="475" 
d="M327 481l38 -9l-4 -74l-21 -66l-102 -7l-38 7l6 76l19 64z" />
    <glyph glyph-name="cedilla" unicode="&#xb8;" horiz-adv-x="833" 
d="M436 21l-37 -56q24 -4 40.5 -12.5t26.5 -20t14 -24t4 -24.5q0 -20 -12 -34.5t-30.5 -25.5t-41.5 -20t-45 -18l-86 -36h-32l41 65h91q6 9 9.5 18.5t3.5 21.5q0 30 -13.5 38t-33.5 12l80 122z" />
    <glyph glyph-name="onesuperior" unicode="&#xb9;" horiz-adv-x="303" 
d="M105 707l-4 14l196 67h21l-71 -369l66 -5v-14h-253v14l67 5l60 308z" />
    <glyph glyph-name="ordmasculine" unicode="&#xba;" horiz-adv-x="429" 
d="M245 680q-9 -12 -16 -30.5t-11.5 -42t-7 -50t-2.5 -53.5q0 -65 16.5 -104t39.5 -50q9 12 16 30.5t11.5 42t7 50.5t2.5 54q0 65 -16.5 103.5t-39.5 49.5zM289 715q36 0 66 -9.5t52 -28.5t34.5 -47.5t12.5 -66.5q0 -63 -35.5 -120t-117.5 -93l-80 -35q-36 0 -66 9.5
t-52.5 29t-35 48t-12.5 66.5q0 62 35.5 119t118.5 93z" />
    <glyph glyph-name="guillemotright" unicode="&#xbb;" horiz-adv-x="484" 
d="M357 234l-88 221h35l145 -220l-220 -220h-37zM169 234l-88 221h35l145 -220l-220 -220h-36z" />
    <glyph glyph-name="onequarter" unicode="&#xbc;" horiz-adv-x="767" 
d="M85 622l-4 14l196 67h21l-71 -369l66 -5v-14h-253v14l67 5l60 308zM599 123h60l-4 -19h-60l-20 -104h-119l20 104h-139l-8 16l215 265h153l-2 -14l-342 -247h127l10 53l117 63h15zM142 -50h-38l521 760h36z" />
    <glyph glyph-name="onehalf" unicode="&#xbd;" horiz-adv-x="806" 
d="M139 -50h-38l521 760h36zM85 622l-4 14l196 67h21l-71 -369l66 -5v-14h-253v14l67 5l60 308zM710 85v-13l-48 -72h-290l-5 12l115 94q23 19 45.5 39.5t40 43t28 49t10.5 57.5q0 27 -9.5 49t-26.5 29l-2 -1l-52 -99h-72v74l156 48q72 0 101.5 -26t29.5 -64
q0 -29 -13 -52.5t-34 -42.5t-48 -35.5t-55 -31.5l-106 -58h235z" />
    <glyph glyph-name="threequarters" unicode="&#xbe;" horiz-adv-x="727" 
d="M115 -50h-38l521 760h36zM177 588h-67l5 74l157 48q57 0 78 -16.5t20 -37.5q0 -16 -10 -30t-27 -25t-40 -18.5t-48 -10.5q32 -3 52.5 -10.5t32 -17t16 -21t4.5 -23.5q0 -21 -12 -38.5t-30.5 -32t-40 -25.5t-40.5 -19l-159 -73h-28l18 88h149q12 14 15.5 26t3.5 28
q0 25 -21 43t-54 20l-3 11l58 38q31 21 39 44t8 39q0 15 -6.5 25t-14.5 12l-3 -1zM559 123h60l-4 -19h-60l-20 -104h-119l20 104h-139l-8 16l215 265h153l-2 -14l-342 -247h127l10 53l117 63h15z" />
    <glyph glyph-name="questiondown" unicode="&#xbf;" horiz-adv-x="450" 
d="M313 314l-38 9l4 74l21 66l102 7l38 -7l-6 -76l-19 -64zM313 245h32l-7 -114l-72 -47q-33 -22 -54.5 -65t-21.5 -96q0 -23 6 -45.5t14.5 -41t18 -30.5t17.5 -15l112 196h38v-162l-201 -70q-38 0 -75.5 11t-67.5 31.5t-48.5 50t-18.5 66.5q0 69 52 112.5t153 58.5l55 8z
" />
    <glyph glyph-name="Agrave" unicode="&#xc0;" horiz-adv-x="695" 
d="M382 234h-210l-109 -199l70 -10l-4 -25h-159l4 25l42 10l352 624l177 61l82 -685l38 -10l-4 -25h-342l4 25l72 10zM188 264h192l-21 312zM490 771l-140 138h150l20 -138h-30z" />
    <glyph glyph-name="Aacute" unicode="&#xc1;" horiz-adv-x="695" 
d="M382 234h-210l-109 -199l70 -10l-4 -25h-159l4 25l42 10l352 624l177 61l82 -685l38 -10l-4 -25h-342l4 25l72 10zM188 264h192l-21 312zM501 909h155l-190 -138h-35z" />
    <glyph glyph-name="Acircumflex" unicode="&#xc2;" horiz-adv-x="695" 
d="M382 234h-210l-109 -199l70 -10l-4 -25h-159l4 25l42 10l352 624l177 61l82 -685l38 -10l-4 -25h-342l4 25l72 10zM188 264h192l-21 312zM358 771h-35l157 138h80l107 -138h-35l-120 66h-10z" />
    <glyph glyph-name="Atilde" unicode="&#xc3;" horiz-adv-x="695" 
d="M382 234h-210l-109 -199l70 -10l-4 -25h-159l4 25l42 10l352 624l177 61l82 -685l38 -10l-4 -25h-342l4 25l72 10zM368 899l35 10l215 -59l60 59h20l-66 -152l-36 -8l-217 62l-58 -62h-20zM188 264h192l-21 312z" />
    <glyph glyph-name="Adieresis" unicode="&#xc4;" horiz-adv-x="695" 
d="M382 234h-210l-109 -199l70 -10l-4 -25h-159l4 25l42 10l352 624l177 61l82 -685l38 -10l-4 -25h-342l4 25l72 10zM188 264h192l-21 312zM661 896l33 -7l-4 -64l-23 -55l-81 -7l-32 7l3 65l23 54zM421 896l32 -7l-3 -64l-24 -55l-80 -7l-33 7l4 65l22 54z" />
    <glyph glyph-name="Aring" unicode="&#xc5;" horiz-adv-x="695" 
d="M382 234h-210l-109 -199l70 -10l-4 -25h-159l4 25l42 10l352 624l177 61l82 -685l38 -10l-4 -25h-342l4 25l72 10zM614 853q0 -25 -9.5 -43t-26 -31.5t-38 -22.5t-46.5 -15q-23 0 -45.5 5.5t-40.5 19t-29 34.5t-11 53q0 24 10.5 42t27.5 31.5t39 22.5t46 16
q26 0 48.5 -5.5t39 -18t26 -34t9.5 -54.5zM188 264h192l-21 312zM413 853q0 -33 22.5 -54.5t55.5 -21.5t56 21.5t23 54.5t-23 55t-56 22t-55.5 -22t-22.5 -55z" />
    <glyph glyph-name="AE" unicode="&#xc6;" horiz-adv-x="917" 
d="M129 0h-159l4 25l42 10l438 665h493l-32 -200h-25l-59 175h-149l-49 -322h70l86 133h20l-46 -290h-20l-44 132h-69l-46 -303h175l109 184h25l-33 -209h-524v25l40 10l44 291h-169l-188 -291l70 -10zM270 356h154l47 310z" />
    <glyph glyph-name="Ccedilla" unicode="&#xc7;" horiz-adv-x="683" 
d="M433 666q-74 -36 -113.5 -114.5t-39.5 -193.5q0 -44 10.5 -90t31.5 -88t53 -76.5t75 -54.5q23 6 37.5 12.5t37.5 18.5l112 190h27l-31 -212l-264 -76h-5l-11 -17q24 -4 40.5 -12.5t26.5 -20t14 -24t4 -24.5q0 -20 -12 -34.5t-30.5 -25.5t-41.5 -20t-45 -18l-86 -36h-32
l41 65h91q6 9 9.5 18.5t3.5 21.5q0 30 -13.5 38t-33.5 12l51 78q-68 4 -121.5 27.5t-91 63t-57.5 92.5t-20 118q0 59 21 120t64.5 114.5t110 96.5t158.5 66l146 37q39 0 65 -3.5t58 -14.5l-20 -245h-25l-63 181q-32 18 -64.5 24t-67.5 6z" />
    <glyph glyph-name="Egrave" unicode="&#xc8;" horiz-adv-x="606" 
d="M430 771l-140 138h150l20 -138h-30zM5 25l40 10l95 630l-40 10v25h536l-32 -200h-25l-59 175h-169l-44 -295h70l86 133h20l-46 -290h-20l-44 132h-70l-50 -330h195l109 184h25l-33 -209h-544v25z" />
    <glyph glyph-name="Eacute" unicode="&#xc9;" horiz-adv-x="606" 
d="M431 909h155l-190 -138h-35zM5 25l40 10l95 630l-40 10v25h536l-32 -200h-25l-59 175h-169l-44 -295h70l86 133h20l-46 -290h-20l-44 132h-70l-50 -330h195l109 184h25l-33 -209h-544v25z" />
    <glyph glyph-name="Ecircumflex" unicode="&#xca;" horiz-adv-x="606" 
d="M264 771h-35l157 138h80l107 -138h-35l-120 66h-10zM5 25l40 10l95 630l-40 10v25h536l-32 -200h-25l-59 175h-169l-44 -295h70l86 133h20l-46 -290h-20l-44 132h-70l-50 -330h195l109 184h25l-33 -209h-544v25z" />
    <glyph glyph-name="Edieresis" unicode="&#xcb;" horiz-adv-x="606" 
d="M338 896l32 -7l-3 -64l-24 -55l-80 -7l-33 7l4 65l22 54zM578 896l33 -7l-4 -64l-23 -55l-81 -7l-32 7l3 65l23 54zM5 25l40 10l95 630l-40 10v25h536l-32 -200h-25l-59 175h-169l-44 -295h70l86 133h20l-46 -290h-20l-44 132h-70l-50 -330h195l109 184h25l-33 -209h-544
v25z" />
    <glyph glyph-name="Igrave" unicode="&#xcc;" horiz-adv-x="354" 
d="M275 771l-140 138h150l20 -138h-30zM394 675l-42 -10l-96 -630l40 -10v-25h-291v25l42 10l95 630l-40 10v25h292v-25z" />
    <glyph glyph-name="Iacute" unicode="&#xcd;" horiz-adv-x="354" 
d="M306 909h155l-190 -138h-35zM394 675l-42 -10l-96 -630l40 -10v-25h-291v25l42 10l95 630l-40 10v25h292v-25z" />
    <glyph glyph-name="Icircumflex" unicode="&#xce;" horiz-adv-x="354" 
d="M119 771h-35l157 138h80l107 -138h-35l-120 66h-10zM394 675l-42 -10l-96 -630l40 -10v-25h-291v25l42 10l95 630l-40 10v25h292v-25z" />
    <glyph glyph-name="Idieresis" unicode="&#xcf;" horiz-adv-x="354" 
d="M200 896l32 -7l-3 -64l-24 -55l-80 -7l-33 7l4 65l22 54zM420 896l33 -7l-4 -64l-23 -55l-81 -7l-32 7l3 65l23 54zM394 675l-42 -10l-96 -630l40 -10v-25h-291v25l42 10l95 630l-40 10v25h292v-25z" />
    <glyph glyph-name="Eth" unicode="&#xd0;" horiz-adv-x="713" 
d="M5 0v25l40 10l48 322h-38l5 25h37l43 283l-40 10v25h313q68 0 121.5 -18t90.5 -51.5t57 -81t20 -106.5q0 -81 -21.5 -145.5t-60.5 -114t-92.5 -84t-116.5 -55.5l-131 -44h-275zM303 45q39 28 70 71.5t52.5 96t33.5 111.5t13 118q1 45 -7 86.5t-22 73t-33 50t-41 18.5h-19
l-43 -288h73l-5 -25h-72l-47 -312h47z" />
    <glyph glyph-name="Ntilde" unicode="&#xd1;" horiz-adv-x="647" 
d="M313 899l35 10l215 -59l60 59h20l-66 -152l-36 -8l-217 62l-58 -62h-20zM617 666l-55 10v25h130v-25l-40 -10l-100 -666h-156l-229 617l-87 -582l55 -10l-5 -25h-125v25l40 10l95 630l-40 10v25h262l186 -484z" />
    <glyph glyph-name="Ograve" unicode="&#xd2;" horiz-adv-x="749" 
d="M455 771l-140 138h150l20 -138h-30zM280 323q0 -58 7.5 -112t21.5 -96.5t34 -68.5t46 -28q67 45 93.5 139.5t26.5 219.5q0 59 -7.5 114t-21.5 97.5t-34 69t-46 28.5q-30 -19 -52.5 -54.5t-37.5 -83t-22.5 -105t-7.5 -120.5zM435 718q71 0 127.5 -23.5t95.5 -66.5
t60 -103.5t21 -133.5q0 -58 -15.5 -114.5t-50.5 -107t-91 -91.5t-137 -67l-91 -29q-71 0 -127.5 23.5t-95.5 66.5t-60 103t-21 134q0 58 15.5 114.5t50.5 107t91 91.5t137 67z" />
    <glyph glyph-name="Oacute" unicode="&#xd3;" horiz-adv-x="749" 
d="M456 909h155l-190 -138h-35zM280 323q0 -58 7.5 -112t21.5 -96.5t34 -68.5t46 -28q67 45 93.5 139.5t26.5 219.5q0 59 -7.5 114t-21.5 97.5t-34 69t-46 28.5q-30 -19 -52.5 -54.5t-37.5 -83t-22.5 -105t-7.5 -120.5zM435 718q71 0 127.5 -23.5t95.5 -66.5t60 -103.5
t21 -133.5q0 -58 -15.5 -114.5t-50.5 -107t-91 -91.5t-137 -67l-91 -29q-71 0 -127.5 23.5t-95.5 66.5t-60 103t-21 134q0 58 15.5 114.5t50.5 107t91 91.5t137 67z" />
    <glyph glyph-name="Ocircumflex" unicode="&#xd4;" horiz-adv-x="749" 
d="M309 771h-35l157 138h80l107 -138h-35l-120 66h-10zM280 323q0 -58 7.5 -112t21.5 -96.5t34 -68.5t46 -28q67 45 93.5 139.5t26.5 219.5q0 59 -7.5 114t-21.5 97.5t-34 69t-46 28.5q-30 -19 -52.5 -54.5t-37.5 -83t-22.5 -105t-7.5 -120.5zM435 718q71 0 127.5 -23.5
t95.5 -66.5t60 -103.5t21 -133.5q0 -58 -15.5 -114.5t-50.5 -107t-91 -91.5t-137 -67l-91 -29q-71 0 -127.5 23.5t-95.5 66.5t-60 103t-21 134q0 58 15.5 114.5t50.5 107t91 91.5t137 67z" />
    <glyph glyph-name="Otilde" unicode="&#xd5;" horiz-adv-x="749" 
d="M340 899l35 10l215 -59l60 59h20l-66 -152l-36 -8l-217 62l-58 -62h-20zM280 323q0 -58 7.5 -112t21.5 -96.5t34 -68.5t46 -28q67 45 93.5 139.5t26.5 219.5q0 59 -7.5 114t-21.5 97.5t-34 69t-46 28.5q-30 -19 -52.5 -54.5t-37.5 -83t-22.5 -105t-7.5 -120.5zM435 718
q71 0 127.5 -23.5t95.5 -66.5t60 -103.5t21 -133.5q0 -58 -15.5 -114.5t-50.5 -107t-91 -91.5t-137 -67l-91 -29q-71 0 -127.5 23.5t-95.5 66.5t-60 103t-21 134q0 58 15.5 114.5t50.5 107t91 91.5t137 67z" />
    <glyph glyph-name="Odieresis" unicode="&#xd6;" horiz-adv-x="749" 
d="M378 896l32 -7l-3 -64l-24 -55l-80 -7l-33 7l4 65l22 54zM618 896l33 -7l-4 -64l-23 -55l-81 -7l-32 7l3 65l23 54zM280 323q0 -58 7.5 -112t21.5 -96.5t34 -68.5t46 -28q67 45 93.5 139.5t26.5 219.5q0 59 -7.5 114t-21.5 97.5t-34 69t-46 28.5q-30 -19 -52.5 -54.5
t-37.5 -83t-22.5 -105t-7.5 -120.5zM435 718q71 0 127.5 -23.5t95.5 -66.5t60 -103.5t21 -133.5q0 -58 -15.5 -114.5t-50.5 -107t-91 -91.5t-137 -67l-91 -29q-71 0 -127.5 23.5t-95.5 66.5t-60 103t-21 134q0 58 15.5 114.5t50.5 107t91 91.5t137 67z" />
    <glyph glyph-name="multiply" unicode="&#xd7;" 
d="M478 19l-167 168l-170 -170l-25 25l170 169l-172 172l25 25l172 -172l169 170l25 -25l-170 -170l168 -167z" />
    <glyph glyph-name="Oslash" unicode="&#xd8;" horiz-adv-x="749" 
d="M435 718q57 0 105 -16t85 -45l50 58h45l-69 -80q43 -44 65.5 -105.5t22.5 -138.5q0 -58 -15.5 -114.5t-50.5 -107t-91 -91.5t-137 -67l-91 -29q-63 0 -113.5 18t-88.5 51l-57 -66h-47l79 92q-38 43 -57.5 101.5t-19.5 130.5q0 58 15.5 114.5t50.5 107t91 91.5t137 67z
M509 377q0 22 -1 44t-3 43l-218 -254q6 -40 15 -74.5t22 -60t29 -41t36 -16.5q67 45 93.5 139.5t26.5 219.5zM280 323q0 -17 0.5 -33t1.5 -32l217 252q-6 37 -15.5 68.5t-22 55t-28 37t-33.5 15.5q-30 -19 -52.5 -54.5t-37.5 -83t-22.5 -105t-7.5 -120.5z" />
    <glyph glyph-name="Ugrave" unicode="&#xd9;" horiz-adv-x="628" 
d="M440 771l-140 138h150l20 -138h-30zM263 243q-7 -41 -1 -74.5t22.5 -57.5t43 -37.5t59.5 -13.5q64 17 101 57t49 117l68 431l-40 10v25h123v-25l-42 -10l-64 -418q-6 -41 -16 -73t-25.5 -57.5t-38.5 -44t-56 -31.5l-153 -59q-74 0 -124 19t-78 53.5t-36.5 82.5t0.5 107
l63 421l-40 10v25h292v-25l-42 -10z" />
    <glyph glyph-name="Uacute" unicode="&#xda;" horiz-adv-x="628" 
d="M471 909h155l-190 -138h-35zM263 243q-7 -41 -1 -74.5t22.5 -57.5t43 -37.5t59.5 -13.5q64 17 101 57t49 117l68 431l-40 10v25h123v-25l-42 -10l-64 -418q-6 -41 -16 -73t-25.5 -57.5t-38.5 -44t-56 -31.5l-153 -59q-74 0 -124 19t-78 53.5t-36.5 82.5t0.5 107l63 421
l-40 10v25h292v-25l-42 -10z" />
    <glyph glyph-name="Ucircumflex" unicode="&#xdb;" horiz-adv-x="628" 
d="M302 771h-35l157 138h80l107 -138h-35l-120 66h-10zM263 243q-7 -41 -1 -74.5t22.5 -57.5t43 -37.5t59.5 -13.5q64 17 101 57t49 117l68 431l-40 10v25h123v-25l-42 -10l-64 -418q-6 -41 -16 -73t-25.5 -57.5t-38.5 -44t-56 -31.5l-153 -59q-74 0 -124 19t-78 53.5
t-36.5 82.5t0.5 107l63 421l-40 10v25h292v-25l-42 -10z" />
    <glyph glyph-name="Udieresis" unicode="&#xdc;" horiz-adv-x="628" 
d="M376 896l32 -7l-3 -64l-24 -55l-80 -7l-33 7l4 65l22 54zM616 896l33 -7l-4 -64l-23 -55l-81 -7l-32 7l3 65l23 54zM263 243q-7 -41 -1 -74.5t22.5 -57.5t43 -37.5t59.5 -13.5q64 17 101 57t49 117l68 431l-40 10v25h123v-25l-42 -10l-64 -418q-6 -41 -16 -73
t-25.5 -57.5t-38.5 -44t-56 -31.5l-153 -59q-74 0 -124 19t-78 53.5t-36.5 82.5t0.5 107l63 421l-40 10v25h292v-25l-42 -10z" />
    <glyph glyph-name="Yacute" unicode="&#xdd;" horiz-adv-x="674" 
d="M531 909h155l-190 -138h-35zM463 321l195 344l-72 10v25h158v-25l-45 -10l-229 -400l-35 -230l70 -10v-25h-351v25l72 10l37 244l-160 386l-33 12v23h318v-25l-57 -10z" />
    <glyph glyph-name="Thorn" unicode="&#xde;" horiz-adv-x="623" 
d="M5 0v25l42 10l95 630l-40 10v25h292v-25l-42 -10l-16 -104h92q103 0 159 -41t56 -109q0 -44 -19.5 -77t-51 -58.5t-71.5 -45.5t-81 -37l-92 -38h-54l-18 -120l40 -10v-25h-291zM336 200q17 16 31 39.5t24.5 51.5t16 58.5t5.5 61.5t-6.5 53.5t-17 37.5t-23 22t-24.5 7h-10
l-51 -331h55z" />
    <glyph glyph-name="germandbls" unicode="&#xdf;" horiz-adv-x="646" 
d="M451 715q88 0 132.5 -27t44.5 -85q0 -26 -11 -46.5t-30 -36.5t-44.5 -28t-54.5 -19l-43 -11q-5 -5 -7 -13t-2 -14q0 -17 11 -30.5t30 -27.5l87 -67q35 -29 51 -61t16 -57q0 -59 -33 -95t-81 -57l-120 -55q-16 3 -36 8t-39 10.5t-35.5 11t-25.5 9.5l56 128q37 -20 84 -46
t97 -52q5 3 8.5 9.5t3.5 10.5q0 14 -11.5 33.5t-48.5 46.5l-72 54q-28 21 -42.5 44.5t-19.5 46.5q-5 20 -4 38t4 35l84 84q23 23 35.5 51.5t12.5 66.5q0 15 -5.5 29.5t-14 25.5t-18.5 19t-19 10q-21 -17 -35 -35.5t-22.5 -38t-13.5 -40.5t-9 -43l-78 -435q-3 -15 -8.5 -30
t-17.5 -32t-31 -36t-48 -42l-203 -161h-50l28 161h104q8 12 15.5 35.5t11.5 46.5l75 430h-78l7 25h76q6 31 21.5 55.5t37 43t45.5 32.5t47 26l186 95v0z" />
    <glyph glyph-name="agrave" unicode="&#xe0;" horiz-adv-x="568" 
d="M222 245q0 -39 6 -70t23 -55l35 26l47 267q-10 8 -23.5 13t-26.5 5q-16 -15 -27.5 -37t-19 -47.5t-11 -52t-3.5 -49.5zM460 57l85 57l13 -16l-154 -116l-138 50l15 84l-154 -131q-45 21 -73.5 60t-28.5 111q0 49 19 91t51.5 77.5t75.5 65t92 53.5l112 57q38 0 75.5 -9.5
t80.5 -32.5zM272 745h150v-178h-31z" />
    <glyph glyph-name="aacute" unicode="&#xe1;" horiz-adv-x="568" 
d="M222 245q0 -39 6 -70t23 -55l35 26l47 267q-10 8 -23.5 13t-26.5 5q-16 -15 -27.5 -37t-19 -47.5t-11 -52t-3.5 -49.5zM460 57l85 57l13 -16l-154 -116l-138 50l15 84l-154 -131q-45 21 -73.5 60t-28.5 111q0 49 19 91t51.5 77.5t75.5 65t92 53.5l112 57q38 0 75.5 -9.5
t80.5 -32.5zM411 745h150l-181 -178h-35z" />
    <glyph glyph-name="acircumflex" unicode="&#xe2;" horiz-adv-x="568" 
d="M222 245q0 -39 6 -70t23 -55l35 26l47 267q-10 8 -23.5 13t-26.5 5q-16 -15 -27.5 -37t-19 -47.5t-11 -52t-3.5 -49.5zM460 57l85 57l13 -16l-154 -116l-138 50l15 84l-154 -131q-45 21 -73.5 60t-28.5 111q0 49 19 91t51.5 77.5t75.5 65t92 53.5l112 57q38 0 75.5 -9.5
t80.5 -32.5zM273 567h-30l148 178h70l86 -178h-30l-103 85h-8z" />
    <glyph glyph-name="atilde" unicode="&#xe3;" horiz-adv-x="568" 
d="M222 245q0 -39 6 -70t23 -55l35 26l47 267q-10 8 -23.5 13t-26.5 5q-16 -15 -27.5 -37t-19 -47.5t-11 -52t-3.5 -49.5zM460 57l85 57l13 -16l-154 -116l-138 50l15 84l-154 -131q-45 21 -73.5 60t-28.5 111q0 49 19 91t51.5 77.5t75.5 65t92 53.5l112 57q38 0 75.5 -9.5
t80.5 -32.5zM247 714l35 10l215 -59l60 59h20l-66 -152l-36 -8l-217 62l-58 -62h-20z" />
    <glyph glyph-name="adieresis" unicode="&#xe4;" horiz-adv-x="568" 
d="M222 245q0 -39 6 -70t23 -55l35 26l47 267q-10 8 -23.5 13t-26.5 5q-16 -15 -27.5 -37t-19 -47.5t-11 -52t-3.5 -49.5zM460 57l85 57l13 -16l-154 -116l-138 50l15 84l-154 -131q-45 21 -73.5 60t-28.5 111q0 49 19 91t51.5 77.5t75.5 65t92 53.5l112 57q38 0 75.5 -9.5
t80.5 -32.5zM332 721l32 -7l-3 -64l-24 -55l-80 -7l-33 7l4 65l22 54zM532 721l33 -7l-4 -64l-23 -55l-81 -7l-32 7l3 65l23 54z" />
    <glyph glyph-name="aring" unicode="&#xe5;" horiz-adv-x="568" 
d="M222 245q0 -39 6 -70t23 -55l35 26l47 267q-10 8 -23.5 13t-26.5 5q-16 -15 -27.5 -37t-19 -47.5t-11 -52t-3.5 -49.5zM460 57l85 57l13 -16l-154 -116l-138 50l15 84l-154 -131q-45 21 -73.5 60t-28.5 111q0 49 19 91t51.5 77.5t75.5 65t92 53.5l112 57q38 0 75.5 -9.5
t80.5 -32.5zM334 662q0 -33 22.5 -54.5t55.5 -21.5t56 21.5t23 54.5t-23 55t-56 22t-55.5 -22t-22.5 -55zM535 662q0 -25 -9.5 -43t-26 -31.5t-38 -22.5t-46.5 -15q-23 0 -45.5 5.5t-40.5 19t-29 34.5t-11 53q0 24 10.5 42t27.5 31.5t39 22.5t46 16q26 0 48.5 -5.5t39 -18
t26 -34t9.5 -54.5z" />
    <glyph glyph-name="ae" unicode="&#xe6;" horiz-adv-x="772" 
d="M508 229q14 -42 41.5 -78.5t69.5 -53.5q29 14 57.5 28.5t60.5 33.5l12 -16q-32 -21 -58.5 -37.5t-58.5 -36.5l-134 -84q-71 6 -120.5 50t-60.5 113l-190 -163q-45 21 -73.5 60t-28.5 111q0 49 19 91t51.5 77.5t75.5 65t92 53.5l112 57q18 0 37.5 -4.5t38.5 -12.5t37 -18
t33 -20l133 55q25 -3 45 -14.5t34 -28t21.5 -38t7.5 -43.5q0 -19 -2.5 -36.5t-14.5 -38.5zM222 245q0 -39 6 -70t23 -55l64 46v15q0 55 19 105.5t67 91.5q-11 8 -25.5 17.5t-30.5 17.5t-32 13t-30 5q-16 -15 -27.5 -37t-19 -47.5t-11 -52t-3.5 -49.5zM527 428
q-10 -11 -16 -26.5t-9.5 -33.5t-4 -36t-0.5 -33q0 -25 6 -52l51 21q8 21 8.5 40.5t0.5 36.5q0 14 -3 27.5t-8 25t-11.5 19.5t-13.5 11z" />
    <glyph glyph-name="ccedilla" unicode="&#xe7;" horiz-adv-x="467" 
d="M218 -6l-19 -29q24 -4 40.5 -12.5t26.5 -20t14 -24t4 -24.5q0 -20 -12 -34.5t-30.5 -25.5t-41.5 -20t-45 -18l-86 -36h-32l41 65h91q6 9 9.5 18.5t3.5 21.5q0 30 -13.5 38t-33.5 12l54 83q-33 5 -63 20t-52.5 38.5t-35.5 55.5t-13 71q0 46 14 81.5t40 64t64 53t86 49.5
l151 79q19 -2 48.5 -13t48.5 -24l-87 -133q-19 12 -35 22t-32.5 19t-34.5 17.5t-39 17.5q-17 -29 -22 -59.5t-5 -62.5q0 -25 6.5 -52t19 -52t31 -47t43.5 -37l97 60l12 -16q-27 -20 -48.5 -35t-51.5 -35z" />
    <glyph glyph-name="egrave" unicode="&#xe8;" horiz-adv-x="482" 
d="M218 229q14 -42 41.5 -78.5t69.5 -53.5q29 14 57.5 28.5t60.5 33.5l12 -16q-32 -21 -58.5 -37.5t-58.5 -36.5l-134 -84q-39 3 -72.5 19t-58 41.5t-38.5 60t-14 75.5q0 38 9 74.5t30 69t54.5 60t83.5 48.5l162 67q25 -3 45 -14.5t34 -28t21.5 -38t7.5 -43.5
q0 -19 -2.5 -36.5t-14.5 -38.5zM187 745h150v-178h-31zM207 299q0 -25 6 -52l51 21q8 21 8.5 40.5t0.5 36.5q0 14 -3 27.5t-8 25t-11.5 19.5t-13.5 11q-10 -11 -16 -26.5t-9.5 -33.5t-4 -36t-0.5 -33z" />
    <glyph glyph-name="eacute" unicode="&#xe9;" horiz-adv-x="482" 
d="M218 229q14 -42 41.5 -78.5t69.5 -53.5q29 14 57.5 28.5t60.5 33.5l12 -16q-32 -21 -58.5 -37.5t-58.5 -36.5l-134 -84q-39 3 -72.5 19t-58 41.5t-38.5 60t-14 75.5q0 38 9 74.5t30 69t54.5 60t83.5 48.5l162 67q25 -3 45 -14.5t34 -28t21.5 -38t7.5 -43.5
q0 -19 -2.5 -36.5t-14.5 -38.5zM356 745h150l-181 -178h-35zM207 299q0 -25 6 -52l51 21q8 21 8.5 40.5t0.5 36.5q0 14 -3 27.5t-8 25t-11.5 19.5t-13.5 11q-10 -11 -16 -26.5t-9.5 -33.5t-4 -36t-0.5 -33z" />
    <glyph glyph-name="ecircumflex" unicode="&#xea;" horiz-adv-x="482" 
d="M218 229q14 -42 41.5 -78.5t69.5 -53.5q29 14 57.5 28.5t60.5 33.5l12 -16q-32 -21 -58.5 -37.5t-58.5 -36.5l-134 -84q-39 3 -72.5 19t-58 41.5t-38.5 60t-14 75.5q0 38 9 74.5t30 69t54.5 60t83.5 48.5l162 67q25 -3 45 -14.5t34 -28t21.5 -38t7.5 -43.5
q0 -19 -2.5 -36.5t-14.5 -38.5zM195 567h-30l148 178h70l86 -178h-30l-103 85h-8zM207 299q0 -25 6 -52l51 21q8 21 8.5 40.5t0.5 36.5q0 14 -3 27.5t-8 25t-11.5 19.5t-13.5 11q-10 -11 -16 -26.5t-9.5 -33.5t-4 -36t-0.5 -33z" />
    <glyph glyph-name="edieresis" unicode="&#xeb;" horiz-adv-x="482" 
d="M218 229q14 -42 41.5 -78.5t69.5 -53.5q29 14 57.5 28.5t60.5 33.5l12 -16q-32 -21 -58.5 -37.5t-58.5 -36.5l-134 -84q-39 3 -72.5 19t-58 41.5t-38.5 60t-14 75.5q0 38 9 74.5t30 69t54.5 60t83.5 48.5l162 67q25 -3 45 -14.5t34 -28t21.5 -38t7.5 -43.5
q0 -19 -2.5 -36.5t-14.5 -38.5zM458 721l33 -7l-4 -64l-23 -55l-81 -7l-32 7l3 65l23 54zM258 721l32 -7l-3 -64l-24 -55l-80 -7l-33 7l4 65l22 54zM207 299q0 -25 6 -52l51 21q8 21 8.5 40.5t0.5 36.5q0 14 -3 27.5t-8 25t-11.5 19.5t-13.5 11q-10 -11 -16 -26.5
t-9.5 -33.5t-4 -36t-0.5 -33z" />
    <glyph glyph-name="igrave" unicode="&#xec;" horiz-adv-x="337" 
d="M34 32l67 379l-71 -21l-5 20l250 87l27 -23l-74 -418l86 58l13 -16l-157 -116zM112 745h150v-178h-31z" />
    <glyph glyph-name="iacute" unicode="&#xed;" horiz-adv-x="337" 
d="M34 32l67 379l-71 -21l-5 20l250 87l27 -23l-74 -418l86 58l13 -16l-157 -116zM251 745h150l-181 -178h-35z" />
    <glyph glyph-name="icircumflex" unicode="&#xee;" horiz-adv-x="337" 
d="M34 32l67 379l-71 -21l-5 20l250 87l27 -23l-74 -418l86 58l13 -16l-157 -116zM87 567h-30l148 178h70l86 -178h-30l-103 85h-8z" />
    <glyph glyph-name="idieresis" unicode="&#xef;" horiz-adv-x="337" 
d="M34 32l67 379l-71 -21l-5 20l250 87l27 -23l-74 -418l86 58l13 -16l-157 -116zM162 721l32 -7l-3 -64l-24 -55l-80 -7l-33 7l4 65l22 54zM362 721l33 -7l-4 -64l-23 -55l-81 -7l-32 7l3 65l23 54z" />
    <glyph glyph-name="eth" unicode="&#xf0;" horiz-adv-x="554" 
d="M544 299q0 -63 -21 -109.5t-54.5 -79.5t-74.5 -55t-81 -37l-90 -33q-52 0 -89.5 19t-61.5 51t-35.5 73.5t-11.5 87.5q0 36 10.5 74.5t32 73.5t54.5 64t77 48l62 26l82 -63q-8 53 -25.5 97t-46.5 78l-109 -57v27l93 48q-37 37 -87 58l9 26q76 -23 135 -54l102 54v-28
l-77 -40q62 -37 102 -81t63.5 -90t32.5 -92t9 -86zM274 30q15 12 26 39t19.5 62t13 76.5t6.5 82.5l4 117q-34 26 -56 33q-16 -16 -27.5 -41.5t-18.5 -56.5t-10.5 -64.5t-3.5 -64.5q0 -45 4.5 -78t11.5 -55t15.5 -34t15.5 -16z" />
    <glyph glyph-name="ntilde" unicode="&#xf1;" horiz-adv-x="602" 
d="M218 0h-189l72 411l-70 -21l-6 20l250 87l27 -23l-14 -78l144 104q77 0 105 -34.5t14 -112.5l-53 -297l86 58l13 -16l-157 -116l-136 50l56 317q5 24 -4.5 34t-20.5 10t-21.5 -5t-24.5 -15l-6 -4zM227 714l35 10l215 -59l60 59h20l-66 -152l-36 -8l-217 62l-58 -62h-20z
" />
    <glyph glyph-name="ograve" unicode="&#xf2;" horiz-adv-x="549" 
d="M270 455q-12 -15 -21 -39.5t-15 -54.5t-9 -64t-3 -69q0 -84 21.5 -134t50.5 -64q12 15 21 39.5t15 54.5t9 64t3 69q0 84 -21.5 134t-50.5 64zM326 500q46 0 85 -12.5t67.5 -37t44.5 -61t16 -85.5q0 -41 -11 -80t-35 -74.5t-61.5 -66t-90.5 -53.5l-103 -45q-46 0 -85 12.5
t-67.5 37t-44.5 61t-16 85.5q0 40 11 79.5t35 75t61.5 66t90.5 53.5zM182 745h150v-178h-31z" />
    <glyph glyph-name="oacute" unicode="&#xf3;" horiz-adv-x="549" 
d="M270 455q-12 -15 -21 -39.5t-15 -54.5t-9 -64t-3 -69q0 -84 21.5 -134t50.5 -64q12 15 21 39.5t15 54.5t9 64t3 69q0 84 -21.5 134t-50.5 64zM326 500q46 0 85 -12.5t67.5 -37t44.5 -61t16 -85.5q0 -41 -11 -80t-35 -74.5t-61.5 -66t-90.5 -53.5l-103 -45q-46 0 -85 12.5
t-67.5 37t-44.5 61t-16 85.5q0 40 11 79.5t35 75t61.5 66t90.5 53.5zM361 745h150l-181 -178h-35z" />
    <glyph glyph-name="ocircumflex" unicode="&#xf4;" horiz-adv-x="549" 
d="M270 455q-12 -15 -21 -39.5t-15 -54.5t-9 -64t-3 -69q0 -84 21.5 -134t50.5 -64q12 15 21 39.5t15 54.5t9 64t3 69q0 84 -21.5 134t-50.5 64zM326 500q46 0 85 -12.5t67.5 -37t44.5 -61t16 -85.5q0 -41 -11 -80t-35 -74.5t-61.5 -66t-90.5 -53.5l-103 -45q-46 0 -85 12.5
t-67.5 37t-44.5 61t-16 85.5q0 40 11 79.5t35 75t61.5 66t90.5 53.5zM217 567h-30l148 178h70l86 -178h-30l-103 85h-8z" />
    <glyph glyph-name="otilde" unicode="&#xf5;" horiz-adv-x="549" 
d="M270 455q-12 -15 -21 -39.5t-15 -54.5t-9 -64t-3 -69q0 -84 21.5 -134t50.5 -64q12 15 21 39.5t15 54.5t9 64t3 69q0 84 -21.5 134t-50.5 64zM326 500q46 0 85 -12.5t67.5 -37t44.5 -61t16 -85.5q0 -41 -11 -80t-35 -74.5t-61.5 -66t-90.5 -53.5l-103 -45q-46 0 -85 12.5
t-67.5 37t-44.5 61t-16 85.5q0 40 11 79.5t35 75t61.5 66t90.5 53.5zM227 714l35 10l215 -59l60 59h20l-66 -152l-36 -8l-217 62l-58 -62h-20z" />
    <glyph glyph-name="odieresis" unicode="&#xf6;" horiz-adv-x="549" 
d="M270 455q-12 -15 -21 -39.5t-15 -54.5t-9 -64t-3 -69q0 -84 21.5 -134t50.5 -64q12 15 21 39.5t15 54.5t9 64t3 69q0 84 -21.5 134t-50.5 64zM326 500q46 0 85 -12.5t67.5 -37t44.5 -61t16 -85.5q0 -41 -11 -80t-35 -74.5t-61.5 -66t-90.5 -53.5l-103 -45q-46 0 -85 12.5
t-67.5 37t-44.5 61t-16 85.5q0 40 11 79.5t35 75t61.5 66t90.5 53.5zM291 721l32 -7l-3 -64l-24 -55l-80 -7l-33 7l4 65l22 54zM491 721l33 -7l-4 -64l-23 -55l-81 -7l-32 7l3 65l23 54z" />
    <glyph glyph-name="divide" unicode="&#xf7;" 
d="M341 149l39 -9l9 -74l-9 -66l-101 -7l-39 7l-7 76l7 64zM47 280h525v-35h-525v35zM341 524l39 -9l9 -74l-9 -66l-101 -7l-39 7l-7 76l7 64z" />
    <glyph glyph-name="oslash" unicode="&#xf8;" horiz-adv-x="549" 
d="M326 500q41 0 76 -9.5t62 -29.5l27 29h26l-37 -41q28 -24 43.5 -60.5t15.5 -84.5q0 -41 -11 -80t-35 -74.5t-61.5 -66t-90.5 -53.5l-103 -45q-87 0 -145 43l-34 -38h-28l47 51q-53 51 -53 140q0 40 11 79.5t35 75t61.5 66t90.5 53.5zM342 257q0 11 -0.5 20.5t-1.5 19.5
l-115 -126q7 -58 26 -94t43 -47q12 15 21 39.5t15 54.5t9 64t3 69zM270 455q-12 -15 -21 -39.5t-15 -54.5t-9 -64t-3 -69v-15t1 -14l115 124q-8 54 -26.5 87.5t-41.5 44.5z" />
    <glyph glyph-name="ugrave" unicode="&#xf9;" horiz-adv-x="603" 
d="M580 114l13 -16l-157 -116l-136 50l10 57l-140 -104q-77 0 -105 34.5t-14 112.5l50 279l-71 -21l-5 20l250 87l27 -23l-62 -340q-2 -12 -0.5 -20t6 -13t10 -7t10.5 -2q11 0 20 4.5t18 11.5l11 8l65 369h190l-76 -429zM232 745h150v-178h-31z" />
    <glyph glyph-name="uacute" unicode="&#xfa;" horiz-adv-x="603" 
d="M580 114l13 -16l-157 -116l-136 50l10 57l-140 -104q-77 0 -105 34.5t-14 112.5l50 279l-71 -21l-5 20l250 87l27 -23l-62 -340q-2 -12 -0.5 -20t6 -13t10 -7t10.5 -2q11 0 20 4.5t18 11.5l11 8l65 369h190l-76 -429zM391 745h150l-181 -178h-35z" />
    <glyph glyph-name="ucircumflex" unicode="&#xfb;" horiz-adv-x="603" 
d="M580 114l13 -16l-157 -116l-136 50l10 57l-140 -104q-77 0 -105 34.5t-14 112.5l50 279l-71 -21l-5 20l250 87l27 -23l-62 -340q-2 -12 -0.5 -20t6 -13t10 -7t10.5 -2q11 0 20 4.5t18 11.5l11 8l65 369h190l-76 -429zM257 567h-30l148 178h70l86 -178h-30l-103 85h-8z
" />
    <glyph glyph-name="udieresis" unicode="&#xfc;" horiz-adv-x="603" 
d="M580 114l13 -16l-157 -116l-136 50l10 57l-140 -104q-77 0 -105 34.5t-14 112.5l50 279l-71 -21l-5 20l250 87l27 -23l-62 -340q-2 -12 -0.5 -20t6 -13t10 -7t10.5 -2q11 0 20 4.5t18 11.5l11 8l65 369h190l-76 -429zM322 721l32 -7l-3 -64l-24 -55l-80 -7l-33 7l4 65
l22 54zM522 721l33 -7l-4 -64l-23 -55l-81 -7l-32 7l3 65l23 54z" />
    <glyph glyph-name="yacute" unicode="&#xfd;" horiz-adv-x="534" 
d="M-8 395l-7 20l229 85l40 -24l71 -415l137 241l-113 105l142 93l38 -30l-24 -152l-157 -278l-197 -275h-154l28 171h183l109 109l-174 -40l-78 412zM361 745h150l-181 -178h-35z" />
    <glyph glyph-name="thorn" unicode="&#xfe;" horiz-adv-x="574" 
d="M73 625l-6 20l258 67l32 -26l-51 -285l155 99q48 -11 75.5 -57t27.5 -112q0 -45 -12 -88t-35 -80.5t-57 -69t-78 -52.5l-113 -56l-34 15l-41 -230h-189l154 870zM301 371l-56 -312q14 -11 31 -17.5t31 -6.5q16 15 27 39.5t18 54t10.5 59.5t3.5 55q0 42 -7 79.5t-28 62.5z
" />
    <glyph glyph-name="ydieresis" unicode="&#xff;" horiz-adv-x="534" 
d="M-8 395l-7 20l229 85l40 -24l71 -415l137 241l-113 105l142 93l38 -30l-24 -152l-157 -278l-197 -275h-154l28 171h183l109 109l-174 -40l-78 412zM313 721l32 -7l-3 -64l-24 -55l-80 -7l-33 7l4 65l22 54zM513 721l33 -7l-4 -64l-23 -55l-81 -7l-32 7l3 65l23 54z" />
    <glyph glyph-name="Amacron" unicode="&#x100;" horiz-adv-x="695" 
d="M382 234h-210l-109 -199l70 -10l-4 -25h-159l4 25l42 10l352 624l177 61l82 -685l38 -10l-4 -25h-342l4 25l72 10zM188 264h192l-21 312zM361 868h300l-15 -80h-300z" />
    <glyph glyph-name="amacron" unicode="&#x101;" horiz-adv-x="568" 
d="M222 245q0 -39 6 -70t23 -55l35 26l47 267q-10 8 -23.5 13t-26.5 5q-16 -15 -27.5 -37t-19 -47.5t-11 -52t-3.5 -49.5zM460 57l85 57l13 -16l-154 -116l-138 50l15 84l-154 -131q-45 21 -73.5 60t-28.5 111q0 49 19 91t51.5 77.5t75.5 65t92 53.5l112 57q38 0 75.5 -9.5
t80.5 -32.5zM265 680h300l-15 -80h-300z" />
    <glyph glyph-name="Abreve" unicode="&#x102;" horiz-adv-x="695" 
d="M382 234h-210l-109 -199l70 -10l-4 -25h-159l4 25l42 10l352 624l177 61l82 -685l38 -10l-4 -25h-342l4 25l72 10zM188 264h192l-21 312zM493 846q27 0 50 6t41 15t32 19.5t25 18.5l16 -15q-14 -23 -28 -39.5t-32 -31t-42.5 -27.5t-61.5 -28q-32 0 -58 10.5t-45.5 27.5
t-32.5 40t-19 48l22 15q7 -8 18.5 -18.5t28 -19.5t38 -15t48.5 -6z" />
    <glyph glyph-name="abreve" unicode="&#x103;" horiz-adv-x="568" 
d="M222 245q0 -39 6 -70t23 -55l35 26l47 267q-10 8 -23.5 13t-26.5 5q-16 -15 -27.5 -37t-19 -47.5t-11 -52t-3.5 -49.5zM460 57l85 57l13 -16l-154 -116l-138 50l15 84l-154 -131q-45 21 -73.5 60t-28.5 111q0 49 19 91t51.5 77.5t75.5 65t92 53.5l112 57q38 0 75.5 -9.5
t80.5 -32.5zM387 652q27 0 50 6t41 15t32 19.5t25 18.5l16 -15q-14 -23 -28 -39.5t-32 -31t-42.5 -27.5t-61.5 -28q-32 0 -58 10.5t-45.5 27.5t-32.5 40t-19 48l22 15q7 -8 18.5 -18.5t28 -19.5t38 -15t48.5 -6z" />
    <glyph glyph-name="Aogonek" unicode="&#x104;" horiz-adv-x="695" 
d="M439 -250q-59 0 -99 6.5t-63.5 19t-31.5 31.5t-3 44l13 74l141 101l-14 208h-210l-109 -199l70 -10l-4 -25h-159l4 25l42 10l352 624l177 61l82 -685l38 -10l-4 -25h-263l-35 -100l-9 -50q-3 -15 -2.5 -30.5t9 -27.5t27.5 -19.5t54 -7.5zM188 264h192l-21 312z" />
    <glyph glyph-name="aogonek" unicode="&#x105;" horiz-adv-x="568" 
d="M467 -250q-59 0 -99 6.5t-63.5 19t-31.5 31.5t-3 44l13 74l105 63l-122 44l15 84l-154 -131q-45 21 -73.5 60t-28.5 111q0 49 19 91t51.5 77.5t75.5 65t92 53.5l112 57q38 0 75.5 -9.5t80.5 -32.5l-71 -401l85 57l13 -16l-94 -71l-73 -127l-9 -50q-3 -15 -2.5 -30.5
t9 -27.5t27.5 -19.5t54 -7.5zM333 413q-10 8 -23.5 13t-26.5 5q-16 -15 -27.5 -37t-19 -47.5t-11 -52t-3.5 -49.5q0 -39 6 -70t23 -55l35 26z" />
    <glyph glyph-name="Cacute" unicode="&#x106;" horiz-adv-x="683" 
d="M486 909h155l-190 -138h-35zM433 666q-74 -36 -113.5 -114.5t-39.5 -193.5q0 -44 10.5 -90t31.5 -88t53 -76.5t75 -54.5q23 6 37.5 12.5t37.5 18.5l112 190h27l-31 -212l-264 -76q-74 0 -133.5 21.5t-100.5 61.5t-63 95.5t-22 123.5q0 59 21 120t64.5 114.5t110 96.5
t158.5 66l146 37q39 0 65 -3.5t58 -14.5l-20 -245h-25l-63 181q-32 18 -64.5 24t-67.5 6z" />
    <glyph glyph-name="cacute" unicode="&#x107;" horiz-adv-x="467" 
d="M205 -15q-36 3 -68.5 17.5t-57 38.5t-39.5 57.5t-15 74.5q0 46 14 81.5t40 64t64 53t86 49.5l151 79q19 -2 48.5 -13t48.5 -24l-87 -133q-19 12 -35 22t-32.5 19t-34.5 17.5t-39 17.5q-17 -29 -22 -59.5t-5 -62.5q0 -25 6.5 -52t19 -52t31 -47t43.5 -37l97 60l12 -16
q-27 -20 -48.5 -35t-51.5 -35zM356 745h150l-181 -178h-35z" />
    <glyph glyph-name="Ccircumflex" unicode="&#x108;" horiz-adv-x="683" 
d="M353 771h-35l157 138h80l107 -138h-35l-120 66h-10zM433 666q-74 -36 -113.5 -114.5t-39.5 -193.5q0 -44 10.5 -90t31.5 -88t53 -76.5t75 -54.5q23 6 37.5 12.5t37.5 18.5l112 190h27l-31 -212l-264 -76q-74 0 -133.5 21.5t-100.5 61.5t-63 95.5t-22 123.5q0 59 21 120
t64.5 114.5t110 96.5t158.5 66l146 37q39 0 65 -3.5t58 -14.5l-20 -245h-25l-63 181q-32 18 -64.5 24t-67.5 6z" />
    <glyph glyph-name="ccircumflex" unicode="&#x109;" horiz-adv-x="467" 
d="M205 -15q-36 3 -68.5 17.5t-57 38.5t-39.5 57.5t-15 74.5q0 46 14 81.5t40 64t64 53t86 49.5l151 79q19 -2 48.5 -13t48.5 -24l-87 -133q-19 12 -35 22t-32.5 19t-34.5 17.5t-39 17.5q-17 -29 -22 -59.5t-5 -62.5q0 -25 6.5 -52t19 -52t31 -47t43.5 -37l97 60l12 -16
q-27 -20 -48.5 -35t-51.5 -35zM218 567h-30l148 178h70l86 -178h-30l-103 85h-8z" />
    <glyph glyph-name="Cdotaccent" unicode="&#x10a;" horiz-adv-x="683" 
d="M456 902l71 5l54 -7l-5 -71l-25 -60l-66 -7l-58 7l6 72zM433 666q-74 -36 -113.5 -114.5t-39.5 -193.5q0 -44 10.5 -90t31.5 -88t53 -76.5t75 -54.5q23 6 37.5 12.5t37.5 18.5l112 190h27l-31 -212l-264 -76q-74 0 -133.5 21.5t-100.5 61.5t-63 95.5t-22 123.5
q0 59 21 120t64.5 114.5t110 96.5t158.5 66l146 37q39 0 65 -3.5t58 -14.5l-20 -245h-25l-63 181q-32 18 -64.5 24t-67.5 6z" />
    <glyph glyph-name="cdotaccent" unicode="&#x10b;" horiz-adv-x="467" 
d="M205 -15q-36 3 -68.5 17.5t-57 38.5t-39.5 57.5t-15 74.5q0 46 14 81.5t40 64t64 53t86 49.5l151 79q19 -2 48.5 -13t48.5 -24l-87 -133q-19 12 -35 22t-32.5 19t-34.5 17.5t-39 17.5q-17 -29 -22 -59.5t-5 -62.5q0 -25 6.5 -52t19 -52t31 -47t43.5 -37l97 60l12 -16
q-27 -20 -48.5 -35t-51.5 -35zM319 725l71 5l54 -7l-5 -71l-25 -60l-66 -7l-58 7l6 72z" />
    <glyph glyph-name="Ccaron" unicode="&#x10c;" horiz-adv-x="683" 
d="M476 843l144 66h35l-157 -138h-80l-107 138h35l120 -66h10zM433 666q-74 -36 -113.5 -114.5t-39.5 -193.5q0 -44 10.5 -90t31.5 -88t53 -76.5t75 -54.5q23 6 37.5 12.5t37.5 18.5l112 190h27l-31 -212l-264 -76q-74 0 -133.5 21.5t-100.5 61.5t-63 95.5t-22 123.5
q0 59 21 120t64.5 114.5t110 96.5t158.5 66l146 37q39 0 65 -3.5t58 -14.5l-20 -245h-25l-63 181q-32 18 -64.5 24t-67.5 6z" />
    <glyph glyph-name="ccaron" unicode="&#x10d;" horiz-adv-x="467" 
d="M205 -15q-36 3 -68.5 17.5t-57 38.5t-39.5 57.5t-15 74.5q0 46 14 81.5t40 64t64 53t86 49.5l151 79q19 -2 48.5 -13t48.5 -24l-87 -133q-19 12 -35 22t-32.5 19t-34.5 17.5t-39 17.5q-17 -29 -22 -59.5t-5 -62.5q0 -25 6.5 -52t19 -52t31 -47t43.5 -37l97 60l12 -16
q-27 -20 -48.5 -35t-51.5 -35zM349 660l133 85h30l-148 -178h-70l-86 178h30l103 -85h8z" />
    <glyph glyph-name="Dcaron" unicode="&#x10e;" horiz-adv-x="713" 
d="M401 843l144 66h35l-157 -138h-80l-107 138h35l120 -66h10zM5 0v25l40 10l95 630l-40 10v25h313q68 0 121.5 -18t90.5 -51.5t57 -81t20 -106.5q0 -81 -21.5 -145.5t-60.5 -114t-92.5 -84t-116.5 -55.5l-131 -44h-275zM303 45q39 28 70 71.5t52.5 96t33.5 111.5t13 118
q1 45 -7 86.5t-22 73t-33 50t-41 18.5h-19l-94 -625h47z" />
    <glyph glyph-name="dcaron" unicode="&#x10f;" horiz-adv-x="749" 
d="M270 32l14 84l-146 -131q-53 23 -83 70t-30 116q0 48 16.5 89t44.5 75t65 61.5t78 48.5l104 55q5 0 8.5 -1.5t8.5 -3.5l26 145l-86 -15l-6 20l258 67l32 -26l-111 -630l86 58l13 -16l-154 -116zM289 147l47 266q-32 29 -71 29q-10 -17 -18 -39t-13.5 -46.5t-8.5 -50.5
t-3 -51q0 -43 8.5 -73t28.5 -58zM574 515l77 105l-49 55l7 40h170l-14 -80l-167 -124z" />
    <glyph glyph-name="Dcroat" unicode="&#x110;" horiz-adv-x="713" 
d="M5 0v25l40 10l48 322h-38l5 25h37l43 283l-40 10v25h313q68 0 121.5 -18t90.5 -51.5t57 -81t20 -106.5q0 -81 -21.5 -145.5t-60.5 -114t-92.5 -84t-116.5 -55.5l-131 -44h-275zM303 45q39 28 70 71.5t52.5 96t33.5 111.5t13 118q1 45 -7 86.5t-22 73t-33 50t-41 18.5h-19
l-43 -288h73l-5 -25h-72l-47 -312h47z" />
    <glyph glyph-name="dcroat" unicode="&#x111;" horiz-adv-x="584" 
d="M270 32l14 84l-146 -131q-53 23 -83 70t-30 116q0 48 16.5 89t44.5 75t65 61.5t78 48.5l104 55q5 0 8.5 -1.5t8.5 -3.5l10 57h-74l5 25h73l12 63l-86 -15l-6 20l258 67l32 -26l-19 -109h61l-5 -25h-61l-87 -496l86 58l13 -16l-154 -116zM289 147l47 266q-32 29 -71 29
q-10 -17 -18 -39t-13.5 -46.5t-8.5 -50.5t-3 -51q0 -43 8.5 -73t28.5 -58z" />
    <glyph glyph-name="Emacron" unicode="&#x112;" horiz-adv-x="606" 
d="M278 868h300l-15 -80h-300zM5 25l40 10l95 630l-40 10v25h536l-32 -200h-25l-59 175h-169l-44 -295h70l86 133h20l-46 -290h-20l-44 132h-70l-50 -330h195l109 184h25l-33 -209h-544v25z" />
    <glyph glyph-name="emacron" unicode="&#x113;" horiz-adv-x="482" 
d="M218 229q14 -42 41.5 -78.5t69.5 -53.5q29 14 57.5 28.5t60.5 33.5l12 -16q-32 -21 -58.5 -37.5t-58.5 -36.5l-134 -84q-39 3 -72.5 19t-58 41.5t-38.5 60t-14 75.5q0 38 9 74.5t30 69t54.5 60t83.5 48.5l162 67q25 -3 45 -14.5t34 -28t21.5 -38t7.5 -43.5
q0 -19 -2.5 -36.5t-14.5 -38.5zM189 680h300l-15 -80h-300zM207 299q0 -25 6 -52l51 21q8 21 8.5 40.5t0.5 36.5q0 14 -3 27.5t-8 25t-11.5 19.5t-13.5 11q-10 -11 -16 -26.5t-9.5 -33.5t-4 -36t-0.5 -33z" />
    <glyph glyph-name="Ebreve" unicode="&#x114;" horiz-adv-x="606" 
d="M413 846q27 0 50 6t41 15t32 19.5t25 18.5l16 -15q-14 -23 -28 -39.5t-32 -31t-42.5 -27.5t-61.5 -28q-32 0 -58 10.5t-45.5 27.5t-32.5 40t-19 48l22 15q7 -8 18.5 -18.5t28 -19.5t38 -15t48.5 -6zM5 25l40 10l95 630l-40 10v25h536l-32 -200h-25l-59 175h-169l-44 -295
h70l86 133h20l-46 -290h-20l-44 132h-70l-50 -330h195l109 184h25l-33 -209h-544v25z" />
    <glyph glyph-name="ebreve" unicode="&#x115;" horiz-adv-x="482" 
d="M218 229q14 -42 41.5 -78.5t69.5 -53.5q29 14 57.5 28.5t60.5 33.5l12 -16q-32 -21 -58.5 -37.5t-58.5 -36.5l-134 -84q-39 3 -72.5 19t-58 41.5t-38.5 60t-14 75.5q0 38 9 74.5t30 69t54.5 60t83.5 48.5l162 67q25 -3 45 -14.5t34 -28t21.5 -38t7.5 -43.5
q0 -19 -2.5 -36.5t-14.5 -38.5zM332 652q27 0 50 6t41 15t32 19.5t25 18.5l16 -15q-14 -23 -28 -39.5t-32 -31t-42.5 -27.5t-61.5 -28q-32 0 -58 10.5t-45.5 27.5t-32.5 40t-19 48l22 15q7 -8 18.5 -18.5t28 -19.5t38 -15t48.5 -6zM207 299q0 -25 6 -52l51 21q8 21 8.5 40.5
t0.5 36.5q0 14 -3 27.5t-8 25t-11.5 19.5t-13.5 11q-10 -11 -16 -26.5t-9.5 -33.5t-4 -36t-0.5 -33z" />
    <glyph glyph-name="Edotaccent" unicode="&#x116;" horiz-adv-x="606" 
d="M366 892l71 5l54 -7l-5 -71l-25 -60l-66 -7l-58 7l6 72zM5 25l40 10l95 630l-40 10v25h536l-32 -200h-25l-59 175h-169l-44 -295h70l86 133h20l-46 -290h-20l-44 132h-70l-50 -330h195l109 184h25l-33 -209h-544v25z" />
    <glyph glyph-name="edotaccent" unicode="&#x117;" horiz-adv-x="482" 
d="M218 229q14 -42 41.5 -78.5t69.5 -53.5q29 14 57.5 28.5t60.5 33.5l12 -16q-32 -21 -58.5 -37.5t-58.5 -36.5l-134 -84q-39 3 -72.5 19t-58 41.5t-38.5 60t-14 75.5q0 38 9 74.5t30 69t54.5 60t83.5 48.5l162 67q25 -3 45 -14.5t34 -28t21.5 -38t7.5 -43.5
q0 -19 -2.5 -36.5t-14.5 -38.5zM289 725l71 5l54 -7l-5 -71l-25 -60l-66 -7l-58 7l6 72zM207 299q0 -25 6 -52l51 21q8 21 8.5 40.5t0.5 36.5q0 14 -3 27.5t-8 25t-11.5 19.5t-13.5 11q-10 -11 -16 -26.5t-9.5 -33.5t-4 -36t-0.5 -33z" />
    <glyph glyph-name="Eogonek" unicode="&#x118;" horiz-adv-x="606" 
d="M5 25l40 10l95 630l-40 10v25h536l-32 -200h-25l-59 175h-169l-44 -295h70l86 133h20l-46 -290h-20l-44 132h-70l-50 -330h195l109 184h25l-33 -209h-48l-57 -100l-9 -50q-3 -15 -2.5 -30.5t9 -27.5t27.5 -19.5t54 -7.5l-3 -15q-59 0 -99 6.5t-63.5 19t-31.5 31.5t-3 44
l13 74l125 75h-456v25z" />
    <glyph glyph-name="eogonek" unicode="&#x119;" horiz-adv-x="482" 
d="M314 -250q-59 0 -99 6.5t-63.5 19t-31.5 31.5t-3 44l13 74l78 60q-39 3 -72.5 19t-58 41.5t-38.5 60t-14 75.5q0 38 9 74.5t30 69t54.5 60t83.5 48.5l162 67q25 -3 45 -14.5t34 -28t21.5 -38t7.5 -43.5q0 -19 -2.5 -36.5t-14.5 -38.5l-237 -72q14 -42 41.5 -78.5
t69.5 -53.5q29 14 57.5 28.5t60.5 33.5l12 -16q-32 -21 -58.5 -37.5t-58.5 -36.5l-41 -26l-63 -143l-9 -50q-3 -15 -2.5 -30.5t9 -27.5t27.5 -19.5t54 -7.5zM237 428q-10 -11 -16 -26.5t-9.5 -33.5t-4 -36t-0.5 -33q0 -25 6 -52l51 21q8 21 8.5 40.5t0.5 36.5q0 14 -3 27.5
t-8 25t-11.5 19.5t-13.5 11z" />
    <glyph glyph-name="Ecaron" unicode="&#x11a;" horiz-adv-x="606" 
d="M401 843l144 66h35l-157 -138h-80l-107 138h35l120 -66h10zM5 25l40 10l95 630l-40 10v25h536l-32 -200h-25l-59 175h-169l-44 -295h70l86 133h20l-46 -290h-20l-44 132h-70l-50 -330h195l109 184h25l-33 -209h-544v25z" />
    <glyph glyph-name="ecaron" unicode="&#x11b;" horiz-adv-x="482" 
d="M218 229q14 -42 41.5 -78.5t69.5 -53.5q29 14 57.5 28.5t60.5 33.5l12 -16q-32 -21 -58.5 -37.5t-58.5 -36.5l-134 -84q-39 3 -72.5 19t-58 41.5t-38.5 60t-14 75.5q0 38 9 74.5t30 69t54.5 60t83.5 48.5l162 67q25 -3 45 -14.5t34 -28t21.5 -38t7.5 -43.5
q0 -19 -2.5 -36.5t-14.5 -38.5zM319 660l133 85h30l-148 -178h-70l-86 178h30l103 -85h8zM207 299q0 -25 6 -52l51 21q8 21 8.5 40.5t0.5 36.5q0 14 -3 27.5t-8 25t-11.5 19.5t-13.5 11q-10 -11 -16 -26.5t-9.5 -33.5t-4 -36t-0.5 -33z" />
    <glyph glyph-name="Gcircumflex" unicode="&#x11c;" horiz-adv-x="702" 
d="M369 771h-35l157 138h80l107 -138h-35l-120 66h-10zM312 -18q-60 0 -107 26.5t-79 67.5t-49 91.5t-17 99.5q0 63 20 126t61.5 117.5t105 97.5t149.5 67l162 43q40 0 68 -4t57 -14l-20 -245h-25l-64 181q-36 19 -66.5 24.5t-69.5 5.5q-50 -28 -79.5 -69t-44.5 -85
t-19.5 -86.5t-4.5 -72.5q0 -101 31.5 -180.5t110.5 -137.5l5 1l38 261l-40 10v25h272v-25l-27 -10l-35 -235z" />
    <glyph glyph-name="gcircumflex" unicode="&#x11d;" horiz-adv-x="572" 
d="M5 -235l29 171h231q5 13 8.5 26.5t6.5 31.5l22 122l-144 -126q-54 21 -85.5 65.5t-31.5 109.5q0 49 18 89t50 74t75.5 62t94.5 53l114 57q38 0 77 -9.5t82 -32.5l-65 -366q-4 -22 -25.5 -46t-55 -50t-75 -53.5t-85.5 -55.5l-187 -122h-54zM234 245q0 -44 8.5 -71
t30.5 -53l34 25l47 267q-23 18 -55 18q-16 -16 -28 -38t-20.5 -47.5t-12.5 -51.5t-4 -49zM253 567h-30l148 178h70l86 -178h-30l-103 85h-8z" />
    <glyph glyph-name="Gbreve" unicode="&#x11e;" horiz-adv-x="702" 
d="M468 846q27 0 50 6t41 15t32 19.5t25 18.5l16 -15q-14 -23 -28 -39.5t-32 -31t-42.5 -27.5t-61.5 -28q-32 0 -58 10.5t-45.5 27.5t-32.5 40t-19 48l22 15q7 -8 18.5 -18.5t28 -19.5t38 -15t48.5 -6zM312 -18q-60 0 -107 26.5t-79 67.5t-49 91.5t-17 99.5q0 63 20 126
t61.5 117.5t105 97.5t149.5 67l162 43q40 0 68 -4t57 -14l-20 -245h-25l-64 181q-36 19 -66.5 24.5t-69.5 5.5q-50 -28 -79.5 -69t-44.5 -85t-19.5 -86.5t-4.5 -72.5q0 -101 31.5 -180.5t110.5 -137.5l5 1l38 261l-40 10v25h272v-25l-27 -10l-35 -235z" />
    <glyph glyph-name="gbreve" unicode="&#x11f;" horiz-adv-x="572" 
d="M5 -235l29 171h231q5 13 8.5 26.5t6.5 31.5l22 122l-144 -126q-54 21 -85.5 65.5t-31.5 109.5q0 49 18 89t50 74t75.5 62t94.5 53l114 57q38 0 77 -9.5t82 -32.5l-65 -366q-4 -22 -25.5 -46t-55 -50t-75 -53.5t-85.5 -55.5l-187 -122h-54zM234 245q0 -44 8.5 -71
t30.5 -53l34 25l47 267q-23 18 -55 18q-16 -16 -28 -38t-20.5 -47.5t-12.5 -51.5t-4 -49zM347 652q27 0 50 6t41 15t32 19.5t25 18.5l16 -15q-14 -23 -28 -39.5t-32 -31t-42.5 -27.5t-61.5 -28q-32 0 -58 10.5t-45.5 27.5t-32.5 40t-19 48l22 15q7 -8 18.5 -18.5t28 -19.5
t38 -15t48.5 -6z" />
    <glyph glyph-name="Gdotaccent" unicode="&#x120;" horiz-adv-x="702" 
d="M447 902l71 5l54 -7l-5 -71l-25 -60l-66 -7l-58 7l6 72zM312 -18q-60 0 -107 26.5t-79 67.5t-49 91.5t-17 99.5q0 63 20 126t61.5 117.5t105 97.5t149.5 67l162 43q40 0 68 -4t57 -14l-20 -245h-25l-64 181q-36 19 -66.5 24.5t-69.5 5.5q-50 -28 -79.5 -69t-44.5 -85
t-19.5 -86.5t-4.5 -72.5q0 -101 31.5 -180.5t110.5 -137.5l5 1l38 261l-40 10v25h272v-25l-27 -10l-35 -235z" />
    <glyph glyph-name="gdotaccent" unicode="&#x121;" horiz-adv-x="572" 
d="M5 -235l29 171h231q5 13 8.5 26.5t6.5 31.5l22 122l-144 -126q-54 21 -85.5 65.5t-31.5 109.5q0 49 18 89t50 74t75.5 62t94.5 53l114 57q38 0 77 -9.5t82 -32.5l-65 -366q-4 -22 -25.5 -46t-55 -50t-75 -53.5t-85.5 -55.5l-187 -122h-54zM234 245q0 -44 8.5 -71
t30.5 -53l34 25l47 267q-23 18 -55 18q-16 -16 -28 -38t-20.5 -47.5t-12.5 -51.5t-4 -49zM304 725l71 5l54 -7l-5 -71l-25 -60l-66 -7l-58 7l6 72z" />
    <glyph glyph-name="Gcommaaccent" unicode="&#x122;" horiz-adv-x="692" 
d="M280 -145l-49 55l7 40h170l-14 -80l-167 -124l-24 4zM302 -18q-60 0 -107 26.5t-79 67.5t-49 91.5t-17 99.5q0 63 20 126t61.5 117.5t105 97.5t149.5 67l162 43q40 0 68 -4t57 -14l-20 -245h-25l-64 181q-36 19 -66.5 24.5t-69.5 5.5q-50 -28 -79.5 -69t-44.5 -85
t-19.5 -86.5t-4.5 -72.5q0 -101 31.5 -180.5t110.5 -137.5l5 1l38 261l-40 10v25h272v-25l-27 -10l-35 -235z" />
    <glyph glyph-name="gcommaaccent" unicode="&#x123;" horiz-adv-x="572" 
d="M5 -235l29 171h231q5 13 8.5 26.5t6.5 31.5l22 122l-144 -126q-54 21 -85.5 65.5t-31.5 109.5q0 49 18 89t50 74t75.5 62t94.5 53l114 57q38 0 77 -9.5t82 -32.5l-65 -366q-4 -22 -25.5 -46t-55 -50t-75 -53.5t-85.5 -55.5l-187 -122h-54zM234 245q0 -44 8.5 -71
t30.5 -53l34 25l47 267q-23 18 -55 18q-16 -16 -28 -38t-20.5 -47.5t-12.5 -51.5t-4 -49zM411 669l47 -62l-8 -45h-170l16 90l171 140l23 -5z" />
    <glyph glyph-name="Hcircumflex" unicode="&#x124;" horiz-adv-x="735" 
d="M775 675l-42 -10l-96 -630l40 -10v-25h-291v25l42 10l47 313h-172l-47 -313l40 -10v-25h-291v25l42 10l95 630l-40 10v25h292v-25l-42 -10l-44 -287h171l44 287l-40 10v25h292v-25zM334 771h-35l157 138h80l107 -138h-35l-120 66h-10z" />
    <glyph glyph-name="hcircumflex" unicode="&#x125;" horiz-adv-x="605" 
d="M116 771h-35l157 138h80l107 -138h-35l-120 66h-10zM219 0h-189l112 640l-84 -15l-6 20l257 67l32 -26l-52 -291l146 105q77 0 105 -34.5t14 -112.5l-53 -297l86 58l13 -16l-157 -116l-136 50l56 317q5 24 -4.5 34t-20.5 10t-21.5 -5t-24.5 -15l-8 -5z" />
    <glyph glyph-name="Hbar" unicode="&#x126;" horiz-adv-x="735" 
d="M775 675l-42 -10l-96 -630l40 -10v-25h-291v25l42 10l47 313h-172l-47 -313l40 -10v-25h-291v25l42 10l95 630l-40 10v25h292v-25l-42 -10l-20 -128h172l19 128l-40 10v25h292v-25zM308 378h171l21 134h-172z" />
    <glyph glyph-name="hbar" unicode="&#x127;" horiz-adv-x="605" 
d="M219 0h-189l96 552h-72l5 25h72l11 63l-84 -15l-6 20l257 67l32 -26l-20 -109h63l-5 -25h-62l-28 -157l146 105q77 0 105 -34.5t14 -112.5l-53 -297l86 58l13 -16l-157 -116l-136 50l56 317q5 24 -4.5 34t-20.5 10t-21.5 -5t-24.5 -15l-8 -5z" />
    <glyph glyph-name="Itilde" unicode="&#x128;" horiz-adv-x="354" 
d="M151 899l35 10l215 -59l60 59h20l-66 -152l-36 -8l-217 62l-58 -62h-20zM394 675l-42 -10l-96 -630l40 -10v-25h-291v25l42 10l95 630l-40 10v25h292v-25z" />
    <glyph glyph-name="itilde" unicode="&#x129;" horiz-adv-x="337" 
d="M34 32l67 379l-71 -21l-5 20l250 87l27 -23l-74 -418l86 58l13 -16l-157 -116zM75 714l35 10l215 -59l60 59h20l-66 -152l-36 -8l-217 62l-58 -62h-20z" />
    <glyph glyph-name="Imacron" unicode="&#x12a;" horiz-adv-x="354" 
d="M127 868h300l-15 -80h-300zM394 675l-42 -10l-96 -630l40 -10v-25h-291v25l42 10l95 630l-40 10v25h292v-25z" />
    <glyph glyph-name="imacron" unicode="&#x12b;" horiz-adv-x="337" 
d="M77 680h300l-15 -80h-300zM34 32l67 379l-71 -21l-5 20l250 87l27 -23l-74 -418l86 58l13 -16l-157 -116z" />
    <glyph glyph-name="Ibreve" unicode="&#x12c;" horiz-adv-x="354" 
d="M278 846q27 0 50 6t41 15t32 19.5t25 18.5l16 -15q-14 -23 -28 -39.5t-32 -31t-42.5 -27.5t-61.5 -28q-32 0 -58 10.5t-45.5 27.5t-32.5 40t-19 48l22 15q7 -8 18.5 -18.5t28 -19.5t38 -15t48.5 -6zM394 675l-42 -10l-96 -630l40 -10v-25h-291v25l42 10l95 630l-40 10v25
h292v-25z" />
    <glyph glyph-name="ibreve" unicode="&#x12d;" horiz-adv-x="337" 
d="M34 32l67 379l-71 -21l-5 20l250 87l27 -23l-74 -418l86 58l13 -16l-157 -116zM227 652q27 0 50 6t41 15t32 19.5t25 18.5l16 -15q-14 -23 -28 -39.5t-32 -31t-42.5 -27.5t-61.5 -28q-32 0 -58 10.5t-45.5 27.5t-32.5 40t-19 48l22 15q7 -8 18.5 -18.5t28 -19.5t38 -15
t48.5 -6z" />
    <glyph glyph-name="Iogonek" unicode="&#x12e;" horiz-adv-x="354" 
d="M394 675l-42 -10l-96 -630l40 -10v-25h-93l-57 -100l-9 -50q-3 -15 -2.5 -30.5t9 -27.5t27.5 -19.5t54 -7.5l-3 -15q-59 0 -99 6.5t-63.5 19t-31.5 31.5t-3 44l13 74l125 75h-158v25l42 10l95 630l-40 10v25h292v-25z" />
    <glyph glyph-name="iogonek" unicode="&#x12f;" horiz-adv-x="337" 
d="M101 411l-71 -21l-5 20l250 87l27 -23l-74 -418l86 58l13 -16l-108 -80l-68 -118l-9 -50q-3 -15 -2.5 -30.5t9 -27.5t27.5 -19.5t54 -7.5l-3 -15q-59 0 -99 6.5t-63.5 19t-31.5 31.5t-3 44l13 74l107 64l-116 43zM174 700l49 8l103 -8v-82l-25 -65l-45 -10l-111 10l3 73z
" />
    <glyph glyph-name="Idotaccent" unicode="&#x130;" horiz-adv-x="354" 
d="M231 892l71 5l54 -7l-5 -71l-25 -60l-66 -7l-58 7l6 72zM394 675l-42 -10l-96 -630l40 -10v-25h-291v25l42 10l95 630l-40 10v25h292v-25z" />
    <glyph glyph-name="dotlessi" unicode="&#x131;" horiz-adv-x="337" 
d="M34 32l67 379l-71 -21l-5 20l250 87l27 -23l-74 -418l86 58l13 -16l-157 -116z" />
    <glyph glyph-name="IJ" unicode="&#x132;" horiz-adv-x="701" 
d="M394 675l-42 -10l-96 -630l40 -10v-25h-291v25l42 10l95 630l-40 10v25h292v-25zM494 666l-40 10v25h292v-25l-42 -10l-72 -478q-11 -69 -44 -122.5t-79 -82.5l-241 -152h-43l34 150h126q12 56 19.5 96.5t13.5 84.5z" />
    <glyph glyph-name="ij" unicode="&#x133;" horiz-adv-x="648" 
d="M101 411l-71 -21l-5 20l250 87l27 -23l-74 -418l86 58l13 -16l-157 -116l-136 50zM174 700l49 8l103 -8v-82l-25 -65l-45 -10l-111 10l3 73zM491 700l49 8l103 -8v-82l-25 -65l-45 -10l-111 10l3 73zM418 411l-71 -21l-5 20l250 87l27 -23l-68 -384q-4 -20 -20 -42.5
t-39.5 -46t-52 -48t-58.5 -49.5l-164 -139h-46l28 161h128q7 20 11.5 39.5t8.5 42.5z" />
    <glyph glyph-name="Jcircumflex" unicode="&#x134;" horiz-adv-x="351" 
d="M127 771h-35l157 138h80l107 -138h-35l-120 66h-10zM144 665l-40 10v25h292v-25l-42 -10l-72 -478q-11 -69 -44 -122.5t-79 -82.5l-241 -152h-43l34 150h126q12 56 19.5 96.5t13.5 84.5z" />
    <glyph glyph-name="jcircumflex" unicode="&#x135;" horiz-adv-x="342" 
d="M112 411l-71 -21l-5 20l250 87l27 -23l-68 -384q-4 -20 -20 -42.5t-39.5 -46t-52 -48t-58.5 -49.5l-164 -139h-46l28 161h128q7 20 11.5 39.5t8.5 42.5zM97 567h-30l148 178h70l86 -178h-30l-103 85h-8z" />
    <glyph glyph-name="Kcommaaccent" unicode="&#x136;" horiz-adv-x="744" 
d="M315 -145l-49 55l7 40h170l-14 -80l-167 -124l-24 4zM310 389l307 276l-88 11v24h235v-24l-95 -11l-314 -274l180 -21l147 -335l27 -10v-25h-248l-155 368l-50 -333l40 -10v-25h-291v25l42 10l95 630l-40 10v25h292v-25l-42 -10z" />
    <glyph glyph-name="kcommaaccent" unicode="&#x137;" horiz-adv-x="621" 
d="M207 -145l-49 55l7 40h170l-14 -80l-167 -124l-24 4zM331 30l-63 239l-49 -269h-189l112 640l-84 -15l-6 20l257 67l32 -26l-70 -402l185 206h116l-37 -174h-204l-45 -37l198 -52l51 -162l68 45l13 -16l-152 -112z" />
    <glyph glyph-name="kgreenlandic" unicode="&#x138;" horiz-adv-x="621" 
d="M271 284l185 206h116l-37 -174h-204l-45 -37l198 -52l51 -162l68 45l13 -16l-152 -112l-133 48l-63 239l-49 -269h-189l72 411l-70 -21l-6 20l250 87l27 -23z" />
    <glyph glyph-name="Lacute" unicode="&#x139;" horiz-adv-x="558" 
d="M306 909h155l-190 -138h-35zM253 25h135l140 189h25l-34 -214h-514v25l40 10l95 630l-40 10v25h292v-25l-42 -10z" />
    <glyph glyph-name="lacute" unicode="&#x13a;" horiz-adv-x="356" 
d="M279 909h155l-190 -138h-35zM35 32l107 608l-84 -15l-6 20l257 67l32 -26l-112 -630l86 58l13 -16l-157 -116z" />
    <glyph glyph-name="Lcommaaccent" unicode="&#x13b;" horiz-adv-x="558" 
d="M230 -145l-49 55l7 40h170l-14 -80l-167 -124l-24 4zM253 25h135l140 189h25l-34 -214h-514v25l40 10l95 630l-40 10v25h292v-25l-42 -10z" />
    <glyph glyph-name="lcommaaccent" unicode="&#x13c;" horiz-adv-x="356" 
d="M65 -145l-49 55l7 40h170l-14 -80l-167 -124l-24 4zM35 32l107 608l-84 -15l-6 20l257 67l32 -26l-112 -630l86 58l13 -16l-157 -116z" />
    <glyph glyph-name="Lcaron" unicode="&#x13d;" horiz-adv-x="538" 
d="M451 403l109 145l-62 -4l-37 8l7 84l26 67l109 7l40 -7l-7 -78l-26 -73l-141 -157zM233 25h135l140 189h25l-34 -214h-514v25l40 10l95 630l-40 10v25h292v-25l-42 -10z" />
    <glyph glyph-name="lcaron" unicode="&#x13e;" horiz-adv-x="511" 
d="M336 515l77 105l-49 55l7 40h170l-14 -80l-167 -124zM35 32l107 608l-84 -15l-6 20l257 67l32 -26l-112 -630l86 58l13 -16l-157 -116z" />
    <glyph glyph-name="Ldot" unicode="&#x13f;" horiz-adv-x="578" 
d="M533 481l38 -9l-4 -74l-21 -66l-102 -7l-38 7l6 76l19 64zM253 25h135l140 189h25l-34 -214h-514v25l40 10l95 630l-40 10v25h292v-25l-42 -10z" />
    <glyph glyph-name="ldot" unicode="&#x140;" horiz-adv-x="471" 
d="M341 472l102 9l38 -9l-4 -74l-21 -66l-102 -7l-38 7l6 76zM35 32l107 608l-84 -15l-6 20l257 67l32 -26l-112 -630l86 58l13 -16l-157 -116z" />
    <glyph glyph-name="Lslash" unicode="&#x141;" horiz-adv-x="558" 
d="M315 438l85 38l-7 -31l-82 -37l-58 -383h135l140 189h25l-34 -214h-514v25l40 10l41 271l-46 -20l7 31l43 19l50 329l-40 10v25h292v-25l-42 -10z" />
    <glyph glyph-name="lslash" unicode="&#x142;" horiz-adv-x="356" 
d="M35 32l48 274l-55 -25l5 28l55 25l54 306l-84 -15l-6 20l257 67l32 -26l-46 -258l61 28l-5 -28l-61 -28l-61 -344l86 58l13 -16l-157 -116z" />
    <glyph glyph-name="Nacute" unicode="&#x143;" horiz-adv-x="647" 
d="M466 909h155l-190 -138h-35zM617 666l-55 10v25h130v-25l-40 -10l-100 -666h-156l-229 617l-87 -582l55 -10l-5 -25h-125v25l40 10l95 630l-40 10v25h262l186 -484z" />
    <glyph glyph-name="nacute" unicode="&#x144;" horiz-adv-x="602" 
d="M218 0h-189l72 411l-70 -21l-6 20l250 87l27 -23l-14 -78l144 104q77 0 105 -34.5t14 -112.5l-53 -297l86 58l13 -16l-157 -116l-136 50l56 317q5 24 -4.5 34t-20.5 10t-21.5 -5t-24.5 -15l-6 -4zM381 745h150l-181 -178h-35z" />
    <glyph glyph-name="Ncommaaccent" unicode="&#x145;" horiz-adv-x="647" 
d="M250 -145l-49 55l7 40h170l-14 -80l-167 -124l-24 4zM617 666l-55 10v25h130v-25l-40 -10l-100 -666h-156l-229 617l-87 -582l55 -10l-5 -25h-125v25l40 10l95 630l-40 10v25h262l186 -484z" />
    <glyph glyph-name="ncommaaccent" unicode="&#x146;" horiz-adv-x="602" 
d="M222 -145l-49 55l7 40h170l-14 -80l-167 -124l-24 4zM218 0h-189l72 411l-70 -21l-6 20l250 87l27 -23l-14 -78l144 104q77 0 105 -34.5t14 -112.5l-53 -297l86 58l13 -16l-157 -116l-136 50l56 317q5 24 -4.5 34t-20.5 10t-21.5 -5t-24.5 -15l-6 -4z" />
    <glyph glyph-name="Ncaron" unicode="&#x147;" horiz-adv-x="647" 
d="M446 843l144 66h35l-157 -138h-80l-107 138h35l120 -66h10zM617 666l-55 10v25h130v-25l-40 -10l-100 -666h-156l-229 617l-87 -582l55 -10l-5 -25h-125v25l40 10l95 630l-40 10v25h262l186 -484z" />
    <glyph glyph-name="ncaron" unicode="&#x148;" horiz-adv-x="602" 
d="M218 0h-189l72 411l-70 -21l-6 20l250 87l27 -23l-14 -78l144 104q77 0 105 -34.5t14 -112.5l-53 -297l86 58l13 -16l-157 -116l-136 50l56 317q5 24 -4.5 34t-20.5 10t-21.5 -5t-24.5 -15l-6 -4zM384 660l133 85h30l-148 -178h-70l-86 178h30l103 -85h8z" />
    <glyph glyph-name="napostrophe" unicode="&#x149;" horiz-adv-x="602" 
d="M95 515l77 105l-49 55l7 40h170l-14 -80l-167 -124zM218 0h-189l72 411l-70 -21l-6 20l250 87l27 -23l-14 -78l144 104q77 0 105 -34.5t14 -112.5l-53 -297l86 58l13 -16l-157 -116l-136 50l56 317q5 24 -4.5 34t-20.5 10t-21.5 -5t-24.5 -15l-6 -4z" />
    <glyph glyph-name="Eng" unicode="&#x14a;" horiz-adv-x="647" 
d="M617 666l-55 10v25h130v-25l-40 -10l-100 -666h5l-137 -238h-154l33 148h136l111 90h-150l-229 617l-87 -582l55 -10l-5 -25h-125v25l40 10l95 630l-40 10v25h262l186 -484z" />
    <glyph glyph-name="eng" unicode="&#x14b;" horiz-adv-x="602" 
d="M125 -235l28 161h128q7 20 11.5 39.5t8.5 42.5l59 341q5 24 -4.5 34t-20.5 10t-21.5 -5t-24.5 -15l-6 -4l-65 -369h-189l72 411l-70 -21l-6 20l250 87l27 -23l-14 -78l144 104q77 0 105 -34.5t14 -112.5l-46 -263q-3 -19 -16.5 -39t-34.5 -41.5t-46.5 -44t-52.5 -45.5
l-184 -155h-46z" />
    <glyph glyph-name="Omacron" unicode="&#x14c;" horiz-adv-x="749" 
d="M313 868h300l-15 -80h-300zM280 323q0 -58 7.5 -112t21.5 -96.5t34 -68.5t46 -28q67 45 93.5 139.5t26.5 219.5q0 59 -7.5 114t-21.5 97.5t-34 69t-46 28.5q-30 -19 -52.5 -54.5t-37.5 -83t-22.5 -105t-7.5 -120.5zM435 718q71 0 127.5 -23.5t95.5 -66.5t60 -103.5
t21 -133.5q0 -58 -15.5 -114.5t-50.5 -107t-91 -91.5t-137 -67l-91 -29q-71 0 -127.5 23.5t-95.5 66.5t-60 103t-21 134q0 58 15.5 114.5t50.5 107t91 91.5t137 67z" />
    <glyph glyph-name="omacron" unicode="&#x14d;" horiz-adv-x="549" 
d="M202 680h300l-15 -80h-300zM270 455q-12 -15 -21 -39.5t-15 -54.5t-9 -64t-3 -69q0 -84 21.5 -134t50.5 -64q12 15 21 39.5t15 54.5t9 64t3 69q0 84 -21.5 134t-50.5 64zM326 500q46 0 85 -12.5t67.5 -37t44.5 -61t16 -85.5q0 -41 -11 -80t-35 -74.5t-61.5 -66
t-90.5 -53.5l-103 -45q-46 0 -85 12.5t-67.5 37t-44.5 61t-16 85.5q0 40 11 79.5t35 75t61.5 66t90.5 53.5z" />
    <glyph glyph-name="Obreve" unicode="&#x14e;" horiz-adv-x="749" 
d="M458 846q27 0 50 6t41 15t32 19.5t25 18.5l16 -15q-14 -23 -28 -39.5t-32 -31t-42.5 -27.5t-61.5 -28q-32 0 -58 10.5t-45.5 27.5t-32.5 40t-19 48l22 15q7 -8 18.5 -18.5t28 -19.5t38 -15t48.5 -6zM280 323q0 -58 7.5 -112t21.5 -96.5t34 -68.5t46 -28q67 45 93.5 139.5
t26.5 219.5q0 59 -7.5 114t-21.5 97.5t-34 69t-46 28.5q-30 -19 -52.5 -54.5t-37.5 -83t-22.5 -105t-7.5 -120.5zM435 718q71 0 127.5 -23.5t95.5 -66.5t60 -103.5t21 -133.5q0 -58 -15.5 -114.5t-50.5 -107t-91 -91.5t-137 -67l-91 -29q-71 0 -127.5 23.5t-95.5 66.5
t-60 103t-21 134q0 58 15.5 114.5t50.5 107t91 91.5t137 67z" />
    <glyph glyph-name="obreve" unicode="&#x14f;" horiz-adv-x="549" 
d="M270 455q-12 -15 -21 -39.5t-15 -54.5t-9 -64t-3 -69q0 -84 21.5 -134t50.5 -64q12 15 21 39.5t15 54.5t9 64t3 69q0 84 -21.5 134t-50.5 64zM326 500q46 0 85 -12.5t67.5 -37t44.5 -61t16 -85.5q0 -41 -11 -80t-35 -74.5t-61.5 -66t-90.5 -53.5l-103 -45q-46 0 -85 12.5
t-67.5 37t-44.5 61t-16 85.5q0 40 11 79.5t35 75t61.5 66t90.5 53.5zM337 652q27 0 50 6t41 15t32 19.5t25 18.5l16 -15q-14 -23 -28 -39.5t-32 -31t-42.5 -27.5t-61.5 -28q-32 0 -58 10.5t-45.5 27.5t-32.5 40t-19 48l22 15q7 -8 18.5 -18.5t28 -19.5t38 -15t48.5 -6z" />
    <glyph glyph-name="Ohungarumlaut" unicode="&#x150;" horiz-adv-x="749" 
d="M569 909h155l-190 -138h-35zM369 909h155l-190 -138h-35zM280 323q0 -58 7.5 -112t21.5 -96.5t34 -68.5t46 -28q67 45 93.5 139.5t26.5 219.5q0 59 -7.5 114t-21.5 97.5t-34 69t-46 28.5q-30 -19 -52.5 -54.5t-37.5 -83t-22.5 -105t-7.5 -120.5zM435 718
q71 0 127.5 -23.5t95.5 -66.5t60 -103.5t21 -133.5q0 -58 -15.5 -114.5t-50.5 -107t-91 -91.5t-137 -67l-91 -29q-71 0 -127.5 23.5t-95.5 66.5t-60 103t-21 134q0 58 15.5 114.5t50.5 107t91 91.5t137 67z" />
    <glyph glyph-name="ohungarumlaut" unicode="&#x151;" horiz-adv-x="549" 
d="M270 455q-12 -15 -21 -39.5t-15 -54.5t-9 -64t-3 -69q0 -84 21.5 -134t50.5 -64q12 15 21 39.5t15 54.5t9 64t3 69q0 84 -21.5 134t-50.5 64zM326 500q46 0 85 -12.5t67.5 -37t44.5 -61t16 -85.5q0 -41 -11 -80t-35 -74.5t-61.5 -66t-90.5 -53.5l-103 -45q-46 0 -85 12.5
t-67.5 37t-44.5 61t-16 85.5q0 40 11 79.5t35 75t61.5 66t90.5 53.5zM453 735h150l-179 -168h-35zM262 735h150l-179 -168h-35z" />
    <glyph glyph-name="OE" unicode="&#x152;" horiz-adv-x="1010" 
d="M450 35l95 631l-125 20q-36 -19 -63 -54.5t-45 -83t-27.5 -105t-9.5 -120.5q0 -58 6 -112t17 -96.5t28 -68.5t38 -28zM329 -18q-66 0 -119 23.5t-89.5 66.5t-56 103t-19.5 134q0 58 17 114t55 105.5t98.5 91t148.5 69.5l91 29l100 -18h466l-32 -200h-25l-59 175h-149
l-49 -322h70l86 133h20l-46 -290h-20l-44 132h-69l-46 -303h175l109 184h25l-33 -209h-524z" />
    <glyph glyph-name="oe" unicode="&#x153;" horiz-adv-x="800" 
d="M526 -15q-88 8 -139 68q-21 -12 -46 -23l-103 -45q-46 0 -85 12.5t-67.5 37t-44.5 61t-16 85.5q0 40 11 79.5t35 75t61.5 66t90.5 53.5l103 45q57 0 102.5 -18.5t73.5 -56.5l120 50l60 25q25 -3 45 -14.5t34 -28t21.5 -38t7.5 -43.5q0 -19 -2.5 -36.5t-14.5 -38.5
l-237 -72q14 -42 41.5 -78.5t69.5 -53.5q29 14 57.5 28.5t60.5 33.5l12 -16q-32 -21 -58.5 -37.5t-58.5 -36.5zM270 455q-12 -15 -21 -39.5t-15 -54.5t-9 -64t-3 -69q0 -84 21.5 -134t50.5 -64q12 15 21 39.5t15 54.5t9 64t3 69q0 84 -21.5 134t-50.5 64zM582 268
q8 21 8.5 40.5t0.5 36.5q0 14 -3 27.5t-8 25t-11.5 19.5t-13.5 11q-10 -11 -16 -26.5t-9.5 -33.5t-4 -36t-0.5 -33q0 -25 6 -52z" />
    <glyph glyph-name="Racute" unicode="&#x154;" horiz-adv-x="690" 
d="M335 337l210 -31l86 -271l27 -10v-25h-243l-105 332h-11l-45 -297l36 -10v-25h-285v25l40 10l95 630l-40 10v25h347q49 0 89.5 -11t69 -30.5t43.5 -46t15 -57.5q-1 -49 -24.5 -82.5t-59.5 -56.5t-78.5 -36.5t-80.5 -22.5zM344 367q42 24 66 77t24 119q0 56 -21 84t-47 28
h-15l-47 -308h40zM411 909h155l-190 -138h-35z" />
    <glyph glyph-name="racute" unicode="&#x155;" horiz-adv-x="465" 
d="M28 0l73 411l-71 -21l-5 20l250 87l27 -23l-35 -197l138 213h80l-32 -184h-145l-49 -72l-41 -234h-190zM341 745h150l-181 -178h-35z" />
    <glyph glyph-name="Rcommaaccent" unicode="&#x156;" horiz-adv-x="690" 
d="M335 337l210 -31l86 -271l27 -10v-25h-243l-105 332h-11l-45 -297l36 -10v-25h-285v25l40 10l95 630l-40 10v25h347q49 0 89.5 -11t69 -30.5t43.5 -46t15 -57.5q-1 -49 -24.5 -82.5t-59.5 -56.5t-78.5 -36.5t-80.5 -22.5zM344 367q42 24 66 77t24 119q0 56 -21 84t-47 28
h-15l-47 -308h40zM265 -145l-49 55l7 40h170l-14 -80l-167 -124l-24 4z" />
    <glyph glyph-name="rcommaaccent" unicode="&#x157;" horiz-adv-x="465" 
d="M28 0l73 411l-71 -21l-5 20l250 87l27 -23l-35 -197l138 213h80l-32 -184h-145l-49 -72l-41 -234h-190zM72 -145l-49 55l7 40h170l-14 -80l-167 -124l-24 4z" />
    <glyph glyph-name="Rcaron" unicode="&#x158;" horiz-adv-x="690" 
d="M335 337l210 -31l86 -271l27 -10v-25h-243l-105 332h-11l-45 -297l36 -10v-25h-285v25l40 10l95 630l-40 10v25h347q49 0 89.5 -11t69 -30.5t43.5 -46t15 -57.5q-1 -49 -24.5 -82.5t-59.5 -56.5t-78.5 -36.5t-80.5 -22.5zM344 367q42 24 66 77t24 119q0 56 -21 84t-47 28
h-15l-47 -308h40zM421 843l144 66h35l-157 -138h-80l-107 138h35l120 -66h10z" />
    <glyph glyph-name="rcaron" unicode="&#x159;" horiz-adv-x="465" 
d="M28 0l73 411l-71 -21l-5 20l250 87l27 -23l-35 -197l138 213h80l-32 -184h-145l-49 -72l-41 -234h-190zM321 660l133 85h30l-148 -178h-70l-86 178h30l103 -85h8z" />
    <glyph glyph-name="Sacute" unicode="&#x15a;" horiz-adv-x="533" 
d="M391 909h155l-190 -138h-35zM337 718q75 0 133 -12.5t93 -31.5l-46 -213h-25l-45 151q-35 29 -71.5 45t-81.5 18q-26 -13 -37 -31t-11 -38q0 -24 15 -43t49 -47l115 -94q46 -38 72 -81.5t26 -109.5q0 -32 -11 -63.5t-33 -59.5t-53.5 -51t-72.5 -36l-117 -39
q-78 0 -130.5 16.5t-95.5 45.5l64 226h26l9 -149q16 -16 41 -30.5t54 -25t60.5 -16.5t60.5 -6q29 31 29 78q0 17 -6 31.5t-15.5 27t-20.5 23t-21 19.5l-97 82q-52 44 -83 87t-31 99q0 64 41 107.5t130 82.5z" />
    <glyph glyph-name="sacute" unicode="&#x15b;" horiz-adv-x="425" 
d="M141 -15q-16 3 -36 8t-39 10.5t-35.5 11t-25.5 9.5l56 128q40 -20 90 -49t104 -55q10 9 10 22q0 11 -6 21t-22 20l-119 73q-35 22 -54.5 50t-19.5 61q0 38 23.5 76.5t85.5 70.5l115 58q31 -3 66.5 -14.5t85.5 -31.5l-69 -123q-42 26 -87.5 53.5t-90.5 50.5q-6 -7 -6 -19
q0 -13 6.5 -23.5t28.5 -24.5l116 -72q41 -25 54 -52t13 -62q0 -26 -8.5 -48t-23.5 -39.5t-34.5 -30.5t-41.5 -22zM291 745h150l-181 -178h-35z" />
    <glyph glyph-name="Scircumflex" unicode="&#x15c;" horiz-adv-x="533" 
d="M240 771h-35l157 138h80l107 -138h-35l-120 66h-10zM337 718q75 0 133 -12.5t93 -31.5l-46 -213h-25l-45 151q-35 29 -71.5 45t-81.5 18q-26 -13 -37 -31t-11 -38q0 -24 15 -43t49 -47l115 -94q46 -38 72 -81.5t26 -109.5q0 -32 -11 -63.5t-33 -59.5t-53.5 -51t-72.5 -36
l-117 -39q-78 0 -130.5 16.5t-95.5 45.5l64 226h26l9 -149q16 -16 41 -30.5t54 -25t60.5 -16.5t60.5 -6q29 31 29 78q0 17 -6 31.5t-15.5 27t-20.5 23t-21 19.5l-97 82q-52 44 -83 87t-31 99q0 64 41 107.5t130 82.5z" />
    <glyph glyph-name="scircumflex" unicode="&#x15d;" horiz-adv-x="425" 
d="M141 -15q-16 3 -36 8t-39 10.5t-35.5 11t-25.5 9.5l56 128q40 -20 90 -49t104 -55q10 9 10 22q0 11 -6 21t-22 20l-119 73q-35 22 -54.5 50t-19.5 61q0 38 23.5 76.5t85.5 70.5l115 58q31 -3 66.5 -14.5t85.5 -31.5l-69 -123q-42 26 -87.5 53.5t-90.5 50.5q-6 -7 -6 -19
q0 -13 6.5 -23.5t28.5 -24.5l116 -72q41 -25 54 -52t13 -62q0 -26 -8.5 -48t-23.5 -39.5t-34.5 -30.5t-41.5 -22zM157 567h-30l148 178h70l86 -178h-30l-103 85h-8z" />
    <glyph glyph-name="Scedilla" unicode="&#x15e;" horiz-adv-x="533" 
d="M337 718q75 0 133 -12.5t93 -31.5l-46 -213h-25l-45 151q-35 29 -71.5 45t-81.5 18q-26 -13 -37 -31t-11 -38q0 -24 15 -43t49 -47l115 -94q46 -38 72 -81.5t26 -109.5q0 -32 -11 -63.5t-33 -59.5t-53.5 -51t-72.5 -36l-117 -39h-6l-11 -17q24 -4 40.5 -12.5t26.5 -20
t14 -24t4 -24.5q0 -20 -12 -34.5t-30.5 -25.5t-41.5 -20t-45 -18l-86 -36h-32l41 65h91q6 9 9.5 18.5t3.5 21.5q0 30 -13.5 38t-33.5 12l51 78q-66 3 -112 19t-84 42l64 226h26l9 -149q16 -16 41 -30.5t54 -25t60.5 -16.5t60.5 -6q29 31 29 78q0 17 -6 31.5t-15.5 27
t-20.5 23t-21 19.5l-97 82q-52 44 -83 87t-31 99q0 64 41 107.5t130 82.5z" />
    <glyph glyph-name="scedilla" unicode="&#x15f;" horiz-adv-x="425" 
d="M147 -12l-15 -23q24 -4 40.5 -12.5t26.5 -20t14 -24t4 -24.5q0 -20 -12 -34.5t-30.5 -25.5t-41.5 -20t-45 -18l-86 -36h-32l41 65h91q6 9 9.5 18.5t3.5 21.5q0 30 -13.5 38t-33.5 12l54 84q-32 7 -66.5 17.5t-50.5 17.5l56 128q40 -20 90 -49t104 -55q10 9 10 22
q0 11 -6 21t-22 20l-119 73q-35 22 -54.5 50t-19.5 61q0 38 23.5 76.5t85.5 70.5l115 58q31 -3 66.5 -14.5t85.5 -31.5l-69 -123q-42 26 -87.5 53.5t-90.5 50.5q-6 -7 -6 -19q0 -13 6.5 -23.5t28.5 -24.5l116 -72q41 -25 54 -52t13 -62q0 -26 -8.5 -48t-23.5 -39.5
t-34.5 -30.5t-41.5 -22z" />
    <glyph glyph-name="Scaron" unicode="&#x160;" horiz-adv-x="533" 
d="M391 843l144 66h35l-157 -138h-80l-107 138h35l120 -66h10zM337 718q75 0 133 -12.5t93 -31.5l-46 -213h-25l-45 151q-35 29 -71.5 45t-81.5 18q-26 -13 -37 -31t-11 -38q0 -24 15 -43t49 -47l115 -94q46 -38 72 -81.5t26 -109.5q0 -32 -11 -63.5t-33 -59.5t-53.5 -51
t-72.5 -36l-117 -39q-78 0 -130.5 16.5t-95.5 45.5l64 226h26l9 -149q16 -16 41 -30.5t54 -25t60.5 -16.5t60.5 -6q29 31 29 78q0 17 -6 31.5t-15.5 27t-20.5 23t-21 19.5l-97 82q-52 44 -83 87t-31 99q0 64 41 107.5t130 82.5z" />
    <glyph glyph-name="scaron" unicode="&#x161;" horiz-adv-x="425" 
d="M141 -15q-16 3 -36 8t-39 10.5t-35.5 11t-25.5 9.5l56 128q40 -20 90 -49t104 -55q10 9 10 22q0 11 -6 21t-22 20l-119 73q-35 22 -54.5 50t-19.5 61q0 38 23.5 76.5t85.5 70.5l115 58q31 -3 66.5 -14.5t85.5 -31.5l-69 -123q-42 26 -87.5 53.5t-90.5 50.5q-6 -7 -6 -19
q0 -13 6.5 -23.5t28.5 -24.5l116 -72q41 -25 54 -52t13 -62q0 -26 -8.5 -48t-23.5 -39.5t-34.5 -30.5t-41.5 -22zM284 660l133 85h30l-148 -178h-70l-86 178h30l103 -85h8z" />
    <glyph glyph-name="Tcommaaccent" unicode="&#x162;" horiz-adv-x="603" 
d="M213 -145l-49 55l7 40h170l-14 -80l-167 -124l-24 4zM267 675h-51l-141 -192h-25l30 217h583l-34 -217h-25l-77 192h-51l-97 -640l70 -10v-25h-349v25l70 10z" />
    <glyph glyph-name="tcommaaccent" unicode="&#x163;" horiz-adv-x="385" 
d="M75 -145l-49 55l7 40h170l-14 -80l-167 -124l-24 4zM350 108l10 -17l-194 -109l-136 50l73 408h-62l7 25h59l5 28l176 128h36l-28 -156h99l-5 -25h-98l-70 -392z" />
    <glyph glyph-name="Tcaron" unicode="&#x164;" horiz-adv-x="603" 
d="M404 843l144 66h35l-157 -138h-80l-107 138h35l120 -66h10zM267 675h-51l-141 -192h-25l30 217h583l-34 -217h-25l-77 192h-51l-97 -640l70 -10v-25h-349v25l70 10z" />
    <glyph glyph-name="tcaron" unicode="&#x165;" horiz-adv-x="501" 
d="M346 515l77 105l-49 55l7 40h170l-14 -80l-167 -124zM350 108l10 -17l-194 -109l-136 50l73 408h-62l7 25h59l5 28l176 128h36l-28 -156h99l-5 -25h-98l-70 -392z" />
    <glyph glyph-name="Tbar" unicode="&#x166;" horiz-adv-x="603" 
d="M228 417h-74l5 25h73l35 233h-51l-141 -192h-25l30 217h583l-34 -217h-25l-77 192h-51l-35 -233h68l-5 -25h-67l-58 -382l70 -10v-25h-349v25l70 10z" />
    <glyph glyph-name="tbar" unicode="&#x167;" horiz-adv-x="385" 
d="M350 108l10 -17l-194 -109l-136 50l46 260h-46l5 25h46l22 123h-62l7 25h59l5 28l176 128h36l-28 -156h99l-5 -25h-98l-22 -123h92l-5 -25h-92l-43 -244z" />
    <glyph glyph-name="Utilde" unicode="&#x168;" horiz-adv-x="628" 
d="M327 899l35 10l215 -59l60 59h20l-66 -152l-36 -8l-217 62l-58 -62h-20zM263 243q-7 -41 -1 -74.5t22.5 -57.5t43 -37.5t59.5 -13.5q64 17 101 57t49 117l68 431l-40 10v25h123v-25l-42 -10l-64 -418q-6 -41 -16 -73t-25.5 -57.5t-38.5 -44t-56 -31.5l-153 -59
q-74 0 -124 19t-78 53.5t-36.5 82.5t0.5 107l63 421l-40 10v25h292v-25l-42 -10z" />
    <glyph glyph-name="utilde" unicode="&#x169;" horiz-adv-x="603" 
d="M580 114l13 -16l-157 -116l-136 50l10 57l-140 -104q-77 0 -105 34.5t-14 112.5l50 279l-71 -21l-5 20l250 87l27 -23l-62 -340q-2 -12 -0.5 -20t6 -13t10 -7t10.5 -2q11 0 20 4.5t18 11.5l11 8l65 369h190l-76 -429zM247 714l35 10l215 -59l60 59h20l-66 -152l-36 -8
l-217 62l-58 -62h-20z" />
    <glyph glyph-name="Umacron" unicode="&#x16a;" horiz-adv-x="628" 
d="M322 868h300l-15 -80h-300zM263 243q-7 -41 -1 -74.5t22.5 -57.5t43 -37.5t59.5 -13.5q64 17 101 57t49 117l68 431l-40 10v25h123v-25l-42 -10l-64 -418q-6 -41 -16 -73t-25.5 -57.5t-38.5 -44t-56 -31.5l-153 -59q-74 0 -124 19t-78 53.5t-36.5 82.5t0.5 107l63 421
l-40 10v25h292v-25l-42 -10z" />
    <glyph glyph-name="umacron" unicode="&#x16b;" horiz-adv-x="603" 
d="M246 680h300l-15 -80h-300zM580 114l13 -16l-157 -116l-136 50l10 57l-140 -104q-77 0 -105 34.5t-14 112.5l50 279l-71 -21l-5 20l250 87l27 -23l-62 -340q-2 -12 -0.5 -20t6 -13t10 -7t10.5 -2q11 0 20 4.5t18 11.5l11 8l65 369h190l-76 -429z" />
    <glyph glyph-name="Ubreve" unicode="&#x16c;" horiz-adv-x="628" 
d="M463 846q27 0 50 6t41 15t32 19.5t25 18.5l16 -15q-14 -23 -28 -39.5t-32 -31t-42.5 -27.5t-61.5 -28q-32 0 -58 10.5t-45.5 27.5t-32.5 40t-19 48l22 15q7 -8 18.5 -18.5t28 -19.5t38 -15t48.5 -6zM263 243q-7 -41 -1 -74.5t22.5 -57.5t43 -37.5t59.5 -13.5
q64 17 101 57t49 117l68 431l-40 10v25h123v-25l-42 -10l-64 -418q-6 -41 -16 -73t-25.5 -57.5t-38.5 -44t-56 -31.5l-153 -59q-74 0 -124 19t-78 53.5t-36.5 82.5t0.5 107l63 421l-40 10v25h292v-25l-42 -10z" />
    <glyph glyph-name="ubreve" unicode="&#x16d;" horiz-adv-x="603" 
d="M580 114l13 -16l-157 -116l-136 50l10 57l-140 -104q-77 0 -105 34.5t-14 112.5l50 279l-71 -21l-5 20l250 87l27 -23l-62 -340q-2 -12 -0.5 -20t6 -13t10 -7t10.5 -2q11 0 20 4.5t18 11.5l11 8l65 369h190l-76 -429zM387 652q27 0 50 6t41 15t32 19.5t25 18.5l16 -15
q-14 -23 -28 -39.5t-32 -31t-42.5 -27.5t-61.5 -28q-32 0 -58 10.5t-45.5 27.5t-32.5 40t-19 48l22 15q7 -8 18.5 -18.5t28 -19.5t38 -15t48.5 -6z" />
    <glyph glyph-name="Uring" unicode="&#x16e;" horiz-adv-x="628" 
d="M584 853q0 -25 -9.5 -43t-26 -31.5t-38 -22.5t-46.5 -15q-23 0 -45.5 5.5t-40.5 19t-29 34.5t-11 53q0 24 10.5 42t27.5 31.5t39 22.5t46 16q26 0 48.5 -5.5t39 -18t26 -34t9.5 -54.5zM383 853q0 -33 22.5 -54.5t55.5 -21.5t56 21.5t23 54.5t-23 55t-56 22t-55.5 -22
t-22.5 -55zM263 243q-7 -41 -1 -74.5t22.5 -57.5t43 -37.5t59.5 -13.5q64 17 101 57t49 117l68 431l-40 10v25h123v-25l-42 -10l-64 -418q-6 -41 -16 -73t-25.5 -57.5t-38.5 -44t-56 -31.5l-153 -59q-74 0 -124 19t-78 53.5t-36.5 82.5t0.5 107l63 421l-40 10v25h292v-25
l-42 -10z" />
    <glyph glyph-name="uring" unicode="&#x16f;" horiz-adv-x="603" 
d="M296 662q0 -33 22.5 -54.5t55.5 -21.5t56 21.5t23 54.5t-23 55t-56 22t-55.5 -22t-22.5 -55zM497 662q0 -25 -9.5 -43t-26 -31.5t-38 -22.5t-46.5 -15q-23 0 -45.5 5.5t-40.5 19t-29 34.5t-11 53q0 24 10.5 42t27.5 31.5t39 22.5t46 16q26 0 48.5 -5.5t39 -18t26 -34
t9.5 -54.5zM580 114l13 -16l-157 -116l-136 50l10 57l-140 -104q-77 0 -105 34.5t-14 112.5l50 279l-71 -21l-5 20l250 87l27 -23l-62 -340q-2 -12 -0.5 -20t6 -13t10 -7t10.5 -2q11 0 20 4.5t18 11.5l11 8l65 369h190l-76 -429z" />
    <glyph glyph-name="Uhungarumlaut" unicode="&#x170;" horiz-adv-x="628" 
d="M566 909h155l-190 -138h-35zM366 909h155l-190 -138h-35zM263 243q-7 -41 -1 -74.5t22.5 -57.5t43 -37.5t59.5 -13.5q64 17 101 57t49 117l68 431l-40 10v25h123v-25l-42 -10l-64 -418q-6 -41 -16 -73t-25.5 -57.5t-38.5 -44t-56 -31.5l-153 -59q-74 0 -124 19t-78 53.5
t-36.5 82.5t0.5 107l63 421l-40 10v25h292v-25l-42 -10z" />
    <glyph glyph-name="uhungarumlaut" unicode="&#x171;" horiz-adv-x="603" 
d="M580 114l13 -16l-157 -116l-136 50l10 57l-140 -104q-77 0 -105 34.5t-14 112.5l50 279l-71 -21l-5 20l250 87l27 -23l-62 -340q-2 -12 -0.5 -20t6 -13t10 -7t10.5 -2q11 0 20 4.5t18 11.5l11 8l65 369h190l-76 -429zM493 735h150l-179 -168h-35zM302 735h150l-179 -168
h-35z" />
    <glyph glyph-name="Uogonek" unicode="&#x172;" horiz-adv-x="628" 
d="M263 243q-7 -41 -1 -74.5t22.5 -57.5t43 -37.5t59.5 -13.5q64 17 101 57t49 117l68 431l-40 10v25h123v-25l-42 -10l-64 -418q-6 -41 -16 -73t-25.5 -57.5t-38.5 -44t-56 -31.5l-9 -4l-62 -132l-9 -50q-3 -15 -2.5 -30.5t9 -27.5t27.5 -19.5t54 -7.5l-3 -15
q-59 0 -99 6.5t-63 19t-31 31.5t-4 44l8 49l147 121l-116 -44q-74 0 -124 19t-78 53.5t-36.5 82.5t0.5 107l63 421l-40 10v25h292v-25l-42 -10z" />
    <glyph glyph-name="uogonek" unicode="&#x173;" horiz-adv-x="603" 
d="M494 56l86 58l13 -16l-105 -78l-69 -120l-9 -50q-3 -15 -2.5 -30.5t9 -27.5t27.5 -19.5t54 -7.5l-3 -15q-59 0 -99 6.5t-63.5 19t-31.5 31.5t-3 44l13 74l107 64l-118 43l10 57l-140 -104q-77 0 -105 34.5t-14 112.5l50 279l-71 -21l-5 20l250 87l27 -23l-62 -340
q-2 -12 -0.5 -20t6 -13t10 -7t10.5 -2q11 0 20 4.5t18 11.5l11 8l65 369h190z" />
    <glyph glyph-name="Wcircumflex" unicode="&#x174;" horiz-adv-x="986" 
d="M482 771h-35l157 138h80l107 -138h-35l-120 66h-10zM533 388l-135 -360l-183 -46l-105 683l-40 10v25h318v-25l-70 -10l80 -532l123 330l-31 202l-40 10v25h318v-25l-70 -10l80 -532l198 532l-70 10v25h150v-25l-40 -10l-238 -637l-183 -46z" />
    <glyph glyph-name="wcircumflex" unicode="&#x175;" horiz-adv-x="790" 
d="M391 11l-6 177l-121 -203l-168 26l-19 410l-77 -22l-5 15l239 86l38 -33l19 -391l90 153l-9 194l194 65l20 -412l133 217l-106 114l142 93l30 -34l-9 -129l-218 -352zM347 567h-30l148 178h70l86 -178h-30l-103 85h-8z" />
    <glyph glyph-name="Ycircumflex" unicode="&#x176;" horiz-adv-x="674" 
d="M351 771h-35l157 138h80l107 -138h-35l-120 66h-10zM463 321l195 344l-72 10v25h158v-25l-45 -10l-229 -400l-35 -230l70 -10v-25h-351v25l72 10l37 244l-160 386l-33 12v23h318v-25l-57 -10z" />
    <glyph glyph-name="ycircumflex" unicode="&#x177;" horiz-adv-x="534" 
d="M-8 395l-7 20l229 85l40 -24l71 -415l137 241l-113 105l142 93l38 -30l-24 -152l-157 -278l-197 -275h-154l28 171h183l109 109l-174 -40l-78 412zM215 567h-30l148 178h70l86 -178h-30l-103 85h-8z" />
    <glyph glyph-name="Ydieresis" unicode="&#x178;" horiz-adv-x="674" 
d="M394 896l32 -7l-3 -64l-24 -55l-80 -7l-33 7l4 65l22 54zM634 896l33 -7l-4 -64l-23 -55l-81 -7l-32 7l3 65l23 54zM463 321l195 344l-72 10v25h158v-25l-45 -10l-229 -400l-35 -230l70 -10v-25h-351v25l72 10l37 244l-160 386l-33 12v23h318v-25l-57 -10z" />
    <glyph glyph-name="Zacute" unicode="&#x179;" horiz-adv-x="677" 
d="M406 909h155l-190 -138h-35zM619 224h20l-36 -224h-598v15l444 660h-173l-142 -194h-25l35 219h558v-15l-442 -660h205z" />
    <glyph glyph-name="zacute" unicode="&#x17a;" horiz-adv-x="507" 
d="M431 143l39 29l15 -8l-101 -181l-330 48l-49 -36l-20 9l330 311l-214 14l-32 -30l-17 11l103 185l319 -23l26 14l17 -12l-311 -298zM381 745h150l-181 -178h-35z" />
    <glyph glyph-name="Zdotaccent" unicode="&#x17b;" horiz-adv-x="677" 
d="M370 892l71 5l54 -7l-5 -71l-25 -60l-66 -7l-58 7l6 72zM619 224h20l-36 -224h-598v15l444 660h-173l-142 -194h-25l35 219h558v-15l-442 -660h205z" />
    <glyph glyph-name="zdotaccent" unicode="&#x17c;" horiz-adv-x="507" 
d="M431 143l39 29l15 -8l-101 -181l-330 48l-49 -36l-20 9l330 311l-214 14l-32 -30l-17 11l103 185l319 -23l26 14l17 -12l-311 -298zM314 725l71 5l54 -7l-5 -71l-25 -60l-66 -7l-58 7l6 72z" />
    <glyph glyph-name="Zcaron" unicode="&#x17d;" horiz-adv-x="677" 
d="M418 843l144 66h35l-157 -138h-80l-107 138h35l120 -66h10zM619 224h20l-36 -224h-598v15l444 660h-173l-142 -194h-25l35 219h558v-15l-442 -660h205z" />
    <glyph glyph-name="zcaron" unicode="&#x17e;" horiz-adv-x="507" 
d="M431 143l39 29l15 -8l-101 -181l-330 48l-49 -36l-20 9l330 311l-214 14l-32 -30l-17 11l103 185l319 -23l26 14l17 -12l-311 -298zM364 660l133 85h30l-148 -178h-70l-86 178h30l103 -85h8z" />
    <glyph glyph-name="longs" unicode="&#x17f;" horiz-adv-x="385" 
d="M48 433l7 30h60v1q6 31 22 55t37.5 43t46 33.5t45.5 28.5l145 91h104l-22 -136h-150q-11 -8 -19.5 -33.5t-13.5 -55.5l-76 -431q-5 -26 -20 -49t-37.5 -44.5t-50 -43t-56.5 -44.5l-144 -113h-66l28 161h118q10 11 17.5 35t11.5 47l75 425h-62z" />
    <glyph glyph-name="florin" unicode="&#x192;" horiz-adv-x="422" 
d="M104 463v1q6 31 22 55t37.5 43t46 33.5t45.5 28.5l145 91h84l-22 -136h-130q-11 -8 -19.5 -33.5t-13.5 -55.5l-5 -27h91l-5 -25h-90l-67 -379q-4 -23 -17 -44t-32 -41t-43 -39.5t-50 -39.5l-166 -130h-66l28 161h122q7 11 14 35t11 47l75 430h-65l7 25h63z" />
    <glyph glyph-name="Aringacute" unicode="&#x1fa;" horiz-adv-x="695" 
d="M382 234h-210l-109 -199l70 -10l-4 -25h-159l4 25l42 10l352 624l177 61l82 -685l38 -10l-4 -25h-342l4 25l72 10zM494 741q-23 0 -45.5 5.5t-40.5 19t-29 34.5t-11 53q0 24 10.5 42t27.5 31.5t39 22.5t46 16l23 43h120l-94 -49q33 -8 53.5 -32.5t20.5 -73.5
q0 -25 -9.5 -43t-26 -31.5t-38 -22.5t-46.5 -15zM188 264h192l-21 312zM413 853q0 -33 22.5 -54.5t55.5 -21.5t56 21.5t23 54.5t-23 55t-56 22t-55.5 -22t-22.5 -55z" />
    <glyph glyph-name="aringacute" unicode="&#x1fb;" horiz-adv-x="568" 
d="M416 550q-23 0 -45.5 5.5t-40.5 19t-29 34.5t-11 53q0 24 10.5 42t27.5 31.5t39 22.5t46 16l23 43h120l-94 -49q33 -8 53.5 -32.5t20.5 -73.5q0 -25 -9.5 -43t-26 -31.5t-38 -22.5t-46.5 -15zM335 662q0 -33 22.5 -54.5t55.5 -21.5t56 21.5t23 54.5t-23 55t-56 22
t-55.5 -22t-22.5 -55zM222 245q0 -39 6 -70t23 -55l35 26l47 267q-10 8 -23.5 13t-26.5 5q-16 -15 -27.5 -37t-19 -47.5t-11 -52t-3.5 -49.5zM460 57l85 57l13 -16l-154 -116l-138 50l15 84l-154 -131q-45 21 -73.5 60t-28.5 111q0 49 19 91t51.5 77.5t75.5 65t92 53.5
l112 57q38 0 75.5 -9.5t80.5 -32.5z" />
    <glyph glyph-name="AEacute" unicode="&#x1fc;" horiz-adv-x="917" 
d="M129 0h-159l4 25l42 10l438 665h493l-32 -200h-25l-59 175h-149l-49 -322h70l86 133h20l-46 -290h-20l-44 132h-69l-46 -303h175l109 184h25l-33 -209h-524v25l40 10l44 291h-169l-188 -291l70 -10zM270 356h154l47 310zM656 909h155l-190 -138h-35z" />
    <glyph glyph-name="aeacute" unicode="&#x1fd;" horiz-adv-x="772" 
d="M508 229q14 -42 41.5 -78.5t69.5 -53.5q29 14 57.5 28.5t60.5 33.5l12 -16q-32 -21 -58.5 -37.5t-58.5 -36.5l-134 -84q-71 6 -120.5 50t-60.5 113l-190 -163q-45 21 -73.5 60t-28.5 111q0 49 19 91t51.5 77.5t75.5 65t92 53.5l112 57q18 0 37.5 -4.5t38.5 -12.5t37 -18
t33 -20l133 55q25 -3 45 -14.5t34 -28t21.5 -38t7.5 -43.5q0 -19 -2.5 -36.5t-14.5 -38.5zM222 245q0 -39 6 -70t23 -55l64 46v15q0 55 19 105.5t67 91.5q-11 8 -25.5 17.5t-30.5 17.5t-32 13t-30 5q-16 -15 -27.5 -37t-19 -47.5t-11 -52t-3.5 -49.5zM515 745h150l-181 -178
h-35zM527 428q-10 -11 -16 -26.5t-9.5 -33.5t-4 -36t-0.5 -33q0 -25 6 -52l51 21q8 21 8.5 40.5t0.5 36.5q0 14 -3 27.5t-8 25t-11.5 19.5t-13.5 11z" />
    <glyph glyph-name="Oslashacute" unicode="&#x1fe;" horiz-adv-x="749" 
d="M435 718q57 0 105 -16t85 -45l50 58h45l-69 -80q43 -44 65.5 -105.5t22.5 -138.5q0 -58 -15.5 -114.5t-50.5 -107t-91 -91.5t-137 -67l-91 -29q-63 0 -113.5 18t-88.5 51l-57 -66h-47l79 92q-38 43 -57.5 101.5t-19.5 130.5q0 58 15.5 114.5t50.5 107t91 91.5t137 67z
M509 377q0 22 -1 44t-3 43l-218 -254q6 -40 15 -74.5t22 -60t29 -41t36 -16.5q67 45 93.5 139.5t26.5 219.5zM280 323q0 -17 0.5 -33t1.5 -32l217 252q-6 37 -15.5 68.5t-22 55t-28 37t-33.5 15.5q-30 -19 -52.5 -54.5t-37.5 -83t-22.5 -105t-7.5 -120.5zM386 771l70 138
h155l-190 -138h-35z" />
    <glyph glyph-name="oslashacute" unicode="&#x1ff;" horiz-adv-x="549" 
d="M326 500q41 0 76 -9.5t62 -29.5l27 29h26l-37 -41q28 -24 43.5 -60.5t15.5 -84.5q0 -41 -11 -80t-35 -74.5t-61.5 -66t-90.5 -53.5l-103 -45q-87 0 -145 43l-34 -38h-28l47 51q-53 51 -53 140q0 40 11 79.5t35 75t61.5 66t90.5 53.5zM342 257q0 11 -0.5 20.5t-1.5 19.5
l-115 -126q7 -58 26 -94t43 -47q12 15 21 39.5t15 54.5t9 64t3 69zM270 455q-12 -15 -21 -39.5t-15 -54.5t-9 -64t-3 -69v-15t1 -14l115 124q-8 54 -26.5 87.5t-41.5 44.5zM356 745h150l-181 -178h-35z" />
    <glyph glyph-name="Scommaaccent" unicode="&#x218;" horiz-adv-x="533" 
d="M184 -145l-49 55l7 40h170l-14 -80l-167 -124l-24 4zM337 718q75 0 133 -12.5t93 -31.5l-46 -213h-25l-45 151q-35 29 -71.5 45t-81.5 18q-26 -13 -37 -31t-11 -38q0 -24 15 -43t49 -47l115 -94q46 -38 72 -81.5t26 -109.5q0 -32 -11 -63.5t-33 -59.5t-53.5 -51
t-72.5 -36l-117 -39q-78 0 -130.5 16.5t-95.5 45.5l64 226h26l9 -149q16 -16 41 -30.5t54 -25t60.5 -16.5t60.5 -6q29 31 29 78q0 17 -6 31.5t-15.5 27t-20.5 23t-21 19.5l-97 82q-52 44 -83 87t-31 99q0 64 41 107.5t130 82.5z" />
    <glyph glyph-name="scommaaccent" unicode="&#x219;" horiz-adv-x="425" 
d="M95 -145l-49 55l7 40h170l-14 -80l-167 -124l-24 4zM141 -15q-16 3 -36 8t-39 10.5t-35.5 11t-25.5 9.5l56 128q40 -20 90 -49t104 -55q10 9 10 22q0 11 -6 21t-22 20l-119 73q-35 22 -54.5 50t-19.5 61q0 38 23.5 76.5t85.5 70.5l115 58q31 -3 66.5 -14.5t85.5 -31.5
l-69 -123q-42 26 -87.5 53.5t-90.5 50.5q-6 -7 -6 -19q0 -13 6.5 -23.5t28.5 -24.5l116 -72q41 -25 54 -52t13 -62q0 -26 -8.5 -48t-23.5 -39.5t-34.5 -30.5t-41.5 -22z" />
    <glyph glyph-name="uni021A" unicode="&#x21a;" horiz-adv-x="603" 
d="M213 -145l-49 55l7 40h170l-14 -80l-167 -124l-24 4zM267 675h-51l-141 -192h-25l30 217h583l-34 -217h-25l-77 192h-51l-97 -640l70 -10v-25h-349v25l70 10z" />
    <glyph glyph-name="uni021B" unicode="&#x21b;" horiz-adv-x="385" 
d="M75 -145l-49 55l7 40h170l-14 -80l-167 -124l-24 4zM350 108l10 -17l-194 -109l-136 50l73 408h-62l7 25h59l5 28l176 128h36l-28 -156h99l-5 -25h-98l-70 -392z" />
    <glyph glyph-name="hsuperior" unicode="&#x2b0;" horiz-adv-x="377" 
d="M188 400h-113l67 352l-50 -8l-4 11l154 37l20 -15l-32 -160l88 58q46 0 62.5 -19t8.5 -62l-31 -163l51 32l8 -9l-94 -64l-82 28l34 174q2 14 -3.5 19t-11.5 5q-11 0 -28 -11l-5 -3z" />
    <glyph glyph-name="jsuperior" unicode="&#x2b2;" horiz-adv-x="193" 
d="M157 785l29 4l62 -4v-45l-15 -36l-27 -5l-66 5l1 40zM113 626l-42 -11l-3 11l150 47l16 -12l-41 -211q-2 -11 -11.5 -23.5t-24 -25.5t-31.5 -26.5t-35 -27.5l-98 -76h-28l17 88h77q4 11 7 21.5t5 23.5z" />
    <glyph glyph-name="wsuperior" unicode="&#x2b7;" horiz-adv-x="469" 
d="M278 406l-4 97l-73 -111l-100 14l-12 226l-46 -13l-3 9l143 47l23 -18l12 -215l54 84l-6 107l117 35l12 -226l79 119l-63 63l85 51l18 -19l-5 -71l-131 -193z" />
    <glyph glyph-name="ysuperior" unicode="&#x2b8;" horiz-adv-x="316" 
d="M39 617l-4 11l137 47l24 -13l43 -228l82 132l-68 58l86 51l22 -16l-14 -84l-94 -153l-118 -151h-93l17 94h110l65 60l-104 -22l-47 226z" />
    <glyph glyph-name="apostrophemod" unicode="&#x2bc;" horiz-adv-x="282" 
d="M100 403l109 145l-62 -4l-37 8l7 84l26 67l109 7l40 -7l-7 -78l-26 -73l-141 -157z" />
    <glyph glyph-name="circumflex" unicode="&#x2c6;" horiz-adv-x="476" 
d="M120 567h-30l148 178h70l86 -178h-30l-103 85h-8z" />
    <glyph glyph-name="caron" unicode="&#x2c7;" horiz-adv-x="483" 
d="M261 660l133 85h30l-148 -178h-70l-86 178h30l103 -85h8z" />
    <glyph glyph-name="breve" unicode="&#x2d8;" horiz-adv-x="483" 
d="M253 652q27 0 50 6t41 15t32 19.5t25 18.5l16 -15q-14 -23 -28 -39.5t-32 -31t-42.5 -27.5t-61.5 -28q-32 0 -58 10.5t-45.5 27.5t-32.5 40t-19 48l22 15q7 -8 18.5 -18.5t28 -19.5t38 -15t48.5 -6z" />
    <glyph glyph-name="dotaccent" unicode="&#x2d9;" horiz-adv-x="290" 
d="M124 725l71 5l54 -7l-5 -71l-25 -60l-66 -7l-58 7l6 72z" />
    <glyph glyph-name="ring" unicode="&#x2da;" horiz-adv-x="396" 
d="M124 662q0 -33 22.5 -54.5t55.5 -21.5t56 21.5t23 54.5t-23 55t-56 22t-55.5 -22t-22.5 -55zM325 662q0 -25 -9.5 -43t-26 -31.5t-38 -22.5t-46.5 -15q-23 0 -45.5 5.5t-40.5 19t-29 34.5t-11 53q0 24 10.5 42t27.5 31.5t39 22.5t46 16q26 0 48.5 -5.5t39 -18t26 -34
t9.5 -54.5z" />
    <glyph glyph-name="ogonek" unicode="&#x2db;" horiz-adv-x="833" 
d="M464 -100l-9 -50q-3 -15 -2.5 -30.5t9 -27.5t27.5 -19.5t54 -7.5l-3 -15q-59 0 -99 6.5t-63.5 19t-31.5 31.5t-3 44l13 74l171 102h10z" />
    <glyph glyph-name="tilde" unicode="&#x2dc;" horiz-adv-x="511" 
d="M115 714l35 10l215 -59l60 59h20l-66 -152l-36 -8l-217 62l-58 -62h-20z" />
    <glyph glyph-name="hungarumlaut" unicode="&#x2dd;" horiz-adv-x="643" 
d="M374 735h150l-179 -168h-35zM183 735h150l-179 -168h-35z" />
    <glyph glyph-name="xsuperior" unicode="&#x2e3;" horiz-adv-x="324" 
d="M353 461l7 -9l-98 -62l-77 27l-25 80l-47 -97h-83l19 101h105l3 6l-41 132l-55 -18l-5 11l149 47l21 -12l28 -92l42 95h88l-19 -102h-105l-3 -4l42 -134z" />
    <glyph glyph-name="Delta" unicode="&#x394;" horiz-adv-x="718" 
d="M20 0v25l329 680h25l324 -680v-25h-678zM46 25h407l-199 431z" />
    <glyph glyph-name="Omega" unicode="&#x3a9;" horiz-adv-x="760" 
d="M340 149q-59 6 -115 24.5t-99.5 50.5t-69.5 78.5t-26 107.5q0 58 20 106.5t63.5 87t112 66.5t164.5 45q76 0 138.5 -21.5t107.5 -59t69.5 -87.5t24.5 -107q0 -68 -24 -117t-66 -82.5t-98.5 -54.5t-121.5 -34v-37h240l20 65h25v-180h-310v190q12 4 26 16t26 37t20 65.5
t8 100.5q0 61 -7.5 111t-21.5 85.5t-33.5 55t-43.5 19.5q-20 0 -35.5 -18.5t-26.5 -51t-16.5 -76t-5.5 -93.5q0 -55 7.5 -99.5t19.5 -76.5t26 -51.5t27 -23.5v-190h-310v180h25l10 -65h250v34z" />
    <glyph glyph-name="mu" unicode="&#x3bc;" 
d="M138 411l-71 -21l-5 20l250 87l27 -23l-62 -340q-2 -12 -0.5 -20t6 -13t10 -7t10.5 -2q11 0 20 4.5t18 11.5l11 8l65 369h190l-76 -429l86 58l13 -16l-157 -116l-136 50l10 57l-140 -104q-84 0 -112 46l-6 -52l98 -209h-154z" />
    <glyph glyph-name="pi" unicode="&#x3c0;" 
d="M424 460h-80l-81 -460h-200l81 460h-19l-80 -140h-23l29 165h617l-4 -25h-40l-75 -425l38 -10l-4 -25h-186l-38 96z" />
    <glyph glyph-name="Wgrave" unicode="&#x1e80;" horiz-adv-x="986" 
d="M620 771l-140 138h150l20 -138h-30zM533 388l-135 -360l-183 -46l-105 683l-40 10v25h318v-25l-70 -10l80 -532l123 330l-31 202l-40 10v25h318v-25l-70 -10l80 -532l198 532l-70 10v25h150v-25l-40 -10l-238 -637l-183 -46z" />
    <glyph glyph-name="wgrave" unicode="&#x1e81;" horiz-adv-x="790" 
d="M391 11l-6 177l-121 -203l-168 26l-19 410l-77 -22l-5 15l239 86l38 -33l19 -391l90 153l-9 194l194 65l20 -412l133 217l-106 114l142 93l30 -34l-9 -129l-218 -352zM312 745h150v-178h-31z" />
    <glyph glyph-name="Wacute" unicode="&#x1e82;" horiz-adv-x="986" 
d="M621 909h155l-190 -138h-35zM533 388l-135 -360l-183 -46l-105 683l-40 10v25h318v-25l-70 -10l80 -532l123 330l-31 202l-40 10v25h318v-25l-70 -10l80 -532l198 532l-70 10v25h150v-25l-40 -10l-238 -637l-183 -46z" />
    <glyph glyph-name="wacute" unicode="&#x1e83;" horiz-adv-x="790" 
d="M391 11l-6 177l-121 -203l-168 26l-19 410l-77 -22l-5 15l239 86l38 -33l19 -391l90 153l-9 194l194 65l20 -412l133 217l-106 114l142 93l30 -34l-9 -129l-218 -352zM451 745h150l-181 -178h-35z" />
    <glyph glyph-name="Wdieresis" unicode="&#x1e84;" horiz-adv-x="986" 
d="M563 896l32 -7l-3 -64l-24 -55l-80 -7l-33 7l4 65l22 54zM803 896l33 -7l-4 -64l-23 -55l-81 -7l-32 7l3 65l23 54zM533 388l-135 -360l-183 -46l-105 683l-40 10v25h318v-25l-70 -10l80 -532l123 330l-31 202l-40 10v25h318v-25l-70 -10l80 -532l198 532l-70 10v25h150
v-25l-40 -10l-238 -637l-183 -46z" />
    <glyph glyph-name="wdieresis" unicode="&#x1e85;" horiz-adv-x="790" 
d="M391 11l-6 177l-121 -203l-168 26l-19 410l-77 -22l-5 15l239 86l38 -33l19 -391l90 153l-9 194l194 65l20 -412l133 217l-106 114l142 93l30 -34l-9 -129l-218 -352zM632 721l33 -7l-4 -64l-23 -55l-81 -7l-32 7l3 65l23 54zM432 721l32 -7l-3 -64l-24 -55l-80 -7l-33 7
l4 65l22 54z" />
    <glyph glyph-name="Ygrave" unicode="&#x1ef2;" horiz-adv-x="674" 
d="M460 771l-140 138h150l20 -138h-30zM463 321l195 344l-72 10v25h158v-25l-45 -10l-229 -400l-35 -230l70 -10v-25h-351v25l72 10l37 244l-160 386l-33 12v23h318v-25l-57 -10z" />
    <glyph glyph-name="ygrave" unicode="&#x1ef3;" horiz-adv-x="534" 
d="M-8 395l-7 20l229 85l40 -24l71 -415l137 241l-113 105l142 93l38 -30l-24 -152l-157 -278l-197 -275h-154l28 171h183l109 109l-174 -40l-78 412zM222 745h150v-178h-31z" />
    <glyph glyph-name="endash" unicode="&#x2013;" horiz-adv-x="657" 
d="M62 297h550l-7 -35h-550z" />
    <glyph glyph-name="emdash" unicode="&#x2014;" horiz-adv-x="917" 
d="M870 262h-800l7 35h800z" />
    <glyph glyph-name="quoteleft" unicode="&#x2018;" horiz-adv-x="267" 
d="M272 697l-109 -145l62 4l37 -8l-7 -84l-26 -67l-109 -7l-40 7l7 78l26 73l141 157z" />
    <glyph glyph-name="quoteright" unicode="&#x2019;" horiz-adv-x="282" 
d="M100 403l109 145l-62 -4l-37 8l7 84l26 67l109 7l40 -7l-7 -78l-26 -73l-141 -157z" />
    <glyph glyph-name="quotesinglbase" unicode="&#x201a;" horiz-adv-x="287" 
d="M25 -146l109 145l-62 -4l-37 8l7 84l26 67l109 7l40 -7l-7 -78l-26 -73l-141 -157z" />
    <glyph glyph-name="quotedblleft" unicode="&#x201c;" horiz-adv-x="480" 
d="M485 696l-109 -145l62 4l37 -8l-7 -84l-26 -67l-109 -7l-40 7l7 78l26 73l141 157zM272 696l-109 -145l62 4l37 -8l-7 -84l-26 -67l-109 -7l-40 7l7 78l26 73l141 157z" />
    <glyph glyph-name="quotedblright" unicode="&#x201d;" horiz-adv-x="495" 
d="M100 404l109 145l-62 -4l-37 8l7 84l26 67l109 7l40 -7l-7 -78l-26 -73l-141 -157zM313 404l109 145l-62 -4l-37 8l7 84l26 67l109 7l40 -7l-7 -78l-26 -73l-141 -157z" />
    <glyph glyph-name="quotedblbase" unicode="&#x201e;" horiz-adv-x="500" 
d="M238 -146l109 145l-62 -4l-37 8l7 84l26 67l109 7l40 -7l-7 -78l-26 -73l-141 -157zM25 -146l109 145l-62 -4l-37 8l7 84l26 67l109 7l40 -7l-7 -78l-26 -73l-141 -157z" />
    <glyph glyph-name="dagger" unicode="&#x2020;" horiz-adv-x="476" 
d="M182 -60h-5l5 276l-59 103l81 51l68 125l-207 -84l31 175l177 -87l-47 211h175l-124 -211l219 87l-31 -175l-189 84l29 -125l63 -51l-95 -103z" />
    <glyph glyph-name="daggerdbl" unicode="&#x2021;" horiz-adv-x="537" 
d="M235 370l68 125l-207 -84l31 175l177 -87l-47 211h175l-124 -211l219 87l-31 -175l-189 84l29 -125l65 -45l-80 -45l-73 -125l217 84l-31 -175l-187 87l50 -211h-175l121 211l-208 -87l30 175l179 -84l-24 125l-64 45z" />
    <glyph glyph-name="bullet" unicode="&#x2022;" horiz-adv-x="308" 
d="M195 386l48 -7l-7 -79l-20 -72l-103 -7l-48 7l7 80l20 71z" />
    <glyph glyph-name="ellipsis" unicode="&#x2026;" horiz-adv-x="924" 
d="M668 164l117 9l39 -9l-6 -88l-31 -76l-116 -9l-39 9l7 89zM377 164l117 9l39 -9l-6 -88l-31 -76l-116 -9l-39 9l7 89zM86 164l117 9l39 -9l-6 -88l-31 -76l-116 -9l-39 9l7 89z" />
    <glyph glyph-name="perthousand" unicode="&#x2030;" horiz-adv-x="1158" 
d="M274 701q61 0 91.5 -33.5t30.5 -96.5q0 -30 -9 -60.5t-28 -58.5t-49.5 -51t-72.5 -37l-42 -13q-61 0 -92 33t-31 96q0 30 9 60.5t28 58.5t49.5 51t73.5 37zM622 350q61 0 91.5 -33.5t30.5 -96.5q0 -30 -9 -60.5t-28 -58.5t-49.5 -51t-72.5 -37l-42 -13q-61 0 -92 33
t-31 96q0 30 9 60.5t28 58.5t49.5 51t73.5 37zM986 350q61 0 91.5 -33.5t30.5 -96.5q0 -30 -9 -60.5t-28 -58.5t-49.5 -51t-72.5 -37l-42 -13q-61 0 -92 33t-31 96q0 30 9 60.5t28 58.5t49.5 51t73.5 37zM721 705h43l-669 -710h-45zM592 320q-33 -22 -51.5 -67t-18.5 -102
q0 -42 11.5 -75t38.5 -47q32 23 51.5 67.5t19.5 101.5q0 43 -11.5 76t-39.5 46zM956 320q-33 -22 -51.5 -67t-18.5 -102q0 -42 11.5 -75t38.5 -47q32 23 51.5 67.5t19.5 101.5q0 43 -11.5 76t-39.5 46zM244 671q-33 -22 -51.5 -67t-18.5 -102q0 -42 11.5 -75t38.5 -47
q32 23 51.5 67.5t19.5 101.5q0 43 -11.5 76t-39.5 46z" />
    <glyph glyph-name="guilsinglleft" unicode="&#x2039;" horiz-adv-x="296" 
d="M177 15l-142 220l221 220h35l-166 -221l89 -219h-37z" />
    <glyph glyph-name="guilsinglright" unicode="&#x203a;" horiz-adv-x="296" 
d="M169 234l-88 221h35l145 -220l-220 -220h-36z" />
    <glyph glyph-name="fraction" unicode="&#x2044;" horiz-adv-x="157" 
d="M-132 -50h-38l521 760h36z" />
    <glyph glyph-name="zerosuperior" unicode="&#x2070;" horiz-adv-x="408" 
d="M273 772q-33 -27 -51.5 -82.5t-18.5 -124.5q0 -51 11 -93t36 -59q32 27 51 82t19 125q0 53 -11 94t-36 58zM307 795q68 0 102 -39t34 -111q0 -34 -10 -70t-32 -68t-55.5 -58.5t-81.5 -42.5l-48 -16q-68 0 -102 39t-34 111q0 34 10 70t31.5 68t55.5 58.5t82 42.5z" />
    <glyph glyph-name="foursuperior" unicode="&#x2074;" horiz-adv-x="378" 
d="M325 523h60l-4 -19h-60l-20 -104h-119l20 104h-139l-8 16l215 265h153l-2 -14l-342 -247h127l10 53l117 63h15z" />
    <glyph glyph-name="fivesuperior" unicode="&#x2075;" horiz-adv-x="335" 
d="M127 597l132 68q31 0 52 -6.5t33 -16.5t17 -23t5 -25q0 -24 -13 -43t-32.5 -34t-42 -26.5t-41.5 -21.5l-150 -72h-27l17 88h141q11 13 16.5 28t5.5 29q0 10 -2.5 20.5t-9 19t-17.5 14t-28 5.5q-9 0 -23 -3.5t-28 -9.5l-21 -10l-7 5l65 202h221l-29 -85h-201z" />
    <glyph glyph-name="sixsuperior" unicode="&#x2076;" horiz-adv-x="340" 
d="M188 392q-21 0 -41.5 9t-36.5 25.5t-25.5 39.5t-9.5 52q0 45 22 88t61.5 79.5t95 65.5t123.5 46l3 -10q-47 -20 -78 -43.5t-51 -48.5t-30 -51t-14 -51l99 56q37 -8 54.5 -33t17.5 -56q0 -46 -26 -81.5t-83 -57.5zM229 419q13 12 20 38t7 54q0 29 -5.5 52.5t-25.5 23.5
q-5 0 -9.5 -2t-9.5 -4q-3 -23 -3 -46q0 -39 6.5 -70.5t19.5 -45.5z" />
    <glyph glyph-name="sevensuperior" unicode="&#x2077;" horiz-adv-x="320" 
d="M96 785h286l8 -11l-241 -374h-79l2 11l251 286h-242z" />
    <glyph glyph-name="eightsuperior" unicode="&#x2078;" horiz-adv-x="362" 
d="M294 713q0 24 -12 41.5t-32 21.5q-14 -8 -21 -22t-7 -28q0 -17 12.5 -35.5t42.5 -49.5q6 10 11.5 32t5.5 40zM173 513q0 -15 3.5 -30.5t10.5 -29.5t16 -24t20 -14q9 8 14 23.5t5 29.5t-11 37t-50 61q-5 -12 -6.5 -25t-1.5 -28zM187 390q-26 0 -49 5t-40 15.5t-27.5 26
t-10.5 36.5t10 37t26 28t35 22t36 20q-13 12 -25 23.5t-21.5 22.5t-15 23.5t-5.5 27.5q0 22 11 38.5t28 28.5t39 20t44 14l63 17q51 0 84 -18.5t33 -45.5q0 -21 -10 -37.5t-26.5 -28.5t-36.5 -21t-40 -15q23 -24 37.5 -40t23 -28t11.5 -21.5t3 -21.5q0 -37 -32 -62t-79 -42z
" />
    <glyph glyph-name="ninesuperior" unicode="&#x2079;" horiz-adv-x="355" 
d="M80 402q46 20 77.5 43t51.5 48t30 50.5t14 51.5l-93 -55q-40 8 -59 32.5t-19 55.5q0 47 26.5 83t83.5 56l86 30q21 0 40.5 -9t34.5 -25.5t23.5 -40t8.5 -52.5q0 -45 -21.5 -88t-61.5 -79.5t-95.5 -65t-122.5 -45.5zM238 601q4 0 8 2t9 4q2 12 2 23.5v22.5q0 39 -6.5 70.5
t-18.5 46.5q-13 -11 -20 -36t-7 -51q0 -33 8 -57.5t25 -24.5z" />
    <glyph glyph-name="plussuperior" unicode="&#x207a;" horiz-adv-x="409" 
d="M254 450v130h-144v20h144v133h21v-133h144v-20h-144v-130h-21z" />
    <glyph glyph-name="minussuperior" unicode="&#x207b;" horiz-adv-x="415" 
d="M110 615h315v-19h-315v19z" />
    <glyph glyph-name="equalsuperior" unicode="&#x207c;" horiz-adv-x="415" 
d="M415 629h-315v19h315v-19zM415 522h-315v19h315v-19z" />
    <glyph glyph-name="parenleftsuperior" unicode="&#x207d;" horiz-adv-x="286" 
d="M212 493q0 -49 13 -91t42 -76l-7 -7q-63 48 -91.5 95.5t-28.5 107.5q0 55 15 101.5t43.5 86t69.5 73.5t93 66l5 -7q-39 -32 -67.5 -72t-48 -85.5t-29 -94t-9.5 -97.5z" />
    <glyph glyph-name="parenrightsuperior" unicode="&#x207e;" horiz-adv-x="286" 
d="M256 646q0 -56 -15 -101.5t-43.5 -85t-69.5 -74t-93 -66.5l-5 7q39 32 67.5 72.5t48 85.5t29 94t9.5 98q0 48 -13 90.5t-42 75.5l7 7q63 -48 91.5 -95t28.5 -108z" />
    <glyph glyph-name="nsuperior" unicode="&#x207f;" horiz-adv-x="368" 
d="M181 400h-114l44 226l-42 -11l-4 11l150 47l16 -12l-8 -43l86 57q46 0 63 -19t9 -62l-32 -163l51 32l8 -9l-94 -64l-82 28l34 174q3 14 -3 19t-12 5q-11 0 -28 -11l-3 -2z" />
    <glyph glyph-name="zeroinferior" unicode="&#x2080;" horiz-adv-x="408" 
d="M178 222q-33 -27 -51.5 -82.5t-18.5 -124.5q0 -51 11 -93t36 -59q32 27 51 82t19 125q0 53 -11 94t-36 58zM212 245q68 0 102 -39t34 -111q0 -34 -10 -70t-32 -68t-55.5 -58.5t-81.5 -42.5l-48 -16q-68 0 -102 39t-34 111q0 34 10 70t31.5 68t55.5 58.5t82 42.5z" />
    <glyph glyph-name="oneinferior" unicode="&#x2081;" horiz-adv-x="303" 
d="M10 157l-4 14l196 67h21l-71 -369l66 -5v-14h-253v14l67 5l60 308z" />
    <glyph glyph-name="twoinferior" unicode="&#x2082;" horiz-adv-x="369" 
d="M288 -65v-14l-48 -71h-290l-5 12l115 94q23 19 45.5 39.5t40 43t28 49t10.5 57.5q0 27 -9.5 49t-26.5 29l-2 -1l-52 -99h-72v74l156 48q72 0 101.5 -26t29.5 -64q0 -29 -13 -52.5t-34 -42.5t-48 -35.5t-55 -31.5l-106 -58h235z" />
    <glyph glyph-name="threeinferior" unicode="&#x2083;" horiz-adv-x="336" 
d="M82 123h-67l5 74l157 48q57 0 78 -16.5t20 -37.5q0 -16 -10 -30t-27 -25t-40 -18.5t-48 -10.5q32 -3 52.5 -10.5t32 -17t16 -21t4.5 -23.5q0 -21 -12 -38.5t-30.5 -32t-40 -25.5t-40.5 -19l-159 -73h-28l18 88h149q12 14 15.5 26t3.5 28q0 25 -21 43t-54 20l-3 11l58 38
q31 21 39 44t8 39q0 15 -6.5 25t-14.5 12l-3 -1z" />
    <glyph glyph-name="fourinferior" unicode="&#x2084;" horiz-adv-x="378" 
d="M230 -27h60l-4 -19h-60l-20 -104h-119l20 104h-139l-8 16l215 265h153l-2 -14l-342 -247h127l10 53l117 63h15z" />
    <glyph glyph-name="fiveinferior" unicode="&#x2085;" horiz-adv-x="335" 
d="M32 47l132 68q31 0 52 -6.5t33 -16.5t17 -23t5 -25q0 -24 -13 -43t-32.5 -34t-42 -26.5t-41.5 -21.5l-150 -72h-27l17 88h141q11 13 16.5 28t5.5 29q0 10 -2.5 20.5t-9 19t-17.5 14t-28 5.5q-9 0 -23 -3.5t-28 -9.5l-21 -10l-7 5l65 202h221l-29 -85h-201z" />
    <glyph glyph-name="sixinferior" unicode="&#x2086;" horiz-adv-x="340" 
d="M93 -158q-21 0 -41.5 9t-36.5 25.5t-25.5 39.5t-9.5 52q0 45 22 88t61.5 79.5t95 65.5t123.5 46l3 -10q-47 -20 -78 -43.5t-51 -48.5t-30 -51t-14 -51l99 56q37 -8 54.5 -33t17.5 -56q0 -46 -26 -82t-83 -57zM134 -131q13 12 20 38t7 54q0 29 -5.5 52.5t-25.5 23.5
q-5 0 -9.5 -2t-9.5 -4q-3 -23 -3 -46q0 -40 6.5 -71t19.5 -45z" />
    <glyph glyph-name="seveninferior" unicode="&#x2087;" horiz-adv-x="320" 
d="M1 235h286l8 -11l-241 -374h-79l2 11l251 286h-242z" />
    <glyph glyph-name="eightinferior" unicode="&#x2088;" horiz-adv-x="362" 
d="M199 163q0 24 -12 41.5t-32 21.5q-14 -8 -21 -22t-7 -28q0 -17 12.5 -35.5t42.5 -49.5q6 10 11.5 32t5.5 40zM78 -37q0 -15 3.5 -30.5t10.5 -29.5t16 -24t20 -14q9 8 14 23.5t5 29.5t-11 37t-50 61q-5 -12 -6.5 -25t-1.5 -28zM92 -160q-26 0 -49 5t-40 15t-27.5 26
t-10.5 37t10 37t26 28t35 22t36 20q-13 12 -25 23.5t-21.5 22.5t-15 23.5t-5.5 27.5q0 22 11 38.5t28 28.5t39 20t44 14l63 17q51 0 84 -18.5t33 -45.5q0 -21 -10 -37.5t-26.5 -28.5t-36.5 -21t-40 -15q23 -24 37.5 -40t23 -28t11.5 -22t3 -21q0 -37 -32 -62t-79 -42z" />
    <glyph glyph-name="nineinferior" unicode="&#x2089;" horiz-adv-x="355" 
d="M-15 -148q46 20 77.5 43t51.5 48t30 50.5t14 51.5l-93 -55q-40 8 -59 32.5t-19 55.5q0 47 26.5 83t83.5 56l86 30q21 0 40.5 -9t34.5 -25.5t23.5 -40t8.5 -52.5q0 -45 -21.5 -88t-61.5 -79.5t-95.5 -65t-122.5 -45.5zM143 51q4 0 8 2t9 4q2 12 2 23.5v22.5
q0 39 -6.5 70.5t-18.5 46.5q-13 -11 -20 -36t-7 -51q0 -33 8 -57.5t25 -24.5z" />
    <glyph glyph-name="parenleftinferior" unicode="&#x208d;" horiz-adv-x="286" 
d="M117 -57q0 -49 13 -91t42 -76l-7 -7q-63 48 -91.5 95.5t-28.5 107.5q0 55 15 101.5t43.5 86t69.5 73.5t93 66l5 -7q-39 -32 -67.5 -72t-48 -85.5t-29 -94t-9.5 -97.5z" />
    <glyph glyph-name="parenrightinferior" unicode="&#x208e;" horiz-adv-x="286" 
d="M161 96q0 -56 -15 -101.5t-43.5 -85t-69.5 -74t-93 -66.5l-5 7q39 32 67.5 72t48 85.5t29 94.5t9.5 98q0 48 -13 90.5t-42 75.5l7 7q63 -48 91.5 -95t28.5 -108z" />
    <glyph glyph-name="Euro" unicode="&#x20ac;" horiz-adv-x="707" 
d="M117 417q17 43 45.5 83t69 74.5t94 62t119.5 44.5l146 37q15 -2 35.5 -9t41 -15.5t38 -18t26.5 -15.5l-76 -116q-16 14 -42.5 30.5t-56.5 32t-61 27.5t-57 17q-43 -29 -74 -90.5t-41 -143.5h242l-20 -30h-224q-1 -8 -1 -14.5v-14.5v-19t2 -19h192l-20 -30h-168
q6 -37 19.5 -73t34 -68t48 -58t62.5 -42q12 2 33 9t43 15.5t42 17.5t31 14l10 -15q-27 -17 -73 -42.5t-132 -65.5q-82 0 -147.5 21.5t-111.5 61.5t-70.5 95.5t-24.5 123.5v6h-81l7 30h76q2 17 5 33.5t8 33.5h-75l7 30h79z" />
    <glyph glyph-name="afii61289" unicode="&#x2113;" horiz-adv-x="586" 
d="M69 4l37 209l-61 -23l5 25l61 25l63 357l268 121q46 0 77.5 -10.5t50.5 -28.5t27.5 -41t8.5 -47q0 -57 -29 -101.5t-74 -81t-99 -66t-105 -55.5l-42 -242l233 93l7 -14l-283 -142zM304 314q33 17 55.5 54.5t36.5 82t20 90.5t6 80q0 29 -8.5 41.5t-27.5 12.5l-20 -10z" />
    <glyph glyph-name="afii61352" unicode="&#x2116;" horiz-adv-x="1011" 
d="M482 0h-133l-167 585l-103 -585h-89l4 25l61 10l111 630l-69 10l4 25h255l138 -456l81 456h100l-4 -25l-72 -10zM745 73q-37 0 -68 10t-54 29.5t-36 49t-13 68.5q0 65 36.5 123.5t122.5 95.5l82 36q37 0 68 -10t54 -29.5t36 -48.5t13 -68q0 -66 -36.5 -124t-122.5 -96z
M770 449q-9 -12 -16 -31.5t-12 -43.5t-7.5 -51t-2.5 -55q0 -67 17 -107t41 -52q9 12 16 31.5t12 43.5t7.5 51.5t2.5 55.5q0 67 -17 107t-41 51zM540 35h391l-6 -35h-391z" />
    <glyph glyph-name="trademark" unicode="&#x2122;" horiz-adv-x="952" 
d="M376 315h-229v14l48 5v352h-27l-63 -105h-15v119h344v-119h-15l-63 105h-28v-352l48 -5v-14zM828 637l-131 -325h-64l-137 349v-327l33 -5v-14h-75v14l24 5v347l-24 5v14h170l106 -255l102 255h155v-14l-27 -5v-347l27 -5v-14h-183v14l24 5v303z" />
    <glyph glyph-name="uni2126" unicode="&#x2126;" horiz-adv-x="760" 
d="M340 149q-59 6 -115 24.5t-99.5 50.5t-69.5 78.5t-26 107.5q0 58 20 106.5t63.5 87t112 66.5t164.5 45q76 0 138.5 -21.5t107.5 -59t69.5 -87.5t24.5 -107q0 -68 -24 -117t-66 -82.5t-98.5 -54.5t-121.5 -34v-37h240l20 65h25v-180h-310v190q12 4 26 16t26 37t20 65.5
t8 100.5q0 61 -7.5 111t-21.5 85.5t-33.5 55t-43.5 19.5q-20 0 -35.5 -18.5t-26.5 -51t-16.5 -76t-5.5 -93.5q0 -55 7.5 -99.5t19.5 -76.5t26 -51.5t27 -23.5v-190h-310v180h25l10 -65h250v34z" />
    <glyph glyph-name="estimated" unicode="&#x212e;" horiz-adv-x="956" 
d="M861 220q-27 -53 -68.5 -89t-96 -62.5t-123 -45.5t-149.5 -38q-86 0 -152 26.5t-108.5 73.5t-59 111t-3.5 139q14 82 46 141t88 102.5t139 76t199 60.5q83 0 149 -19.5t109.5 -60t62 -101.5t7.5 -144l-11 -58h-564l-15 -87q-8 -109 26 -162t106 -53q34 0 64 14.5t54.5 40
t43.5 60t32 75.5h224zM338 400h335l20 111q2 81 -29.5 122.5t-108.5 41.5q-79 0 -124.5 -42.5t-71.5 -117.5z" />
    <glyph glyph-name="arrowleft" unicode="&#x2190;" horiz-adv-x="610" 
d="M154 265l166 -155v-80l-270 265l270 264v-79l-166 -155h406v-60h-406z" />
    <glyph glyph-name="arrowup" unicode="&#x2191;" horiz-adv-x="630" 
d="M285 445l-155 -165h-80l265 270l265 -270h-80l-155 165v-405h-60v405z" />
    <glyph glyph-name="arrowright" unicode="&#x2192;" horiz-adv-x="610" 
d="M50 325h406l-166 155v79l270 -264l-270 -265v80l166 155h-406v60z" />
    <glyph glyph-name="arrowdown" unicode="&#x2193;" horiz-adv-x="630" 
d="M345 550v-405l155 165h80l-265 -270l-265 270h80l155 -165v405h60z" />
    <glyph glyph-name="uni2196" unicode="&#x2196;" horiz-adv-x="482" 
d="M389 93l-287 287v-231l-52 -56v382h382l-57 -53h-231l288 -287z" />
    <glyph glyph-name="uni2197" unicode="&#x2197;" horiz-adv-x="482" 
d="M338 422h-231l-57 53h382v-382l-52 56v231l-287 -287l-43 42z" />
    <glyph glyph-name="uni2198" unicode="&#x2198;" horiz-adv-x="482" 
d="M93 461l287 -287v231l52 56v-382h-382l57 53h231l-288 287z" />
    <glyph glyph-name="uni2199" unicode="&#x2199;" horiz-adv-x="482" 
d="M144 132h231l57 -53h-382v382l52 -56v-231l287 287l43 -42z" />
    <glyph glyph-name="partialdiff" unicode="&#x2202;" 
d="M315 -15q-65 18 -117 42t-88.5 58.5t-56.5 81t-20 108.5q0 33 8 65t26.5 57t48 40t72.5 15l162 -104q-5 57 -13 103t-30 87.5t-63 81t-113 84.5l7 17q119 -35 204 -82t139.5 -105t80 -125t25.5 -141q0 -65 -18.5 -117.5t-53.5 -89t-85.5 -56.5t-114.5 -20zM306 7
q12 0 20 14.5t13.5 50.5t7.5 97.5t2 156.5l-10 5l-22 10t-22 5q-22 0 -32 -27t-10 -93q0 -112 13.5 -165.5t39.5 -53.5z" />
    <glyph glyph-name="uni2206" unicode="&#x2206;" horiz-adv-x="718" 
d="M20 0v25l329 680h25l324 -680v-25h-678zM46 25h407l-199 431z" />
    <glyph glyph-name="product" unicode="&#x220f;" horiz-adv-x="727" 
d="M20 -160v25l40 10v790l-40 10v25h687v-25l-60 -10v-790l40 -10v-25h-290v25l40 10v800h-167v-800l40 -10v-25h-290z" />
    <glyph glyph-name="summation" unicode="&#x2211;" 
d="M53 -160l-20 20l285 367l-259 433l22 40h489v-205h-25l-100 180h-182l182 -309v-20l-267 -346h341l42 55h25v-215h-533z" />
    <glyph glyph-name="minus" unicode="&#x2212;" 
d="M47 300h525v-35h-525v35z" />
    <glyph glyph-name="radical" unicode="&#x221a;" 
d="M-71 435l-39 10v25h259l132 -355l269 771h180l-8 -30h-152l-301 -847l-152 -29z" />
    <glyph glyph-name="infinity" unicode="&#x221e;" horiz-adv-x="785" 
d="M583 129q-32 0 -62 9t-57.5 24t-51.5 33t-42 36l-30 -31q-14 -15 -32 -28t-37.5 -22.5t-39 -15t-37.5 -5.5q-36 0 -64.5 12.5t-48.5 34t-30.5 51t-10.5 63.5q0 26 8.5 52t27.5 49.5t50 43.5t76 35q33 0 63.5 -10t58.5 -26t52 -35t44 -37l26 31q13 16 30.5 30t36.5 24.5
t38.5 16.5t37.5 6q37 0 66.5 -13t49 -35t30 -52t10.5 -64q0 -62 -36 -104.5t-126 -72.5zM193 232q58 0 106 26l26 14q-11 7 -26.5 16t-33 16.5t-36.5 12.5t-38 5q-38 1 -62.5 -9.5t-24.5 -31.5t22.5 -35t66.5 -14zM593 275q15 0 30.5 3t28 8.5t21 12.5t8.5 16q0 21 -22.5 33
t-70.5 12q-25 0 -46 -5t-41 -16l-34 -19q10 -7 25 -15t32 -14.5t35 -11t34 -4.5z" />
    <glyph glyph-name="integral" unicode="&#x222b;" 
d="M249 465q6 31 22.5 54.5t38 42.5t45.5 33.5t45 28.5l145 91h84l-22 -136h-130q-11 -8 -19.5 -33.5t-13.5 -55.5l-76 -431q-4 -23 -17 -44t-32 -41t-43 -39.5t-50 -39.5l-166 -130h-66l28 161h122q7 11 14 35t11 47z" />
    <glyph glyph-name="approxequal" unicode="&#x2248;" 
d="M569 400h25l-37 -80l-98 -37l-356 82l-53 -75h-25l37 80l98 37l356 -82zM569 210h25l-37 -80l-98 -37l-356 82l-53 -75h-25l37 80l98 37l356 -82z" />
    <glyph glyph-name="notequal" unicode="&#x2260;" 
d="M195 130h-148v35h178l134 160h-312v35h342l101 120h41l-101 -120h142v-35h-171l-134 -160h305v-35h-335l-108 -130h-43z" />
    <glyph glyph-name="lessequal" unicode="&#x2264;" 
d="M50 35h520v-35h-520v35zM570 622v-40l-472 -221l472 -221v-40l-520 246v30z" />
    <glyph glyph-name="greaterequal" unicode="&#x2265;" 
d="M50 35h520v-35h-520v35zM570 376v-30l-520 -246v40l472 221l-472 221v40z" />
    <glyph glyph-name="lozenge" unicode="&#x25ca;" 
d="M309 715h25l239 -346l-255 -385h-25l-246 346zM394 143l60 91l-226 324l-60 -91z" />
    <glyph glyph-name="commaaccent" unicode="&#xf6c3;" horiz-adv-x="240" 
d="M95 -145l-49 55l7 40h170l-14 -80l-167 -124l-24 4z" />
    <glyph glyph-name="asuperior" unicode="&#xf6e9;" horiz-adv-x="345" 
d="M188 535q0 -22 3.5 -38.5t14.5 -30.5l21 14l28 147q-13 10 -30 10q-20 -17 -28.5 -46.5t-8.5 -55.5zM331 431l51 32l8 -9l-93 -64l-82 28l9 46l-93 -72q-27 11 -44 32.5t-17 61.5q0 27 11.5 50t31 42.5t45.5 35.5t55 30l67 31q23 0 45.5 -5t48.5 -18z" />
    <glyph glyph-name="bsuperior" unicode="&#xf6ea;" horiz-adv-x="347" 
d="M81 744l-3 11l155 37l19 -15l-31 -159l99 57q27 -11 42 -34t15 -59q0 -25 -9.5 -48.5t-26.5 -44t-39.5 -37.5t-49.5 -27l-84 -33q-26 0 -51.5 8.5t-46.5 23.5l63 328zM219 604l-33 -166q4 -5 13 -10.5t17 -5.5q11 8 19 21t13 29t7.5 32t2.5 30q0 25 -3.5 45.5t-16.5 33.5
z" />
    <glyph glyph-name="dsuperior" unicode="&#xf6eb;" horiz-adv-x="359" 
d="M217 418l8 46l-87 -72q-32 13 -50 38.5t-18 63.5q0 26 10 48.5t26.5 41.5t39 34t46.5 27l63 30q4 0 10 -3l16 80l-52 -8l-4 11l155 37l19 -15l-66 -346l51 32l8 -9l-92 -64zM228 481l29 146q-19 16 -43 16q-12 -18 -19 -46.5t-7 -56.5q0 -23 5 -39.5t17 -32.5z" />
    <glyph glyph-name="esuperior" unicode="&#xf6ec;" horiz-adv-x="308" 
d="M186 526q8 -23 24.5 -43t41.5 -30l34 16t37 18l7 -8q-19 -12 -35 -21t-35 -20l-80 -46q-48 4 -79 33t-31 75q0 41 23.5 78t82.5 60l97 37q31 -3 48 -23t17 -45q0 -11 -1 -20.5t-9 -20.5zM179 564q0 -16 4 -29l30 12q5 12 5.5 22.5t0.5 20.5q0 15 -6.5 29t-15.5 16
q-12 -11 -15 -32.5t-3 -38.5z" />
    <glyph glyph-name="isuperior" unicode="&#xf6ed;" horiz-adv-x="216" 
d="M154 785l30 4l62 -4v-45l-15 -36l-27 -5l-67 5l2 40zM70 418l41 208l-43 -11l-3 11l150 47l16 -12l-44 -230l51 32l8 -9l-94 -64z" />
    <glyph glyph-name="lsuperior" unicode="&#xf6ee;" horiz-adv-x="229" 
d="M85 418l64 334l-50 -8l-4 11l154 37l20 -15l-68 -346l52 32l8 -9l-94 -64z" />
    <glyph glyph-name="msuperior" unicode="&#xf6ef;" horiz-adv-x="525" 
d="M390 418l33 177q2 13 -2.5 17t-9.5 4t-9 -2.5t-9 -5.5l-14 -11l-39 -197h-115l38 195q3 13 -1.5 17t-9.5 4t-9.5 -2.5t-9.5 -5.5l-14 -11l-38 -197h-114l44 226l-42 -11l-4 11l150 47l16 -12l-9 -49l85 63q41 0 59 -15t15 -49l85 64q47 0 63.5 -19t8.5 -62l-32 -163
l52 32l7 -9l-94 -64z" />
    <glyph glyph-name="osuperior" unicode="&#xf6f0;" horiz-adv-x="348" 
d="M217 650q-14 -17 -21.5 -51.5t-7.5 -73.5q0 -46 13 -73t30 -35q14 17 21.5 51.5t7.5 72.5q0 46 -13 73.5t-30 35.5zM251 675q55 0 91 -27t36 -81q0 -45 -27 -84.5t-91 -65.5l-62 -25q-55 0 -91.5 27t-36.5 81q0 45 27.5 84.5t91.5 65.5z" />
    <glyph glyph-name="rsuperior" unicode="&#xf6f1;" horiz-adv-x="281" 
d="M67 400l44 226l-43 -11l-3 11l150 47l16 -12l-21 -110l83 119h48l-19 -102h-87l-30 -39l-24 -129h-114z" />
    <glyph glyph-name="ssuperior" unicode="&#xf6f2;" horiz-adv-x="249" 
d="M127 392q-20 3 -45.5 10t-36.5 11l34 71q23 -11 53.5 -27.5t62.5 -30.5q6 6 6 13q0 6 -3.5 11.5t-13.5 10.5l-71 40q-21 12 -33 27.5t-12 33.5q0 21 14 42.5t52 38.5l69 32q18 -2 39.5 -8t51.5 -17l-41 -68q-25 14 -52.5 29.5t-54.5 27.5q-4 -4 -4 -10q0 -8 4 -13.5
t17 -13.5l70 -39q24 -14 32 -29t8 -34q0 -29 -19.5 -48t-45.5 -29z" />
    <glyph glyph-name="tsuperior" unicode="&#xf6f3;" horiz-adv-x="224" 
d="M262 459l6 -9l-116 -60l-82 28l44 224h-37l4 14h35l3 15l106 71h21l-16 -86h59l-3 -14h-59l-42 -216z" />
    <glyph glyph-name="apple" unicode="&#xf8ff;" horiz-adv-x="685" 
d="M635 460l-3 -41l-8 -35l-12 -31l-3 -156l-21 -7l-50 70l-27 -7l-19 -140l-32 4l-7 -4l-4 -94l30 -19l16 -14l-3 -15l-30 1l-24 18h-14l-8 8l7 76l-4 47l-61 1l-3 -52l-2 -56v-20l-15 -6l-8 6l-30 -10h-32l-1 11l11 11l50 21l-6 96l-98 -6l-147 140l-4 115l-13 10l-10 36
v26l15 8l-3 78l92 -62l9 47l10 36l22 35l28 35l39 29l40 15l38 14h22l-68 22l4 17h7l79 -20l-4 51l16 12h32l19 -5l29 -25l32 -8l32 -10l15 -13v-20l-20 -31l30 -28l28 -32l18 -34l15 -41zM525 399l-4 7h-205l-66 -3l-7 -9l-6 -44l-48 20l-11 -4l57 -27l1 -45l-5 -73v-91
l18 4l2 40l41 -3l3 9l-44 6v16l48 -6l1 9l-47 7l1 22l43 -3l3 6l-45 9l3 94h74l11 10h-79l2 9h74l8 7h-82l2 22l117 4l140 -4v11zM206 569l29 12l13 -15l-17 -20l-10 -3l17 -3h5l36 24h32l18 -12l8 3l4 14l7 5l10 -4v-18h8l10 22l11 8l-5 6l-3 8l1 21l-30 -10l-10 -8l-8 5
l4 21l14 10l11 11l38 -2l12 13l-4 8h-49l-45 -13l-53 -26l-29 -23zM616 465l-8 37l-19 50l-20 36l-23 28l-34 21h-11l17 -19l25 -10l11 -11l3 -33l-25 13l-15 -29l12 -8v-19l15 3l-12 26l15 -5l10 -20l-5 -12l-8 -7h-23l-3 11l-12 2l1 -22h-14l14 -18l-7 -10l-21 5l-3 -27
l41 6l8 17l22 -2l6 -28l-16 -13v-15l8 -6l18 12h23l6 11l-18 6l-5 9l9 42h7l14 -20zM102 434l57 -32l7 10l-68 38v18l59 -34l43 -28l28 -14l3 10l-103 64l-13 7l-41 33l2 -78l19 -17v-5h-21l19 -14l1 -11l-20 7l18 -18l-4 -7l3 -97l11 -12v180zM511 331l-54 1l-1 -24v-6
l-2 -31l19 -3l-8 -61l-48 3l-8 -6l51 -5l-2 -9h-49l-4 -5l53 -7l-6 -35l27 -1l12 79l4 36l-15 3l-1 8l20 1l5 3l-28 16l2 5l30 -6l-30 15l5 5l21 -5l4 10zM206 331l-66 39v-7l-2 -13l1 -27v-48l64 -44l-1 60zM380 214l-64 4v-51l64 -6v53zM532 306l8 -6l8 2l20 15l13 13
l11 18l-7 5h-14l-10 3l-14 7l-17 -3q-2 -13 -3 -24q-2 -9 -2.5 -17t-0.5 -7zM428 585l5 -6l19 11l8 -2l6 -24h13l6 6l-9 18l17 28l-15 9v5l-25 7v-20l-13 -5v-9l-9 -6zM433 336l4 30l-54 5l-3 -35h53zM366 455l-7 -11h-12l-5 7l11 8l-15 2v6l-23 4l3 -17l8 -14l20 -9l13 -1
l18 10l6 9l5 20l-30 2l7 -5zM589 312l-6 -3l-33 -27l39 -48v78zM244 454l1 4l14 2l-13 6l2 7l-20 -1l3 -19l14 -15l12 -6l11 5l16 12l6 12l2 13l-22 -4l6 -10l-12 -13l-14 -1zM394 281l-72 7l-6 -13l78 -4v10zM206 203l-74 50l20 -23l50 -41zM394 312h-73v-10h73v10z
M384 256l-68 4v-10h68v6zM515 359h-48v-13l44 4zM351 520l-4 -12l49 -17l3 4zM214 498l59 12l-4 12zM414 642l-8 -9v-19l12 -6l3 17zM491 530l-8 -4v-9l8 -3l2 7zM564 386l5 7v7l-10 -4v-10h5z" />
    <glyph glyph-name="AE.sc" horiz-adv-x="793" 
d="M117 0h-132l3 26l33 10l374 482h428l-28 -157h-23l-52 133h-119l-42 -229h55l76 106h18l-40 -235h-18l-39 105h-54l-39 -217h143l94 142h23l-28 -166h-451v26l31 10l36 203h-146l-157 -203l58 -10zM243 268h128l40 217z" />
    <glyph glyph-name="AEacute.002" horiz-adv-x="917" 
d="M129 0h-159l4 25l42 10l438 665h493l-32 -200h-25l-59 175h-149l-49 -322h70l86 133h20l-46 -290h-20l-44 132h-69l-46 -303h175l109 184h25l-33 -209h-524v25l40 10l44 291h-169l-188 -291l70 -10zM270 356h154l47 310zM620 851h168l-178 -104h-47z" />
    <glyph glyph-name="AEacute.sc" horiz-adv-x="793" 
d="M117 0h-132l3 26l33 10l374 482h428l-28 -157h-23l-52 133h-119l-42 -229h55l76 106h18l-40 -235h-18l-39 105h-54l-39 -217h143l94 142h23l-28 -166h-451v26l31 10l36 203h-146l-157 -203l58 -10zM243 268h128l40 217zM570 676h138l-168 -98h-32z" />
    <glyph glyph-name="Aacute.002" horiz-adv-x="695" 
d="M382 234h-210l-109 -199l70 -10l-4 -25h-159l4 25l42 10l352 624l177 61l82 -685l38 -10l-4 -25h-342l4 25l72 10zM188 264h192l-21 312zM465 851h168l-178 -104h-47z" />
    <glyph glyph-name="Aacute.sc" horiz-adv-x="601" 
d="M331 166h-178l-89 -130l58 -10l-4 -26h-133l4 26l32 10l299 438l160 64l72 -502l29 -10l-4 -26h-299l4 26l60 10zM173 196h156l-17 203zM426 673h139l-168 -101h-33z" />
    <glyph glyph-name="Abreve.002" horiz-adv-x="695" 
d="M382 234h-210l-109 -199l70 -10l-4 -25h-159l4 25l42 10l352 624l177 61l82 -685l38 -10l-4 -25h-342l4 25l72 10zM188 264h192l-21 312zM452 797q27 0 50 6.5t41 15.5t32.5 20t25.5 20l16 -15q-14 -20 -27.5 -35.5t-31.5 -28.5t-42.5 -24t-60.5 -23q-32 0 -58 9
t-46 24.5t-33 35.5t-20 42l22 15q7 -9 18 -20t27.5 -20t38 -15.5t48.5 -6.5z" />
    <glyph glyph-name="Abreve.sc" horiz-adv-x="601" 
d="M331 166h-178l-89 -130l58 -10l-4 -26h-133l4 26l32 10l299 438l160 64l72 -502l29 -10l-4 -26h-299l4 26l60 10zM421 644q48 0 78.5 10.5t49.5 20.5l14 -16q-12 -18 -24 -30.5t-27.5 -22t-37 -18t-53.5 -19.5q-56 0 -89.5 25.5t-44.5 66.5l20 16q12 -10 39.5 -21.5
t74.5 -11.5zM173 196h156l-17 203z" />
    <glyph glyph-name="Acircumflex.002" horiz-adv-x="695" 
d="M382 234h-210l-109 -199l70 -10l-4 -25h-159l4 25l42 10l352 624l177 61l82 -685l38 -10l-4 -25h-342l4 25l72 10zM188 264h192l-21 312zM356 747h-47l141 114h80l99 -114h-47l-99 48h-10z" />
    <glyph glyph-name="Acircumflex.sc" horiz-adv-x="601" 
d="M331 166h-178l-89 -130l58 -10l-4 -26h-133l4 26l32 10l299 438l160 64l72 -502l29 -10l-4 -26h-299l4 26l60 10zM173 196h156l-17 203zM305 578h-32l134 93h74l93 -93h-32l-104 36h-10z" />
    <glyph glyph-name="Adieresis.002" horiz-adv-x="695" 
d="M382 234h-210l-109 -199l70 -10l-4 -25h-159l4 25l42 10l352 624l177 61l82 -685l38 -10l-4 -25h-342l4 25l72 10zM188 264h192l-21 312zM661 856l33 -7l-4 -54l-23 -45l-81 -7l-32 7l3 55l23 44zM421 856l32 -7l-3 -54l-24 -45l-80 -7l-33 7l4 55l22 44z" />
    <glyph glyph-name="Adieresis.sc" horiz-adv-x="601" 
d="M173 196h-31l-6 -30h17l-89 -130l58 -10l-4 -26h-133l4 26l32 10l299 438l160 64l72 -502l29 -10l-4 -26h-299l4 26l60 10l-11 130h24l4 30h-30l-17 203zM570 677l28 -7l-4 -57l-20 -49l-74 -7l-26 7l2 58l21 48zM360 677l26 -7l-3 -57l-21 -49l-73 -7l-27 7l4 58l19 48z
M173 196h156l2 -30h-178z" />
    <glyph glyph-name="Agrave.002" horiz-adv-x="695" 
d="M382 234h-210l-109 -199l70 -10l-4 -25h-159l4 25l42 10l352 624l177 61l82 -685l38 -10l-4 -25h-342l4 25l72 10zM188 264h192l-21 312zM467 747l-140 104h163l25 -104h-48z" />
    <glyph glyph-name="Agrave.sc" horiz-adv-x="601" 
d="M331 166h-178l-89 -130l58 -10l-4 -26h-133l4 26l32 10l299 438l160 64l72 -502l29 -10l-4 -26h-299l4 26l60 10zM173 196h156l-17 203zM419 578l-123 98h134l16 -98h-27z" />
    <glyph glyph-name="Amacron.002" horiz-adv-x="695" 
d="M382 234h-210l-109 -199l70 -10l-4 -25h-159l4 25l42 10l352 624l177 61l82 -685l38 -10l-4 -25h-342l4 25l72 10zM188 264h192l-21 312zM331 828h300l-14 -70h-300z" />
    <glyph glyph-name="Amacron.sc" horiz-adv-x="601" 
d="M331 166h-178l-89 -130l58 -10l-4 -26h-133l4 26l32 10l299 438l160 64l72 -502l29 -10l-4 -26h-299l4 26l60 10zM308 656h258l-14 -82h-257zM173 196h156l-17 203z" />
    <glyph glyph-name="Aogonek.001" horiz-adv-x="695" 
d="M430 -179q-103 0 -148.5 20t-37.5 68l7 40l145 74l-14 211h-210l-109 -199l70 -10l-4 -25h-159l4 25l42 10l352 624l177 61l82 -685l38 -10l-4 -25h-262l-41 -70l-4 -25q-4 -21 2 -33.5t18 -19.5t28 -9t31 -2zM188 264h192l-21 312z" />
    <glyph glyph-name="Aogonek.sc" horiz-adv-x="601" 
d="M384 -189q-52 0 -86.5 4.5t-54.5 14t-27 23.5t-4 33l12 70l120 67l-12 143h-179l-89 -130l58 -10l-4 -26h-133l4 26l32 10l299 438l160 64l72 -502l29 -10l-4 -26h-229l-27 -63l-8 -40q-2 -10 -2 -22.5t6.5 -23t23 -18t46.5 -7.5zM173 196h156l-17 203z" />
    <glyph glyph-name="Aring.002" horiz-adv-x="695" 
d="M382 234h-210l-109 -199l70 -10l-4 -25h-159l4 25l42 10l352 624l177 61l82 -685l38 -10l-4 -25h-342l4 25l72 10zM188 264h192l-21 312zM534 782q0 -20 -7.5 -32.5t-19.5 -20.5t-28 -12.5t-32 -8.5q-15 0 -31.5 3.5t-29.5 12.5t-21.5 23t-8.5 35q0 19 8 31.5t20.5 21
t28.5 14t32 10.5q17 0 33 -3.5t28.5 -12.5t20 -24t7.5 -37zM395 782q0 -22 14.5 -35t36.5 -13t36 13t14 35q0 21 -14 36t-36 15t-36.5 -15t-14.5 -36z" />
    <glyph glyph-name="Aring.sc" horiz-adv-x="601" 
d="M331 166h-178l-89 -130l58 -10l-4 -26h-133l4 26l32 10l299 438l160 64l72 -502l29 -10l-4 -26h-299l4 26l60 10zM526 637q0 -38 -30.5 -60t-73.5 -30q-20 0 -39.5 4.5t-35.5 15t-25.5 28t-9.5 43.5q0 18 9 32.5t24 25.5t34 19t40 13q22 0 42 -4t34 -14t22.5 -28t8.5 -45
zM173 196h156l-17 203zM352 637q0 -23 19 -39t48 -16t48.5 16t19.5 39q0 24 -19.5 40.5t-48.5 16.5t-48 -16.5t-19 -40.5z" />
    <glyph glyph-name="Aringacute.002" horiz-adv-x="695" 
d="M382 234h-210l-109 -199l70 -10l-4 -25h-159l4 25l42 10l352 624l177 61l82 -685l38 -10l-4 -25h-342l4 25l72 10zM188 264h192l-21 312zM534 780q0 -20 -7.5 -32.5t-19.5 -20.5t-28 -12.5t-32 -8.5q-15 0 -31.5 3.5t-29.5 12.5t-21.5 23t-8.5 35t9 35t23.5 23t31.5 13.5
t33 7.5l7 26h87l-47 -39q15 -9 24.5 -25.5t9.5 -40.5zM395 780q0 -22 14.5 -35t36.5 -13t36 13t14 35q0 21 -14 36t-36 15t-36.5 -15t-14.5 -36z" />
    <glyph glyph-name="Aringacute.sc" horiz-adv-x="601" 
d="M331 166h-178l-89 -130l58 -10l-4 -26h-133l4 26l32 10l299 438l160 64l72 -502l29 -10l-4 -26h-299l4 26l60 10zM422 547q-20 0 -39.5 4.5t-35.5 15t-25.5 28t-9.5 43.5q0 18 9 32.5t24 25.5t34 19t40 13l19 29h106l-83 -33q29 -6 47 -25.5t18 -61.5q0 -38 -30.5 -60
t-73.5 -30zM173 196h156l-17 203zM352 637q0 -23 19.5 -39t47.5 -16q29 0 48.5 16t19.5 39q0 24 -19.5 40.5t-48.5 16.5q-28 0 -47.5 -16.5t-19.5 -40.5z" />
    <glyph glyph-name="Atilde.002" horiz-adv-x="695" 
d="M382 234h-210l-109 -199l70 -10l-4 -25h-159l4 25l42 10l352 624l177 61l82 -685l38 -10l-4 -25h-342l4 25l72 10zM188 264h192l-21 312zM389 854l35 10l197 -44l57 44h17l-85 -122l-35 -8l-199 47l-55 -47h-17z" />
    <glyph glyph-name="Atilde.sc" horiz-adv-x="601" 
d="M331 166h-178l-89 -130l58 -10l-4 -26h-133l4 26l32 10l299 438l160 64l72 -502l29 -10l-4 -26h-299l4 26l60 10zM313 677l28 2l188 -31l52 32h18l-58 -135h-28l-190 34l-51 -35h-18zM173 196h156l-17 203z" />
    <glyph glyph-name="B.sc" horiz-adv-x="557" 
d="M277 45q18 9 30 23.5t19 31t10 32.5t3 27q0 19 -5 37t-13.5 32t-19.5 22.5t-24 8.5h-6l-40 -214h46zM10 0v26l31 10l81 446l-31 10v26h296q41 0 74 -9t56.5 -24t36.5 -35.5t13 -43.5q0 -14 -9 -30t-28.5 -31t-51.5 -28.5t-77 -22.5l-55 -11q106 -6 158.5 -35.5
t52.5 -77.5q0 -38 -20 -62t-51.5 -39.5t-69 -25t-72.5 -17.5l-92 -26h-242zM311 488l-36 -199h8q15 0 31 8t29.5 22.5t22.5 35.5t9 47q0 24 -6 40t-14.5 26.5t-18.5 15t-18 4.5h-7z" />
    <glyph glyph-name="C.sc" horiz-adv-x="583" 
d="M378 476q-60 -18 -92.5 -68.5t-32.5 -125.5q0 -30 11 -63.5t30.5 -65t47 -58.5t60.5 -43q17 2 27 5t27 10l96 160h25l-26 -184l-230 -56q-65 0 -116 16t-86.5 45t-54.5 70.5t-19 91.5q0 44 18 88.5t56 84t96.5 71t138.5 48.5l130 29h27t23 -1t22.5 -2t26.5 -2l-28 -209
h-23l-45 152q-28 5 -55 6.5t-54 0.5z" />
    <glyph glyph-name="Cacute.002" horiz-adv-x="683" 
d="M470 851h168l-178 -104h-47zM433 666q-74 -36 -113.5 -114.5t-39.5 -193.5q0 -44 10.5 -90t31.5 -88t53 -76.5t75 -54.5q23 6 37.5 12.5t37.5 18.5l112 190h27l-31 -212l-264 -76q-74 0 -133.5 21.5t-100.5 61.5t-63 95.5t-22 123.5q0 59 21 120t64.5 114.5t110 96.5
t158.5 66l146 37q39 0 65 -3.5t58 -14.5l-20 -245h-25l-63 181q-32 18 -64.5 24t-67.5 6z" />
    <glyph glyph-name="Cacute.sc" horiz-adv-x="583" 
d="M401 676h138l-168 -98h-32zM378 476q-60 -18 -92.5 -68.5t-32.5 -125.5q0 -30 11 -63.5t30.5 -65t47 -58.5t60.5 -43q17 2 27 5t27 10l96 160h25l-26 -184l-230 -56q-65 0 -116 16t-86.5 45t-54.5 70.5t-19 91.5q0 44 18 88.5t56 84t96.5 71t138.5 48.5l130 29h27t23 -1
t22.5 -2t26.5 -2l-28 -209h-23l-45 152q-28 5 -55 6.5t-54 0.5z" />
    <glyph glyph-name="Ccaron.002" horiz-adv-x="683" 
d="M481 793h10l121 57h44l-138 -114h-86l-96 114h44zM433 666q-74 -36 -113.5 -114.5t-39.5 -193.5q0 -44 10.5 -90t31.5 -88t53 -76.5t75 -54.5q23 6 37.5 12.5t37.5 18.5l112 190h27l-31 -212l-264 -76q-74 0 -133.5 21.5t-100.5 61.5t-63 95.5t-22 123.5q0 59 21 120
t64.5 114.5t110 96.5t158.5 66l146 37q39 0 65 -3.5t58 -14.5l-20 -245h-25l-63 181q-32 18 -64.5 24t-67.5 6z" />
    <glyph glyph-name="Ccaron.sc" horiz-adv-x="583" 
d="M395 635l123 36h32l-134 -93h-74l-93 93h32l105 -36h9zM378 476q-60 -18 -92.5 -68.5t-32.5 -125.5q0 -30 11 -63.5t30.5 -65t47 -58.5t60.5 -43q17 2 27 5t27 10l96 160h25l-26 -184l-230 -56q-65 0 -116 16t-86.5 45t-54.5 70.5t-19 91.5q0 44 18 88.5t56 84t96.5 71
t138.5 48.5l130 29h27t23 -1t22.5 -2t26.5 -2l-28 -209h-23l-45 152q-28 5 -55 6.5t-54 0.5z" />
    <glyph glyph-name="Ccedilla.001" horiz-adv-x="683" 
d="M433 666q-74 -36 -113.5 -114.5t-39.5 -193.5q0 -44 10.5 -90t31.5 -88t53 -76.5t75 -54.5q23 6 37.5 12.5t37.5 18.5l112 190h27l-31 -212l-264 -76h-3l-12 -12q15 -2 30.5 -6.5t28.5 -11t21.5 -16.5t8.5 -23q0 -29 -30.5 -44t-76.5 -27l-97 -27h-42l46 53h93
q11 13 11 24q0 14 -17 21t-58 7l65 63q-67 5 -120.5 28.5t-90.5 62.5t-56.5 92.5t-19.5 117.5q0 59 21 120t64.5 114.5t110 96.5t158.5 66l146 37q39 0 65 -3.5t58 -14.5l-20 -245h-25l-63 181q-32 18 -64.5 24t-67.5 6z" />
    <glyph glyph-name="Ccedilla.sc" horiz-adv-x="583" 
d="M378 476q-60 -18 -92.5 -68.5t-32.5 -125.5q0 -30 11 -63.5t30.5 -65t47 -58.5t60.5 -43q17 2 27 5t27 10l96 160h25l-26 -184l-230 -56h-10.5t-10.5 1l-5 -8q21 -4 35.5 -12t23 -17.5t12 -19.5t3.5 -17q0 -15 -10.5 -24.5t-26.5 -17.5t-36.5 -14.5t-39.5 -15.5l-75 -31
h-28l36 62h79q9 12 9 18q0 22 -11.5 25.5t-27.5 7.5l41 65q-111 10 -172.5 69t-61.5 152q0 44 18 88.5t56 84t96.5 71t138.5 48.5l130 29h27t23 -1t22.5 -2t26.5 -2l-28 -209h-23l-45 152q-28 5 -55 6.5t-54 0.5z" />
    <glyph glyph-name="Ccircumflex.002" horiz-adv-x="684" 
d="M401 747h-47l141 114h80l99 -114h-47l-99 48h-10zM433 666q-74 -36 -113.5 -114.5t-39.5 -193.5q0 -44 10.5 -90t31.5 -88t53 -76.5t75 -54.5q23 6 37.5 12.5t37.5 18.5l112 190h27l-31 -212l-264 -76q-74 0 -133.5 21.5t-100.5 61.5t-63 95.5t-22 123.5q0 59 21 120
t64.5 114.5t110 96.5t158.5 66l146 37q39 0 65 -3.5t58 -14.5l-20 -245h-25l-63 181q-32 18 -64.5 24t-67.5 6z" />
    <glyph glyph-name="Ccircumflex.sc" horiz-adv-x="583" 
d="M289 578h-32l134 93h74l93 -93h-32l-105 36h-9zM378 476q-60 -18 -92.5 -68.5t-32.5 -125.5q0 -30 11 -63.5t30.5 -65t47 -58.5t60.5 -43q17 2 27 5t27 10l96 160h25l-26 -184l-230 -56q-65 0 -116 16t-86.5 45t-54.5 70.5t-19 91.5q0 44 18 88.5t56 84t96.5 71
t138.5 48.5l130 29h27t23 -1t22.5 -2t26.5 -2l-28 -209h-23l-45 152q-28 5 -55 6.5t-54 0.5z" />
    <glyph glyph-name="Cdotaccent.002" horiz-adv-x="683" 
d="M441 849l82 7l32 -7l-3 -54l-24 -45l-80 -7l-33 7l4 55zM433 666q-74 -36 -113.5 -114.5t-39.5 -193.5q0 -44 10.5 -90t31.5 -88t53 -76.5t75 -54.5q23 6 37.5 12.5t37.5 18.5l112 190h27l-31 -212l-264 -76q-74 0 -133.5 21.5t-100.5 61.5t-63 95.5t-22 123.5
q0 59 21 120t64.5 114.5t110 96.5t158.5 66l146 37q39 0 65 -3.5t58 -14.5l-20 -245h-25l-63 181q-32 18 -64.5 24t-67.5 6z" />
    <glyph glyph-name="Cdotaccent.sc" horiz-adv-x="583" 
d="M377 682l64 4l46 -6l-4 -63l-22 -54l-60 -6l-50 6l6 65zM378 476q-60 -18 -92.5 -68.5t-32.5 -125.5q0 -30 11 -63.5t30.5 -65t47 -58.5t60.5 -43q17 2 27 5t27 10l96 160h25l-26 -184l-230 -56q-65 0 -116 16t-86.5 45t-54.5 70.5t-19 91.5q0 44 18 88.5t56 84t96.5 71
t138.5 48.5l130 29h27t23 -1t22.5 -2t26.5 -2l-28 -209h-23l-45 152q-28 5 -55 6.5t-54 0.5z" />
    <glyph glyph-name="D.sc" horiz-adv-x="611" 
d="M10 0v26l31 10l81 446l-31 10v26h272q118 0 182 -46t65 -133q0 -71 -19.5 -121t-53.5 -85.5t-79.5 -58.5t-97.5 -39l-116 -35h-234zM263 45q32 22 57.5 55t43.5 72t28 82t11 84q1 25 -5.5 51.5t-17.5 48.5t-26 36t-32 14h-11l-79 -443h31z" />
    <glyph glyph-name="Dcaron.002" horiz-adv-x="713" 
d="M376 793h10l121 57h44l-138 -114h-86l-96 114h44zM5 0v25l40 10l95 630l-40 10v25h313q68 0 121.5 -18t90.5 -51.5t57 -81t20 -106.5q0 -81 -21.5 -145.5t-60.5 -114t-92.5 -84t-116.5 -55.5l-131 -44h-275zM303 45q39 28 70 71.5t52.5 96t33.5 111.5t13 118
q1 45 -7 86.5t-22 73t-33 50t-41 18.5h-19l-94 -625h47z" />
    <glyph glyph-name="Dcaron.sc" horiz-adv-x="611" 
d="M330 635l123 36h32l-134 -93h-74l-93 93h32l105 -36h9zM10 0v26l31 10l81 446l-31 10v26h272q118 0 182 -46t65 -133q0 -71 -19.5 -121t-53.5 -85.5t-79.5 -58.5t-97.5 -39l-116 -35h-234zM263 45q32 22 57.5 55t43.5 72t28 82t11 84q1 25 -5.5 51.5t-17.5 48.5t-26 36
t-32 14h-11l-79 -443h31z" />
    <glyph glyph-name="Dcroat.sc" horiz-adv-x="611" 
d="M10 0v26l31 10l41 226h-48l5 26h47l36 194l-31 10v26h272q118 0 182 -46t65 -133q0 -71 -19.5 -121t-53.5 -85.5t-79.5 -58.5t-97.5 -39l-116 -35h-234zM263 45q32 22 57.5 55t43.5 72t28 82t11 84q1 25 -5.5 51.5t-17.5 48.5t-26 36t-32 14h-11l-36 -200h38l-4 -26h-39
l-38 -217h31z" />
    <glyph glyph-name="E.sc" horiz-adv-x="522" 
d="M10 26l31 10l81 446l-31 10v26h461l-27 -157h-23l-52 133h-138l-37 -209h55l75 106h18l-40 -236h-18l-39 105h-55l-42 -236h161l95 142h23l-29 -166h-469v26z" />
    <glyph glyph-name="Eacute.002" horiz-adv-x="606" 
d="M405 851h168l-178 -104h-47zM5 25l40 10l95 630l-40 10v25h536l-32 -200h-25l-59 175h-169l-44 -295h70l86 133h20l-46 -290h-20l-44 132h-70l-50 -330h195l109 184h25l-33 -209h-544v25z" />
    <glyph glyph-name="Eacute.sc" horiz-adv-x="522" 
d="M355 676h139l-169 -98h-32zM10 26l31 10l81 446l-31 10v26h461l-27 -157h-23l-52 133h-138l-37 -209h55l75 106h18l-40 -236h-18l-39 105h-55l-42 -236h161l95 142h23l-29 -166h-469v26z" />
    <glyph glyph-name="Ebreve.002" horiz-adv-x="606" 
d="M392 797q27 0 50 6.5t41 15.5t32.5 20t25.5 20l16 -15q-14 -20 -27.5 -35.5t-31.5 -28.5t-42.5 -24t-60.5 -23q-32 0 -58 9t-46 24.5t-33 35.5t-20 42l22 15q7 -9 18 -20t27.5 -20t38 -15.5t48.5 -6.5zM5 25l40 10l95 630l-40 10v25h536l-32 -200h-25l-59 175h-169
l-44 -295h70l86 133h20l-46 -290h-20l-44 132h-70l-50 -330h195l109 184h25l-33 -209h-544v25z" />
    <glyph glyph-name="Ebreve.sc" horiz-adv-x="522" 
d="M341 644q48 0 78.5 10t48.5 21l15 -16q-13 -18 -24.5 -30.5t-27 -22t-37 -18t-53.5 -19.5q-56 0 -90 25.5t-44 66.5l20 16q12 -10 39 -21.5t75 -11.5zM10 26l31 10l81 446l-31 10v26h461l-27 -157h-23l-52 133h-138l-37 -209h55l75 106h18l-40 -236h-18l-39 105h-55
l-42 -236h161l95 142h23l-29 -166h-469v26z" />
    <glyph glyph-name="Ecaron.002" horiz-adv-x="606" 
d="M396 793h10l121 57h44l-138 -114h-86l-96 114h44zM5 25l40 10l95 630l-40 10v25h536l-32 -200h-25l-59 175h-169l-44 -295h70l86 133h20l-46 -290h-20l-44 132h-70l-50 -330h195l109 184h25l-33 -209h-544v25z" />
    <glyph glyph-name="Ecaron.sc" horiz-adv-x="522" 
d="M330 635l123 36h32l-134 -93h-74l-93 93h32l105 -36h9zM10 26l31 10l81 446l-31 10v26h461l-27 -157h-23l-52 133h-138l-37 -209h55l75 106h18l-40 -236h-18l-39 105h-55l-42 -236h161l95 142h23l-29 -166h-469v26z" />
    <glyph glyph-name="Ecircumflex.002" horiz-adv-x="606" 
d="M286 747h-47l141 114h80l99 -114h-47l-99 48h-10zM5 25l40 10l95 630l-40 10v25h536l-32 -200h-25l-59 175h-169l-44 -295h70l86 133h20l-46 -290h-20l-44 132h-70l-50 -330h195l109 184h25l-33 -209h-544v25z" />
    <glyph glyph-name="Ecircumflex.sc" horiz-adv-x="522" 
d="M211 578h-32l134 93h74l93 -93h-32l-104 36h-9zM10 26l31 10l81 446l-31 10v26h461l-27 -157h-23l-52 133h-138l-37 -209h55l75 106h18l-40 -236h-18l-39 105h-55l-42 -236h161l95 142h23l-29 -166h-469v26z" />
    <glyph glyph-name="Edieresis.002" horiz-adv-x="606" 
d="M341 856l32 -7l-3 -54l-24 -45l-80 -7l-33 7l4 55l22 44zM581 856l33 -7l-4 -54l-23 -45l-81 -7l-32 7l3 55l23 44zM5 25l40 10l95 630l-40 10v25h536l-32 -200h-25l-59 175h-169l-44 -295h70l86 133h20l-46 -290h-20l-44 132h-70l-50 -330h195l109 184h25l-33 -209h-544
v25z" />
    <glyph glyph-name="Edieresis.sc" horiz-adv-x="522" 
d="M277 677l27 -7l-3 -57l-21 -49l-73 -7l-27 7l3 58l20 48zM488 677l27 -7l-3 -57l-21 -49l-73 -7l-27 7l3 58l20 48zM10 26l31 10l81 446l-31 10v26h461l-27 -157h-23l-52 133h-138l-37 -209h55l75 106h18l-40 -236h-18l-39 105h-55l-42 -236h161l95 142h23l-29 -166h-469
v26z" />
    <glyph glyph-name="Edotaccent.002" horiz-adv-x="606" 
d="M366 849l82 7l32 -7l-3 -54l-24 -45l-80 -7l-33 7l4 55zM5 25l40 10l95 630l-40 10v25h536l-32 -200h-25l-59 175h-169l-44 -295h70l86 133h20l-46 -290h-20l-44 132h-70l-50 -330h195l109 184h25l-33 -209h-544v25z" />
    <glyph glyph-name="Edotaccent.sc" horiz-adv-x="522" 
d="M298 671l64 4l47 -6l-5 -64l-22 -53l-59 -6l-50 6l5 64zM10 26l31 10l81 446l-31 10v26h461l-27 -157h-23l-52 133h-138l-37 -209h55l75 106h18l-40 -236h-18l-39 105h-55l-42 -236h161l95 142h23l-29 -166h-469v26z" />
    <glyph glyph-name="Egrave.002" horiz-adv-x="606" 
d="M407 747l-140 104h163l25 -104h-48zM5 25l40 10l95 630l-40 10v25h536l-32 -200h-25l-59 175h-169l-44 -295h70l86 133h20l-46 -290h-20l-44 132h-70l-50 -330h195l109 184h25l-33 -209h-544v25z" />
    <glyph glyph-name="Egrave.sc" horiz-adv-x="522" 
d="M356 578l-123 98h134l16 -98h-27zM10 26l31 10l81 446l-31 10v26h461l-27 -157h-23l-52 133h-138l-37 -209h55l75 106h18l-40 -236h-18l-39 105h-55l-42 -236h161l95 142h23l-29 -166h-469v26z" />
    <glyph glyph-name="Emacron.002" horiz-adv-x="606" 
d="M271 828h300l-14 -70h-300zM5 25l40 10l95 630l-40 10v25h536l-32 -200h-25l-59 175h-169l-44 -295h70l86 133h20l-46 -290h-20l-44 132h-70l-50 -330h195l109 184h25l-33 -209h-544v25z" />
    <glyph glyph-name="Emacron.sc" horiz-adv-x="522" 
d="M226 656h258l-14 -82h-258zM10 26l31 10l81 446l-31 10v26h461l-27 -157h-23l-52 133h-138l-37 -209h55l75 106h18l-40 -236h-18l-39 105h-55l-42 -236h161l95 142h23l-29 -166h-469v26z" />
    <glyph glyph-name="Eng.001" horiz-adv-x="647" 
d="M617 666l-55 10v25h130v-25l-40 -10l-100 -666h5l-149 -175h-157l21 118h159l117 57h-152l-229 617l-87 -582l55 -10l-5 -25h-125v25l40 10l95 630l-40 10v25h262l186 -484z" />
    <glyph glyph-name="Eng.sc" horiz-adv-x="549" 
d="M532 483l-45 10v26h107v-26l-31 -10l-85 -483h-19l-119 -177h-135l30 142h120l95 35h-114l-191 432l-73 -396l45 -10l-5 -26h-102v26l31 10l80 446l-31 10v26h231l159 -320z" />
    <glyph glyph-name="Eogonek.001" horiz-adv-x="606" 
d="M5 25l40 10l95 630l-40 10v25h536l-32 -200h-25l-59 175h-169l-44 -295h70l86 133h20l-46 -290h-20l-44 132h-70l-50 -330h195l109 184h25l-33 -209h-75l-37 -70l-4 -25q-4 -21 4 -33.5t22 -19.5t31.5 -9t32.5 -2l-3 -20q-103 0 -149.5 20t-36.5 68l4 19l90 72h-423v25z
" />
    <glyph glyph-name="Eogonek.sc" horiz-adv-x="522" 
d="M10 26l31 10l81 446l-31 10v26h461l-27 -157h-23l-52 133h-138l-37 -209h55l75 106h18l-40 -236h-18l-39 105h-55l-42 -236h161l95 142h23l-29 -166h-61l-45 -63l-8 -40q-2 -10 -2 -22.5t6.5 -23t23 -18t46.5 -7.5l-3 -15q-52 0 -86.5 4.5t-54.5 14t-27 23.5t-4 33l12 70
l101 44h-367v26z" />
    <glyph glyph-name="Eth.sc" horiz-adv-x="611" 
d="M-8 0v26l31 10l41 226h-29l5 26h28l36 194l-31 10v26h272q118 0 182 -46t65 -133q0 -71 -19.5 -121t-53.5 -85.5t-79.5 -58.5t-97.5 -39l-116 -35h-234zM245 45q32 22 57.5 55t43.5 72t28 82t11 84q1 25 -5.5 51.5t-17.5 48.5t-26 36t-32 14h-11l-36 -200h57l-4 -26h-58
l-38 -217h31z" />
    <glyph glyph-name="Euro.sc" horiz-adv-x="646" 
d="M118 311q15 31 39.5 61t59.5 55.5t81 45.5t103 32l129 26q13 0 31 -6t35.5 -13t32 -14t22.5 -10l-68 -110q-14 12 -36.5 26.5t-48.5 27.5t-53.5 23.5t-50.5 13.5q-32 -8 -57.5 -50t-31.5 -108h200l-18 -32h-183v-2v-16t2 -16h158l-18 -32h-133q6 -23 16.5 -47t27 -46
t38.5 -41t51 -31q10 -2 27.5 1.5t36 8.5t36 10.5t26.5 8.5l9 -16q-23 -11 -62 -31t-112 -43q-73 -1 -130.5 16t-97 47t-61 72t-22.5 91h-71l6 32h67q1 14 8 34h-63l6 32h69z" />
    <glyph glyph-name="Euro.tlf" 
d="M56 417q17 43 45.5 83t69 74.5t94 62t119.5 44.5l146 37q15 -2 35.5 -9t41 -15.5t38 -18t26.5 -15.5l-76 -116q-16 14 -42.5 30.5t-56.5 32t-61 27.5t-57 17q-43 -29 -74 -90.5t-41 -143.5h242l-20 -30h-224q-1 -8 -1 -14.5v-14.5v-19t2 -19h192l-20 -30h-168
q6 -37 19.5 -73t34 -68t48 -58t62.5 -42q12 2 33 9t43 15.5t42 17.5t31 14l10 -15q-27 -17 -73 -42.5t-132 -65.5q-82 0 -147.5 21.5t-111.5 61.5t-70.5 95.5t-24.5 123.5v6h-81l7 30h76q2 17 5 33.5t8 33.5h-75l7 30h79z" />
    <glyph glyph-name="Euro.tlf.sc" 
d="M119 311q15 31 39.5 61t59.5 55.5t81 45.5t103 32l129 26q13 0 31 -6t35.5 -13t32 -14t22.5 -10l-68 -110q-14 12 -36.5 26.5t-48.5 27.5t-53.5 23.5t-50.5 13.5q-32 -8 -57.5 -50t-31.5 -108h200l-18 -32h-183v-2v-16t2 -16h158l-18 -32h-134q6 -23 17 -47t27.5 -46
t38.5 -41t51 -31q10 -2 27.5 1.5t36 8.5t36 10.5t26.5 8.5l9 -16q-23 -11 -62 -31t-112 -43q-73 -1 -130.5 16t-97 47t-61 72t-22.5 91h-71l6 32h67q1 14 8 34h-63l6 32h69z" />
    <glyph glyph-name="F.sc" horiz-adv-x="502" 
d="M286 26v-26h-276v26l31 10l81 446l-31 10v26h461l-27 -157h-23l-52 133h-138l-40 -224h55l75 106h18l-39 -235h-19l-39 105h-54l-39 -210z" />
    <glyph glyph-name="G.sc" horiz-adv-x="591" 
d="M259 -13q-49 0 -88.5 19.5t-67.5 50t-43 67.5t-15 72q0 47 17.5 93.5t53.5 87t90.5 72.5t129.5 49l144 33q32 0 54.5 -1t46.5 -3l-17 -209h-23l-57 150q-32 6 -56.5 7t-54.5 1q-35 -15 -58 -42t-37 -57t-20 -58t-6 -46q0 -60 26 -119t89 -114l28 180l-31 7v27h237v-27
l-20 -7l-30 -169z" />
    <glyph glyph-name="Gbreve.002" horiz-adv-x="702" 
d="M497 797q27 0 50 6.5t41 15.5t32.5 20t25.5 20l16 -15q-14 -20 -27.5 -35.5t-31.5 -28.5t-42.5 -24t-60.5 -23q-32 0 -58 9t-46 24.5t-33 35.5t-20 42l22 15q7 -9 18 -20t27.5 -20t38 -15.5t48.5 -6.5zM312 -18q-60 0 -107 26.5t-79 67.5t-49 91.5t-17 99.5q0 63 20 126
t61.5 117.5t105 97.5t149.5 67l162 43q40 0 68 -4t57 -14l-20 -245h-25l-64 181q-36 19 -66.5 24.5t-69.5 5.5q-50 -28 -79.5 -69t-44.5 -85t-19.5 -86.5t-4.5 -72.5q0 -101 31.5 -180.5t110.5 -137.5l5 1l38 261l-40 10v25h272v-25l-27 -10l-35 -235z" />
    <glyph glyph-name="Gbreve.sc" horiz-adv-x="591" 
d="M259 -13q-49 0 -88.5 19.5t-67.5 50t-43 67.5t-15 72q0 47 17.5 93.5t53.5 87t90.5 72.5t129.5 49l144 33q32 0 54.5 -1t46.5 -3l-17 -209h-23l-57 150q-32 6 -56.5 7t-54.5 1q-35 -15 -58 -42t-37 -57t-20 -58t-6 -46q0 -60 26 -119t89 -114l28 180l-31 7v27h237v-27
l-20 -7l-30 -169zM379 644q48 0 78.5 10t48.5 21l15 -16q-13 -18 -24.5 -30.5t-27 -22t-37 -18t-53.5 -19.5q-56 0 -90 25.5t-45 66.5l20 16q13 -10 40 -21.5t75 -11.5z" />
    <glyph glyph-name="Gcircumflex.002" horiz-adv-x="702" 
d="M411 747h-47l141 114h80l99 -114h-47l-99 48h-10zM312 -18q-60 0 -107 26.5t-79 67.5t-49 91.5t-17 99.5q0 63 20 126t61.5 117.5t105 97.5t149.5 67l162 43q40 0 68 -4t57 -14l-20 -245h-25l-64 181q-36 19 -66.5 24.5t-69.5 5.5q-50 -28 -79.5 -69t-44.5 -85
t-19.5 -86.5t-4.5 -72.5q0 -101 31.5 -180.5t110.5 -137.5l5 1l38 261l-40 10v25h272v-25l-27 -10l-35 -235z" />
    <glyph glyph-name="Gcircumflex.sc" horiz-adv-x="591" 
d="M259 -13q-49 0 -88.5 19.5t-67.5 50t-43 67.5t-15 72q0 47 17.5 93.5t53.5 87t90.5 72.5t129.5 49l144 33q32 0 54.5 -1t46.5 -3l-17 -209h-23l-57 150q-32 6 -56.5 7t-54.5 1q-35 -15 -58 -42t-37 -57t-20 -58t-6 -46q0 -60 26 -119t89 -114l28 180l-31 7v27h237v-27
l-20 -7l-30 -169zM296 578h-32l134 93h74l93 -93h-32l-105 36h-9z" />
    <glyph glyph-name="Gcommaaccent.001" horiz-adv-x="692" 
d="M306 -113l-68 42l5 31h170l-11 -65l-126 -69l-17 9zM302 -18q-60 0 -107 26.5t-79 67.5t-49 91.5t-17 99.5q0 63 20 126t61.5 117.5t105 97.5t149.5 67l162 43q40 0 68 -4t57 -14l-20 -245h-25l-64 181q-36 19 -66.5 24.5t-69.5 5.5q-50 -28 -79.5 -69t-44.5 -85
t-19.5 -86.5t-4.5 -72.5q0 -101 31.5 -180.5t110.5 -137.5l5 1l38 261l-40 10v25h272v-25l-27 -10l-35 -235z" />
    <glyph glyph-name="Gcommaaccent.sc" horiz-adv-x="591" 
d="M259 -13q-49 0 -88.5 19.5t-67.5 50t-43 67.5t-15 72q0 47 17.5 93.5t53.5 87t90.5 72.5t129.5 49l144 33q32 0 54.5 -1t46.5 -3l-17 -209h-23l-57 150q-32 6 -56.5 7t-54.5 1q-35 -15 -58 -42t-37 -57t-20 -58t-6 -46q0 -60 26 -119t89 -114l28 180l-31 7v27h237v-27
l-20 -7l-30 -169zM225 -115l-44 53l6 28h153l-13 -63l-147 -99l-22 4z" />
    <glyph glyph-name="Gdotaccent.002" horiz-adv-x="702" 
d="M441 849l82 7l32 -7l-3 -54l-24 -45l-80 -7l-33 7l4 55zM312 -18q-60 0 -107 26.5t-79 67.5t-49 91.5t-17 99.5q0 63 20 126t61.5 117.5t105 97.5t149.5 67l162 43q40 0 68 -4t57 -14l-20 -245h-25l-64 181q-36 19 -66.5 24.5t-69.5 5.5q-50 -28 -79.5 -69t-44.5 -85
t-19.5 -86.5t-4.5 -72.5q0 -101 31.5 -180.5t110.5 -137.5l5 1l38 261l-40 10v25h272v-25l-27 -10l-35 -235z" />
    <glyph glyph-name="Gdotaccent.sc" horiz-adv-x="591" 
d="M259 -13q-49 0 -88.5 19.5t-67.5 50t-43 67.5t-15 72q0 47 17.5 93.5t53.5 87t90.5 72.5t129.5 49l144 33q32 0 54.5 -1t46.5 -3l-17 -209h-23l-57 150q-32 6 -56.5 7t-54.5 1q-35 -15 -58 -42t-37 -57t-20 -58t-6 -46q0 -60 26 -119t89 -114l28 180l-31 7v27h237v-27
l-20 -7l-30 -169zM361 682l64 4l47 -6l-5 -63l-22 -54l-59 -6l-50 6l5 65z" />
    <glyph glyph-name="H.sc" horiz-adv-x="632" 
d="M672 492l-33 -10l-82 -446l31 -10v-26h-252v26l33 10l39 217h-137l-39 -217l30 -10v-26h-252v26l33 10l81 446l-31 10v26h253v-26l-33 -10l-36 -199h136l36 199l-31 10v26h254v-26z" />
    <glyph glyph-name="Hbar.sc" horiz-adv-x="632" 
d="M672 492l-33 -10l-82 -446l31 -10v-26h-252v26l33 10l39 217h-137l-39 -217l30 -10v-26h-252v26l33 10l81 446l-31 10v26h253v-26l-33 -10l-16 -86h136l16 86l-31 10v26h254v-26zM277 283h136l16 87h-137z" />
    <glyph glyph-name="Hcircumflex.002" horiz-adv-x="735" 
d="M775 675l-42 -10l-96 -630l40 -10v-25h-291v25l42 10l47 313h-172l-47 -313l40 -10v-25h-291v25l42 10l95 630l-40 10v25h292v-25l-42 -10l-44 -287h171l44 287l-40 10v25h292v-25zM344 747h-47l141 114h80l99 -114h-47l-99 48h-10z" />
    <glyph glyph-name="Hcircumflex.sc" horiz-adv-x="632" 
d="M672 492l-33 -10l-82 -446l31 -10v-26h-252v26l33 10l39 217h-137l-39 -217l30 -10v-26h-252v26l33 10l81 446l-31 10v26h253v-26l-33 -10l-36 -199h136l36 199l-31 10v26h254v-26zM292 578h-32l134 93h74l93 -93h-32l-104 36h-9z" />
    <glyph glyph-name="I.sc" horiz-adv-x="306" 
d="M346 492l-33 -10l-82 -446l31 -10v-26h-252v26l33 10l80 446l-31 10v26h254v-26z" />
    <glyph glyph-name="IJ.sc" horiz-adv-x="603" 
d="M296 18h57l93 466l-31 7v27h253v-27l-33 -7l-62 -308q-10 -54 -34.5 -90t-69.5 -73l-168 -137h-36zM10 26l33 10l80 446l-31 10v26h254v-26l-33 -10l-81 -446l30 -10v-26h-252v26z" />
    <glyph glyph-name="Iacute.002" horiz-adv-x="354" 
d="M278 851h168l-178 -104h-47zM394 675l-42 -10l-96 -630l40 -10v-25h-291v25l42 10l95 630l-40 10v25h292v-25z" />
    <glyph glyph-name="Iacute.sc" horiz-adv-x="306" 
d="M260 676h139l-169 -98h-32zM346 492l-33 -10l-82 -446l31 -10v-26h-252v26l33 10l80 446l-31 10v26h254v-26z" />
    <glyph glyph-name="Ibreve.002" horiz-adv-x="354" 
d="M265 797q27 0 50 6.5t41 15.5t32.5 20t25.5 20l16 -15q-14 -20 -27.5 -35.5t-31.5 -28.5t-42.5 -24t-60.5 -23q-32 0 -58 9t-46 24.5t-33 35.5t-20 42l22 15q7 -9 18 -20t27.5 -20t38 -15.5t48.5 -6.5zM394 675l-42 -10l-96 -630l40 -10v-25h-291v25l42 10l95 630l-40 10
v25h292v-25z" />
    <glyph glyph-name="Ibreve.sc" horiz-adv-x="306" 
d="M245 644q48 0 78.5 11.5t48.5 19.5l15 -16q-13 -18 -24.5 -30.5t-27 -22t-37 -18t-53.5 -19.5q-56 0 -90 25.5t-44 66.5l20 16q12 -10 39 -21.5t75 -11.5zM346 492l-33 -10l-82 -446l31 -10v-26h-252v26l33 10l80 446l-31 10v26h254v-26z" />
    <glyph glyph-name="Icircumflex.002" horiz-adv-x="354" 
d="M140 747h-47l141 114h80l99 -114h-47l-99 48h-10zM394 675l-42 -10l-96 -630l40 -10v-25h-291v25l42 10l95 630l-40 10v25h292v-25z" />
    <glyph glyph-name="Icircumflex.sc" horiz-adv-x="306" 
d="M116 578h-32l134 93h74l93 -93h-32l-104 36h-9zM346 492l-33 -10l-82 -446l31 -10v-26h-252v26l33 10l80 446l-31 10v26h254v-26z" />
    <glyph glyph-name="Idieresis.002" horiz-adv-x="354" 
d="M191 856l32 -7l-3 -54l-24 -45l-80 -7l-33 7l4 55l22 44zM411 856l33 -7l-4 -54l-23 -45l-81 -7l-32 7l3 55l23 44zM394 675l-42 -10l-96 -630l40 -10v-25h-291v25l42 10l95 630l-40 10v25h292v-25z" />
    <glyph glyph-name="Idieresis.sc" horiz-adv-x="306" 
d="M184 677l26 -7l-3 -57l-21 -49l-73 -7l-27 7l4 58l19 48zM376 677l27 -7l-3 -57l-21 -49l-73 -7l-27 7l3 58l20 48zM346 492l-33 -10l-82 -446l31 -10v-26h-252v26l33 10l80 446l-31 10v26h254v-26z" />
    <glyph glyph-name="Idotaccent.002" horiz-adv-x="354" 
d="M224 849l82 7l32 -7l-3 -54l-24 -45l-80 -7l-33 7l4 55zM394 675l-42 -10l-96 -630l40 -10v-25h-291v25l42 10l95 630l-40 10v25h292v-25z" />
    <glyph glyph-name="Idotaccent.sc" horiz-adv-x="306" 
d="M200 671l64 4l47 -6l-5 -64l-22 -53l-59 -6l-50 6l5 64zM346 492l-33 -10l-82 -446l31 -10v-26h-252v26l33 10l80 446l-31 10v26h254v-26z" />
    <glyph glyph-name="Igrave.002" horiz-adv-x="354" 
d="M252 747l-140 104h163l25 -104h-48zM394 675l-42 -10l-96 -630l40 -10v-25h-291v25l42 10l95 630l-40 10v25h292v-25z" />
    <glyph glyph-name="Igrave.sc" horiz-adv-x="306" 
d="M232 578l-122 98h134l15 -98h-27zM346 492l-33 -10l-82 -446l31 -10v-26h-252v26l33 10l80 446l-31 10v26h254v-26z" />
    <glyph glyph-name="Imacron.002" horiz-adv-x="354" 
d="M120 828h300l-14 -70h-300zM394 675l-42 -10l-96 -630l40 -10v-25h-291v25l42 10l95 630l-40 10v25h292v-25z" />
    <glyph glyph-name="Imacron.sc" horiz-adv-x="306" 
d="M136 656h258l-14 -82h-257zM346 492l-33 -10l-82 -446l31 -10v-26h-252v26l33 10l80 446l-31 10v26h254v-26z" />
    <glyph glyph-name="Iogonek.001" horiz-adv-x="354" 
d="M394 675l-42 -10l-96 -630l40 -10v-25h-111l-37 -70l-4 -25q-4 -21 4 -33.5t22 -19.5t31.5 -9t32.5 -2l-3 -20q-103 0 -149.5 20t-36.5 68l4 19l90 72h-134v25l42 10l95 630l-40 10v25h292v-25z" />
    <glyph glyph-name="Iogonek.sc" horiz-adv-x="306" 
d="M346 492l-33 -10l-82 -446l31 -10v-26h-89l-46 -63l-7 -40q-2 -10 -2 -22.5t6.5 -23t22.5 -18t46 -7.5l-2 -15q-52 0 -86.5 4.5t-55 14t-27.5 23.5t-4 33l12 70l102 44h-122v26l33 10l80 446l-31 10v26h254v-26z" />
    <glyph glyph-name="Itilde.002" horiz-adv-x="354" 
d="M154 854l35 10l197 -44l57 44h17l-85 -122l-35 -8l-199 47l-55 -47h-17zM394 675l-42 -10l-96 -630l40 -10v-25h-291v25l42 10l95 630l-40 10v25h292v-25z" />
    <glyph glyph-name="Itilde.sc" horiz-adv-x="306" 
d="M141 677l28 2l188 -31l52 32h18l-58 -135h-29l-190 34l-50 -35h-18zM346 492l-33 -10l-82 -446l31 -10v-26h-252v26l33 10l80 446l-31 10v26h254v-26z" />
    <glyph glyph-name="J.sc" horiz-adv-x="343" 
d="M-14 18h107l93 466l-31 7v27h253v-27l-33 -7l-62 -308q-10 -51 -33 -86t-71 -67l-218 -147h-36z" />
    <glyph glyph-name="Jcircumflex.002" horiz-adv-x="351" 
d="M146 747h-47l141 114h80l99 -114h-47l-99 48h-10zM144 665l-40 10v25h292v-25l-42 -10l-72 -478q-11 -69 -44 -122.5t-79 -82.5l-241 -152h-43l34 150h126q12 56 19.5 96.5t13.5 84.5z" />
    <glyph glyph-name="Jcircumflex.sc" horiz-adv-x="343" 
d="M-14 18h107l93 466l-31 7v27h253v-27l-33 -7l-62 -308q-10 -51 -33 -86t-71 -67l-218 -147h-36zM155 578h-32l134 93h74l93 -93h-32l-105 36h-9z" />
    <glyph glyph-name="K.sc" horiz-adv-x="635" 
d="M278 293l258 189l-75 11v25h204v-25l-82 -11l-265 -188l163 -21l117 -237l20 -10v-26h-219l-125 272l-42 -236l30 -10v-26h-252v26l33 10l81 446l-31 10v26h253v-26l-33 -10z" />
    <glyph glyph-name="Kcommaaccent.001" horiz-adv-x="744" 
d="M321 -113l-68 42l5 31h170l-11 -65l-126 -69l-17 9zM310 389l307 276l-88 11v24h235v-24l-95 -11l-314 -274l180 -21l147 -335l27 -10v-25h-248l-155 368l-50 -333l40 -10v-25h-291v25l42 10l95 630l-40 10v25h292v-25l-42 -10z" />
    <glyph glyph-name="Kcommaaccent.sc" horiz-adv-x="635" 
d="M275 -115l-43 53l6 28h152l-12 -63l-148 -99l-22 4zM278 293l258 189l-75 11v25h204v-25l-82 -11l-265 -188l163 -21l117 -237l20 -10v-26h-219l-125 272l-42 -236l30 -10v-26h-252v26l33 10l81 446l-31 10v26h253v-26l-33 -10z" />
    <glyph glyph-name="L.sc" horiz-adv-x="477" 
d="M229 24h107l123 148h23l-29 -172h-443v26l31 10l81 446l-31 10v26h253v-26l-33 -10z" />
    <glyph glyph-name="Lacute.002" horiz-adv-x="558" 
d="M280 851h168l-178 -104h-47zM253 25h135l140 189h25l-34 -214h-514v25l40 10l95 630l-40 10v25h292v-25l-42 -10z" />
    <glyph glyph-name="Lacute.sc" horiz-adv-x="477" 
d="M265 676h139l-169 -98h-32zM229 24h107l123 148h23l-29 -172h-443v26l31 10l81 446l-31 10v26h253v-26l-33 -10z" />
    <glyph glyph-name="Lcaron.sc" horiz-adv-x="477" 
d="M408 274l95 103l-55 -3l-33 7l7 77l23 61l96 6l36 -6l-7 -71l-23 -67l-122 -115zM229 24h107l123 148h23l-29 -172h-443v26l31 10l81 446l-31 10v26h253v-26l-33 -10z" />
    <glyph glyph-name="Lcommaaccent.001" horiz-adv-x="558" 
d="M236 -113l-68 42l5 31h170l-11 -65l-126 -69l-17 9zM253 25h135l140 189h25l-34 -214h-514v25l40 10l95 630l-40 10v25h292v-25l-42 -10z" />
    <glyph glyph-name="Lcommaaccent.sc" horiz-adv-x="477" 
d="M196 -115l-43 53l6 28h152l-12 -63l-148 -99l-22 4zM229 24h107l123 148h23l-29 -172h-443v26l31 10l81 446l-31 10v26h253v-26l-33 -10z" />
    <glyph glyph-name="Ldot.sc" horiz-adv-x="477" 
d="M477 369l32 -9l-4 -67l-18 -60l-93 -6l-31 6l5 69l17 58zM229 24h107l123 148h23l-29 -172h-443v26l31 10l81 446l-31 10v26h253v-26l-33 -10z" />
    <glyph glyph-name="Lslash.sc" horiz-adv-x="505" 
d="M312 333l71 29l-6 -33l-71 -29l-49 -276h107l123 148h23l-29 -172h-443v26l31 10l32 180l-29 -12l7 33l28 11l43 234l-31 10v26h253v-26l-33 -10z" />
    <glyph glyph-name="M.sc" horiz-adv-x="760" 
d="M566 518h234v-26l-32 -11l-82 -445l31 -10v-26h-252v26l32 10l76 426l-231 -466h-96l-98 465l-76 -425l40 -10v-26h-102v26l31 10l80 445l-31 11v26h245l63 -340z" />
    <glyph glyph-name="N.sc" horiz-adv-x="549" 
d="M532 483l-45 10v26h107v-26l-31 -10l-85 -483h-142l-191 432l-73 -396l45 -10l-5 -26h-102v26l31 10l80 446l-31 10v26h231l159 -320z" />
    <glyph glyph-name="Nacute.002" horiz-adv-x="647" 
d="M400 851h168l-178 -104h-47zM617 666l-55 10v25h130v-25l-40 -10l-100 -666h-156l-229 617l-87 -582l55 -10l-5 -25h-125v25l40 10l95 630l-40 10v25h262l186 -484z" />
    <glyph glyph-name="Nacute.sc" horiz-adv-x="549" 
d="M379 676h139l-169 -98h-32zM532 483l-45 10v26h107v-26l-31 -10l-85 -483h-142l-191 432l-73 -396l45 -10l-5 -26h-102v26l31 10l80 446l-31 10v26h231l159 -320z" />
    <glyph glyph-name="Ncaron.002" horiz-adv-x="647" 
d="M413 793h10l121 57h44l-138 -114h-86l-96 114h44zM617 666l-55 10v25h130v-25l-40 -10l-100 -666h-156l-229 617l-87 -582l55 -10l-5 -25h-125v25l40 10l95 630l-40 10v25h262l186 -484z" />
    <glyph glyph-name="Ncaron.sc" horiz-adv-x="549" 
d="M364 635l123 36h32l-134 -93h-74l-93 93h32l104 -36h10zM532 483l-45 10v26h107v-26l-31 -10l-85 -483h-142l-191 432l-73 -396l45 -10l-5 -26h-102v26l31 10l80 446l-31 10v26h231l159 -320z" />
    <glyph glyph-name="Ncommaaccent.001" horiz-adv-x="647" 
d="M276 -113l-68 42l5 31h170l-11 -65l-126 -69l-17 9zM617 666l-55 10v25h130v-25l-40 -10l-100 -666h-156l-229 617l-87 -582l55 -10l-5 -25h-125v25l40 10l95 630l-40 10v25h262l186 -484z" />
    <glyph glyph-name="Ncommaaccent.sc" horiz-adv-x="549" 
d="M192 -115l-43 53l6 28h152l-12 -63l-148 -99l-22 4zM532 483l-45 10v26h107v-26l-31 -10l-85 -483h-142l-191 432l-73 -396l45 -10l-5 -26h-102v26l31 10l80 446l-31 10v26h231l159 -320z" />
    <glyph glyph-name="Ntilde.002" horiz-adv-x="647" 
d="M323 854l35 10l197 -44l57 44h17l-85 -122l-35 -8l-199 47l-55 -47h-17zM617 666l-55 10v25h130v-25l-40 -10l-100 -666h-156l-229 617l-87 -582l55 -10l-5 -25h-125v25l40 10l95 630l-40 10v25h262l186 -484z" />
    <glyph glyph-name="Ntilde.sc" horiz-adv-x="549" 
d="M261 677l28 2l188 -31l52 32h18l-57 -135h-29l-190 34l-50 -35h-18zM532 483l-45 10v26h107v-26l-31 -10l-85 -483h-142l-191 432l-73 -396l45 -10l-5 -26h-102v26l31 10l80 446l-31 10v26h231l159 -320z" />
    <glyph glyph-name="O.sc" horiz-adv-x="641" 
d="M253 241q0 -39 5.5 -78t16.5 -70.5t27 -52t37 -21.5q52 35 73 101t21 157q0 40 -5.5 79.5t-16.5 71.5t-27 52.5t-37 21.5q-24 -15 -41.5 -40.5t-29.5 -59.5t-17.5 -75t-5.5 -86zM378 531q62 0 111 -18t82.5 -51.5t51.5 -80.5t18 -104q0 -41 -13.5 -80.5t-43.5 -74
t-78.5 -63.5t-117.5 -49l-80 -23q-62 0 -111 18t-82.5 50.5t-51.5 78.5t-18 102q0 42 13.5 82.5t43.5 76t78 65t118 48.5z" />
    <glyph glyph-name="OE.sc" horiz-adv-x="856" 
d="M393 36l80 454l-104 12q-58 -33 -87 -98t-29 -154q0 -38 4.5 -79t12.5 -75t20.5 -56t29.5 -22zM290 -13q-58 0 -103.5 18t-77 51.5t-48 80.5t-16.5 105q0 42 14.5 80t47 72t85 62.5t128.5 51.5l79 23l82 -13h405l-28 -157h-23l-52 133h-119l-42 -240h55l75 106h18
l-40 -235h-18l-39 105h-54l-39 -206h143l95 142h23l-29 -166h-457z" />
    <glyph glyph-name="Oacute.002" horiz-adv-x="749" 
d="M450 851h168l-178 -104h-47zM280 323q0 -58 7.5 -112t21.5 -96.5t34 -68.5t46 -28q67 45 93.5 139.5t26.5 219.5q0 59 -7.5 114t-21.5 97.5t-34 69t-46 28.5q-30 -19 -52.5 -54.5t-37.5 -83t-22.5 -105t-7.5 -120.5zM435 718q71 0 127.5 -23.5t95.5 -66.5t60 -103.5
t21 -133.5q0 -58 -15.5 -114.5t-50.5 -107t-91 -91.5t-137 -67l-91 -29q-71 0 -127.5 23.5t-95.5 66.5t-60 103t-21 134q0 58 15.5 114.5t50.5 107t91 91.5t137 67z" />
    <glyph glyph-name="Oacute.sc" horiz-adv-x="641" 
d="M388 676h138l-168 -98h-32zM268 241q0 -39 5.5 -78t16.5 -70.5t27 -52t37 -21.5q52 35 73 101t21 157q0 40 -5.5 79.5t-16.5 71.5t-27 52.5t-37 21.5q-24 -15 -41.5 -40.5t-29.5 -59.5t-17.5 -75t-5.5 -86zM393 531q62 0 111 -18t82.5 -51.5t51.5 -80.5t18 -104
q0 -41 -13.5 -80.5t-43.5 -74t-78.5 -63.5t-117.5 -49l-80 -23q-62 0 -111 18t-82.5 50.5t-51.5 78.5t-18 102q0 42 13.5 82.5t43.5 76t78 65t118 48.5z" />
    <glyph glyph-name="Obreve.002" horiz-adv-x="749" 
d="M447 797q27 0 50 6.5t41 15.5t32.5 20t25.5 20l16 -15q-14 -20 -27.5 -35.5t-31.5 -28.5t-42.5 -24t-60.5 -23q-32 0 -58 9t-46 24.5t-33 35.5t-20 42l22 15q7 -9 18 -20t27.5 -20t38 -15.5t48.5 -6.5zM280 323q0 -58 7.5 -112t21.5 -96.5t34 -68.5t46 -28
q67 45 93.5 139.5t26.5 219.5q0 59 -7.5 114t-21.5 97.5t-34 69t-46 28.5q-30 -19 -52.5 -54.5t-37.5 -83t-22.5 -105t-7.5 -120.5zM435 718q71 0 127.5 -23.5t95.5 -66.5t60 -103.5t21 -133.5q0 -58 -15.5 -114.5t-50.5 -107t-91 -91.5t-137 -67l-91 -29q-71 0 -127.5 23.5
t-95.5 66.5t-60 103t-21 134q0 58 15.5 114.5t50.5 107t91 91.5t137 67z" />
    <glyph glyph-name="Obreve.sc" horiz-adv-x="641" 
d="M389 644q48 0 78 11.5t49 19.5l14 -16q-12 -18 -24 -30.5t-27 -22t-36.5 -18t-53.5 -19.5q-56 0 -90 25.5t-45 66.5l20 16q13 -10 40 -21.5t75 -11.5zM268 241q0 -39 5.5 -78t16.5 -70.5t27 -52t37 -21.5q52 35 73 101t21 157q0 40 -5.5 79.5t-16.5 71.5t-27 52.5
t-37 21.5q-24 -15 -41.5 -40.5t-29.5 -59.5t-17.5 -75t-5.5 -86zM393 531q62 0 111 -18t82.5 -51.5t51.5 -80.5t18 -104q0 -41 -13.5 -80.5t-43.5 -74t-78.5 -63.5t-117.5 -49l-80 -23q-62 0 -111 18t-82.5 50.5t-51.5 78.5t-18 102q0 42 13.5 82.5t43.5 76t78 65t118 48.5z
" />
    <glyph glyph-name="Ocircumflex.002" horiz-adv-x="749" 
d="M328 747h-47l141 114h80l99 -114h-47l-99 48h-10zM280 323q0 -58 7.5 -112t21.5 -96.5t34 -68.5t46 -28q67 45 93.5 139.5t26.5 219.5q0 59 -7.5 114t-21.5 97.5t-34 69t-46 28.5q-30 -19 -52.5 -54.5t-37.5 -83t-22.5 -105t-7.5 -120.5zM435 718q71 0 127.5 -23.5
t95.5 -66.5t60 -103.5t21 -133.5q0 -58 -15.5 -114.5t-50.5 -107t-91 -91.5t-137 -67l-91 -29q-71 0 -127.5 23.5t-95.5 66.5t-60 103t-21 134q0 58 15.5 114.5t50.5 107t91 91.5t137 67z" />
    <glyph glyph-name="Ocircumflex.sc" horiz-adv-x="641" 
d="M259 578h-32l134 93h74l93 -93h-32l-104 36h-9zM268 241q0 -39 5.5 -78t16.5 -70.5t27 -52t37 -21.5q52 35 73 101t21 157q0 40 -5.5 79.5t-16.5 71.5t-27 52.5t-37 21.5q-24 -15 -41.5 -40.5t-29.5 -59.5t-17.5 -75t-5.5 -86zM393 531q62 0 111 -18t82.5 -51.5
t51.5 -80.5t18 -104q0 -41 -13.5 -80.5t-43.5 -74t-78.5 -63.5t-117.5 -49l-80 -23q-62 0 -111 18t-82.5 50.5t-51.5 78.5t-18 102q0 42 13.5 82.5t43.5 76t78 65t118 48.5z" />
    <glyph glyph-name="Odieresis.002" horiz-adv-x="749" 
d="M369 856l32 -7l-3 -54l-24 -45l-80 -7l-33 7l4 55l22 44zM609 856l33 -7l-4 -54l-23 -45l-81 -7l-32 7l3 55l23 44zM280 323q0 -58 7.5 -112t21.5 -96.5t34 -68.5t46 -28q67 45 93.5 139.5t26.5 219.5q0 59 -7.5 114t-21.5 97.5t-34 69t-46 28.5q-30 -19 -52.5 -54.5
t-37.5 -83t-22.5 -105t-7.5 -120.5zM435 718q71 0 127.5 -23.5t95.5 -66.5t60 -103.5t21 -133.5q0 -58 -15.5 -114.5t-50.5 -107t-91 -91.5t-137 -67l-91 -29q-71 0 -127.5 23.5t-95.5 66.5t-60 103t-21 134q0 58 15.5 114.5t50.5 107t91 91.5t137 67z" />
    <glyph glyph-name="Odieresis.sc" horiz-adv-x="641" 
d="M320 677l27 -7l-3 -57l-21 -49l-73 -7l-27 7l3 58l20 48zM531 677l27 -7l-3 -57l-21 -49l-73 -7l-27 7l3 58l20 48zM268 241q0 -39 5.5 -78t16.5 -70.5t27 -52t37 -21.5q52 35 73 101t21 157q0 40 -5.5 79.5t-16.5 71.5t-27 52.5t-37 21.5q-24 -15 -41.5 -40.5
t-29.5 -59.5t-17.5 -75t-5.5 -86zM393 531q62 0 111 -18t82.5 -51.5t51.5 -80.5t18 -104q0 -41 -13.5 -80.5t-43.5 -74t-78.5 -63.5t-117.5 -49l-80 -23q-62 0 -111 18t-82.5 50.5t-51.5 78.5t-18 102q0 42 13.5 82.5t43.5 76t78 65t118 48.5z" />
    <glyph glyph-name="Ograve.002" horiz-adv-x="749" 
d="M432 747l-140 104h163l25 -104h-48zM280 323q0 -58 7.5 -112t21.5 -96.5t34 -68.5t46 -28q67 45 93.5 139.5t26.5 219.5q0 59 -7.5 114t-21.5 97.5t-34 69t-46 28.5q-30 -19 -52.5 -54.5t-37.5 -83t-22.5 -105t-7.5 -120.5zM435 718q71 0 127.5 -23.5t95.5 -66.5
t60 -103.5t21 -133.5q0 -58 -15.5 -114.5t-50.5 -107t-91 -91.5t-137 -67l-91 -29q-71 0 -127.5 23.5t-95.5 66.5t-60 103t-21 134q0 58 15.5 114.5t50.5 107t91 91.5t137 67z" />
    <glyph glyph-name="Ograve.sc" horiz-adv-x="641" 
d="M385 578l-122 98h134l15 -98h-27zM268 241q0 -39 5.5 -78t16.5 -70.5t27 -52t37 -21.5q52 35 73 101t21 157q0 40 -5.5 79.5t-16.5 71.5t-27 52.5t-37 21.5q-24 -15 -41.5 -40.5t-29.5 -59.5t-17.5 -75t-5.5 -86zM393 531q62 0 111 -18t82.5 -51.5t51.5 -80.5t18 -104
q0 -41 -13.5 -80.5t-43.5 -74t-78.5 -63.5t-117.5 -49l-80 -23q-62 0 -111 18t-82.5 50.5t-51.5 78.5t-18 102q0 42 13.5 82.5t43.5 76t78 65t118 48.5z" />
    <glyph glyph-name="Ohungarumlaut.002" horiz-adv-x="749" 
d="M574 850h155l-187 -103h-50zM374 850h155l-187 -103h-50zM280 323q0 -58 7.5 -112t21.5 -96.5t34 -68.5t46 -28q67 45 93.5 139.5t26.5 219.5q0 59 -7.5 114t-21.5 97.5t-34 69t-46 28.5q-30 -19 -52.5 -54.5t-37.5 -83t-22.5 -105t-7.5 -120.5zM435 718
q71 0 127.5 -23.5t95.5 -66.5t60 -103.5t21 -133.5q0 -58 -15.5 -114.5t-50.5 -107t-91 -91.5t-137 -67l-91 -29q-71 0 -127.5 23.5t-95.5 66.5t-60 103t-21 134q0 58 15.5 114.5t50.5 107t91 91.5t137 67z" />
    <glyph glyph-name="Ohungarumlaut.sc" horiz-adv-x="641" 
d="M484 676h138l-167 -98h-32zM310 676h137l-166 -98h-33zM268 241q0 -39 5.5 -78t16.5 -70.5t27 -52t37 -21.5q52 35 73 101t21 157q0 40 -5.5 79.5t-16.5 71.5t-27 52.5t-37 21.5q-24 -15 -41.5 -40.5t-29.5 -59.5t-17.5 -75t-5.5 -86zM393 531q62 0 111 -18t82.5 -51.5
t51.5 -80.5t18 -104q0 -41 -13.5 -80.5t-43.5 -74t-78.5 -63.5t-117.5 -49l-80 -23q-62 0 -111 18t-82.5 50.5t-51.5 78.5t-18 102q0 42 13.5 82.5t43.5 76t78 65t118 48.5z" />
    <glyph glyph-name="Omacron.002" horiz-adv-x="749" 
d="M316 828h300l-14 -70h-300zM280 323q0 -58 7.5 -112t21.5 -96.5t34 -68.5t46 -28q67 45 93.5 139.5t26.5 219.5q0 59 -7.5 114t-21.5 97.5t-34 69t-46 28.5q-30 -19 -52.5 -54.5t-37.5 -83t-22.5 -105t-7.5 -120.5zM435 718q71 0 127.5 -23.5t95.5 -66.5t60 -103.5
t21 -133.5q0 -58 -15.5 -114.5t-50.5 -107t-91 -91.5t-137 -67l-91 -29q-71 0 -127.5 23.5t-95.5 66.5t-60 103t-21 134q0 58 15.5 114.5t50.5 107t91 91.5t137 67z" />
    <glyph glyph-name="Omacron.sc" horiz-adv-x="641" 
d="M265 656h257l-14 -82h-257zM268 241q0 -39 5.5 -78t16.5 -70.5t27 -52t37 -21.5q52 35 73 101t21 157q0 40 -5.5 79.5t-16.5 71.5t-27 52.5t-37 21.5q-24 -15 -41.5 -40.5t-29.5 -59.5t-17.5 -75t-5.5 -86zM393 531q62 0 111 -18t82.5 -51.5t51.5 -80.5t18 -104
q0 -41 -13.5 -80.5t-43.5 -74t-78.5 -63.5t-117.5 -49l-80 -23q-62 0 -111 18t-82.5 50.5t-51.5 78.5t-18 102q0 42 13.5 82.5t43.5 76t78 65t118 48.5z" />
    <glyph glyph-name="Oslash.sc" horiz-adv-x="641" 
d="M389 531q44 0 81 -9.5t67 -26.5l36 36h41l-52 -53q44 -33 67 -84t23 -117q0 -41 -13.5 -80.5t-43.5 -74t-78.5 -63.5t-117.5 -49l-80 -23q-57 0 -103 15t-80 43l-55 -56h-43l76 77q-58 66 -58 170q0 42 13.5 82.5t43.5 76t78 65t118 48.5zM444 277q0 19 -1.5 38t-3.5 38
l-172 -175q4 -31 11 -59t17.5 -50t24 -35.5t30.5 -14.5q52 35 73 101t21 157zM264 218l168 171q-10 47 -28.5 79t-45.5 34q-24 -15 -41.5 -40.5t-29.5 -59.5t-17.5 -75t-5.5 -86v-23z" />
    <glyph glyph-name="Oslashacute.002" horiz-adv-x="749" 
d="M435 718q59 0 107 -16.5t86 -46.5l52 60h45l-71 -83q42 -44 63.5 -105t21.5 -136q0 -58 -15.5 -114.5t-50.5 -107t-91 -91.5t-137 -67l-91 -29q-61 0 -111 17.5t-88 49.5l-55 -64h-47l76 89q-38 43 -58.5 102.5t-20.5 132.5q0 58 15.5 114.5t50.5 107t91 91.5t137 67z
M509 377q0 20 -1 40.5t-3 40.5l-217 -253q6 -39 15 -72.5t22 -58.5t29 -40t35 -16q67 45 93.5 139.5t26.5 219.5zM280 323v-36t2 -35l217 253q-6 38 -15 70.5t-21.5 56.5t-28.5 38t-34 16q-30 -19 -52.5 -54.5t-37.5 -83t-22.5 -105t-7.5 -120.5zM393 747l57 104h168
l-178 -104h-47z" />
    <glyph glyph-name="Oslashacute.sc" horiz-adv-x="641" 
d="M387 531q87 0 150 -37l36 37h41l-53 -54q43 -33 66 -84t23 -116q0 -41 -13.5 -80.5t-43.5 -74t-78.5 -63.5t-117.5 -49l-80 -23q-57 0 -102.5 15t-78.5 42l-55 -55h-43l75 76q-59 65 -59 171q0 42 13.5 82.5t43.5 76t78 65t118 48.5zM442 277q0 18 -1.5 37t-3.5 37
l-172 -175q4 -31 11 -59t17.5 -49.5t24 -34.5t30.5 -14q52 35 73 101t21 157zM262 216l169 171q-11 48 -29.5 80.5t-45.5 34.5q-24 -15 -41.5 -40.5t-29.5 -59.5t-17.5 -75t-5.5 -86v-25zM326 578l62 98h138l-168 -98h-32z" />
    <glyph glyph-name="Otilde.002" horiz-adv-x="749" 
d="M359 854l35 10l197 -44l57 44h17l-85 -122l-35 -8l-199 47l-55 -47h-17zM280 323q0 -58 7.5 -112t21.5 -96.5t34 -68.5t46 -28q67 45 93.5 139.5t26.5 219.5q0 59 -7.5 114t-21.5 97.5t-34 69t-46 28.5q-30 -19 -52.5 -54.5t-37.5 -83t-22.5 -105t-7.5 -120.5zM435 718
q71 0 127.5 -23.5t95.5 -66.5t60 -103.5t21 -133.5q0 -58 -15.5 -114.5t-50.5 -107t-91 -91.5t-137 -67l-91 -29q-71 0 -127.5 23.5t-95.5 66.5t-60 103t-21 134q0 58 15.5 114.5t50.5 107t91 91.5t137 67z" />
    <glyph glyph-name="Otilde.sc" horiz-adv-x="641" 
d="M287 677l28 2l188 -31l52 32h18l-57 -135h-29l-190 34l-50 -35h-18zM268 241q0 -39 5.5 -78t16.5 -70.5t27 -52t37 -21.5q52 35 73 101t21 157q0 40 -5.5 79.5t-16.5 71.5t-27 52.5t-37 21.5q-24 -15 -41.5 -40.5t-29.5 -59.5t-17.5 -75t-5.5 -86zM393 531q62 0 111 -18
t82.5 -51.5t51.5 -80.5t18 -104q0 -41 -13.5 -80.5t-43.5 -74t-78.5 -63.5t-117.5 -49l-80 -23q-62 0 -111 18t-82.5 50.5t-51.5 78.5t-18 102q0 42 13.5 82.5t43.5 76t78 65t118 48.5z" />
    <glyph glyph-name="P.sc" horiz-adv-x="527" 
d="M310 252q14 14 25 34.5t19 42.5t12 44t4 39q0 22 -5.5 36.5t-14 23.5t-18 12.5t-17.5 3.5h-4l-42 -236h41zM304 207h-42l-32 -171l56 -10v-26h-276v26l31 10l81 446l-31 10v26h300q90 0 138 -30t48 -82q0 -36 -17 -61.5t-45 -44.5t-62.5 -33t-68.5 -27z" />
    <glyph glyph-name="Q.sc" horiz-adv-x="641" 
d="M378 531q62 0 111 -18t82.5 -51.5t51.5 -80.5t18 -104q0 -41 -13.5 -80.5t-43.5 -74t-78.5 -63.5t-117.5 -49l-59 -17l143 -9l88 -69l34 -13l6 -24l-159 -9l-133 118q-62 0 -111 18t-82.5 50.5t-51.5 78.5t-18 102q0 42 13.5 82.5t43.5 76t78 65t118 48.5zM253 241
q0 -39 5.5 -78t16.5 -70.5t27 -52t37 -21.5q52 35 73 101t21 157q0 40 -5.5 79.5t-16.5 71.5t-27 52.5t-37 21.5q-24 -15 -41.5 -40.5t-29.5 -59.5t-17.5 -75t-5.5 -86z" />
    <glyph glyph-name="R.sc" horiz-adv-x="590" 
d="M306 248l175 -22l70 -190l22 -10v-26h-217l-84 241h-4l-38 -205l26 -10v-26h-246v26l31 10l81 446l-31 10v26h300q43 0 77.5 -8.5t59.5 -23t38 -34t13 -42.5q-1 -40 -22 -65.5t-52.5 -42t-68 -25.5t-68.5 -16zM299 275q18 9 31.5 25.5t22.5 37.5t14 43.5t5 43.5
q0 36 -17 52.5t-36 16.5h-7l-40 -219h27z" />
    <glyph glyph-name="Racute.002" horiz-adv-x="690" 
d="M335 337l210 -31l86 -271l27 -10v-25h-243l-105 332h-11l-45 -297l36 -10v-25h-285v25l40 10l95 630l-40 10v25h347q49 0 89.5 -11t69 -30.5t43.5 -46t15 -57.5q-1 -49 -24.5 -82.5t-59.5 -56.5t-78.5 -36.5t-80.5 -22.5zM344 367q42 24 66 77t24 119q0 56 -21 84t-47 28
h-15l-47 -308h40zM415 851h168l-178 -104h-47z" />
    <glyph glyph-name="Racute.sc" horiz-adv-x="590" 
d="M306 248l175 -22l70 -190l22 -10v-26h-217l-84 241h-4l-38 -205l26 -10v-26h-246v26l31 10l81 446l-31 10v26h300q43 0 77.5 -8.5t59.5 -23t38 -34t13 -42.5q-1 -40 -22 -65.5t-52.5 -42t-68 -25.5t-68.5 -16zM299 275q18 9 31.5 25.5t22.5 37.5t14 43.5t5 43.5
q0 36 -17 52.5t-36 16.5h-7l-40 -219h27zM339 676h139l-169 -98h-32z" />
    <glyph glyph-name="Rcaron.002" horiz-adv-x="690" 
d="M335 337l210 -31l86 -271l27 -10v-25h-243l-105 332h-11l-45 -297l36 -10v-25h-285v25l40 10l95 630l-40 10v25h347q49 0 89.5 -11t69 -30.5t43.5 -46t15 -57.5q-1 -49 -24.5 -82.5t-59.5 -56.5t-78.5 -36.5t-80.5 -22.5zM344 367q42 24 66 77t24 119q0 56 -21 84t-47 28
h-15l-47 -308h40zM396 793h10l121 57h44l-138 -114h-86l-96 114h44z" />
    <glyph glyph-name="Rcaron.sc" horiz-adv-x="590" 
d="M306 248l175 -22l70 -190l22 -10v-26h-217l-84 241h-4l-38 -205l26 -10v-26h-246v26l31 10l81 446l-31 10v26h300q43 0 77.5 -8.5t59.5 -23t38 -34t13 -42.5q-1 -40 -22 -65.5t-52.5 -42t-68 -25.5t-68.5 -16zM299 275q18 9 31.5 25.5t22.5 37.5t14 43.5t5 43.5
q0 36 -17 52.5t-36 16.5h-7l-40 -219h27zM350 635l123 36h32l-134 -93h-74l-93 93h32l105 -36h9z" />
    <glyph glyph-name="Rcommaaccent.001" horiz-adv-x="690" 
d="M335 337l210 -31l86 -271l27 -10v-25h-243l-105 332h-11l-45 -297l36 -10v-25h-285v25l40 10l95 630l-40 10v25h347q49 0 89.5 -11t69 -30.5t43.5 -46t15 -57.5q-1 -49 -24.5 -82.5t-59.5 -56.5t-78.5 -36.5t-80.5 -22.5zM344 367q42 24 66 77t24 119q0 56 -21 84t-47 28
h-15l-47 -308h40zM301 -113l-68 42l5 31h170l-11 -65l-126 -69l-17 9z" />
    <glyph glyph-name="Rcommaaccent.sc" horiz-adv-x="590" 
d="M306 248l175 -22l70 -190l22 -10v-26h-217l-84 241h-4l-38 -205l26 -10v-26h-246v26l31 10l81 446l-31 10v26h300q43 0 77.5 -8.5t59.5 -23t38 -34t13 -42.5q-1 -40 -22 -65.5t-52.5 -42t-68 -25.5t-68.5 -16zM212 -115l-44 53l6 28h153l-13 -63l-147 -99l-22 4zM299 275
q18 9 31.5 25.5t22.5 37.5t14 43.5t5 43.5q0 36 -17 52.5t-36 16.5h-7l-40 -219h27z" />
    </font>
</defs>
</svg>
