<svg xmlns="http://www.w3.org/2000/svg" xmlns:xlink="http://www.w3.org/1999/xlink" version="1.1" xml:space="preserve" width="95" height="38.1"><rect id="backgroundrect" width="100%" height="100%" x="0" y="0" fill="none" stroke="none"/>
<style type="text/css">
	.st0{fill:#4A4C4A;}
</style>

<g class="currentLayer"><title>Layer 1</title><g id="Page-1">
	<g id="Artboard">
		<g id="bicefal">
			<path id="Fill-17" class="st0" d="M9.099999999999994,16.40000000000009 L7.199999999999989,27.09999999999991 c0.1,0.2 0.4,0.5 0.7000000000000002,0.7000000000000002 c0.4,0.2 0.7000000000000002,0.3000000000000001 1,0.3000000000000001 c0.4,-0.3000000000000001 0.8,-0.8 1.1,-1.4 c0.3000000000000001,-0.6000000000000002 0.6000000000000002,-1.2 0.7000000000000002,-1.9 c0.2,-0.7000000000000002 0.3000000000000001,-1.3 0.4,-2 c0.1,-0.7000000000000002 0.1,-1.3 0.1,-1.9 c0,-1.1 -0.1,-2 -0.2,-2.9 c-0.1,-0.9 -0.5,-1.6 -1,-2.2 L9.099999999999994,16.40000000000009 zM1,7.5 L0.8000000000000114,6.7999999999999545 l9.1,-2.4 l1.1,0.9 L9.300000000000011,15.599999999999909 l5.8,-3.7 c1.1,0.5 1.9,1.2 2.5,2.2 c0.6000000000000002,1 0.9,2.2 0.9,3.8 c0,1.1 -0.2,2.1 -0.6000000000000002,3.1 c-0.4,1 -0.9,2 -1.5,2.8 c-0.6000000000000002,0.9 -1.4,1.7000000000000002 -2.3,2.4 c-0.9,0.7000000000000002 -1.9,1.3 -2.9,1.7000000000000002 l-5,2.2 c-1,0 -2,-0.2 -3,-0.6000000000000002 c-1,-0.4 -1.9,-0.9 -2.7,-1.5 L4.099999999999994,6.900000000000091 L1,7.5 z"/>
			<path id="Fill-19" class="st0" d="M23.19999999999999,4.7999999999999545 l1.7000000000000002,-0.3000000000000001 l3.6,0.3000000000000001 v2.9 L27.599999999999994,10 l-1.6,0.4 L22.099999999999994,10 l0.1,-2.6 L23.19999999999999,4.7999999999999545 zM18.19999999999999,28.40000000000009 L20.599999999999994,15 l-2.5,0.7000000000000002 l-0.2,-0.7000000000000002 l8.8,-3.1 l1,0.8 l-2.6,14.8 l3,-2 l0.5,0.6000000000000002 L23,30.200000000000045 L18.19999999999999,28.40000000000009 z"/>
			<path id="Fill-21" class="st0" d="M34,30.09999999999991 c-0.8,-0.1 -1.7000000000000002,-0.3000000000000001 -2.4,-0.6000000000000002 c-0.8,-0.3000000000000001 -1.4,-0.8 -2,-1.4 c-0.6000000000000002,-0.6000000000000002 -1,-1.2 -1.4,-2 c-0.4,-0.8 -0.5,-1.7000000000000002 -0.5,-2.6 c0,-1.1 0.2,-2 0.5,-2.9 c0.3000000000000001,-0.8 0.8,-1.6 1.4,-2.3 c0.6000000000000002,-0.7000000000000002 1.4,-1.3 2.3,-1.9 c0.9,-0.6000000000000002 1.9,-1.2 3,-1.8 l5.3,-2.8 c0.4,0 1,0.2 1.7000000000000002,0.5 c0.7000000000000002,0.3000000000000001 1.3,0.5 1.7000000000000002,0.8 l-3.1,4.7 c-0.4,-0.3000000000000001 -0.9,-0.5 -1.2,-0.8 c-0.4,-0.2 -0.8,-0.5 -1.1,-0.7000000000000002 S37.400000000000006,16 37,15.799999999999955 c-0.4,-0.2 -0.9,-0.4 -1.4,-0.6000000000000002 c-0.4,0.7000000000000002 -0.7000000000000002,1.4 -0.8,2.1 c-0.1,0.7000000000000002 -0.2,1.5 -0.2,2.2 c0,0.6000000000000002 0.1,1.2 0.2,1.8 c0.2,0.6000000000000002 0.4,1.2 0.7000000000000002,1.8 c0.3000000000000001,0.6000000000000002 0.7000000000000002,1.1 1.1,1.7000000000000002 c0.4,0.5 0.9,1 1.5,1.3 l3.4,-2.1 l0.4,0.6000000000000002 c-0.6000000000000002,0.5 -1.2,0.9 -1.7000000000000002,1.2 c-0.5,0.4 -1.1,0.8 -1.8,1.2 L34,30.09999999999991 z"/>
			<path id="Fill-23" class="st0" d="M48.099999999999994,19 c0,0.6000000000000002 0.1,1.2 0.2,1.8 l1.8,-0.7000000000000002 c0.2,-0.5 0.3000000000000001,-1 0.3000000000000001,-1.4 c0,-0.5 0,-0.9 0,-1.3 c0,-0.3000000000000001 0,-0.7000000000000002 -0.1,-1 s-0.2,-0.6000000000000002 -0.3000000000000001,-0.9 c-0.1,-0.3000000000000001 -0.3000000000000001,-0.5 -0.4,-0.7000000000000002 c-0.2,-0.2 -0.3000000000000001,-0.3000000000000001 -0.5,-0.4 c-0.2,0.3000000000000001 -0.4,0.6000000000000002 -0.6000000000000002,0.9 c-0.1,0.4 -0.3000000000000001,0.8 -0.3000000000000001,1.2 c-0.1,0.4 -0.1,0.8 -0.1,1.3 S48.099999999999994,18.59999999999991 48.099999999999994,19 L48.099999999999994,19 zM48.5,21.5 c0.3000000000000001,1 0.8,1.9 1.5,2.8 c0.6000000000000002,0.9 1.5,1.5 2.5,1.9 c0.7000000000000002,-0.3000000000000001 1.4,-0.7000000000000002 2,-1 c0.7000000000000002,-0.3000000000000001 1.4,-0.7000000000000002 2.1,-1.2 l0.4,0.6000000000000002 c-0.8,0.5 -1.4,0.9 -2.1,1.3 c-0.6000000000000002,0.4 -1.3,0.8 -2.1,1.3 l-4.7,3 c-0.9,-0.1 -1.8,-0.3000000000000001 -2.6,-0.7000000000000002 c-0.8,-0.4 -1.5,-0.9 -2.1,-1.5 c-0.6000000000000002,-0.6000000000000002 -1,-1.3 -1.4,-2.1 c-0.3000000000000001,-0.8 -0.5,-1.7000000000000002 -0.5,-2.7 c0,-0.9 0.1,-1.8 0.3000000000000001,-2.6 c0.2,-0.9 0.6000000000000002,-1.7000000000000002 1.1,-2.4 c0.5,-0.8 1.1,-1.5 1.9,-2.1 c0.8,-0.6000000000000002 1.8,-1.2 3,-1.7000000000000002 l5.7,-2.4 c0.6000000000000002,0.1 1.1,0.2 1.6,0.5 c0.5,0.3000000000000001 0.9,0.6000000000000002 1.2,1 c0.3000000000000001,0.4 0.6000000000000002,0.8 0.8,1.3 c0.2,0.5 0.3000000000000001,1 0.3000000000000001,1.5 c0,0.4 0,0.9 -0.1,1.3 c-0.1,0.4 -0.2,0.9 -0.5,1.4 L48.5,21.5 z"/>
			<path id="Fill-25" class="st0" d="M60,13.099999999999909 c0.1,-0.7000000000000002 0.4,-1.4 0.8,-1.9 c0.4,-0.6000000000000002 0.8,-1.1 1.3,-1.5 c0.5,-0.4 1,-0.8 1.6,-1.2 c0.6000000000000002,-0.3000000000000001 1.1,-0.7000000000000002 1.6,-1 l5.1,-3.2 h3 l-0.8,4.8 H68 c-0.3000000000000001,0.2 -0.5,0.6000000000000002 -0.7000000000000002,1.2 c-0.2,0.6000000000000002 -0.4,1.3 -0.5,2 l-0.1,0.9 h3.2 L69.69999999999999,14 h-3.2 l-2.4,13.5 c-0.1,0.5 -0.3000000000000001,1.1 -0.6000000000000002,1.6 c-0.3000000000000001,0.5 -0.7000000000000002,1 -1.1,1.4 c-0.4,0.5 -1,0.9 -1.5,1.4 c-0.6000000000000002,0.5 -1.2,0.9 -1.8,1.4 l-5.9,4.6 H51 l1,-5.7 h4.3 c0.2,-0.3000000000000001 0.3000000000000001,-0.7000000000000002 0.5,-1.2 c0.2,-0.6000000000000002 0.3000000000000001,-1.1 0.4,-1.7000000000000002 L59.80000000000001,14 h-2.3 l0.2,-0.9 H60 z"/>
			<path id="Fill-27" class="st0" d="M73.1,20.90000000000009 c0,0.9 0.1,1.7000000000000002 0.2,2.5 c0.1,0.7000000000000002 0.4,1.4 0.8,1.9 l1.2,-0.9 L77,15 c-0.2,-0.2 -0.5,-0.3000000000000001 -0.8,-0.5 s-0.6000000000000002,-0.2 -0.9,-0.2 c-0.4,0.4 -0.7000000000000002,0.8 -1,1.3 c-0.3000000000000001,0.5 -0.5,1.1 -0.7000000000000002,1.7000000000000002 c-0.2,0.6000000000000002 -0.3000000000000001,1.2 -0.4,1.8 C73.19999999999999,19.799999999999955 73.1,20.40000000000009 73.1,20.90000000000009 L73.1,20.90000000000009 zM81.5,27.5 l3,-2 l0.5,0.6000000000000002 l-5.4,4.1 l-4.9,-1.8 l0.5,-3 l-5.4,4.6 c-1.1,-0.5 -1.9,-1.2 -2.6,-2.1 c-0.7000000000000002,-0.9 -1,-2.2 -1,-3.9 c0,-1.2 0.2,-2.2 0.7000000000000002,-3.2 c0.4,-1 1.1,-1.9 1.8,-2.7 c0.8,-0.8 1.7000000000000002,-1.6 2.7,-2.3 c1,-0.7000000000000002 2.1,-1.3 3.2,-1.9 l4,-2 c0.9,0 1.8,0.1 2.7,0.3000000000000001 c0.9,0.2 1.8,0.6000000000000002 2.8,1.1 L81.5,27.5 z"/>
			<polygon id="Fill-29" class="st0" points="84.10000610351562,28.4000244140625 87.89999389648438,6.9000244140625 84.89999389648438,7.5 84.69999694824219,6.800048828125 93.80000305175781,4.4000244140625 94.89999389648438,5.300048828125 91,27.5999755859375 94,25.5 94.5,26.0999755859375 88.89999389648438,30.199951171875 "/>
		</g>
	</g>
</g></g></svg>