<svg xmlns="http://www.w3.org/2000/svg" xmlns:xlink="http://www.w3.org/1999/xlink" width="121" height="10" version="1.1"><rect id="backgroundrect" width="100%" height="100%" x="0" y="0" fill="none" stroke="none" class=""/>
    <defs/>
    
<g class="currentLayer"><title>Layer 1</title><g id="Page-1" stroke="none" stroke-width="1" fill="none" fill-rule="evenodd" class="">
        <g id="Artboard" fill="#4a4c4a">
            <g id="bestiarie">
                <polygon id="Fill-37" points="10.947480499744415,5.142375707626343 12.180463135242462,6.379894018173218 13.421037018299103,5.142375707626343 12.180463135242462,3.9018027782440186 "/>
                <polygon id="Fill-39" points="26.045409500598907,5.142375707626343 27.278437912464142,6.379894018173218 28.519011795520782,5.142375707626343 27.278437912464142,3.9018027782440186 "/>
                <polygon id="Fill-41" points="39.479367554187775,5.142375707626343 40.712373077869415,6.379894018173218 41.952946960926056,5.142375707626343 40.712373077869415,3.9018027782440186 "/>
                <polygon id="Fill-43" points="55.06657916307449,5.142375707626343 56.299584686756134,6.379894018173218 57.5401776432991,5.142375707626343 56.299584686756134,3.9018027782440186 "/>
                <polygon id="Fill-45" points="66.4083760380745,5.142375707626343 67.64137774705887,6.379894018173218 68.88195544481277,5.142375707626343 67.64137774705887,3.9018027782440186 "/>
                <polygon id="Fill-47" points="81.20058184862137,5.142375707626343 82.43358355760574,6.379894018173218 83.67416125535965,5.142375707626343 82.43358355760574,3.9018027782440186 "/>
                <polygon id="Fill-49" points="96.73896533250809,5.142375707626343 97.97196704149246,6.379894018173218 99.21254473924637,5.142375707626343 97.97196704149246,3.9018027782440186 "/>
                <polygon id="Fill-51" points="108.04405719041824,5.142375707626343 109.27706652879715,6.379894018173218 110.51763659715652,5.142375707626343 109.27706652879715,3.9018027782440186 "/>
                <path d="M4.704510962019257,9.534141949374764 C4.273794933328931,9.534141949374764 3.9355918544629063,9.48864377733005 3.6428869476416796,9.42646294220214 L3.6428869476416796,5.18300009616141 L4.320809711108519,5.18300009616141 C5.6584559692242955,5.18300009616141 6.457707191477121,6.027749490459035 6.457707191477121,7.335063633878423 C6.457707191477121,8.750056784470262 5.843481868872983,9.534141949374764 4.704510962019257,9.534141949374764 L4.704510962019257,9.534141949374764 zM3.6428869476416796,0.7378286873890536 L4.458820832977619,0.7529947447372913 C5.518928241620406,0.7696774078203181 6.287847349176671,1.3990687877726935 6.287847349176671,2.6608847591471965 C6.287847349176671,3.936350182135147 5.550776962051671,4.612756339867196 4.458820832977619,4.65977111764687 L3.6428869476416796,4.690103232343345 L3.6428869476416796,0.7378286873890536 zM5.811633148441633,4.8599630746437095 L5.811633148441633,4.78261618216756 C7.7195231628516225,4.444413103301621 8.579438614497485,3.5981471032692074 8.579438614497485,2.3833459096742073 C8.579438614497485,1.230725551207119 7.549663320551259,0.23128237195736778 4.935035033712658,0.23128237195736778 L-2.740827237390775e-8,0.23128237195736778 L-2.740827237390775e-8,0.49213855834732945 L1.3361296249726282,0.862190357644705 L1.3361296249726282,9.396130827505663 L-2.740827237390775e-8,9.76466602106825 L-2.740827237390775e-8,10.025522207458039 L5.335418947706508,10.025522207458039 C7.950047234545023,10.025522207458039 8.979822528491336,8.73489072712185 8.979822528491336,7.289565461833536 C8.979822528491336,6.1657606123281345 7.995545406589823,5.028306311209284 5.811633148441633,4.8599630746437095 L5.811633148441633,4.8599630746437095 z" id="Fill-53"/>
                <path d="M22.533272998903072,8.380914948613725 C22.026726683471473,9.0269889916493 21.518663762305085,9.350026013167001 20.657231704924435,9.395524185211714 L18.76602435359747,9.4880371350361 L18.76602435359747,5.459932303340621 L19.28925333211218,5.459932303340621 C20.16585144684107,5.459932303340621 20.504054525707097,5.766286661775296 20.872589719269595,6.720231668980162 L21.057615618918284,7.196445869715372 L21.380652640435986,7.196445869715372 L21.380652640435986,3.060662030847096 L21.057615618918284,3.060662030847096 L20.872589719269595,3.5687249520135715 C20.519220583055333,4.52115335348382 20.16585144684107,4.829024317653284 19.28925333211218,4.829024317653284 L18.76602435359747,4.829024317653284 L18.76602435359747,0.7539047081781303 L20.16585144684107,0.8145689375710803 C21.241124912832095,0.8615837153507551 21.62634276947771,1.1376059590889542 22.17990386268881,1.9232077297282455 L23.379538998935573,3.6142231240582836 L23.670727300021923,3.5368762315823066 L23.45536928567676,0.23067572966341765 L15.12162077281264,0.23067572966341765 L15.12162077281264,0.4915319160533793 L16.459267030928416,0.8615837153507551 L16.459267030928416,9.395524185211714 L15.12162077281264,9.7640593787743 L15.12162077281264,10.026432170899051 L23.778406307194548,10.026432170899051 L24.071111214015776,6.843076733501023 L23.778406307194548,6.782412504108073 L22.533272998903072,8.380914948613725 z" id="Fill-55"/>
                <path d="M35.672386782560665,4.382990571041276 C35.10365963200124,4.105451721568288 34.45758558896571,3.9067763703060656 33.91919055310281,3.661086241264514 C32.8272344240287,3.1681893774462764 32.551212180290506,2.6449603989315635 32.551212180290506,1.9230560691548009 C32.551212180290506,1.1374542985155096 33.05775849572211,0.5838932053043218 33.96620533088239,0.5838932053043218 C34.93379978970083,0.5838932053043218 35.872578739557596,1.5075060978127128 36.686996019158656,3.137857262749801 L37.072213875804266,3.0908424849701266 L36.809841083679515,-2.6033408762060617e-9 L36.50348672524484,-2.6033408762060617e-9 L35.91807691160234,0.5232289759111994 C35.38119848147423,0.23052406908997325 34.85796950295956,-2.6033408762060617e-9 33.949522667799314,-2.6033408762060617e-9 C32.29035599390059,-2.6033408762060617e-9 30.73735172143965,1.3224801981641114 30.73735172143965,3.0301782555771766 C30.73735172143965,4.152466499347789 31.38190915874035,5.089728843469802 32.45869923046621,5.628123879332579 C32.934913431201295,5.858647951026065 33.52032324484378,6.058839908022905 34.01170350292715,6.259031865019916 C35.42669665351899,6.84292507292758 35.764899732385004,7.258475044269668 35.764899732385004,8.150239216346794 C35.764899732385004,8.964656495947944 35.226504696522056,9.672911374111258 34.134548567447965,9.672911374111258 C33.11993933084993,9.672911374111258 31.859639965210263,8.873660151858518 30.936027072701744,6.720080008406717 L30.537159764442766,6.750412123103192 L30.73735172143965,10.211306409974208 L31.04370607987437,10.211306409974208 L31.612433230433794,9.672911374111258 C32.24334121612104,9.980782338280722 32.981928208980875,10.25680458201892 34.02686956027539,10.25680458201892 C35.949925632033654,10.25680458201892 37.53326201919111,8.903992266554994 37.53326201919111,6.980936194796679 C37.53326201919111,5.843481893677828 36.91752009085209,4.982049836297176 35.672386782560665,4.382990571041276 " id="Fill-57"/>
                <path d="M44.04511206280979,0.23067572966341765 L43.61439603411942,3.659721296103168 L43.93743305563717,3.737068188579146 L45.352426206229055,1.8458608372522685 C45.95148547148494,1.031443557651119 46.32153727078229,0.8145689375710803 47.09045637833863,0.7690707655263678 L47.35131256472856,0.7539047081781303 L47.35131256472856,9.395524185211714 L45.96816813456802,9.7640593787743 L45.96816813456802,10.026432170899051 L51.04121431755813,10.026432170899051 L51.04121431755813,9.7640593787743 L49.6580698873976,9.395524185211714 L49.6580698873976,0.7539047081781303 L49.858261844394534,0.7690707655263678 C50.627180951950834,0.83125160065428 51.01088220286162,1.031443557651119 51.61145807385235,1.8458608372522685 L53.009768561361156,3.737068188579146 L53.34797164022714,3.659721296103168 L52.91725561153682,0.23067572966341765 L44.04511206280979,0.23067572966341765 z" id="Fill-59"/>
                <polygon id="Fill-61" points="59.383149445056915,0.49230921268463135 60.72080355882645,0.8622965812683105 60.72080355882645,9.396258115768433 59.383149445056915,9.764857053756714 59.383149445056915,10.0257089138031 64.3500264286995,10.0257089138031 64.3500264286995,9.764857053756714 63.02755481004715,9.396258115768433 63.02755481004715,0.8622965812683105 64.3500264286995,0.49230921268463135 64.3500264286995,0.23145747184753418 59.383149445056915,0.23145747184753418 "/>
                <path d="M72.96966497682124,6.16651891519553 L74.12228533528837,2.8148202412320997 L74.15413405571967,2.8148202412320997 L75.32343707726987,6.16651891519553 L72.96966497682124,6.16651891519553 zM75.41443342135938,0.13952772500054822 L74.4453223568061,0.13952772500054822 L70.81608483336956,9.25736140276917 L69.77114348207505,9.765424323935644 L69.77114348207505,10.026280510325606 L72.90900074742824,10.026280510325606 L72.90900074742824,9.765424323935644 L71.87770884774717,9.304376180548845 L72.76947301982435,6.720080008406717 L75.50694637118369,6.720080008406717 L76.42904265795737,9.395372524638269 L75.21424146436246,9.765424323935644 L75.21424146436246,10.026280510325606 L80.07496284447699,10.026280510325606 L80.07496284447699,9.765424323935644 L78.843478987799,9.319542237897082 L75.41443342135938,0.13952772500054822 z" id="Fill-63"/>
                <path d="M89.99947911259919,5.059700049920215 L89.0455341053942,5.09003216461669 L89.0455341053942,0.7692224260998124 L89.99947911259919,0.7995545407964597 C91.13693341371804,0.8298866554929349 92.02869758579526,1.6003223687839885 92.02869758579526,2.953134684248089 C92.02869758579526,4.305946999712017 91.13693341371804,5.02936793522374 89.99947911259919,5.059700049920215 M93.79705987260137,7.135933300895867 C93.47402285108357,6.181988293690829 92.89012964317591,5.505582135958778 91.47513649258407,5.290224121613529 L91.47513649258407,5.212877229137552 C93.5362036862114,4.8898402076198515 94.38095308050903,3.797884078545712 94.38095308050903,2.630097662730387 C94.38095308050903,1.415296469135387 93.38150990125928,0.23082739023703436 91.19911424884587,0.23082739023703436 L85.40113052460941,0.23082739023703436 L85.40113052460941,0.4916835766268237 L86.7387767827252,0.8617353759241995 L86.7387767827252,9.39567584578533 L85.40113052460941,9.764211039347744 L85.40113052460941,10.026583831472495 L90.3680143061617,10.026583831472495 L90.3680143061617,9.764211039347744 L89.0455341053942,9.39567584578533 L89.0455341053942,5.613261143131403 L89.21539394769461,5.613261143131403 C90.21483712694436,5.613261143131403 90.72138344237595,5.858951272172955 91.06110312697682,6.720383329553779 L91.69049450692924,8.303719716711193 C92.19855742809567,9.580701745433933 92.56709262165816,10.026583831472495 93.76672775790485,10.026583831472495 L95.6276029945353,10.026583831472495 L95.6276029945353,9.764211039347744 C95.27423385832103,9.641365974826883 94.99669500884804,9.45785668091307 94.73583882245808,9.149985716743606 C94.38095308050903,8.71926968805328 94.1200968941191,8.103527759714181 93.79705987260137,7.135933300895867 " id="Fill-65"/>
                <polygon id="Fill-67" points="101.1387990117073,0.49230921268463135 102.47645312547684,0.8622965812683105 102.47645312547684,9.396258115768433 101.1387990117073,9.764857053756714 101.1387990117073,10.0257089138031 106.10569506883621,10.0257089138031 106.10569506883621,9.764857053756714 104.78320056200027,9.396258115768433 104.78320056200027,0.8622965812683105 106.10569506883621,0.49230921268463135 106.10569506883621,0.23145747184753418 101.1387990117073,0.23145747184753418 "/>
                <path d="M120.8762069284776,6.781957522387568 L119.63107362018613,8.38045996689322 C119.12301069901974,9.026534009928794 118.61646438358814,9.349571031446496 117.75503232620748,9.39658580922617 L115.86382497488053,9.489098759050556 L115.86382497488053,5.459477321620115 L116.38553734766036,5.459477321620115 C117.2621354623893,5.459477321620115 117.60033854125528,5.767348285789579 117.97039034055265,6.719776687259828 L118.15389963446647,7.197507493729656 L118.47693665598425,7.197507493729656 L118.47693665598425,3.0602070491267632 L118.15389963446647,3.0602070491267632 L117.97039034055265,3.5682699702930654 C117.61702120433839,4.520698371763315 117.2621354623893,4.828569335932778 116.38553734766036,4.828569335932778 L115.86382497488053,4.828569335932778 L115.86382497488053,0.7534497264576245 L117.2621354623893,0.8156305615855364 C118.33892553411515,0.8611287336302493 118.7226267850259,1.1386675831032376 119.27770448397192,1.922752748007912 L120.47582301448375,3.6137681423379506 L120.76852792130498,3.5364212498618013 L120.55316990695982,0.23022074794308423 L112.21942139409575,0.23022074794308423 L112.21942139409575,0.4925935400678352 L113.55706765221147,0.8611287336302493 L113.55706765221147,9.39658580922617 L112.21942139409575,9.765121002788584 L112.21942139409575,10.025977189178546 L120.8762069284776,10.025977189178546 L121.16891183529883,6.84262175178069 L120.8762069284776,6.781957522387568 z" id="Fill-69"/>
            </g>
        </g>
    </g></g></svg>