<svg xmlns="http://www.w3.org/2000/svg" xmlns:xlink="http://www.w3.org/1999/xlink" version="1.1" style="enable-background:new 0 0 161 15;" xml:space="preserve" width="161" height="15"><rect id="backgroundrect" width="100%" height="100%" x="0" y="0" fill="none" stroke="none"/>
<style type="text/css">
	.st0{fill:#4A4C4A;}
</style>

<g class="currentLayer"><title>Layer 1</title><g id="svg_1">
	<g id="svg_2">
		<path class="st0" d="M12.3,10.6c0-3.2,0-6.3,0-9.4c-0.8,0-1.6,0-2.4,0c0,3.2,0,6.3,0,9.4C10.7,10.6,11.5,10.6,12.3,10.6z     M3.9,10.5c0.9,0,1.6,0,2.4,0c0-3.2,0-6.3,0-9.4c-0.8,0-1.6,0-2.4,0C3.9,4.3,3.9,7.4,3.9,10.5z M3.2,10.6c0-3.2,0-6.3,0-9.4    c-0.8,0-1.6,0-2.4,0c0,3.2,0,6.3,0,9.4C1.7,10.6,2.4,10.6,3.2,10.6z M6.9,1.1c0,3.2,0,6.3,0,9.5c0.8,0,1.6,0,2.4,0    c0-3.2,0-6.3,0-9.5C8.5,1.1,7.7,1.1,6.9,1.1z M9.9,11.2c0,1,0,1.9,0,2.8c0.8,0,1.6,0,2.4,0c0-1,0-1.9,0-2.8    C11.5,11.2,10.7,11.2,9.9,11.2z M6.3,14.1c0-1,0-1.9,0-2.8c-0.8,0-1.6,0-2.4,0c0,1,0,1.8,0,2.8C4.7,14.1,5.5,14.1,6.3,14.1z     M3.3,11.3c-0.9,0-1.7,0-2.4,0c0,1,0,1.9,0,2.7c0.8,0,1.6,0,2.4,0C3.3,13.1,3.3,12.2,3.3,11.3z M9.3,14.1c0-1,0-1.9,0-2.8    c-0.8,0-1.6,0-2.4,0c0,1,0,1.8,0,2.8C7.7,14.1,8.5,14.1,9.3,14.1z" id="svg_3"/>
		<path class="st0" d="M12.3,10.6c-0.8,0-1.6,0-2.4,0c0-3.2,0-6.3,0-9.4c0.8,0,1.6,0,2.4,0C12.3,4.3,12.3,7.4,12.3,10.6z" id="svg_4"/>
		<path class="st0" d="M3.9,10.5c0-3.2,0-6.2,0-9.4c0.8,0,1.6,0,2.4,0c0,3.1,0,6.2,0,9.4C5.5,10.5,4.8,10.5,3.9,10.5z" id="svg_5"/>
		<path class="st0" d="M3.2,10.6c-0.8,0-1.5,0-2.4,0c0-3.1,0-6.3,0-9.4c0.8,0,1.5,0,2.4,0C3.2,4.3,3.2,7.4,3.2,10.6z" id="svg_6"/>
		<path class="st0" d="M6.9,1.1c0.8,0,1.5,0,2.4,0c0,3.2,0,6.3,0,9.5c-0.8,0-1.5,0-2.4,0C6.9,7.4,6.9,4.3,6.9,1.1z" id="svg_7"/>
		<path class="st0" d="M9.9,11.2c0.8,0,1.6,0,2.4,0c0,0.9,0,1.8,0,2.8c-0.8,0-1.5,0-2.4,0C9.9,13.1,9.9,12.2,9.9,11.2z" id="svg_8"/>
		<path class="st0" d="M6.3,14.1c-0.8,0-1.6,0-2.4,0c0-0.9,0-1.8,0-2.8c0.8,0,1.6,0,2.4,0C6.3,12.2,6.3,13.1,6.3,14.1z" id="svg_9"/>
		<path class="st0" d="M3.3,11.3c0,0.9,0,1.8,0,2.7c-0.8,0-1.6,0-2.4,0c0-0.9,0-1.8,0-2.7C1.6,11.3,2.4,11.3,3.3,11.3z" id="svg_10"/>
		<path class="st0" d="M9.3,14.1c-0.8,0-1.6,0-2.4,0c0-0.9,0-1.8,0-2.8c0.8,0,1.5,0,2.4,0C9.3,12.2,9.3,13.1,9.3,14.1z" id="svg_11"/>
	</g>
	<g id="svg_12">
		<path class="st0" d="M15.4,1.1h2.5c1.6,0,2.7,0.1,3.3,0.2c0.6,0.1,1,0.4,1.3,0.7c0.3,0.3,0.5,0.7,0.6,1.1c0.1,0.4,0.1,1.2,0.1,2.4    v4.5c0,1.2-0.1,1.9-0.2,2.3c-0.1,0.4-0.3,0.7-0.6,0.9c-0.3,0.2-0.6,0.4-1,0.5c-0.4,0.1-1,0.1-1.8,0.1h-4.2V1.1z M18.8,3.3v8.4    c0.5,0,0.8-0.1,0.9-0.3c0.1-0.2,0.2-0.7,0.2-1.6v-5c0-0.6,0-1-0.1-1.1c0-0.2-0.1-0.3-0.3-0.4C19.4,3.3,19.1,3.3,18.8,3.3z" id="svg_13"/>
		<path class="st0" d="M27.8,1.1v12.8h-3.3V1.1H27.8z" id="svg_14"/>
		<path class="st0" d="M36.2,5h-3.1V4c0-0.4,0-0.7-0.1-0.8C32.9,3,32.7,3,32.5,3c-0.2,0-0.4,0.1-0.5,0.2C32,3.4,31.9,3.6,31.9,4    c0,0.4,0.1,0.8,0.2,1c0.1,0.2,0.4,0.5,0.9,0.8c1.5,0.9,2.4,1.6,2.8,2.2c0.4,0.6,0.6,1.5,0.6,2.7c0,0.9-0.1,1.6-0.3,2    c-0.2,0.4-0.6,0.8-1.2,1.1c-0.6,0.3-1.3,0.4-2.1,0.4c-0.9,0-1.7-0.2-2.3-0.5c-0.6-0.3-1-0.8-1.2-1.3c-0.2-0.5-0.3-1.3-0.3-2.2V9.3    H32v1.6c0,0.5,0,0.8,0.1,0.9c0.1,0.1,0.2,0.2,0.5,0.2c0.2,0,0.4-0.1,0.5-0.3c0.1-0.2,0.2-0.4,0.2-0.8c0-0.8-0.1-1.2-0.3-1.5    c-0.2-0.2-0.7-0.6-1.6-1.2c-0.8-0.5-1.4-0.9-1.6-1.2c-0.3-0.2-0.5-0.6-0.7-1c-0.2-0.4-0.3-1-0.3-1.7c0-1,0.1-1.7,0.4-2.2    c0.3-0.5,0.7-0.8,1.2-1.1c0.6-0.3,1.2-0.4,2-0.4c0.9,0,1.6,0.1,2.2,0.4c0.6,0.3,1,0.6,1.2,1.1c0.2,0.4,0.3,1.1,0.3,2.2V5z" id="svg_15"/>
		<path class="st0" d="M44.5,5h-3.1V4c0-0.4,0-0.7-0.1-0.8C41.2,3,41.1,3,40.9,3c-0.2,0-0.4,0.1-0.5,0.2c-0.1,0.2-0.2,0.4-0.2,0.7    c0,0.4,0.1,0.8,0.2,1c0.1,0.2,0.4,0.5,0.9,0.8c1.5,0.9,2.4,1.6,2.8,2.2c0.4,0.6,0.6,1.5,0.6,2.7c0,0.9-0.1,1.6-0.3,2    c-0.2,0.4-0.6,0.8-1.2,1.1c-0.6,0.3-1.3,0.4-2.1,0.4c-0.9,0-1.7-0.2-2.3-0.5c-0.6-0.3-1-0.8-1.2-1.3c-0.2-0.5-0.3-1.3-0.3-2.2V9.3    h3.1v1.6c0,0.5,0,0.8,0.1,0.9c0.1,0.1,0.2,0.2,0.5,0.2s0.4-0.1,0.5-0.3c0.1-0.2,0.2-0.4,0.2-0.8c0-0.8-0.1-1.2-0.3-1.5    c-0.2-0.2-0.7-0.6-1.6-1.2c-0.8-0.5-1.4-0.9-1.6-1.2c-0.3-0.2-0.5-0.6-0.7-1c-0.2-0.4-0.3-1-0.3-1.7c0-1,0.1-1.7,0.4-2.2    c0.3-0.5,0.7-0.8,1.2-1.1c0.6-0.3,1.2-0.4,2-0.4c0.9,0,1.6,0.1,2.2,0.4c0.6,0.3,1,0.6,1.2,1.1c0.2,0.4,0.3,1.1,0.3,2.2V5z" id="svg_16"/>
		<path class="st0" d="M53.5,8.6c0,1.3,0,2.2-0.1,2.7c-0.1,0.5-0.3,1-0.6,1.5c-0.3,0.4-0.8,0.8-1.3,1c-0.5,0.2-1.2,0.4-1.9,0.4    c-0.7,0-1.3-0.1-1.8-0.3c-0.5-0.2-1-0.6-1.3-1c-0.3-0.4-0.5-0.9-0.6-1.5c-0.1-0.5-0.1-1.5-0.1-2.8V6.4c0-1.3,0-2.2,0.1-2.7    c0.1-0.5,0.3-1,0.6-1.5c0.3-0.4,0.8-0.8,1.3-1c0.5-0.2,1.2-0.4,1.9-0.4c0.7,0,1.3,0.1,1.8,0.3c0.5,0.2,1,0.6,1.3,1    c0.3,0.4,0.5,0.9,0.6,1.5c0.1,0.5,0.1,1.5,0.1,2.8V8.6z M50.2,4.4c0-0.6,0-1-0.1-1.1C50,3.1,49.9,3,49.6,3c-0.2,0-0.3,0.1-0.4,0.2    c-0.1,0.1-0.1,0.5-0.1,1.2v6c0,0.7,0,1.2,0.1,1.4c0.1,0.2,0.2,0.3,0.4,0.3c0.2,0,0.4-0.1,0.4-0.3c0.1-0.2,0.1-0.7,0.1-1.4V4.4z" id="svg_17"/>
		<path class="st0" d="M62.5,6.7h-3.3V4.4c0-0.6,0-1.1-0.1-1.2C59,3.1,58.8,3,58.6,3c-0.3,0-0.4,0.1-0.5,0.3C58,3.5,58,3.9,58,4.5v6    c0,0.6,0,1,0.1,1.2c0.1,0.2,0.2,0.3,0.5,0.3c0.2,0,0.4-0.1,0.5-0.3c0.1-0.2,0.1-0.6,0.1-1.3V8.8h3.3v0.5c0,1.3-0.1,2.3-0.3,2.8    c-0.2,0.6-0.6,1-1.2,1.5c-0.6,0.4-1.4,0.6-2.4,0.6c-1,0-1.8-0.2-2.4-0.5c-0.6-0.4-1.1-0.8-1.3-1.5c-0.2-0.6-0.3-1.6-0.3-2.8V5.6    c0-0.9,0-1.6,0.1-2.1c0.1-0.5,0.3-0.9,0.6-1.3c0.3-0.4,0.7-0.8,1.3-1c0.6-0.2,1.2-0.4,1.9-0.4c1,0,1.8,0.2,2.4,0.6    c0.6,0.4,1.1,0.9,1.3,1.4c0.2,0.6,0.3,1.4,0.3,2.6V6.7z" id="svg_18"/>
		<path class="st0" d="M67,1.1v12.8h-3.3V1.1H67z" id="svg_19"/>
		<path class="st0" d="M74.1,1.1l1.9,12.8h-3.4l-0.2-2.3h-1.2l-0.2,2.3h-3.4l1.7-12.8H74.1z M72.4,9.3c-0.2-1.5-0.3-3.2-0.5-5.4    c-0.3,2.5-0.6,4.3-0.6,5.4H72.4z" id="svg_20"/>
		<path class="st0" d="M82.4,1.1v2.6h-2v10.3h-3.3V3.7h-2V1.1H82.4z" id="svg_21"/>
		<path class="st0" d="M83.2,1.1h5.6v2.6h-2.2v2.4h2.1v2.4h-2.1v2.8H89v2.6h-5.8V1.1z" id="svg_22"/>
		<path class="st0" d="M89.9,1.1h2.5c1.6,0,2.7,0.1,3.3,0.2c0.6,0.1,1,0.4,1.3,0.7c0.3,0.3,0.5,0.7,0.6,1.1c0.1,0.4,0.1,1.2,0.1,2.4    v4.5c0,1.2-0.1,1.9-0.2,2.3c-0.1,0.4-0.3,0.7-0.6,0.9c-0.3,0.2-0.6,0.4-1,0.5c-0.4,0.1-1,0.1-1.8,0.1h-4.2V1.1z M93.3,3.3v8.4    c0.5,0,0.8-0.1,0.9-0.3c0.1-0.2,0.2-0.7,0.2-1.6v-5c0-0.6,0-1-0.1-1.1c0-0.2-0.1-0.3-0.3-0.4C93.9,3.3,93.6,3.3,93.3,3.3z" id="svg_23"/>
		<path class="st0" d="M101.8,1.1h2.4c1.6,0,2.6,0.1,3.2,0.2c0.6,0.1,1,0.4,1.4,0.9c0.4,0.5,0.5,1.3,0.5,2.4c0,1-0.1,1.7-0.4,2    c-0.2,0.3-0.7,0.5-1.5,0.6c0.7,0.2,1.1,0.4,1.3,0.7c0.2,0.3,0.4,0.5,0.4,0.8c0.1,0.2,0.1,0.9,0.1,1.9v3.4h-3.1V9.7    c0-0.7-0.1-1.1-0.2-1.3c-0.1-0.2-0.4-0.2-0.9-0.2v5.8h-3.3V1.1z M105.1,3.3v2.9c0.4,0,0.6-0.1,0.8-0.2c0.2-0.1,0.2-0.4,0.2-1V4.3    c0-0.4-0.1-0.7-0.2-0.8C105.8,3.3,105.5,3.3,105.1,3.3z" id="svg_24"/>
		<path class="st0" d="M110.5,1.1h5.6v2.6h-2.2v2.4h2.1v2.4h-2.1v2.8h2.4v2.6h-5.8V1.1z" id="svg_25"/>
		<path class="st0" d="M125,6.7h-3.3V4.4c0-0.6,0-1.1-0.1-1.2c-0.1-0.2-0.2-0.2-0.5-0.2c-0.3,0-0.4,0.1-0.5,0.3    c-0.1,0.2-0.1,0.6-0.1,1.3v6c0,0.6,0,1,0.1,1.2c0.1,0.2,0.2,0.3,0.5,0.3c0.2,0,0.4-0.1,0.5-0.3c0.1-0.2,0.1-0.6,0.1-1.3V8.8h3.3    v0.5c0,1.3-0.1,2.3-0.3,2.8c-0.2,0.6-0.6,1-1.2,1.5c-0.6,0.4-1.4,0.6-2.4,0.6c-1,0-1.8-0.2-2.4-0.5c-0.6-0.4-1.1-0.8-1.3-1.5    c-0.2-0.6-0.3-1.6-0.3-2.8V5.6c0-0.9,0-1.6,0.1-2.1c0.1-0.5,0.3-0.9,0.6-1.3c0.3-0.4,0.7-0.8,1.3-1c0.6-0.2,1.2-0.4,1.9-0.4    c1,0,1.8,0.2,2.4,0.6c0.6,0.4,1.1,0.9,1.3,1.4c0.2,0.6,0.3,1.4,0.3,2.6V6.7z" id="svg_26"/>
		<path class="st0" d="M133.9,8.6c0,1.3,0,2.2-0.1,2.7c-0.1,0.5-0.3,1-0.6,1.5c-0.3,0.4-0.8,0.8-1.3,1c-0.5,0.2-1.2,0.4-1.9,0.4    c-0.7,0-1.3-0.1-1.8-0.3c-0.5-0.2-1-0.6-1.3-1c-0.3-0.4-0.5-0.9-0.6-1.5c-0.1-0.5-0.1-1.5-0.1-2.8V6.4c0-1.3,0-2.2,0.1-2.7    c0.1-0.5,0.3-1,0.6-1.5c0.3-0.4,0.8-0.8,1.3-1c0.5-0.2,1.2-0.4,1.9-0.4c0.7,0,1.3,0.1,1.8,0.3c0.5,0.2,1,0.6,1.3,1    c0.3,0.4,0.5,0.9,0.6,1.5c0.1,0.5,0.1,1.5,0.1,2.8V8.6z M130.5,4.4c0-0.6,0-1-0.1-1.1C130.4,3.1,130.2,3,130,3    c-0.2,0-0.3,0.1-0.4,0.2c-0.1,0.1-0.1,0.5-0.1,1.2v6c0,0.7,0,1.2,0.1,1.4c0.1,0.2,0.2,0.3,0.4,0.3c0.2,0,0.4-0.1,0.4-0.3    c0.1-0.2,0.1-0.7,0.1-1.4V4.4z" id="svg_27"/>
		<path class="st0" d="M135.1,1.1h2.4c1.6,0,2.6,0.1,3.2,0.2c0.6,0.1,1,0.4,1.4,0.9c0.4,0.5,0.5,1.3,0.5,2.4c0,1-0.1,1.7-0.4,2    c-0.2,0.3-0.7,0.5-1.5,0.6c0.7,0.2,1.1,0.4,1.3,0.7c0.2,0.3,0.4,0.5,0.4,0.8c0.1,0.2,0.1,0.9,0.1,1.9v3.4h-3.1V9.7    c0-0.7-0.1-1.1-0.2-1.3c-0.1-0.2-0.4-0.2-0.9-0.2v5.8h-3.3V1.1z M138.4,3.3v2.9c0.4,0,0.6-0.1,0.8-0.2c0.2-0.1,0.2-0.4,0.2-1V4.3    c0-0.4-0.1-0.7-0.2-0.8C139.1,3.3,138.8,3.3,138.4,3.3z" id="svg_28"/>
		<path class="st0" d="M143.8,1.1h2.5c1.6,0,2.7,0.1,3.3,0.2c0.6,0.1,1,0.4,1.3,0.7c0.3,0.3,0.5,0.7,0.6,1.1    c0.1,0.4,0.1,1.2,0.1,2.4v4.5c0,1.2-0.1,1.9-0.2,2.3c-0.1,0.4-0.3,0.7-0.6,0.9c-0.3,0.2-0.6,0.4-1,0.5s-1,0.1-1.8,0.1h-4.2V1.1z     M147.2,3.3v8.4c0.5,0,0.8-0.1,0.9-0.3c0.1-0.2,0.2-0.7,0.2-1.6v-5c0-0.6,0-1-0.1-1.1c0-0.2-0.1-0.3-0.3-0.4    C147.8,3.3,147.5,3.3,147.2,3.3z" id="svg_29"/>
		<path class="st0" d="M159.9,5h-3.1V4c0-0.4,0-0.7-0.1-0.8C156.6,3,156.4,3,156.3,3c-0.2,0-0.4,0.1-0.5,0.2    c-0.1,0.2-0.2,0.4-0.2,0.7c0,0.4,0.1,0.8,0.2,1c0.1,0.2,0.4,0.5,0.9,0.8c1.5,0.9,2.4,1.6,2.8,2.2c0.4,0.6,0.6,1.5,0.6,2.7    c0,0.9-0.1,1.6-0.3,2c-0.2,0.4-0.6,0.8-1.2,1.1c-0.6,0.3-1.3,0.4-2.1,0.4c-0.9,0-1.7-0.2-2.3-0.5c-0.6-0.3-1-0.8-1.2-1.3    c-0.2-0.5-0.3-1.3-0.3-2.2V9.3h3.1v1.6c0,0.5,0,0.8,0.1,0.9c0.1,0.1,0.2,0.2,0.5,0.2s0.4-0.1,0.5-0.3c0.1-0.2,0.2-0.4,0.2-0.8    c0-0.8-0.1-1.2-0.3-1.5c-0.2-0.2-0.7-0.6-1.6-1.2c-0.8-0.5-1.4-0.9-1.6-1.2c-0.3-0.2-0.5-0.6-0.7-1c-0.2-0.4-0.3-1-0.3-1.7    c0-1,0.1-1.7,0.4-2.2c0.3-0.5,0.7-0.8,1.2-1.1c0.6-0.3,1.2-0.4,2-0.4c0.9,0,1.6,0.1,2.2,0.4c0.6,0.3,1,0.6,1.2,1.1    c0.2,0.4,0.3,1.1,0.3,2.2V5z" id="svg_30"/>
	</g>
</g></g></svg>