<svg xmlns="http://www.w3.org/2000/svg" xmlns:xlink="http://www.w3.org/1999/xlink" version="1.0" style="enable-background:new 0 0 48.6 49.3;" xml:space="preserve" width="48.6" height="49.3">
<style type="text/css">
	.st0{fill:none;}
	.st1{fill:#C7C3B4;}
</style>
<rect id="backgroundrect" x="4.300000190734863" y="4.400000095367432" class="st0" width="39.900001525878906" height="40.5"/>
<title>hedonicreversal</title>
<g class="currentLayer">
	<title>Layer 1</title>
	<path id="svg_1" class="st1" d="M34.7,12.3v-0.8l0.8-0.1V6.3c0-0.4-0.2-0.5-0.5-0.5c-0.9,0-1.9,0.4-1.9,1l0.1,4.6l0.8,0.1v0.8h-4.2   v-0.8l0.9-0.1V6.1c-0.1-0.8,0.4-1.5,1.1-1.6c0.1,0,0.3,0,0.4,0c1.2,0,2.3,0.3,3.4,0.8l-0.1-3.9l3.4,0.4v0.9l-1,0.2v8.6l0.8,0.1v0.8   L34.7,12.3z"/>
	<path id="svg_2" class="st1" d="M22.2,8.7C22,8.7,22,8.6,22,8.3c0.1-3,1.7-3.9,3.4-3.9c2.1,0,3.8,1.7,3.8,3.8c0,0.1,0,0.2,0,0.3   c0,2.5-1.3,3.8-3.5,3.8c-1.4,0-2.8-0.7-3.7-1.8l0.6-0.5c0.5,0.5,1.2,0.9,2,0.9c0.7,0,1.9-0.3,2-2.4L22.2,8.7z M26.6,7.8   c0-1.9-0.4-2.4-1.1-2.4c-0.6,0-0.8,0.7-0.9,2c0,0.2,0,0.4,0.3,0.4H26.6z"/>
	<path id="svg_3" class="st1" d="M18.8,12.4c-1,0-1.9-0.3-2.8-0.8L16,12.3l-3.4-0.3v-0.9l1,0.1V1.4l3.7,0.3v0.9l-1.1,0.2l-0.1,1.8   c0.5-0.1,0.9-0.1,1.4-0.1c2.1,0,3.8,1.6,3.8,3.7c0,0.1,0,0.2,0,0.4C21.3,10.8,20.5,12.4,18.8,12.4z M17,11.2c0.9,0,1.8-0.8,1.8-2.7   s-0.2-3-1.1-3s-1.6,0.7-1.6,1.1v4C16.1,10.9,16.4,11.2,17,11.2z"/>
	<path id="svg_4" class="st1" d="M7.1,8.4c-2,0-5.4,0-5.4,0L1.4,7.2c0,0,2.5-0.1,4.5-0.1c1.8,0,5.2,0.2,5.2,0.2l0.1,1   C11.2,8.4,9,8.4,7.1,8.4z"/>
	<path id="svg_5" class="st1" d="M39.7,24.3c-2.3,0.1-4.2-1.8-4.3-4.1c0,0,0,0,0,0c-0.1-2.1,1.6-3.9,3.7-4c0.1,0,0.3,0,0.4,0   c2.3,0,4.2,1.8,4.3,4.1c0.1,2.1-1.5,3.9-3.7,4C40,24.4,39.8,24.4,39.7,24.3z M39.6,23.4c1,0,1.5-1.6,1.5-3.3c0-1.7-0.3-3-1.5-3   c-1,0-1.5,1.5-1.5,3.3C38.1,22.1,38.4,23.4,39.6,23.4L39.6,23.4z"/>
	<path id="svg_6" class="st1" d="M30.5,24.1v-0.8l0.8-0.1v-5c0-0.4-0.2-0.6-0.5-0.6c-0.9,0-1.9,0.4-1.9,1l0.1,4.6l0.8,0.2v0.8h-4.2   v-0.8l0.9-0.1v-5.4c-0.1-0.8,0.4-1.5,1.2-1.6c0.1,0,0.2,0,0.3,0c1.2,0,2.3,0.3,3.4,0.8l0.1-0.9l3.4,0.2v0.9l-1,0.5v5.3l1,0.2v0.8   L30.5,24.1z"/>
	<path id="svg_7" class="st1" d="M20.5,24.1v-0.8l1-0.1v-6.9l3.6,0.2v0.9L24,17.9v5.3l1.1,0.1v0.8L20.5,24.1z M22.8,15.7   c-0.9-0.1-1.5-0.8-1.5-1.7c0-0.7,0.5-1.4,1.2-1.4c0.1,0,0.1,0,0.2,0c0.8,0.1,1.5,0.8,1.5,1.7c0.1,0.7-0.5,1.4-1.2,1.4   C23,15.7,22.9,15.7,22.8,15.7z"/>
	<path id="svg_8" class="st1" d="M16.4,24.3c-1.4-0.1-2.7-0.7-3.6-1.8l0.6-0.5c0.5,0.5,1.1,0.8,1.8,0.9c1.1,0,2.1-0.5,2.1-2.8   s-0.4-2.8-1.4-2.8c-0.1,0-0.3,0-0.4,0.1c0.1,0.7,0.1,1.4,0,2.1c-0.2,0.8-2.3,0.5-2.3,0.2c0.1-2.3,1.4-3.3,3-3.3   c2.1,0,3.9,1.7,3.9,3.8c0,0.1,0,0.3,0,0.4c0.2,1.9-1.1,3.5-3,3.7C16.8,24.3,16.6,24.3,16.4,24.3z"/>
	<path id="svg_9" class="st1" d="M30.4,35.9v-0.8l1.1-0.1v-4.8c0-0.4-0.1-0.6-0.3-0.6c-0.5,0.1-0.8,1-2.1,1c-0.5,0-0.8-1.6-0.4-2.5   c0.6-0.3,2.4,0.6,2.9,1l0.1-1l3.4,0.2v0.9l-1,0.5V35l1,0.1v0.8L30.4,35.9z"/>
	<path id="svg_10" class="st1" d="M21.5,32.3c-0.2,0-0.2-0.1-0.2-0.4c0.1-3,1.7-3.9,3.4-3.9c2.1,0,3.8,1.7,3.8,3.8   c0,0.1,0,0.2,0,0.4c0,2.5-1.3,3.8-3.5,3.8c-1.4,0-2.8-0.7-3.7-1.8l0.6-0.5c0.5,0.5,1.2,0.9,2,0.9c0.7,0,1.9-0.3,2-2.4L21.5,32.3z    M25.8,31.4c0-1.9-0.4-2.4-1.1-2.4c-0.6,0-0.8,0.7-0.9,2c0,0.2,0,0.4,0.3,0.4L25.8,31.4z"/>
	<path id="svg_11" class="st1" d="M15.8,36l-2.8-6.7l-0.7-0.2v-0.9H15v0.8l-0.8,0.1l1.8,4.7l1.9-4.7l-0.9-0.1v-0.8h4.2v0.9l-0.7,0.2   L17.6,36H15.8z"/>
	<path id="svg_12" class="st1" d="M7.1,32c-2,0-5.4,0-5.4,0l-0.3-1.1c0,0,2.5-0.1,4.5-0.1c1.8,0,5.2,0.2,5.2,0.2l0.1,1   C11.2,32,8.9,32,7.1,32z"/>
	<path id="svg_13" class="st1" d="M40.2,44.1C40,44.1,40,44,40,43.8c0.1-3,1.7-3.9,3.4-3.9c2.1,0,3.8,1.7,3.8,3.8c0,0.1,0,0.2,0,0.3   c0,2.5-1.3,3.8-3.5,3.8c-1.4,0-2.8-0.7-3.7-1.8l0.6-0.5c0.5,0.5,1.2,0.9,2,0.9c0.7,0,1.9-0.3,2-2.4H40.2z M44.6,43.2   c0-1.9-0.4-2.4-1.1-2.4s-0.8,0.7-0.9,2c0,0.2,0,0.4,0.3,0.4L44.6,43.2z"/>
	<path id="svg_14" class="st1" d="M34.7,47.7V47l1.1-0.1V42c0-0.4-0.1-0.6-0.3-0.6c-0.5,0.1-0.8,1-2.1,1c-0.5,0-0.8-1.6-0.4-2.5   c0.6-0.3,2.4,0.6,2.9,1l0.1-1l3.4,0.2V41l-1,0.5v5.3l1,0.1v0.8H34.7z"/>
	<path id="svg_15" class="st1" d="M29.9,47.8c-2.2,0-3.7-0.8-3.7-2.7c0-2.6,3.8-2.1,3.8-3.6c0-0.7-0.7-0.8-1.5-0.8   c-0.3,0-0.6,0-0.8,0.1l-0.2,1.5h-0.8l-0.1-1.8c0.7-0.4,1.5-0.6,2.3-0.6c1.3,0,3.6,0.4,3.6,2.6c0,2.9-3.8,2.3-3.8,3.7   c0,0.8,0.8,0.9,1.6,0.9c0.4,0,0.8-0.1,1.1-0.2l0.6-1.6l0.7,0.1l-0.1,2C31.8,47.6,30.8,47.8,29.9,47.8z"/>
	<path id="svg_16" class="st1" d="M23.8,47.8c-0.9-0.1-1.8-0.4-2.7-0.8c-0.1,0.6-0.4,0.8-0.7,0.8l-2.7-0.2v-0.9l0.9,0.1v-5.2   c0-1.2,0.3-1.7,1.7-1.7c2.1,0,4.8,0.8,4.8,2.3c0,0.4-1.3,0.9-2.3,0.4c-0.2-0.6-0.3-1.2-0.2-1.8c-0.7-0.2-1.5,0.3-1.5,0.7v1.8   c1.8,0,4.4,0.4,4.4,2.7C25.4,46.9,24.7,47.7,23.8,47.8z M21.8,46.5c0.6,0,1.1-0.5,1.1-1.1c0-0.7-1-1.2-1.9-1.2V46   C21.1,46.3,21.3,46.5,21.8,46.5L21.8,46.5z"/>
	<path id="svg_17" class="st1" d="M12.7,47.7V47l1.1-0.1V36.8l3.6,0.4v0.9l-1.1,0.2v8.5l1,0.1v0.8L12.7,47.7z"/>
</g>
</svg>