<svg xmlns="http://www.w3.org/2000/svg" xmlns:xlink="http://www.w3.org/1999/xlink" version="1.1" xml:space="preserve" width="124" height="29"><rect id="backgroundrect" width="100%" height="100%" x="0" y="0" fill="none" stroke="none" class=""/>
<style type="text/css">
	.st0{fill:#C7C3B4;}
</style>

<g class="currentLayer"><title>Layer 1</title><g id="svg_1" class="">
	<path class="st0" d="M0,12.692012457304 c0.4376556064853922,-2.042392830265162 1.3129668194561757,-3.9389004583685283 2.7718188410741487,-5.543637682148298 c2.9177040432359456,-3.209474447559541 6.418948895119082,-5.397752479986501 10.649619757811204,-6.418948895119082 c2.7718188410741487,-0.7294260108089867 5.543637682148298,-0.7294260108089867 8.169571321060648,0.14588520216179743 c5.981293288633689,2.1882780324269597 9.77430854484042,8.461341725384244 8.607226927546042,14.880290620503322 c-0.8753112129707843,4.960096873501109 -3.209474447559541,9.044882534031432 -7.440145310251661,11.81670137510558 c-1.1670816172943788,0.8753112129707843 -2.6259336389123513,1.3129668194561757 -3.9389004583685283,1.6047372237797708 c-0.14588520216179743,0 -0.2917704043235948,0.14588520216179743 -0.4376556064853922,0.14588520216179743 c-0.7294260108089867,0 -1.4588520216179734,0 -2.1882780324269597,0 c0,0 -0.14588520216179743,-0.14588520216179743 -0.14588520216179743,-0.14588520216179743 c-2.9177040432359456,-0.4376556064853922 -5.543637682148298,-1.6047372237797708 -7.877800916737056,-3.355359649721337 c-3.0635892453977434,-2.1882780324269597 -5.689522884310096,-4.960096873501109 -7.2942601080898655,-8.607226927546042 C0.4376556064853922,16.48502771351073 0.2917704043235948,15.609716500539946 0,14.588520085407367 C0,14.004979276760176 0,13.421438468112987 0,12.692012457304 zM4.668326469177514,15.755601702701743 c0,4.960096873501109 1.7506224259415677,7.2942601080898655 5.835408086471892,8.169571321060648 c3.6471300540449327,0.8753112129707843 7.2942601080898655,0.4376556064853922 10.941390162134798,-1.0211964151325812 c3.501244851883135,-1.4588520216179734 5.251867277824703,-4.084785660530324 4.960096873501109,-8.461341725384244 c-0.4376556064853922,-4.960096873501109 -2.9177040432359456,-8.461341725384244 -7.00248970376627,-11.087275364296596 c-2.9177040432359456,-1.8965076281033655 -5.543637682148298,-1.7506224259415677 -8.315456523222446,0.2917704043235948 C6.710719299442674,6.856604370832107 4.960096873501109,11.379045637847824 4.668326469177514,15.755601702701743 z" id="svg_2"/>
	<path class="st0" d="M124.2941922418513,8.315456392450079 C124.14830703968948,9.044882403259066 124.0024218375277,9.774308414068054 124.0024218375277,10.649619627038838 c-0.14588520216179743,2.042392830265162 -0.2917704043235948,4.084785660530324 -0.4376556064853922,5.981293288633689 c0,0.14588520216179743 -0.2917704043235948,0.5835408086471897 -0.4376556064853922,0.5835408086471897 C121.08471779429176,17.652109330805107 119.1882101661884,17.9438797351287 117.14581733592323,17.652109330805107 c-3.209474447559541,-0.5835408086471897 -4.960096873501109,-3.6471300540449327 -3.6471300540449327,-6.710719299442674 c0.8753112129707843,-2.1882780324269597 2.4800484367505544,-3.501244851883135 4.8142116713393115,-3.9389004583685283 c2.042392830265162,-0.2917704043235948 3.9389004583685283,0 5.981293288633689,0.5835408086471897 C124.2941922418513,7.731915583802892 124.2941922418513,8.023685988126488 124.2941922418513,8.315456392450079 zM120.20940658132099,10.211964020553447 c-0.8753112129707843,0.2917704043235948 -1.7506224259415677,0.4376556064853922 -2.4800484367505544,0.7294260108089867 c-0.7294260108089867,0.2917704043235948 -1.0211964151325812,1.1670816172943788 -0.8753112129707843,2.042392830265162 c0.14588520216179743,0.5835408086471897 0.7294260108089867,1.0211964151325812 1.6047372237797708,1.1670816172943788 c0.2917704043235948,0 0.7294260108089867,0 1.0211964151325812,0 c0.14588520216179743,0 0.4376556064853922,-0.2917704043235948 0.4376556064853922,-0.4376556064853922 C120.06352137915917,12.692012457304 120.06352137915917,11.67081604217142 120.20940658132099,10.211964020553447 z" id="svg_3"/>
	<path class="st0" d="M42.74436423340661,17.50622412864331 c-1.4588520216179734,0 -2.7718188410741487,0 -4.084785660530324,0 c0,-0.2917704043235948 0,-0.5835408086471897 0,-0.7294260108089867 c0.14588520216179743,-1.8965076281033655 0.2917704043235948,-3.9389004583685283 0.4376556064853922,-5.835408086471892 c0,-0.5835408086471897 -0.14588520216179743,-0.7294260108089867 -0.7294260108089867,-0.7294260108089867 C36.47130054044933,10.357849222715243 36.90895614693471,10.211964020553447 36.76307094477292,11.816701244333217 c-0.14588520216179743,1.8965076281033655 -0.2917704043235948,3.6471300540449327 -0.4376556064853922,5.543637682148298 c-1.3129668194561757,0 -2.6259336389123513,0 -4.084785660530324,0 c0.14588520216179743,-1.4588520216179734 0.14588520216179743,-2.7718188410741487 0.2917704043235948,-4.084785660530324 c0.14588520216179743,-1.6047372237797708 0.2917704043235948,-3.355359649721337 0.4376556064853922,-4.960096873501109 c0,-0.4376556064853922 0.14588520216179743,-0.7294260108089867 0.5835408086471897,-0.7294260108089867 c1.6047372237797708,-0.2917704043235948 3.355359649721337,-0.5835408086471897 4.960096873501109,-0.8753112129707843 c0.7294260108089867,-0.14588520216179743 1.4588520216179734,-0.14588520216179743 2.1882780324269597,0.14588520216179743 c1.0211964151325812,0.2917704043235948 1.8965076281033655,0.14588520216179743 2.9177040432359456,0 c1.1670816172943788,-0.14588520216179743 2.1882780324269597,-0.14588520216179743 3.355359649721337,-0.14588520216179743 c0.5835408086471897,0 1.1670816172943788,0.2917704043235948 1.6047372237797708,0.4376556064853922 c0.8753112129707843,0.4376556064853922 1.4588520216179734,1.0211964151325812 1.3129668194561757,2.1882780324269597 c-0.2917704043235948,2.4800484367505544 -0.4376556064853922,4.960096873501109 -0.5835408086471897,7.440145310251661 c0,0.2917704043235948 0,0.5835408086471897 -0.4376556064853922,0.5835408086471897 c-1.1670816172943788,0 -2.334163234588757,0 -3.6471300540449327,0 c0,-0.4376556064853922 0,-0.8753112129707843 0,-1.1670816172943788 c0.14588520216179743,-1.7506224259415677 0.2917704043235948,-3.6471300540449327 0.4376556064853922,-5.397752479986501 c0,-0.5835408086471897 -0.14588520216179743,-0.7294260108089867 -0.7294260108089867,-0.7294260108089867 C43.3279050420538,10.357849222715243 43.3279050420538,10.357849222715243 43.18201983989201,11.816701244333217 C43.03613463773021,13.713208872436583 42.8902494355684,15.609716500539946 42.74436423340661,17.50622412864331 z" id="svg_4"/>
	<path class="st0" d="M77.61092755007617,6.710719168670311 c4.230670862692122,0 6.418948895119082,2.334163234588757 6.127178490795488,5.397752479986501 c-0.2917704043235948,2.6259336389123513 -2.1882780324269597,4.8142116713393115 -4.8142116713393115,5.251867277824703 c-1.0211964151325812,0.14588520216179743 -2.042392830265162,0.14588520216179743 -3.0635892453977434,0 c-3.501244851883135,-0.5835408086471897 -4.960096873501109,-4.084785660530324 -3.355359649721337,-7.2942601080898655 C73.81791229386943,7.731915583802892 75.8603051241346,6.856604370832107 77.61092755007617,6.710719168670311 zM77.75681275223795,14.004979276760176 c1.3129668194561757,0 2.334163234588757,-0.8753112129707843 2.334163234588757,-2.042392830265162 c-0.14588520216179743,-1.0211964151325812 -1.1670816172943788,-1.6047372237797708 -2.4800484367505544,-1.4588520216179734 c-1.0211964151325812,0.14588520216179743 -1.8965076281033655,1.0211964151325812 -1.7506224259415677,2.042392830265162 C75.7144199219728,13.421438468112987 76.58973113494358,14.004979276760176 77.75681275223795,14.004979276760176 z" id="svg_5"/>
	<path class="st0" d="M96.72188903327161,7.148374775155702 c-0.14588520216179743,1.8965076281033655 -0.2917704043235948,3.6471300540449327 -0.4376556064853922,5.251867277824703 c0,0.14588520216179743 0,0.2917704043235948 0,0.4376556064853922 c-0.14588520216179743,1.4588520216179734 0.2917704043235948,1.7506224259415677 1.7506224259415677,1.3129668194561757 c0.14588520216179743,0 0.2917704043235948,-0.2917704043235948 0.2917704043235948,-0.5835408086471897 c0.14588520216179743,-1.7506224259415677 0.2917704043235948,-3.355359649721337 0.4376556064853922,-5.105982075662905 c0,-0.4376556064853922 0.14588520216179743,-0.8753112129707843 0.14588520216179743,-1.3129668194561757 c1.3129668194561757,0 2.6259336389123513,0 4.084785660530324,0 c-0.14588520216179743,1.3129668194561757 -0.14588520216179743,2.6259336389123513 -0.2917704043235948,3.79301525620673 c-0.14588520216179743,1.7506224259415677 -0.2917704043235948,3.355359649721337 -0.4376556064853922,5.105982075662905 c0,0.4376556064853922 -0.14588520216179743,0.7294260108089867 -0.7294260108089867,0.8753112129707843 c-1.6047372237797708,0.2917704043235948 -3.209474447559541,0.5835408086471897 -4.8142116713393115,0.8753112129707843 c-1.1670816172943788,0.14588520216179743 -2.334163234588757,0 -3.501244851883135,-0.4376556064853922 c-1.1670816172943788,-0.5835408086471897 -1.4588520216179734,-1.0211964151325812 -1.3129668194561757,-2.334163234588757 c0.14588520216179743,-2.1882780324269597 0.2917704043235948,-4.522441267015716 0.4376556064853922,-6.710719299442674 c0,-0.2917704043235948 0.14588520216179743,-0.5835408086471897 0.4376556064853922,-0.7294260108089867 C94.24184059652106,7.4401451794792965 95.40892221381544,7.294259977317501 96.72188903327161,7.148374775155702 z" id="svg_6"/>
	<path class="st0" d="M103.1408379283907,17.50622412864331 c0.2917704043235948,-1.1670816172943788 0.4376556064853922,-2.1882780324269597 0.7294260108089867,-3.209474447559541 c1.6047372237797708,0 3.0635892453977434,0 4.522441267015716,0 c0,0 0,-0.14588520216179743 0,-0.14588520216179743 c-0.4376556064853922,-0.14588520216179743 -0.7294260108089867,-0.2917704043235948 -1.1670816172943788,-0.4376556064853922 C106.49619757811203,13.421438468112987 105.76677156730304,13.129668063789394 105.03734555649406,12.692012457304 c-1.8965076281033655,-1.1670816172943788 -1.8965076281033655,-3.6471300540449327 0,-4.8142116713393115 c0.8753112129707843,-0.5835408086471897 1.8965076281033655,-0.7294260108089867 2.9177040432359456,-1.0211964151325812 c1.4588520216179734,-0.2917704043235948 3.0635892453977434,-0.14588520216179743 4.668326469177514,0.2917704043235948 c-0.2917704043235948,1.0211964151325812 -0.7294260108089867,2.042392830265162 -1.0211964151325812,3.0635892453977434 c0,0.14588520216179743 -0.4376556064853922,0.2917704043235948 -0.5835408086471897,0.2917704043235948 c-0.8753112129707843,0 -1.6047372237797708,-0.14588520216179743 -2.4800484367505544,0 c0.7294260108089867,0.2917704043235948 1.4588520216179734,0.5835408086471897 2.1882780324269597,0.8753112129707843 c1.1670816172943788,0.5835408086471897 1.7506224259415677,1.4588520216179734 1.8965076281033655,2.9177040432359456 c0,1.3129668194561757 -0.4376556064853922,2.334163234588757 -1.7506224259415677,2.9177040432359456 c-1.0211964151325812,0.4376556064853922 -2.042392830265162,0.7294260108089867 -3.209474447559541,0.7294260108089867 c-1.1670816172943788,0.14588520216179743 -2.4800484367505544,0 -3.6471300540449327,0 C103.87026393919969,17.652109330805107 103.57849353487609,17.50622412864331 103.1408379283907,17.50622412864331 z" id="svg_7"/>
	<path class="st0" d="M84.02987644519524,17.50622412864331 c0.14588520216179743,-1.1670816172943788 0.14588520216179743,-2.334163234588757 0.2917704043235948,-3.501244851883135 c0.2917704043235948,-3.0635892453977434 0.4376556064853922,-5.981293288633689 0.7294260108089867,-9.044882534031432 c0,-0.7294260108089867 0.14588520216179743,-1.1670816172943788 1.0211964151325812,-1.1670816172943788 c1.8965076281033655,-0.2917704043235948 3.79301525620673,-0.5835408086471897 5.835408086471892,-0.8753112129707843 c-0.14588520216179743,1.3129668194561757 -0.14588520216179743,2.4800484367505544 -0.2917704043235948,3.501244851883135 c0,0.14588520216179743 -0.2917704043235948,0.2917704043235948 -0.4376556064853922,0.2917704043235948 c-0.4376556064853922,0 -0.8753112129707843,0.14588520216179743 -1.3129668194561757,0 c-0.5835408086471897,0 -0.8753112129707843,0.14588520216179743 -0.8753112129707843,0.8753112129707843 c0,0.2917704043235948 0,0.5835408086471897 0,1.0211964151325812 c0.8753112129707843,0 1.6047372237797708,0 2.4800484367505544,0 c-0.14588520216179743,1.1670816172943788 -0.14588520216179743,2.334163234588757 -0.2917704043235948,3.6471300540449327 c-0.8753112129707843,0 -1.6047372237797708,0 -2.4800484367505544,0 c0,0.8753112129707843 -0.14588520216179743,1.6047372237797708 -0.14588520216179743,2.4800484367505544 c0,0.7294260108089867 -0.14588520216179743,1.4588520216179734 -0.14588520216179743,2.334163234588757 c0,0.14588520216179743 -0.2917704043235948,0.5835408086471897 -0.4376556064853922,0.5835408086471897 C86.50992488194579,17.50622412864331 85.34284326465142,17.50622412864331 84.02987644519524,17.50622412864331 z" id="svg_8"/>
	<path class="st0" d="M63.75183334470543,10.649619627038838 c-0.8753112129707843,0 -1.6047372237797708,-0.14588520216179743 -2.334163234588757,-0.14588520216179743 c-0.5835408086471897,0 -1.1670816172943788,0.4376556064853922 -1.4588520216179734,1.0211964151325812 c-0.5835408086471897,1.0211964151325812 -0.14588520216179743,2.042392830265162 0.8753112129707843,2.334163234588757 c0.8753112129707843,0.2917704043235948 1.7506224259415677,0.14588520216179743 2.6259336389123513,-0.4376556064853922 c0,0.2917704043235948 0,0.4376556064853922 0,0.5835408086471897 c0,0.7294260108089867 -0.14588520216179743,1.6047372237797708 -0.14588520216179743,2.334163234588757 c-0.14588520216179743,1.1670816172943788 -0.14588520216179743,1.1670816172943788 -1.1670816172943788,1.1670816172943788 c-1.1670816172943788,0.14588520216179743 -2.334163234588757,0 -3.501244851883135,-0.5835408086471897 c-1.8965076281033655,-0.8753112129707843 -3.0635892453977434,-2.9177040432359456 -2.6259336389123513,-5.105982075662905 c0.5835408086471897,-3.355359649721337 3.355359649721337,-5.689522884310096 7.58603051241346,-5.105982075662905 c0.14588520216179743,0 0.4376556064853922,0.2917704043235948 0.4376556064853922,0.5835408086471897 C64.04360374902902,8.461341594611879 63.89771854686722,9.628423211906258 63.75183334470543,10.649619627038838 z" id="svg_9"/>
	<path class="st0" d="M64.773029759838,17.50622412864331 c0.2917704043235948,-3.501244851883135 0.5835408086471897,-6.856604501604474 0.7294260108089867,-10.21196415132581 c2.1882780324269597,-0.14588520216179743 4.3765560648539195,-0.2917704043235948 6.710719299442674,-0.4376556064853922 c-0.14588520216179743,1.1670816172943788 -0.14588520216179743,2.334163234588757 -0.2917704043235948,3.6471300540449327 c-0.5835408086471897,0 -1.1670816172943788,0.14588520216179743 -1.7506224259415677,0.14588520216179743 c-0.7294260108089867,0 -0.8753112129707843,0.2917704043235948 -0.8753112129707843,0.8753112129707843 c-0.14588520216179743,1.8965076281033655 -0.2917704043235948,3.6471300540449327 -0.4376556064853922,5.543637682148298 c0,0.14588520216179743 0,0.2917704043235948 0,0.4376556064853922 C67.54484860091215,17.50622412864331 66.23188178145597,17.50622412864331 64.773029759838,17.50622412864331 z" id="svg_10"/>
	<path class="st0" d="M55.43637682148297,7.002489572993905 c-0.14588520216179743,1.6047372237797708 -0.2917704043235948,3.209474447559541 -0.2917704043235948,4.668326469177514 c-0.14588520216179743,1.7506224259415677 -0.2917704043235948,3.501244851883135 -0.4376556064853922,5.251867277824703 c0,0.4376556064853922 -0.14588520216179743,0.5835408086471897 -0.5835408086471897,0.5835408086471897 c-1.1670816172943788,0 -2.1882780324269597,0 -3.501244851883135,0 c0,-1.0211964151325812 0.14588520216179743,-2.042392830265162 0.14588520216179743,-2.9177040432359456 c0.14588520216179743,-2.042392830265162 0.2917704043235948,-4.084785660530324 0.4376556064853922,-5.981293288633689 c0,-0.5835408086471897 0.2917704043235948,-0.7294260108089867 0.7294260108089867,-0.8753112129707843 C52.95632838473241,7.4401451794792965 54.1234100020268,7.294259977317501 55.43637682148297,7.002489572993905 z" id="svg_11"/>
	<path class="st0" d="M15.755601833474111,18.965076150261282 c-1.1670816172943788,0 -1.7506224259415677,-0.5835408086471897 -1.6047372237797708,-1.6047372237797708 c0.14588520216179743,-1.8965076281033655 0.4376556064853922,-3.9389004583685283 0.5835408086471897,-5.835408086471892 c0.14588520216179743,-1.4588520216179734 0.14588520216179743,-2.7718188410741487 0.2917704043235948,-4.230670862692122 c0.14588520216179743,-1.8965076281033655 1.3129668194561757,-2.6259336389123513 2.9177040432359456,-1.6047372237797708 c1.7506224259415677,1.1670816172943788 3.355359649721337,2.334163234588757 4.960096873501109,3.6471300540449327 c0.4376556064853922,0.2917704043235948 0.7294260108089867,0.7294260108089867 1.0211964151325812,1.1670816172943788 c0.4376556064853922,0.7294260108089867 0.2917704043235948,1.3129668194561757 -0.2917704043235948,1.8965076281033655 c-2.042392830265162,2.1882780324269597 -4.230670862692122,4.3765560648539195 -6.856604501604474,6.127178490795488 C16.485027844283096,18.67330574593769 16.047372237797703,18.81919094809949 15.755601833474111,18.965076150261282 z" id="svg_12"/>
</g></g></svg>