<?xml version="1.0" encoding="UTF-8" standalone="no"?>
<svg width="51px" height="36px" viewBox="0 0 51 36" version="1.1" xmlns="http://www.w3.org/2000/svg" xmlns:xlink="http://www.w3.org/1999/xlink">
    <defs></defs>
    <g id="Page-1" stroke="none" stroke-width="1" fill="none" fill-rule="evenodd">
        <g id="Artboard" transform="translate(-428.000000, -1748.000000)" fill="#C7C3B4">
            <g id="tiu" transform="translate(428.000000, 1748.000000)">
                <path d="M9.6418,20.293 C9.6398,25.049 9.6418,29.803 9.6398,34.559 C9.6398,35.673 9.4018,35.921 8.3138,35.925 C7.7058,35.929 7.0978,35.929 6.4898,35.927 C5.3798,35.921 5.1718,35.705 5.1718,34.561 L5.1718,22.673 C5.1718,17.125 5.1718,11.577 5.1698,6.029 C5.1698,4.777 4.9418,4.553 3.6958,4.547 C3.0338,4.545 2.3738,4.545 1.7138,4.543 C1.0398,4.541 0.6738,4.213 0.6658,3.531 C0.6558,2.711 0.6558,1.893 0.6658,1.073 C0.6758,0.441 1.0018,0.079 1.6438,0.079 C5.4738,0.071 9.3058,0.071 13.1358,0.077 C13.7738,0.077 14.1138,0.417 14.1158,1.063 C14.1198,1.907 14.1258,2.753 14.1118,3.599 C14.1018,4.203 13.7718,4.525 13.1698,4.537 C12.4038,4.551 11.6378,4.537 10.8718,4.547 C9.9498,4.557 9.6458,4.855 9.6458,5.789 C9.6398,10.623 9.6438,15.459 9.6418,20.293" id="Fill-31"></path>
                <path d="M23.5006,24.6586 C23.5006,21.3826 23.4986,18.1046 23.5026,14.8286 C23.5026,13.7846 23.7706,13.5266 24.8166,13.5286 C26.4806,13.5286 28.1466,13.5246 29.8106,13.5306 C30.7806,13.5366 31.0186,13.7786 31.0186,14.7626 C31.0206,21.3946 31.0206,28.0266 31.0186,34.6606 C31.0186,35.6706 30.7666,35.9206 29.7546,35.9246 C28.0626,35.9306 26.3726,35.9346 24.6806,35.9246 C23.7886,35.9206 23.5086,35.6326 23.5066,34.7266 C23.5006,31.3706 23.5046,28.0146 23.5046,24.6586 L23.5006,24.6586 Z" id="Fill-33"></path>
                <path d="M50.54,18.6304 C50.54,23.2524 50.548,27.8764 50.536,32.4984 C50.53,34.0224 49.66,35.2424 48.296,35.7304 C46.996,36.1944 45.536,35.8104 44.62,34.7564 C44.018,34.0644 43.798,33.2424 43.8,32.3384 C43.804,23.1464 43.8,13.9544 43.804,4.7604 C43.804,3.8064 44.08,3.5064 44.916,3.5044 C45.762,3.5024 46.034,3.7884 46.034,4.7544 C46.036,13.5504 46.034,22.3464 46.034,31.1424 C46.034,32.2584 46.474,32.7124 47.4,32.5664 C47.938,32.4824 48.266,32.1864 48.288,31.6224 C48.306,31.1744 48.304,30.7244 48.304,30.2764 C48.306,21.7964 48.306,13.3184 48.308,4.8384 C48.308,3.8044 48.564,3.5044 49.418,3.5064 C50.204,3.5084 50.528,3.8044 50.534,4.6044 C50.548,6.5584 50.54,8.5144 50.54,10.4684 L50.54,18.6304" id="Fill-35"></path>
            </g>
        </g>
    </g>
</svg>